<svg width="57" height="50" viewBox="0 0 57 50" fill="none" xmlns="http://www.w3.org/2000/svg">
<g clip-path="url(#clip0_1414_4500)">
<path d="M38.3771 0C38.7515 0.244093 39.0598 0.517477 38.8726 0.976372C38.6854 1.4255 38.2669 1.47432 37.7934 1.47432C28.4332 1.47432 19.0729 1.46456 9.7237 1.47432C6.08973 1.47432 3.09445 3.62234 2.32361 6.74673C2.21349 7.20562 2.15842 7.68405 2.15842 8.15271C2.14741 19.381 2.14741 30.5995 2.15842 41.8278C2.15842 45.577 5.46204 48.5257 9.69067 48.5354C22.3545 48.5452 35.0074 48.5452 47.6712 48.5354C51.8998 48.5354 55.2255 45.5966 55.2255 41.8473C55.2365 30.619 55.2365 19.4005 55.2255 8.17223C55.2255 4.42296 51.9109 1.49385 47.6822 1.47432C45.8873 1.46456 44.0813 1.46456 42.2863 1.47432C41.8238 1.47432 41.3944 1.43527 41.2072 0.986136C41.0089 0.527241 41.3283 0.253857 41.6917 0.00976372C44.0372 0.00976372 46.3938 0.00976372 48.7394 0.00976372C48.8385 0.0390549 48.9376 0.0878735 49.0477 0.0976372C53.5186 0.673697 56.8773 4.04218 56.8883 8.05507C56.9103 19.3615 56.9103 30.6678 56.8883 41.9742C56.8773 46.3874 52.8138 49.9902 47.8364 50C35.0845 50.0195 22.3325 50.0195 9.58055 50C5.45103 50 1.88312 47.5005 0.814955 43.9563C0.693822 43.5657 0.605726 43.1752 0.506618 42.7846C0.495605 30.9217 0.495605 19.0685 0.495605 7.22515C0.528642 7.13728 0.583702 7.0494 0.594714 6.95177C1.1343 3.68092 3.85428 1.01543 7.47724 0.234329C7.86267 0.146456 8.2591 0.0781098 8.64452 0C18.5554 0 28.4662 0 38.3771 0Z" fill="#B3686F"/>
<path d="M28.6865 47.0611C22.3877 47.0611 16.0998 47.0611 9.80088 47.0611C6.94876 47.0611 4.58117 45.5185 4.01956 43.1068C3.74426 41.9449 3.84336 40.7147 3.83235 39.5138C3.83235 39.1135 4.20676 38.8889 4.66927 38.8987C5.10975 38.8987 5.4291 39.2111 5.44011 39.6407C5.46214 40.3242 5.44011 41.0076 5.45112 41.6911C5.46214 43.9953 7.24609 45.5868 9.84493 45.5868C22.3987 45.5868 34.9524 45.5868 47.5061 45.5868C50.138 45.5868 51.922 43.9953 51.922 41.6618C51.922 30.5507 51.922 19.4298 51.922 8.3187C51.922 5.9754 50.138 4.39368 47.5061 4.39368C34.9524 4.39368 22.3987 4.39368 9.84493 4.39368C7.24609 4.39368 5.45112 5.98517 5.45112 8.2894C5.45112 17.4478 5.45112 26.6159 5.45112 35.7743C5.45112 36.5261 5.19785 36.8776 4.64724 36.8971C4.07462 36.9069 3.79932 36.5456 3.79932 35.7645C3.79932 26.6061 3.79932 17.438 3.79932 8.27964C3.79932 5.72155 5.56124 3.68093 8.28122 3.09511C8.78777 2.98771 9.33838 2.93889 9.85594 2.93889C22.4097 2.92912 34.9634 2.92912 47.5171 2.92912C51.03 2.92912 53.5738 5.16501 53.5738 8.26988C53.5848 19.42 53.5848 30.5604 53.5738 41.7106C53.5738 44.8155 51.03 47.0514 47.5171 47.0514C41.2403 47.0611 34.9634 47.0611 28.6865 47.0611Z" fill="#B3686F"/>
<path d="M16.6502 6.51239C21.4735 6.53192 25.3938 10.0566 25.3828 14.3624C25.3718 18.5218 21.3083 22.0758 16.5731 22.066C11.7609 22.0465 7.84057 18.5218 7.85159 14.2062C7.8626 10.0273 11.904 6.49287 16.6502 6.51239ZM10.7698 18.0043C14.3487 15.1142 17.7845 12.3316 21.3303 9.4708C20.5925 9.09978 19.9318 8.75805 19.2601 8.45537C19.1499 8.40656 18.9077 8.48467 18.7976 8.57254C15.8463 10.9451 12.9061 13.3177 9.97691 15.7001C9.8778 15.7879 9.78971 15.993 9.83375 16.1004C10.1091 16.7155 10.4284 17.3111 10.7698 18.0043ZM11.9371 19.049C12.3996 19.3224 12.763 19.5567 13.1594 19.7618C14.1174 20.2499 14.1174 20.2402 14.9103 19.5958C15.0755 19.4591 15.2407 19.3322 15.3948 19.2052C17.9717 17.1256 20.5485 15.0459 23.1143 12.9564C23.2574 12.8393 23.4336 12.5757 23.3786 12.4585C23.1143 11.8336 22.7839 11.2283 22.4425 10.5546C18.8967 13.4251 15.4609 16.2078 11.9371 19.049ZM17.0136 8.02577C12.9392 7.75239 9.50339 10.8475 9.56946 14.0402C12.0582 12.0387 14.4919 10.0664 17.0136 8.02577ZM16.1987 20.5429C20.5375 20.7772 23.7199 17.5259 23.6539 14.5186C21.1652 16.5202 18.7205 18.4925 16.1987 20.5429Z" fill="#B3686F"/>
<path d="M27.8605 24.2726C27.8605 24.009 27.8605 23.7942 27.8605 23.5891C27.8605 18.9807 27.8605 14.382 27.8605 9.77348C27.8605 8.98262 28.1248 8.64089 28.7085 8.65065C29.2701 8.66042 29.5123 8.99239 29.5123 9.76372C29.5123 14.3722 29.5123 18.9709 29.5123 23.5794C29.5123 23.7844 29.5123 23.9992 29.5123 24.2628C29.8097 24.2628 30.0519 24.2628 30.2832 24.2628C35.4809 24.2628 40.6676 24.2628 45.8652 24.2628C46.7462 24.2628 47.1096 24.4679 47.1206 24.9756C47.1316 25.4931 46.7462 25.7274 45.8542 25.7274C40.6786 25.7274 35.5029 25.7274 30.3272 25.7274C30.096 25.7274 29.8537 25.7274 29.5234 25.7274C29.5234 25.9617 29.5234 26.1668 29.5234 26.3718C29.5234 30.9608 29.5234 35.5497 29.5234 40.1386C29.5234 40.3534 29.5234 40.5682 29.4793 40.7733C29.4022 41.1443 29.1159 41.3298 28.6975 41.3298C28.279 41.3298 27.9927 41.1443 27.9156 40.7733C27.8716 40.5682 27.8716 40.3534 27.8716 40.1386C27.8716 35.5692 27.8716 30.99 27.8716 26.4206C27.8716 26.2156 27.8716 26.0008 27.8716 25.7274C27.5852 25.7274 27.354 25.7274 27.1227 25.7274C21.9691 25.7274 16.8044 25.7274 11.6508 25.7274C11.4085 25.7274 11.1663 25.7274 10.935 25.6981C10.4945 25.6298 10.2633 25.3661 10.2743 24.9756C10.2853 24.585 10.5276 24.341 10.9681 24.2824C11.1663 24.2531 11.3755 24.2628 11.5737 24.2628C16.7714 24.2628 21.9581 24.2628 27.1558 24.2628C27.365 24.2726 27.5742 24.2726 27.8605 24.2726Z" fill="#B3686F"/>
<path d="M37.0115 6.81508C37.8924 6.79555 38.8505 7.02012 39.7314 7.44972C40.0178 7.58641 40.227 7.60594 40.5243 7.45948C44.3235 5.68249 48.7723 7.79145 49.2789 11.5798C49.6093 14.0012 48.6182 16.0125 46.8783 17.7895C45.3035 19.4005 43.3434 20.5624 41.2181 21.5192C40.5463 21.8219 39.8195 21.8707 39.1478 21.5681C36.5049 20.3769 34.0933 18.9221 32.4194 16.6764C30.9659 14.7335 30.4373 12.6343 31.3182 10.3691C32.1772 8.21129 34.3796 6.82484 37.0115 6.81508ZM36.8683 8.27964C35.0513 8.26011 33.4986 9.27554 32.8819 10.9158C32.1882 12.7514 32.7058 14.421 33.884 15.9539C35.3707 17.8774 37.474 19.1369 39.7645 20.1718C39.9957 20.2792 40.4472 20.2304 40.6785 20.0937C41.8788 19.4396 43.1121 18.8147 44.2023 18.0336C46.0303 16.7253 47.4509 15.1338 47.6601 12.9565C47.8253 11.2576 47.2417 9.77348 45.5678 8.81664C43.9491 7.89885 42.3083 8.14294 40.7556 9.02168C40.3041 9.27554 39.9297 9.27554 39.4892 9.01191C38.7073 8.54326 37.8264 8.27964 36.8683 8.27964Z" fill="#B3686F"/>
<path d="M42.1213 42.4624C39.148 42.3648 36.4721 40.8416 34.4128 38.3812C33.1244 36.8483 32.3426 35.1299 32.3205 33.1869C32.2875 29.4767 35.8114 26.7135 39.9739 27.1627C44.588 27.6704 48.8386 31.3318 49.5324 35.4228C50.1931 39.2892 47.1097 42.4722 42.1213 42.4624ZM42.3195 41.0369C45.8103 41.0271 48.0017 39.0451 47.9466 36.321C47.8806 32.6206 43.663 28.7932 39.4894 28.637C36.3179 28.5198 34.0054 30.3554 33.9393 33.0892C33.8953 35.208 34.9634 36.9166 36.5492 38.4007C38.245 39.9434 40.2382 40.9588 42.3195 41.0369Z" fill="#B3686F"/>
<path d="M20.108 27.8071C22.0131 27.9047 23.8851 28.803 24.8762 30.7752C25.8563 32.7377 25.5039 34.6319 23.8521 36.2039C22.0792 37.893 20.2291 39.5235 18.3351 41.1052C16.1216 42.9604 12.6418 42.8432 10.4835 40.9197C8.35814 39.0353 8.27004 35.9695 10.3733 34.007C12.1793 32.3179 14.0514 30.6971 15.9344 29.0763C16.9365 28.1976 18.2029 27.7875 20.108 27.8071ZM10.5055 37.6294C10.5716 38.8791 11.3094 40.0117 12.8731 40.6268C14.4588 41.2517 15.9895 41.0564 17.2559 39.9824C19.0839 38.43 20.8678 36.8385 22.6298 35.2275C24.1384 33.841 24.0613 31.654 22.5417 30.2968C21 28.9299 18.5112 28.8713 16.9365 30.2285C15.1416 31.7711 13.3906 33.3431 11.6397 34.9151C10.8909 35.5985 10.5165 36.4284 10.5055 37.6294Z" fill="#B3686F"/>
<path d="M45.3366 34.4757C45.3476 35.1982 45.0944 35.6864 44.6429 36.0965C44.1583 36.5358 43.6628 36.9752 43.1673 37.4146C43.0461 37.522 42.892 37.6098 42.8369 37.7368C42.7488 37.9418 42.7378 38.1761 42.6827 38.4007C42.947 38.3616 43.2554 38.3909 43.4646 38.264C43.7949 38.0687 44.0372 37.7661 44.3345 37.522C44.72 37.2095 45.1825 37.19 45.5238 37.4731C45.8652 37.7563 45.8652 38.2054 45.5018 38.5569C45.2045 38.8401 44.8961 39.1232 44.5658 39.3771C43.9161 39.8848 43.1562 40.0898 42.3193 39.8653C40.8547 39.4747 40.4803 37.8539 41.5925 36.7506C42.1211 36.2332 42.7047 35.7547 43.2554 35.2568C43.3985 35.1299 43.5637 34.9932 43.6188 34.8369C43.6738 34.6905 43.6628 34.4464 43.5637 34.3585C43.4646 34.2706 43.1893 34.2902 43.0241 34.339C42.8479 34.3976 42.6937 34.544 42.5506 34.671C42 35.1494 41.4714 35.6473 40.8988 36.1062C39.9848 36.8385 38.7735 36.8873 37.9365 36.2722C36.9344 35.5204 36.8353 34.2706 37.7493 33.3724C38.2228 32.9037 38.7514 32.4644 39.258 32.0152C39.3571 31.9274 39.4782 31.8395 39.5663 31.7321C39.8086 31.4782 40.0729 31.2048 39.6985 30.8826C39.3571 30.5897 39.0488 30.8045 38.7845 31.0193C38.5092 31.2341 38.2779 31.4978 37.9916 31.7028C37.8154 31.8297 37.5841 31.9566 37.3749 31.9762C36.7693 32.025 36.2847 31.3513 36.6481 30.9217C37.1877 30.2968 37.7824 29.6719 38.6743 29.3986C39.6434 29.1056 40.6014 29.4181 41.1851 30.1699C41.7027 30.8436 41.6476 31.82 40.9648 32.5327C40.4693 33.0502 39.8967 33.5188 39.3571 34.007C39.2139 34.134 39.0047 34.2511 38.9607 34.3976C38.8946 34.6124 38.9386 34.8662 38.9386 35.1006C39.2029 35.0908 39.4782 35.1299 39.7205 35.0615C39.8967 35.0127 40.0178 34.8369 40.161 34.71C40.7116 34.2316 41.2291 33.7141 41.8238 33.2845C43.0902 32.3667 44.786 32.7573 45.2265 34.0363C45.3036 34.2218 45.3256 34.4171 45.3366 34.4757Z" fill="#B3686F"/>
</g>
<defs>
<clipPath id="clip0_1414_4500">
<rect width="56.3927" height="50" fill="white" transform="translate(0.495605)"/>
</clipPath>
</defs>
</svg>
