<svg width="57" height="50" viewBox="0 0 57 50" fill="none" xmlns="http://www.w3.org/2000/svg">
<g clip-path="url(#clip0_1414_4492)">
<path d="M12.6952 50C12.6842 49.8046 12.6512 49.6091 12.6512 49.4235C12.6512 39.3101 12.6512 29.1968 12.6401 19.0932C12.6401 18.6926 12.7613 18.3799 13.0256 18.0672C13.8076 17.1487 14.5566 16.2009 15.3386 15.2335C15.8012 15.5364 16.2198 15.8003 16.6713 16.0934C15.9444 16.9826 15.2395 17.8327 14.5676 18.7024C14.4244 18.888 14.3143 19.1421 14.3143 19.3668C14.3033 28.9721 14.3033 38.5773 14.3033 48.1825C14.3033 48.2802 14.3143 48.378 14.3253 48.505C23.6653 48.505 32.9944 48.505 42.3675 48.505C42.3675 45.7397 42.3675 42.9939 42.3675 40.2189C42.9292 40.2189 43.4248 40.2189 44.0196 40.2189C44.0196 40.4045 44.0196 40.6 44.0196 40.7856C44.0196 43.6682 44.0196 46.5507 44.0196 49.4333C44.0196 49.6287 44.0526 49.8143 44.0747 50.0098C33.6222 50 23.1587 50 12.6952 50Z" fill="#B3686F"/>
<path d="M15.8229 7.2308C15.3273 6.20481 15.2281 5.17882 15.4815 4.13328C15.9 2.42329 17.486 1.28982 19.6558 1.02599C21.5723 0.801251 23.2905 1.2605 24.9206 2.07153C25.8128 2.52101 26.6609 3.03889 27.5861 3.55677C27.5861 2.37444 27.5861 1.20188 27.5861 0C28.1588 0 28.6655 0 29.2492 0C29.2492 1.16279 29.2492 2.34512 29.2492 3.64471C29.5135 3.46883 29.6788 3.37112 29.833 3.2734C31.3529 2.31581 32.9169 1.45593 34.7673 1.09439C36.1661 0.820793 37.5539 0.93805 38.8646 1.43639C41.1005 2.27672 42.1138 4.52414 41.2767 6.73246C41.2216 6.8888 41.1556 7.03537 41.0785 7.2308C43.3033 8.48153 45.3299 9.94723 47.1913 11.6572C46.7948 11.9797 46.3983 12.2826 45.9798 12.6148C45.4731 12.1946 44.9444 11.6963 44.3497 11.2761C43.05 10.3576 41.7063 9.46844 40.3735 8.58902C40.2414 8.50107 39.944 8.47176 39.8118 8.54993C37.7191 9.70295 35.5273 9.77135 33.3355 8.92124C32.0248 8.41313 30.8352 7.65097 29.5906 6.99629C29.5356 6.96697 29.4695 6.92789 29.3373 6.86926C29.3373 8.12976 29.3373 9.35118 29.3373 10.6117C29.5466 10.6117 29.7448 10.6117 29.9431 10.6117C32.3662 10.6117 34.7893 10.6215 37.2125 10.6019C37.5649 10.6019 37.7742 10.6996 37.9724 10.9537C39.933 13.377 41.9045 15.7807 43.865 18.204C44.0192 18.3995 44.1294 18.6731 44.1294 18.9173C44.1404 25.3371 44.1404 31.7471 44.1404 38.1669C44.1404 38.3135 44.1184 38.4503 44.1074 38.6261C43.5677 38.6261 43.072 38.6261 42.4883 38.6261C42.4883 38.4112 42.4883 38.1962 42.4883 37.991C42.4883 31.8546 42.4883 25.7182 42.4993 19.572C42.4993 19.1714 42.3781 18.8587 42.1138 18.546C40.4396 16.5234 38.7875 14.4909 37.1464 12.4585C36.9371 12.1946 36.7168 12.0774 36.3423 12.0872C34.1726 12.1067 32.0138 12.0969 29.844 12.0969C29.6788 12.0969 29.5246 12.0969 29.2822 12.0969C29.2822 12.693 29.2602 13.2597 29.3043 13.8167C29.3153 13.9339 29.5686 14.0805 29.7448 14.1391C31.1547 14.6668 31.9917 15.5951 32.1129 16.9533C32.2341 18.2236 31.6613 19.2593 30.4608 19.9531C29.1941 20.6859 27.8614 20.7153 26.5617 20.0215C25.2841 19.3473 24.6783 18.3017 24.7774 16.9924C24.8766 15.6537 25.6806 14.6961 27.0684 14.1978C27.542 14.0317 27.6632 13.8265 27.6301 13.4258C27.5971 13.0057 27.6191 12.5855 27.6191 12.136C27.4098 12.1262 27.2556 12.1067 27.1014 12.1067C24.8986 12.1067 22.6958 12.1165 20.4929 12.0969C20.1625 12.0969 19.9642 12.1849 19.766 12.4194C19.1161 13.2402 18.4443 14.0512 17.7504 14.9111C17.2988 14.6179 16.8692 14.3541 16.4066 14.061C17.3098 12.947 18.1799 11.8624 19.0831 10.8071C19.1822 10.6899 19.4686 10.6508 19.6669 10.6508C22.09 10.641 24.5131 10.641 26.9362 10.641C27.1345 10.641 27.3327 10.641 27.5861 10.641C27.5861 9.39027 27.5861 8.16885 27.5861 6.87903C26.9472 7.26011 26.3745 7.63142 25.7687 7.95388C24.0725 8.88216 22.3103 9.60524 20.2506 9.46844C19.1382 9.40004 18.0698 9.1753 17.1556 8.57925C16.8692 8.39359 16.693 8.50107 16.4727 8.6281C14.6444 9.62478 12.9922 10.8364 11.4503 12.1751C11.263 12.3314 11.1088 12.5171 10.9106 12.7223C10.481 12.351 10.0955 12.0383 9.68799 11.6768C11.5384 9.97655 13.543 8.50107 15.8229 7.2308ZM17.3208 6.46863C19.9422 5.25699 22.7068 4.45574 25.7026 4.25054C24.8656 3.76197 24.0395 3.33203 23.1694 2.96072C22.0679 2.49169 20.9115 2.3549 19.6889 2.52101C17.475 2.80438 16.2855 4.71956 17.3208 6.46863ZM31.2097 4.21145C32.6636 4.47528 34.1175 4.64139 35.5053 5.00293C36.9151 5.37424 38.2588 5.92144 39.6246 6.40023C40.3846 4.74888 39.5915 3.08775 37.7852 2.62849C35.2189 1.98358 33.1813 3.02912 31.2097 4.21145ZM28.4892 15.3996C27.3437 15.3801 26.4186 16.1814 26.4075 17.1878C26.3965 18.1747 27.2887 18.9955 28.4011 19.015C29.5356 19.0346 30.4828 18.2236 30.4938 17.2171C30.5048 16.24 29.6017 15.4192 28.4892 15.3996ZM38.3139 7.58257C36.1881 6.45886 31.8486 5.53058 30.7141 5.9019C33.3465 7.81708 36.4415 8.52062 38.3139 7.58257ZM18.5324 7.5728C20.548 8.54016 24.2928 7.67051 26.2203 5.79441C23.4668 5.82372 20.9886 6.48818 18.5324 7.5728Z" fill="#B3686F"/>
<path d="M27.498 36.9064C27.498 36.027 27.509 35.2941 27.487 34.5515C27.487 34.4538 27.2997 34.3072 27.1896 34.2877C23.9845 33.8284 22.079 31.2097 23.1143 27.819C23.5769 26.3045 24.4471 24.9951 25.945 24.0962C27.487 23.1679 29.2603 23.1874 30.7912 24.1157C33.1262 25.5228 34.4259 28.7473 33.5999 31.1413C33.0051 32.8708 31.6283 33.8773 29.6568 34.2388C29.2603 34.3072 29.1391 34.4342 29.1611 34.7762C29.1942 35.3918 29.1721 36.0074 29.1721 36.7501C32.19 34.0532 35.6375 33.7796 39.4814 34.8446C37.3006 38.5871 34.0625 40.512 29.1832 39.8964C29.1832 40.5804 29.1832 41.2058 29.1832 41.8605C28.6104 41.8605 28.1148 41.8605 27.542 41.8605C27.542 41.2351 27.542 40.6097 27.542 39.9062C22.6077 40.5804 19.3034 38.6848 17.1006 34.9033C18.951 34.317 20.7903 34.1509 22.6738 34.444C24.5352 34.7372 26.0661 35.6068 27.498 36.9064ZM24.8215 27.7018C24.7004 28.2099 24.5792 28.6007 24.5131 29.0014C24.2158 30.8482 25.196 32.3139 27.0684 32.7438C27.6081 32.8708 28.1919 32.8611 28.7536 32.8904C29.5687 32.9295 29.8991 32.4213 30.1524 31.8546C30.4057 31.2976 30.2846 30.7602 29.7559 30.3987C29.2933 30.086 28.7756 29.8319 28.2249 29.6561C26.9693 29.2652 25.7908 28.7669 24.8215 27.7018ZM29.811 38.4307C32.179 38.9975 35.5604 37.737 36.7719 35.8511C34.503 35.255 30.9785 36.5546 29.811 38.4307ZM26.6719 38.46C25.7357 36.6719 21.6935 35.1866 19.733 35.9195C21.4071 37.9519 24.4691 39.0756 26.6719 38.46ZM28.3681 28.1122C30.7582 28.9427 31.1106 29.2066 31.9257 30.7993C32.5535 29.617 31.9587 27.5748 31.1547 26.5878C31.0886 26.5097 30.8573 26.4999 30.7251 26.5292C29.7118 26.7637 29.029 27.3696 28.3681 28.1122ZM26.749 27.3598C27.7073 26.6172 28.6104 25.9039 29.5026 25.2101C28.7977 24.7508 27.8394 24.7606 26.9032 25.298C25.6035 26.0211 25.5815 26.5683 26.749 27.3598Z" fill="#B3686F"/>
<path d="M24.1606 45.3684C24.1606 44.8993 24.1606 44.4499 24.1606 43.9711C24.7003 43.9711 25.218 43.9711 25.7577 43.9711C25.7577 44.4303 25.7577 44.8798 25.7577 45.3684C25.2621 45.3684 24.7444 45.3684 24.1606 45.3684Z" fill="#B3686F"/>
<path d="M27.4648 45.3782C27.4648 44.8994 27.4648 44.4596 27.4648 43.9809C27.9935 43.9809 28.5112 43.9809 29.0619 43.9809C29.0619 44.4303 29.0619 44.8896 29.0619 45.3782C28.5442 45.3782 28.0266 45.3782 27.4648 45.3782Z" fill="#B3686F"/>
<path d="M30.8022 43.9418C30.9895 43.9418 31.1437 43.9418 31.3089 43.9418C31.6503 43.9418 31.9918 43.9418 32.3773 43.9418C32.3773 44.4401 32.3773 44.8896 32.3773 45.3781C31.8596 45.3781 31.353 45.3781 30.8022 45.3781C30.8022 44.9384 30.8022 44.4792 30.8022 43.9418Z" fill="#B3686F"/>
</g>
<defs>
<clipPath id="clip0_1414_4492">
<rect width="56.3927" height="50" fill="white" transform="translate(-0.00439453)"/>
</clipPath>
</defs>
</svg>
