<svg width="57" height="50" viewBox="0 0 57 50" fill="none" xmlns="http://www.w3.org/2000/svg">
<g clip-path="url(#clip0_1414_4512)">
<path d="M56.8881 8.66726C56.8881 8.81359 56.8881 8.97118 56.8881 9.11751C56.7986 9.26384 56.7092 9.41017 56.6326 9.56776C55.7382 11.3913 54.8695 13.226 53.9496 15.0383C52.7359 17.4358 50.0785 18.6515 47.1656 18.1562C46.7568 18.0887 46.6035 18.2013 46.463 18.5052C45.6581 20.1936 44.8277 21.882 43.9972 23.5705C43.9461 23.683 43.9078 23.8068 43.8567 23.9194C44.2527 23.728 44.521 23.4466 44.8277 23.1877C46.3863 21.8595 48.0855 20.7226 50.0913 19.9685C50.449 19.8334 50.8962 19.6983 51.1262 20.0473C51.2667 20.2724 51.2667 20.6664 51.1517 20.914C50.7684 21.747 50.3213 22.5574 49.8486 23.3566C49.427 24.077 48.9415 24.7861 48.4432 25.5628C49.2864 25.5628 50.0402 25.5516 50.8068 25.5628C52.4165 25.5966 53.6686 26.6434 53.7963 28.0617C53.8219 28.3769 53.8091 28.7033 53.8091 29.0185C53.7963 30.5043 52.9659 31.4385 51.3433 31.8438C51.1645 31.8888 50.9345 32.0914 50.8962 32.249C50.6279 33.2733 50.3979 34.2976 50.2063 35.3332C50.168 35.5583 50.283 35.8847 50.4618 36.0536C51.2795 36.819 52.1482 37.5394 52.9787 38.2936C54.0646 39.2728 54.1029 40.5673 53.0936 41.4565C52.0843 42.3458 50.6023 42.3008 49.5036 41.3665C49.3503 41.2314 49.1842 41.1076 48.967 40.9275C48.9032 41.1414 48.8776 41.2427 48.8521 41.344C48.4432 43.1787 48.0344 45.0248 47.6128 46.8595C47.1273 48.9194 45.5942 50.0113 43.1923 50.0113C33.4827 50.0113 23.773 50.0113 14.0634 50.0113C11.6359 50.0113 10.0901 48.8519 9.63013 46.7357C9.24685 44.991 8.8508 43.2575 8.45475 41.5016C8.33977 41.5466 8.28866 41.5691 8.23756 41.5916C6.95997 42.3458 5.61851 42.2332 4.74975 41.299C3.89376 40.3647 4.02152 39.1828 5.10747 38.226C5.69516 37.7082 6.27008 37.1792 6.87054 36.6839C7.18994 36.425 7.27937 36.1661 7.18994 35.7947C6.90887 34.6353 6.65335 33.4759 6.41061 32.3165C6.34673 32.0013 6.2062 31.8663 5.82292 31.7875C4.58366 31.5511 3.79156 30.8532 3.52326 29.7614C3.40828 29.3111 3.45938 28.8271 3.45938 28.3543C3.47216 26.6321 4.71142 25.5515 6.66613 25.5515C7.35602 25.5515 8.04592 25.5515 8.71027 25.5515C7.81596 23.9869 6.9472 22.4899 6.12954 20.9703C5.98901 20.7114 5.96345 20.2837 6.11676 20.0473C6.35951 19.6646 6.81944 19.8221 7.20271 19.9685C8.88913 20.5988 10.3584 21.5218 11.7126 22.5799C12.2747 23.0189 12.8113 23.4917 13.3607 23.9419C12.5303 22.0509 11.6359 20.1936 10.7033 18.3476C10.6394 18.2238 10.2945 18.1112 10.1156 18.145C7.10051 18.6065 4.48145 17.3908 3.25497 14.9257C2.34788 13.0909 1.4408 11.2562 0.572037 9.39891C0.444278 9.14002 0.46983 8.70103 0.648692 8.49842C0.789227 8.35209 1.31304 8.36334 1.60688 8.45339C2.47564 8.72354 3.31885 9.07249 4.16206 9.3764C4.22594 9.29761 4.26426 9.2751 4.27704 9.24133C4.59644 8.52093 4.90306 7.81179 5.22245 7.0914C5.5163 6.41602 5.75904 6.32597 6.53837 6.60738C7.38158 6.9113 8.21201 7.22647 9.10632 7.5529C9.46404 6.70868 9.78344 5.89824 10.1795 5.11031C10.2817 4.89644 10.6139 4.63755 10.8438 4.62629C11.0738 4.61503 11.4315 4.86267 11.5465 5.06528C12.5558 7.0914 13.5906 9.10625 14.4977 11.1661C15.4687 13.3836 14.5488 15.8712 12.3514 17.2557C12.1981 17.357 12.0575 17.4583 11.8659 17.5709C12.5686 18.9892 13.2457 20.3962 13.9995 21.9271C13.9995 21.353 13.9995 20.959 13.9995 20.5763C14.025 18.674 14.2167 16.7942 15.0471 15.0045C15.1493 14.7794 15.4943 14.5205 15.7625 14.498C15.9797 14.4755 16.3502 14.7343 16.4524 14.937C17.7556 17.6159 18.7649 20.3737 19.0843 23.2891C19.1609 24.0207 19.1993 24.7636 19.2631 25.6191C19.5059 25.439 19.672 25.3377 19.8125 25.2139C20.3108 24.7861 20.7962 24.3246 21.3073 23.9081C22.7382 22.7825 24.9356 23.4241 25.3445 25.0788C25.3828 25.2251 25.4211 25.3602 25.4594 25.484C26.2771 25.484 27.0564 25.484 27.8996 25.484C27.8996 24.8537 27.7974 24.2458 27.9252 23.6718C28.1935 22.4111 27.1075 21.398 27.1842 20.1936C27.1842 20.1373 27.0947 20.0698 27.0436 20.0135C26.3665 19.3944 25.6894 18.7753 25.0378 18.1787C24.4885 18.5052 24.0669 18.8203 23.5814 19.0455C21.9972 19.7771 20.2341 19.5407 19.1865 18.4939C18.6116 17.9086 18.5605 17.5822 19.1993 17.0419C19.8508 16.5016 20.6174 16.0738 21.2689 15.6236C21.2689 15.6236 21.154 15.6236 21.039 15.6236C18.4583 15.511 16.6824 13.3949 17.3851 11.2112C17.4617 10.9748 17.7428 10.6709 18.0111 10.6033C20.1191 10.0067 22.4571 11.1886 22.9809 13.0797C23.0576 13.3723 23.0959 13.665 23.1342 13.8339C23.6964 13.271 24.2713 12.6407 24.8973 12.0554C25.2167 11.7515 25.6127 11.7852 25.996 12.0329C26.8009 12.5394 27.2608 13.226 27.363 14.104C27.5036 15.3647 26.9159 16.4003 26.0727 17.1769C26.6731 17.706 27.2481 18.2125 27.823 18.7078C27.823 16.2877 27.823 13.7888 27.823 11.2787C27.6441 11.2337 27.4652 11.1999 27.2736 11.1549C24.7951 10.5245 23.1726 9.11751 22.6104 6.90004C22.0611 4.70508 22.8148 2.8253 24.7312 1.32823C25.7022 0.574061 26.8903 0.225119 28.1168 -0.011261C28.6278 -0.011261 29.1389 -0.011261 29.6499 -0.011261C29.7649 0.0225076 29.8799 0.0675324 30.0076 0.0900447C32.9205 0.562805 35.1563 2.75776 35.2841 5.30166C35.4246 8.0932 33.4955 10.457 30.5059 11.1436C30.1226 11.2337 29.7266 11.29 29.2922 11.3687C29.2922 13.71 29.2922 16.0401 29.305 18.3588C29.305 18.4714 29.3816 18.6177 29.4838 18.674C30.046 19.023 30.6209 19.3606 31.2086 19.7096C31.1702 19.5633 31.1319 19.4169 31.1064 19.2706C30.6209 17.1882 32.2945 15.1846 34.6708 15.0608C34.9647 15.0495 35.3991 15.2071 35.5651 15.4097C37.0344 17.1882 36.2934 19.642 34.0448 20.5988C33.8532 20.6776 33.6743 20.7564 33.5466 20.8127C34.1598 20.914 34.7986 20.9703 35.3991 21.1391C37.0855 21.6344 37.2643 22.1634 36.2934 23.4917C36.2678 23.5142 36.2806 23.5592 36.2678 23.593C36.8172 24.0545 37.3665 24.516 37.9798 25.0225C38.0181 24.7974 38.0564 24.6511 38.0564 24.5047C38.1203 22.6024 38.5036 20.7339 39.1424 18.9329C39.6279 17.5822 40.2028 16.2539 40.7905 14.9257C40.8799 14.7231 41.2376 14.498 41.4804 14.4867C41.6976 14.4755 41.9786 14.7231 42.1319 14.9032C42.2853 15.0945 42.3491 15.3534 42.4258 15.5786C43.0901 17.4021 43.2434 19.2819 43.1923 21.1841C43.1923 21.3755 43.1923 21.5669 43.1923 21.747C43.2307 21.747 43.269 21.747 43.3073 21.747C43.9844 20.3399 44.6743 18.9442 45.3515 17.5484C42.4258 15.8825 41.5826 12.9108 43.1668 10.1193C44.0611 8.53219 44.7765 6.85502 45.5687 5.22287C45.7347 4.88518 45.9136 4.47996 46.3863 4.59252C46.6802 4.67131 46.9868 4.98649 47.1145 5.25664C47.485 5.97703 47.7789 6.74245 48.1111 7.53039C48.9926 7.20396 49.8102 6.9113 50.6279 6.59612C51.4583 6.28095 51.7011 6.38226 52.0077 7.11391C52.3271 7.85682 52.6465 8.59972 52.9914 9.36515C53.8857 9.03872 54.7034 8.76857 55.4827 8.44214C56.0576 8.26204 56.492 8.29581 56.8881 8.66726ZM15.4815 35.1981C13.514 36.9316 11.6487 38.5637 9.80899 40.2184C9.69401 40.3197 9.69401 40.5561 9.73234 40.7249C10.1539 42.6722 10.6011 44.6195 11.0227 46.5669C11.3549 48.0527 12.3258 48.7618 14.0378 48.7618C23.7602 48.7618 33.4955 48.7618 43.2179 48.7618C44.9043 48.7618 45.8881 48.0752 46.2202 46.6231C46.7185 44.4957 47.1912 42.3683 47.6383 40.2296C47.6767 40.0158 47.5745 39.7006 47.3956 39.5543C44.6105 37.0779 41.8125 34.6128 39.0019 32.1477C38.8358 32.0013 38.5291 31.8775 38.2864 31.8775C32.0773 31.8663 25.8555 31.8663 19.6464 31.8663C19.4675 31.8663 19.2376 31.8888 19.1226 31.9901C18.5094 32.4629 17.9217 32.9694 17.1934 33.566C19.1865 33.566 20.298 34.3426 20.3108 35.7159C20.3491 38.6763 20.3363 41.6366 20.3108 44.6083C20.298 45.4863 19.8125 46.1504 18.9054 46.5331C17.2957 47.2197 15.4815 46.1954 15.4687 44.5633C15.4687 41.4903 15.4815 38.4174 15.4815 35.1981ZM20.7068 30.5831C26.2771 30.5831 31.7196 30.5831 37.2771 30.5831C35.9484 29.4237 34.6964 28.3656 33.4955 27.2512C33.1122 26.9023 32.7417 26.7897 32.2179 26.801C30.4931 26.8235 28.7684 26.9023 27.0436 26.7785C25.5489 26.6772 24.4757 27.0486 23.5303 28.0729C22.7254 28.9397 21.7161 29.7051 20.7068 30.5831ZM52.4037 39.7569C52.2632 39.588 52.0716 39.2616 51.7777 39.0027C46.5524 34.3877 41.3143 29.7726 36.0762 25.1576C35.9612 25.0563 35.8334 24.9437 35.7057 24.8424C35.2458 24.516 34.6453 24.5497 34.262 24.8987C33.8915 25.2364 33.8787 25.7429 34.2237 26.1256C34.3131 26.2269 34.4281 26.317 34.5303 26.407C39.794 31.0446 45.0576 35.6934 50.3213 40.3309C50.4746 40.466 50.6151 40.6011 50.794 40.7024C51.4967 41.0738 52.3782 40.6461 52.4037 39.7569ZM24.1818 25.5065C23.8752 25.2026 23.6836 24.8649 23.3642 24.7073C22.917 24.4822 22.4699 24.6511 22.0994 24.9775C16.7463 29.7051 11.3932 34.4214 6.02733 39.1378C5.47797 39.6218 5.43964 40.1733 5.89958 40.5786C6.35951 40.9838 6.9472 40.9388 7.52211 40.4435C8.39087 39.6893 9.23408 38.9352 10.1028 38.181C14.5361 34.2751 18.9821 30.3579 23.4153 26.4408C23.6836 26.2044 23.8752 25.8892 24.1818 25.5065ZM18.0878 26.7897C17.6917 26.7897 17.4873 26.7897 17.2829 26.7897C13.9867 26.7897 10.6905 26.8348 7.39435 26.7785C5.33744 26.7447 4.74975 27.285 4.86473 29.0522C4.92861 30.0765 5.49075 30.6168 6.64058 30.6168C8.02037 30.6281 9.40016 30.6281 10.7927 30.6168C11.7637 30.6168 12.8496 30.8307 13.6929 30.5155C14.5361 30.2116 15.1238 29.3787 15.8137 28.7708C16.5291 28.163 17.2445 27.5326 18.0878 26.7897ZM39.9217 26.7897C41.4037 28.0842 42.7324 29.2661 44.0867 30.4367C44.2144 30.5493 44.4572 30.6056 44.6488 30.6056C46.7057 30.6056 48.7754 30.6056 50.8323 30.5831C51.7394 30.5718 52.3271 30.054 52.4037 29.2548C52.4293 28.9959 52.4165 28.7258 52.4165 28.4669C52.4037 27.33 51.7905 26.7897 50.4874 26.7897C47.4723 26.7897 44.4444 26.7897 41.4293 26.7897C40.9821 26.7897 40.5477 26.7897 39.9217 26.7897ZM6.76833 16.5466C8.45475 17.3458 10.5372 17.0982 11.9426 15.995C13.3351 14.9032 13.8589 13.0572 13.169 11.5826C12.5047 10.1531 11.8148 8.74606 11.1377 7.33903C11.0866 7.22647 11.0099 7.13642 10.8949 6.93381C9.4896 10.1981 8.13535 13.3611 6.76833 16.5466ZM46.348 6.87753C45.5687 8.48716 44.8532 9.96172 44.1505 11.4475C43.2179 13.4061 44.1761 15.6799 46.348 16.6029C47.7278 17.1882 49.1076 17.1882 50.5001 16.5691C49.1203 13.3498 47.7661 10.1868 46.348 6.87753ZM24.9101 3.07294C23.2748 4.77262 23.6453 7.5529 25.6255 9.03872C27.7591 10.6371 30.902 10.4232 32.7161 8.56596C34.2365 7.00135 34.3387 4.23232 32.9078 3.15173C33.1633 4.77262 32.5884 6.10085 30.9786 6.95632C29.5733 7.71049 28.0785 7.68797 26.6987 6.88878C25.1656 5.99954 24.6418 4.70508 24.9101 3.07294ZM16.8868 40.1396C16.8868 41.5466 16.8868 42.9536 16.8868 44.3606C16.8868 45.1036 17.2318 45.475 17.8833 45.4863C18.5349 45.4975 18.931 45.0923 18.931 44.3832C18.931 41.5691 18.931 38.7551 18.931 35.941C18.931 35.2431 18.5349 34.8154 17.9089 34.8041C17.2829 34.7929 16.8868 35.2094 16.8868 35.9185C16.874 37.3255 16.8868 38.7326 16.8868 40.1396ZM17.7939 25.529C17.8322 22.5799 17.0529 19.8221 15.852 17.1319C15.1749 19.946 15.3793 22.7262 16.0181 25.529C16.6058 25.529 17.1551 25.529 17.7939 25.529ZM41.4932 17.0869C41.4293 17.0982 41.3782 17.0982 41.3143 17.1094C40.2156 19.8221 39.3851 22.5799 39.4746 25.5515C39.9217 25.5515 40.2794 25.529 40.6372 25.5628C41.0715 25.5966 41.2504 25.484 41.3398 25.0675C41.7359 23.1765 41.9148 21.2742 41.7998 19.3606C41.7487 18.6065 41.5954 17.8523 41.4932 17.0869ZM2.39899 10.0855C3.25497 11.7965 4.02152 13.3724 4.8264 14.937C4.97971 15.2409 5.27356 15.4885 5.5674 15.8487C6.16787 14.4529 6.70446 13.181 7.26659 11.8865C5.64406 11.29 4.11095 10.7271 2.39899 10.0855ZM54.6779 10.1643C53.132 10.7384 51.5989 11.3012 50.0019 11.8978C50.564 13.2035 51.1134 14.4867 51.7394 15.9162C53.132 14.0702 53.758 12.0779 54.6779 10.1643ZM31.1447 5.05403C31.8601 4.04097 31.6046 2.80279 30.5442 2.05988C29.5222 1.32823 28.0018 1.39576 27.0436 2.20621C26.1366 2.97163 25.9577 4.1873 26.6348 4.98649C27.197 3.80459 27.8741 3.34308 28.9856 3.3656C30.0204 3.38811 30.7103 3.91715 31.1447 5.05403ZM8.4292 35.018C9.63013 33.9599 10.8311 32.9018 11.9809 31.8888C10.665 31.8888 9.23408 31.8888 7.7393 31.8888C7.98204 32.9806 8.21201 34.05 8.4292 35.018ZM13.0285 25.5515C11.5593 24.0657 10.039 22.8388 8.18646 21.9158C8.72304 22.8951 9.36184 23.8181 9.92397 24.7749C10.2945 25.4052 10.78 25.6754 11.5848 25.5628C12.0064 25.5065 12.428 25.5515 13.0285 25.5515ZM44.2144 25.5515C44.8149 25.5515 45.2748 25.5065 45.7092 25.5628C46.5013 25.6754 46.9612 25.3827 47.3189 24.7861C47.8939 23.8181 48.5327 22.8838 49.1459 21.9383C47.2295 22.8276 45.7092 24.0657 44.2144 25.5515ZM21.6778 14.3629C21.8822 12.9446 20.7962 11.7965 19.2504 11.7289C18.8032 11.7064 18.6627 11.8415 18.6754 12.2355C18.701 13.62 20.0552 14.6105 21.6778 14.3629ZM34.5686 16.3552C32.7034 16.7605 31.8985 18.3363 32.8311 19.6871C34.6197 19.3606 35.4374 17.8298 34.5686 16.3552ZM46.0541 31.8888C46.9868 32.7105 47.9833 33.5997 48.9543 34.4552C49.1203 33.6785 49.312 32.8005 49.5164 31.8888C48.2644 31.8888 47.0762 31.8888 46.0541 31.8888ZM5.52908 9.90544C6.3084 10.1868 7.01108 10.4457 7.75208 10.7271C8.04592 10.0518 8.31421 9.41017 8.60806 8.74606C7.85428 8.46465 7.13883 8.20576 6.38506 7.92435C6.09121 8.61098 5.82292 9.23007 5.52908 9.90544ZM48.6476 8.7348C48.9415 9.41017 49.2226 10.0518 49.5036 10.7271C50.2702 10.4457 50.9856 10.1756 51.7266 9.90544C51.4328 9.20756 51.1645 8.58847 50.8706 7.92435C50.1296 8.1945 49.4397 8.44214 48.6476 8.7348ZM23.9008 17.2895C22.7893 16.5691 21.2178 16.8167 20.4257 17.8298C21.4223 18.5502 22.9298 18.3251 23.9008 17.2895ZM25.5233 13.3048C24.3096 14.1941 24.0669 15.6799 24.9867 16.3665C26.0982 15.4547 26.3282 14.2503 25.5233 13.3048ZM31.8601 23.1315C33.1888 23.8181 35.1052 23.3904 35.2841 22.5124C33.9937 21.8483 32.4734 22.1072 31.8601 23.1315ZM30.5187 22.5461C30.9914 21.4881 30.1226 20.1486 28.7812 19.8784C28.3468 20.9365 29.1389 22.1634 30.5187 22.5461ZM31.183 24.2909C30.9658 24.7073 30.7614 25.1013 30.5315 25.5178C31.2597 25.5178 31.8857 25.5178 32.5373 25.5178C32.6011 25.2251 32.6522 24.955 32.7034 24.7073C32.2051 24.5723 31.7452 24.4484 31.183 24.2909ZM28.9984 4.60378C28.449 4.60378 28.104 4.90769 28.0913 5.30166C28.0785 5.70688 28.4745 6.07834 28.9345 6.03331C29.42 5.98829 29.7138 5.75191 29.7138 5.30166C29.6882 4.86267 29.3944 4.63755 28.9984 4.60378ZM29.3305 24.5835C29.3688 24.5948 29.42 24.606 29.4583 24.6173C29.6116 24.3246 29.7521 24.0432 29.931 23.7168C29.6882 23.638 29.5349 23.593 29.3305 23.5254C29.3305 23.9307 29.3305 24.2571 29.3305 24.5835Z" fill="#B3686F"/>
<path d="M22.636 40.1508C22.636 38.71 22.6233 37.258 22.636 35.8172C22.6488 34.5115 23.6964 33.5435 25.0762 33.5547C26.4305 33.566 27.4781 34.5115 27.4909 35.7834C27.5037 38.6875 27.5037 41.5916 27.4909 44.507C27.4781 45.8127 26.4177 46.7357 25.0124 46.7245C23.6326 46.7019 22.6616 45.7902 22.6488 44.4845C22.6233 43.0437 22.636 41.5916 22.636 40.1508ZM26.0855 40.1733C26.0855 38.71 26.0983 37.2467 26.0855 35.7834C26.0728 35.2094 25.6384 34.8154 25.089 34.8041C24.5141 34.7929 24.0669 35.1756 24.0542 35.7384C24.0414 38.6875 24.0414 41.6254 24.0542 44.5745C24.0542 45.1261 24.463 45.475 25.0379 45.4863C25.6001 45.4975 26.0217 45.1598 26.0855 44.6195C26.0983 44.4732 26.0983 44.3156 26.0983 44.1693C26.0855 42.8411 26.0855 41.5128 26.0855 40.1733Z" fill="#B3686F"/>
<path d="M29.7903 40.1283C29.7903 38.6988 29.7776 37.2805 29.7903 35.851C29.8031 34.534 30.8124 33.566 32.1922 33.566C33.572 33.5547 34.6324 34.5227 34.6452 35.8284C34.658 38.7213 34.658 41.6029 34.6452 44.4957C34.6452 45.8127 33.5976 46.7469 32.1922 46.7357C30.7869 46.7357 29.8031 45.8014 29.7903 44.4619C29.7776 43.0099 29.7903 41.5691 29.7903 40.1283ZM31.1957 40.1846C31.1957 41.5916 31.1957 42.9986 31.1957 44.4057C31.1957 45.1035 31.5534 45.475 32.1794 45.4975C32.831 45.5088 33.2398 45.1148 33.2398 44.4169C33.2526 41.5804 33.2526 38.7551 33.2398 35.9185C33.2398 35.2431 32.8055 34.7929 32.1794 34.8154C31.5662 34.8379 31.1957 35.2319 31.1957 35.9072C31.1829 37.3255 31.1957 38.7551 31.1957 40.1846Z" fill="#B3686F"/>
<path d="M36.9451 40.1058C36.9451 38.6763 36.9324 37.258 36.9451 35.8284C36.9579 34.5227 37.9928 33.5547 39.3725 33.566C40.7523 33.5772 41.7872 34.534 41.8 35.851C41.8127 38.7213 41.8127 41.5916 41.8 44.4619C41.8 45.8127 40.7523 46.7582 39.3214 46.7357C37.9161 46.7244 36.9579 45.7902 36.9451 44.4394C36.9324 42.9874 36.9451 41.5466 36.9451 40.1058ZM38.3505 40.1846C38.3505 41.5916 38.3505 42.9986 38.3505 44.4057C38.3505 45.1035 38.7082 45.475 39.3342 45.4975C39.9858 45.5088 40.3946 45.1148 40.3946 44.4169C40.4074 41.5804 40.3946 38.7551 40.3946 35.9185C40.3946 35.2431 39.9602 34.8041 39.3342 34.8154C38.721 34.8266 38.3505 35.2431 38.3505 35.9185C38.3505 37.3255 38.3505 38.7551 38.3505 40.1846Z" fill="#B3686F"/>
</g>
<defs>
<clipPath id="clip0_1414_4512">
<rect width="56.3927" height="50" fill="white" transform="translate(0.495605)"/>
</clipPath>
</defs>
</svg>
