<svg width="57" height="50" viewBox="0 0 57 50" fill="none" xmlns="http://www.w3.org/2000/svg">
<g clip-path="url(#clip0_1414_4526)">
<path d="M-0.00460434 20.601C0.226829 20.5814 0.469284 20.5617 0.766842 20.5323C0.766842 17.3366 0.766842 14.1506 0.766842 10.9254C1.33992 10.9254 1.84687 10.9254 2.40892 10.9254C2.40892 14.1114 2.40892 17.2876 2.40892 20.5127C8.30497 20.5127 14.1459 20.5127 20.0199 20.5127C20.0199 15.7485 20.0199 10.9842 20.0199 6.18079C14.179 6.18079 8.32701 6.18079 2.43096 6.18079C2.43096 7.25912 2.43096 8.31784 2.43096 9.39616C1.86891 9.39616 1.36196 9.39616 0.810924 9.39616C0.810924 7.83749 0.810924 6.28862 0.810924 4.67113C2.00115 4.67113 3.16934 4.67113 4.24937 4.67113C4.1612 3.99473 3.94079 3.34773 4.01793 2.73015C4.17222 1.50478 4.89959 0.553888 6.28819 0.220587C7.77598 -0.142123 9.05437 0.318616 10.0462 1.32832C10.5311 1.82827 10.8838 2.42625 11.2695 2.95561C11.6112 2.47527 11.9308 1.94591 12.3275 1.46556C13.0108 0.642114 13.9696 0.210784 15.0937 0.122557C17.4191 -0.0636994 19.1493 2.10276 18.3448 4.14177C18.2897 4.28882 18.2125 4.43586 18.1244 4.65153C19.3256 4.65153 20.4718 4.65153 21.684 4.65153C21.684 9.97454 21.684 15.2387 21.684 20.5519C22.213 20.5519 22.6869 20.5519 23.1939 20.5519C23.1939 21.0617 23.1939 21.5224 23.1939 22.0322C21.2873 22.0322 19.4028 22.0322 17.4521 22.0322C17.4521 22.4635 17.4521 22.8556 17.4521 23.238C17.4521 23.5909 17.7607 23.4928 17.9701 23.5026C19.9207 23.5124 21.8604 23.5026 23.811 23.5026C25.1666 23.5026 26.5331 23.483 27.8887 23.5222C29.2222 23.5713 30.181 24.1888 30.71 25.2672C31.239 26.3455 31.0516 27.3748 30.2361 28.3061C29.7732 28.8256 29.1561 29.1197 28.4507 29.306C28.2634 29.355 28.0981 29.5021 27.9217 29.6001C27.8887 29.6197 27.8777 29.6491 27.8556 29.6785C27.2605 30.3843 26.456 31.0313 26.1474 31.8254C25.8499 32.6194 26.0592 33.5703 26.0482 34.4526C26.0372 35.0897 26.0592 35.7269 26.0482 36.3641C26.0372 36.6386 26.1474 36.7366 26.467 36.7366C29.0569 36.7268 31.6467 36.7366 34.2366 36.717C34.3909 36.717 34.6333 36.5504 34.6994 36.4229C35.6031 34.4427 36.4848 32.4527 37.3554 30.4627C37.4326 30.2863 37.4546 30.0804 37.4546 29.8942C37.4656 28.8453 37.4546 27.8061 37.4546 26.7278C38.0056 26.7278 38.5236 26.7278 39.1297 26.7278C38.9534 28.4531 39.4053 30.1785 38.5567 31.8744C37.3664 34.2565 36.3636 36.717 35.2835 39.1384C35.2174 39.2854 35.1623 39.4423 35.0741 39.6775C35.8235 39.6775 36.5068 39.6775 37.2011 39.6775C37.8734 39.6677 38.6999 39.854 39.1959 39.5893C39.6918 39.3148 39.8791 38.5894 40.1767 38.0502C41.1355 36.3445 42.0833 34.629 43.02 32.9135C43.1302 32.6978 43.1853 32.4527 43.2074 32.2175C43.516 29.7079 42.7115 27.3258 42.1604 24.9241C41.918 23.8653 41.6535 22.8164 41.422 21.7577C41.3559 21.444 41.2016 21.3264 40.8379 21.3362C40.2869 21.3656 39.7359 21.346 39.1187 21.346C39.1187 22.64 39.1187 23.9046 39.1187 25.1887C38.5456 25.1887 38.0387 25.1887 37.4766 25.1887C37.4766 23.934 37.4766 22.689 37.4766 21.3754C36.8264 21.3754 36.2313 21.3754 35.5921 21.3754C35.5701 21.1793 35.548 21.0421 35.548 20.9048C35.548 19.3658 35.548 17.8365 35.537 16.2975C35.537 15.9838 35.6031 15.8367 35.9999 15.7975C39.1297 15.4348 42.2596 15.0427 45.3785 14.6604C45.5548 14.6408 45.7421 14.631 45.9625 14.6113C45.9625 16.8464 45.9625 19.0619 45.9625 21.3264C45.0148 21.3264 44.067 21.3264 43.0751 21.3264C43.56 24.8652 45.1691 28.1787 44.8825 31.7861C48.6406 31.3842 51.7594 32.3547 54.1619 34.9231C55.826 36.6974 56.4873 38.7757 56.355 41.1382C55.7599 41.1382 55.1868 41.1382 54.5807 41.1382C54.2831 43.1478 53.2803 44.7653 51.4508 46.0985C53.1921 46.0985 54.7791 46.0985 56.3881 46.0985C56.3881 46.5984 56.3881 47.0494 56.3881 47.5297C56.2558 47.5395 56.1126 47.5689 55.9803 47.5689C37.3224 47.5689 18.6534 47.5689 -0.00460434 47.5689C-0.00460434 47.0788 -0.00460434 46.5886 -0.00460434 46.0985C2.43096 46.0985 4.8555 46.0985 7.30209 46.0985C7.28005 46.0201 7.28005 45.9808 7.25801 45.971C5.67103 44.7751 4.69019 43.2752 4.3706 41.4323C4.34855 41.3244 4.11712 41.1774 3.97385 41.1676C3.48894 41.1382 3.00403 41.1578 2.49708 41.1578C2.49708 39.5109 2.453 37.9424 2.5081 36.3837C2.56321 34.7172 3.32363 33.2664 4.67917 32.1292C5.37348 31.5411 6.22207 31.0999 7.03759 30.551C7.03759 30.6294 7.04861 30.6098 7.03759 30.5902C5.64899 27.8257 4.26039 25.0515 2.86077 22.2871C2.80566 22.1792 2.59627 22.0616 2.453 22.0518C1.62645 22.042 0.799903 22.0616 -0.015625 22.0714C-0.00460434 21.5813 -0.00460434 21.0911 -0.00460434 20.601ZM20.6591 39.6383C20.6591 38.5894 20.7252 37.5797 20.6481 36.5798C20.4387 33.6977 18.1134 31.7273 14.8733 31.6587C13.132 31.6195 11.3797 31.6195 9.63847 31.6685C7.13678 31.7371 4.87755 33.2664 4.3706 35.4328C4.051 36.7857 4.13916 38.2071 4.03998 39.6383C9.66051 39.6383 15.1157 39.6383 20.6591 39.6383ZM38.5456 41.148C35.4048 41.148 32.2969 41.148 29.2001 41.1578C29.0899 41.1578 28.9246 41.3048 28.8805 41.4127C28.043 43.4125 26.6544 44.2751 24.2519 44.2751C22.6869 44.2751 21.133 44.2751 19.5681 44.2849C19.3807 44.2849 19.1273 44.3143 19.017 44.4124C18.466 44.9417 17.948 45.5005 17.408 46.0593C25.42 46.0593 33.4651 46.0593 41.5984 46.0593C39.8461 44.7555 38.8432 43.1576 38.5456 41.148ZM54.6468 39.6383C54.6468 39.5501 54.6578 39.4815 54.6468 39.4227C54.1068 35.4034 49.5222 32.4527 45.0699 33.286C44.8274 33.335 44.5519 33.5311 44.4417 33.7271C43.4058 35.5407 42.3919 37.3738 41.378 39.207C41.3118 39.3344 41.2567 39.4619 41.1686 39.6481C45.687 39.6383 50.1504 39.6383 54.6468 39.6383ZM21.5187 27.914C21.7612 27.914 21.9816 27.914 22.191 27.914C23.9874 27.914 25.7837 27.9238 27.5911 27.914C28.5499 27.9042 29.2222 27.4042 29.3324 26.6494C29.4646 25.7279 28.7262 25.0025 27.5911 24.9927C24.34 24.9829 21.0889 24.9927 17.8378 24.9927C17.7166 24.9927 17.5954 25.0319 17.4852 25.0417C17.4852 26.0024 17.4852 26.9239 17.4852 27.9238C18.3117 27.9238 19.1052 27.9238 19.8987 27.9238C19.8987 28.4433 19.8987 28.8943 19.8987 29.3844C19.6452 29.3844 19.4358 29.3844 19.2154 29.3844C16.2068 29.3844 13.1981 29.3844 10.1785 29.3844C9.34091 29.3844 9.34091 29.3844 9.27479 30.1883C9.45112 30.1883 9.63847 30.1883 9.8148 30.1883C11.6001 30.1883 13.3745 30.1589 15.1598 30.1981C17.3088 30.2471 19.0942 31.0411 20.4938 32.4822C20.7583 32.7468 21.0008 32.8155 21.3424 32.7468C23.4804 32.3155 24.858 31.0607 25.9711 29.3844C24.4392 29.3844 22.9845 29.3844 21.4967 29.3844C21.5187 28.8649 21.5187 28.4237 21.5187 27.914ZM4.59101 22.0518C5.67103 24.1986 6.72902 26.2769 7.77598 28.3649C7.90823 28.1296 7.93027 27.9238 7.97435 27.7277C8.49232 25.326 10.6965 23.6301 13.4406 23.532C14.201 23.5026 14.9725 23.532 15.7549 23.532C15.7549 22.9929 15.7549 22.5419 15.7549 22.0616C12.041 22.0518 8.37109 22.0518 4.59101 22.0518ZM52.8505 41.148C52.3435 41.148 51.8255 41.1578 51.3186 41.148C51.01 41.1382 50.8778 41.2264 50.7896 41.5009C50.47 42.5204 49.7647 43.3046 48.7398 43.8242C46.2932 45.0594 43.2404 43.9712 42.3478 41.5793C42.2927 41.4225 42.1384 41.1872 42.0061 41.1676C41.4331 41.1186 40.849 41.148 40.2649 41.148C40.6286 44.0301 43.4939 46.1573 46.8001 46.0887C49.8418 46.0201 52.6741 43.736 52.8505 41.148ZM33.8398 38.1973C30.6659 38.1973 27.5581 38.1973 24.3841 38.1973C24.3841 36.5112 24.3841 34.8839 24.3841 33.2566C23.4914 33.5997 22.6539 33.9134 21.7612 34.2565C22.6098 35.9524 22.2351 37.8052 22.3563 39.6089C22.4334 39.6383 22.4886 39.6677 22.5326 39.6677C26.0041 39.6775 29.4756 39.6775 32.9472 39.6677C33.0794 39.6677 33.2778 39.5403 33.3439 39.4227C33.5202 39.0501 33.6525 38.658 33.8398 38.1973ZM6.06778 41.148C6.21104 43.3046 8.29395 45.3338 10.8067 45.922C13.3414 46.52 16.0304 45.4417 16.846 44.3634C16.2619 44.2261 15.6557 44.1085 15.0827 43.9222C14.7851 43.8242 14.5757 43.8242 14.2671 43.9222C13.7271 44.0987 13.1541 44.2849 12.581 44.3143C10.4981 44.4222 8.78988 43.3144 8.12864 41.5303C8.07354 41.3931 7.91925 41.1872 7.79802 41.1774C7.22495 41.1284 6.66289 41.148 6.06778 41.148ZM14.3333 41.1774C14.7741 42.2459 15.6888 42.8047 16.9892 42.8145C19.502 42.8243 22.0147 42.8145 24.5274 42.8145C24.7698 42.8145 25.0123 42.8047 25.2327 42.7557C26.1915 42.5596 26.8307 42.04 27.2274 41.1774C22.9073 41.1774 18.6423 41.1774 14.3333 41.1774ZM15.777 25.0221C12.1732 24.679 10.2005 25.6299 9.70459 27.865C11.7214 27.865 13.7382 27.865 15.777 27.865C15.777 26.8945 15.777 25.973 15.777 25.0221ZM10.1675 4.67113C9.79276 3.71044 9.42908 2.81837 8.65763 2.14197C8.13966 1.69103 7.47842 1.44596 6.75106 1.63221C6.08982 1.79886 5.78124 2.29882 5.64899 2.86739C5.4947 3.583 6.14492 4.62212 6.81718 4.65153C7.90823 4.71035 8.99927 4.67113 10.1675 4.67113ZM12.3716 4.67113C13.5618 4.67113 14.6418 4.68094 15.7109 4.66133C15.8541 4.66133 16.0194 4.5535 16.1407 4.46527C17.0333 3.82808 17.1546 2.73015 16.4162 1.99492C15.788 1.37734 14.6088 1.44596 13.8263 2.17138C13.11 2.85759 12.7463 3.71044 12.3716 4.67113ZM37.1901 19.8363C38.3473 19.8363 39.4383 19.8363 40.5514 19.8363C40.5514 18.7972 40.5514 17.7777 40.5514 16.7288C39.4934 16.8562 38.5016 16.9641 37.4987 17.1013C37.3885 17.1209 37.2011 17.2778 37.2011 17.366C37.1901 18.1796 37.1901 18.9933 37.1901 19.8363ZM44.3535 16.2778C43.8686 16.3269 43.4719 16.3661 43.0751 16.4151C42.2596 16.5229 42.2706 16.5229 42.2706 17.2679C42.2706 17.7385 42.2706 18.209 42.2706 18.6796C42.2706 19.0619 42.2706 19.4442 42.2706 19.8657C42.9319 19.8657 43.4939 19.8755 44.067 19.8559C44.1662 19.8559 44.3535 19.6893 44.3535 19.6011C44.3535 18.5227 44.3535 17.4346 44.3535 16.2778ZM43.9899 41.1774C44.3425 42.2165 45.4005 42.8733 46.6238 42.8537C47.792 42.8341 48.8389 42.1381 49.1145 41.1774C47.4173 41.1774 45.7201 41.1774 43.9899 41.1774ZM13.2532 42.6968C13.0439 42.2263 12.8565 41.7852 12.6471 41.3636C12.603 41.2656 12.4487 41.1578 12.3385 41.1578C11.501 41.1382 10.6634 41.148 9.8148 41.148C10.0683 42.4126 11.7544 43.1576 13.2532 42.6968Z" fill="#B3686F"/>
<path d="M11.2145 7.71005C12.6142 7.74926 13.6391 8.31784 14.2342 9.44518C14.3554 9.67065 14.4546 9.79808 14.7742 9.82749C16.1628 9.95493 17.1326 10.6313 17.5734 11.8077C18.0033 12.9644 17.6837 14.0036 16.6918 14.8466C16.4493 15.0525 16.3722 15.2191 16.4383 15.5132C16.7028 16.719 16.262 17.7189 15.1599 18.4345C14.0468 19.1599 12.8456 19.1991 11.6333 18.611C11.3247 18.4639 11.1374 18.4835 10.8508 18.6208C9.63858 19.1893 8.43733 19.1501 7.32424 18.4247C6.24421 17.7189 5.79237 16.7288 6.05686 15.5426C6.13401 15.1995 6.01278 15.0231 5.77033 14.7976C4.80051 13.9349 4.48091 12.9056 4.94378 11.7489C5.40664 10.5921 6.35442 9.94513 7.72098 9.81769C8.04058 9.78828 8.13977 9.66084 8.26099 9.43537C8.84509 8.33744 9.84797 7.77867 11.2145 7.71005ZM12.8786 11.641C12.8786 11.2783 12.8786 11.0038 12.8786 10.7294C12.8676 9.8373 12.1954 9.2001 11.2586 9.2001C10.3219 9.2001 9.6496 9.80789 9.61654 10.7098C9.60552 10.994 9.61654 11.2881 9.61654 11.641C9.21979 11.5332 8.91121 11.445 8.60263 11.3666C7.64384 11.1117 6.78423 11.494 6.48667 12.2978C6.21115 13.0527 6.68504 13.8271 7.58873 14.1212C7.90833 14.2192 8.23895 14.3173 8.60263 14.4251C8.38222 14.6996 8.20589 14.925 8.02956 15.1505C7.43445 15.9151 7.56669 16.7876 8.32712 17.2679C9.09856 17.7483 10.0574 17.562 10.6745 16.817C10.8508 16.6013 11.0272 16.3759 11.2476 16.1014C11.468 16.3759 11.6443 16.6013 11.8207 16.817C12.4378 17.562 13.4076 17.7483 14.1681 17.2679C14.9395 16.7778 15.0607 15.9151 14.4656 15.1505C14.2893 14.9152 14.1019 14.6898 13.9036 14.4251C14.3113 14.2976 14.642 14.2094 14.9726 14.1016C15.8432 13.8075 16.284 13.0331 16.0085 12.288C15.722 11.5136 14.8513 11.1215 13.9366 11.3568C13.606 11.4352 13.2754 11.5332 12.8786 11.641Z" fill="#B3686F"/>
<path d="M9.71582 35.0407C9.71582 34.5702 9.71582 34.1193 9.71582 33.6389C11.3579 33.6389 12.9779 33.6389 14.631 33.6389C14.631 34.1095 14.631 34.5604 14.631 35.0407C12.989 35.0407 11.3689 35.0407 9.71582 35.0407Z" fill="#B3686F"/>
<path d="M9.73779 36.57C11.3578 36.57 12.9668 36.57 14.6199 36.57C14.6199 37.0307 14.6199 37.5013 14.6199 37.9914C12.9999 37.9914 11.3909 37.9914 9.73779 37.9914C9.73779 37.5111 9.73779 37.0601 9.73779 36.57Z" fill="#B3686F"/>
<path d="M10.4761 12.8566C11.0161 12.8566 11.523 12.8566 12.063 12.8566C12.063 13.337 12.063 13.7781 12.063 14.2584C11.5341 14.2584 11.0381 14.2584 10.4761 14.2584C10.4761 13.8075 10.4761 13.3468 10.4761 12.8566Z" fill="#B3686F"/>
</g>
<defs>
<clipPath id="clip0_1414_4526">
<rect width="56.3927" height="50" fill="white" transform="translate(-0.00439453)"/>
</clipPath>
</defs>
</svg>
