<svg width="57" height="50" viewBox="0 0 57 50" fill="none" xmlns="http://www.w3.org/2000/svg">
<g clip-path="url(#clip0_1414_4520)">
<path d="M3.52036 47.2564C3.66151 46.1879 3.82437 45.129 3.95466 44.0604C4.38895 40.5083 4.73638 36.9465 5.25753 33.4039C5.71353 30.2753 7.68956 28.0131 10.849 26.5787C11.2073 26.4151 11.3485 26.2611 11.3376 25.9049C11.3159 23.2095 11.3376 20.514 11.3159 17.8186C11.3159 17.5876 11.2073 17.318 11.0662 17.1255C10.2627 16.0473 10.2627 14.7189 11.077 13.6407C11.2182 13.4578 11.305 13.2075 11.3159 12.9861C11.3702 11.5903 11.2725 10.1848 11.4353 8.80823C11.9673 4.24527 16.1365 0.587203 21.2503 0.0673722C27.1024 -0.519844 32.3681 2.75316 33.6059 7.84558C33.899 9.06814 33.8122 10.3581 33.899 11.6192C33.9099 11.8598 33.9099 12.1005 33.899 12.3411C33.8773 12.9187 33.9642 13.4289 34.3333 13.968C35.039 15.0077 34.8979 16.0762 34.1705 17.1063C34.0185 17.318 33.9099 17.5972 33.9099 17.8475C33.8882 20.5429 33.9099 23.2383 33.8882 25.9338C33.8882 26.2514 33.9859 26.4151 34.3225 26.5498C36.0162 27.2526 37.1779 29.149 37.1779 29.149C37.1779 29.149 35.951 29.8614 33.595 36.2726C32.6179 33.6542 31.011 29.4089 30.0338 26.8001C29.7733 26.107 29.7733 26.107 28.9047 26.2225C29.5018 28.6966 30.099 31.1706 30.707 33.6446C30.8916 34.3954 31.0761 35.1463 31.2498 35.8972C31.391 36.4844 31.1304 36.8309 30.479 36.9561C25.2458 37.9669 20.0017 37.9765 14.7685 36.9657C14.0519 36.8309 13.8348 36.494 13.9868 35.8394C14.7576 32.6434 15.5285 29.4474 16.2994 26.2514C15.4959 26.0589 15.4525 26.0782 15.2137 26.7231C14.3016 29.1586 13.4331 31.5941 12.4668 34.0104C11.2073 37.139 11.0336 40.2772 11.8479 43.5214C12.1845 44.8691 12.1628 46.2745 12.3148 47.7089C11.609 47.7089 11.0553 47.7089 10.4473 47.7089C10.4473 47.449 10.4364 47.1987 10.4473 46.9484C10.4907 45.6777 10.3279 44.4262 10.0347 43.1748C9.74158 41.9137 9.64387 40.6142 9.44844 39.2953C8.46043 39.2953 7.38556 39.2953 6.23468 39.2953C5.89811 42.1448 5.56153 44.9846 5.22496 47.834C4.64952 47.834 4.06323 47.834 3.48779 47.834C3.52036 47.6415 3.52036 47.449 3.52036 47.2564ZM15.7999 12.3026C15.7999 12.5337 15.7891 12.707 15.7999 12.8706C15.9628 14.6323 16.1257 16.3843 16.3102 18.1459C16.484 19.7921 17.3525 21.1013 18.8834 22.035C22.9657 24.5475 28.579 22.2853 28.9481 18.0497C29.1327 15.9415 29.3933 13.8333 29.5453 11.7251C29.6973 9.66499 28.2424 7.98998 25.7126 7.29687C23.704 10.9549 20.3274 12.5337 15.7999 12.3026ZM32.0859 12.3893C32.0859 11.2148 32.2053 10.0404 32.0641 8.88524C31.4561 4.12013 26.1361 0.702721 20.8594 1.68462C15.1594 2.75316 12.3582 6.99845 13.1399 12.3989C13.4222 12.3604 13.6936 12.3123 13.9868 12.2738C13.9759 12.0716 13.9542 11.8983 13.9434 11.7154C13.9108 11.0993 14.2365 10.7817 14.9314 10.772C15.4417 10.7624 15.9519 10.8009 16.4514 10.7624C17.3525 10.7046 18.2754 10.7143 19.1331 10.5025C21.7063 9.87677 23.4218 8.39429 24.3012 6.16094C24.6269 5.34269 25.0286 5.19829 25.9081 5.58335C26.6029 5.8914 27.3087 6.1802 27.9818 6.52675C29.7841 7.44127 30.8916 8.80823 31.2064 10.6373C31.3041 11.1763 31.2824 11.7443 31.315 12.293C31.5973 12.3219 31.8687 12.3604 32.0859 12.3893ZM20.056 24.2684C20.0451 24.3839 20.0234 24.432 20.0234 24.4802C20.0343 25.9338 20.1646 26.0204 18.384 26.3669C18.2211 26.3958 18.0257 26.6172 17.9823 26.7713C17.7108 27.7724 17.4611 28.7736 17.2548 29.7747C17.2114 29.9961 17.2765 30.3138 17.4394 30.4582C18.0691 31.055 18.6988 31.6519 19.4263 32.1428C20.5554 32.913 21.88 33.2018 23.3132 33.0285C25.3435 32.7878 26.7549 31.7 27.9275 30.3234C28.0361 30.1983 28.047 29.9576 28.0035 29.7844C27.8407 29.0335 27.5909 28.2826 27.4824 27.5318C27.3629 26.7039 27.0372 26.184 25.9949 26.1455C25.4846 26.1263 25.2241 25.7797 25.2241 25.308C25.2241 24.9711 25.2241 24.6342 25.2241 24.2491C23.4869 24.7497 21.7823 24.7497 20.056 24.2684ZM13.0639 27.5221C12.9771 27.5221 12.9228 27.5125 12.8685 27.5221C12.7491 27.551 12.6188 27.5799 12.5102 27.6184C10.6102 28.2345 9.12272 29.303 8.06956 30.8433C7.3747 31.8637 7.00555 32.9707 6.88612 34.1548C6.75583 35.3292 6.60383 36.5036 6.46269 37.6973C7.58099 37.6973 8.63414 37.6973 9.71987 37.6973C10.241 34.1644 11.989 30.9492 13.0639 27.5221ZM32.1401 27.4451C32.8024 29.2164 33.1499 30.6122 33.7362 32.2872L35.3756 28.995C34.279 27.9649 34.0293 27.9264 32.1401 27.4451ZM15.8542 35.5699C20.4034 36.3785 24.8766 36.3785 29.415 35.5699C29.1327 34.4051 28.8612 33.2884 28.579 32.0947C26.9069 33.6157 25.0395 34.6361 22.6292 34.6361C20.2297 34.6361 18.3623 33.6061 16.7011 32.0947C16.3971 33.298 16.1257 34.4147 15.8542 35.5699ZM30.6961 18.4925C30.6744 18.5406 30.6418 18.5791 30.6418 18.6272C30.251 20.6584 29.1327 22.2757 27.1784 23.4212C27.0915 23.4694 26.9938 23.556 26.9938 23.6234C26.9721 24.0085 26.9829 24.4031 26.9829 24.8267C27.3847 24.7497 27.6887 24.6438 28.0035 24.6342C28.7852 24.6053 29.5561 24.6342 30.3378 24.6246C30.8373 24.6246 31.1847 24.8171 31.3041 25.2406C31.4127 25.6642 31.6733 25.8375 32.151 25.7894C32.151 23.325 32.151 20.851 32.151 18.3962C31.6299 18.4347 31.163 18.4636 30.6961 18.4925ZM13.1073 18.4058C13.1073 20.8895 13.1073 23.3442 13.1073 25.799C13.5851 25.8375 13.8456 25.6835 13.9542 25.2792C14.0736 24.8267 14.4319 24.6246 14.9531 24.6342C15.7348 24.6438 16.5057 24.6149 17.2874 24.6438C17.6023 24.6534 17.9171 24.7593 18.2863 24.8267C18.2863 24.5668 18.2645 24.3743 18.2863 24.1914C18.3514 23.7293 18.156 23.4597 17.7108 23.1806C16.2234 22.2564 15.2788 20.9665 14.8011 19.4166C14.7034 19.1086 14.6382 18.8005 14.5622 18.5021C14.0736 18.4636 13.6068 18.4347 13.1073 18.4058ZM30.8156 16.9041C31.7059 17.01 32.3899 16.7982 32.8133 16.1436C33.1716 15.5949 33.139 15.0366 32.7264 14.5167C32.3356 14.0258 31.8036 13.7948 31.0978 13.8718C31.0001 14.8922 30.9133 15.8741 30.8156 16.9041ZM14.1605 13.8621C12.9553 13.8429 12.1519 14.5456 12.217 15.4794C12.2822 16.4324 13.2268 17.0389 14.4428 16.8656C14.3451 15.8837 14.2474 14.8825 14.1605 13.8621Z" fill="#B3686F"/>
<path d="M40.873 26.6365C40.9924 26.6365 41.1119 26.6365 41.2313 26.6365C41.7525 26.9542 42.2845 27.2815 42.8382 27.6184C42.8599 27.6088 42.9359 27.5606 43.0228 27.5125C43.8153 27.0697 44.6839 26.8483 45.6285 26.8579C45.9434 26.8579 46.1931 26.9734 46.3234 27.2141C46.5188 27.5703 46.6817 27.9361 46.8445 28.3019C46.9097 28.4559 46.9314 28.6292 46.9857 28.8313C47.5937 28.2923 48.1583 27.7821 48.7337 27.2719C49.2114 26.8483 49.6348 26.8387 50.0908 27.3007C50.4166 27.6377 50.7097 27.9938 51.0246 28.35C52.1537 28.042 52.9897 28.0131 53.9126 28.2345C54.26 28.3211 54.488 28.504 54.5532 28.8121C54.6183 29.1586 54.716 29.5052 54.7052 29.8421C54.6835 30.362 54.564 30.8914 54.488 31.4016C54.8463 31.6519 55.2481 31.9022 55.6172 32.191C56.1166 32.5857 56.1166 32.9611 55.6498 33.375C55.1286 33.8371 54.6075 34.2992 54.0863 34.7613C54.0212 34.819 53.9669 34.8768 53.8909 34.9538C54.564 35.0404 55.1503 35.2233 55.6932 35.5121C55.9646 35.6565 56.1275 35.8683 56.1058 36.1475C56.0732 36.5133 56.0732 36.8887 55.9538 37.2256C55.7801 37.7262 55.5195 38.2075 55.2915 38.6889C55.5738 39.0354 55.9103 39.4012 56.2035 39.7863C56.5075 40.1906 56.3772 40.5853 55.9103 40.826C55.5521 41.0185 55.1829 41.1918 54.8246 41.3939C54.7486 41.4324 54.6726 41.5287 54.6509 41.6057C54.6075 41.9041 54.4229 42.0967 54.1298 42.2314C50.4274 43.8679 46.5622 45.0616 42.5125 45.7836C42.1759 45.8414 41.8393 45.9087 41.4919 45.9665C41.5245 46.005 41.5245 46.0243 41.5353 46.0339C41.8827 46.3901 41.8936 46.7944 41.5679 47.0639C41.2422 47.3335 40.7753 47.3046 40.4062 46.9677C40.2216 46.804 40.0587 46.6211 39.8741 46.4382C39.7547 46.5248 39.7004 46.5633 39.6461 46.6115C38.0936 47.8822 36.3672 48.9411 34.4998 49.8075C33.9786 50.0481 33.7181 50.0193 33.3055 49.6534C32.3718 48.8256 31.438 47.9977 30.5043 47.1698C30.3197 47.0062 30.1677 46.8136 30.0049 46.6307C30.0049 46.5056 30.0049 46.3901 30.0049 46.2649C30.8192 44.8787 31.7529 43.5695 32.8712 42.3566C33.2186 41.9811 33.5769 41.625 33.9786 41.211C33.7398 41.0185 33.4901 40.8356 33.2729 40.6334C32.9906 40.3639 33.0123 39.9596 33.2838 39.6997C33.5552 39.4397 34.0112 39.4205 34.3369 39.6515C34.3912 39.69 34.4455 39.7382 34.5107 39.7767C34.7061 38.9777 34.8907 38.1883 35.0969 37.3989C35.9221 34.3281 37.149 31.392 38.7341 28.5618C38.8861 28.2923 39.1033 28.1382 39.4399 28.0997C39.5267 28.0901 39.6353 28.0131 39.6787 27.9457C39.8741 27.6665 40.0587 27.3874 40.2324 27.0986C40.3953 26.9157 40.5799 26.7328 40.873 26.6365ZM39.5701 30.2657C39.5159 30.362 39.4724 30.439 39.4399 30.516C37.7461 33.7986 36.5735 37.2256 35.9221 40.7874C35.8895 40.98 35.933 41.0955 36.085 41.2206C37.2358 42.2314 38.3758 43.2518 39.5267 44.2626C39.581 44.3107 39.6353 44.3492 39.7004 44.3974C42.5233 40.1906 42.4908 34.4821 39.5701 30.2657ZM41.3833 44.6092C45.1725 43.9834 48.7771 42.963 52.284 41.5191C52.1646 41.4517 52.0886 41.4035 52.0017 41.3747C51.0897 41.0089 50.1994 40.6045 49.2548 40.3061C47.3657 39.7093 45.4005 39.4879 43.3919 39.5841C43.2616 39.5938 43.1639 39.5938 43.1313 39.7574C42.9468 40.8837 42.621 41.9715 42.1542 43.0304C41.9153 43.5502 41.6439 44.0605 41.3833 44.6092ZM54.0863 32.8456C53.576 32.5279 53.0657 32.3258 52.5012 32.2391C51.8497 32.1429 51.2417 32.2006 50.7206 32.6049C50.3406 32.9034 49.9063 32.913 49.5914 32.6434C49.2765 32.3643 49.3091 31.9888 49.624 31.623C49.8086 31.4016 49.9714 31.1417 50.0257 30.8818C50.2103 30.0732 49.8954 29.3608 49.3743 28.6966C49.3634 28.6869 49.3417 28.6869 49.3634 28.6966C48.5274 29.4282 47.6697 30.1213 46.8879 30.8722C46.1171 31.6038 45.8999 32.5183 46.1605 33.4809C46.7468 35.7143 49.8194 36.5229 51.7086 34.9538C52.0126 34.7035 52.3057 34.434 52.5989 34.1644C53.0875 33.7312 53.576 33.298 54.0863 32.8456ZM35.0427 42.2892C35.0318 42.2892 35.0101 42.2988 34.9992 42.3181C33.7615 43.5021 32.6975 44.8113 31.818 46.2264C31.742 46.3419 31.7963 46.3997 31.8832 46.4767C32.5781 47.0928 33.2838 47.7089 33.9678 48.3346C34.0872 48.4405 34.1632 48.4501 34.3152 48.3827C35.5312 47.7859 36.6712 47.0928 37.7461 46.3034C38.0827 46.0531 38.3976 45.8028 38.7233 45.5526C37.4855 44.4551 36.2695 43.377 35.0427 42.2892ZM51.296 36.8213C49.5588 37.2353 49.3091 37.2353 47.6914 36.8598C47.6371 36.8502 47.5285 36.8598 47.496 36.8983C47.0725 37.3027 46.8119 37.784 46.6925 38.3327C46.9748 38.3808 47.2462 38.4097 47.5177 38.4578C49.5588 38.814 51.4806 39.4686 53.2612 40.412C53.3372 40.4505 53.4675 40.489 53.5326 40.4601C53.8475 40.3157 54.1515 40.1521 54.4663 39.9884C53.7172 38.9873 52.3817 38.6119 51.1657 39.0354C50.8834 39.1317 50.612 39.1028 50.3731 38.9295C50.156 38.7659 50.0691 38.5445 50.1126 38.2942C50.156 38.0728 50.308 37.9091 50.5251 37.7936C50.916 37.5818 51.144 37.2545 51.296 36.8213ZM41.2965 28.3019C41.1336 28.5522 40.9924 28.7832 40.8296 28.995C40.7102 29.1586 40.7102 29.2742 40.8296 29.4474C41.5245 30.4582 42.089 31.5171 42.469 32.6531C42.7513 33.4906 42.9685 34.3377 43.2182 35.2041C43.7828 35.1174 44.3256 34.8768 44.7816 34.5013C44.8251 34.4628 44.8251 34.3377 44.8034 34.2607C44.4233 33.2692 44.4233 32.2776 44.8359 31.2861C44.8576 31.238 44.8576 31.1995 44.8794 31.1224C44.4016 31.2572 44.0433 31.4594 43.7719 31.7963C43.6851 31.9118 43.5656 32.0273 43.4353 32.0947C43.153 32.2487 42.7948 32.2006 42.5559 32.0081C42.3062 31.8059 42.2302 31.4883 42.393 31.1898C42.5668 30.8722 42.6645 30.5545 42.6102 30.1983C42.469 29.4282 41.9696 28.8313 41.2965 28.3019ZM45.1399 38.1979C45.2919 37.4182 45.6502 36.7154 46.1931 36.1282C46.0085 35.9549 45.8565 35.8009 45.6828 35.6276C44.9879 36.1475 44.1845 36.4459 43.3376 36.5903C43.3376 37.139 43.3376 37.6685 43.3376 38.1979C43.9348 38.1979 44.5319 38.1979 45.1399 38.1979ZM53.9777 37.8514C54.2926 37.4663 54.488 37.0331 54.5423 36.5422C54.0646 36.3496 53.5652 36.2822 53.0549 36.3111C53.0115 36.3111 52.9463 36.3593 52.9355 36.3978C52.8595 36.7636 52.7943 37.1198 52.7292 37.4759C53.1309 37.6011 53.5435 37.7262 53.9777 37.8514ZM45.1834 28.2441C44.6188 28.3115 44.1302 28.4752 43.7068 28.7543C43.8588 29.1394 43.9999 29.5148 44.1302 29.8614C44.5211 29.8036 44.9119 29.7459 45.2919 29.6785C45.3571 29.6688 45.4331 29.5918 45.4439 29.5437C45.4765 29.1009 45.4114 28.6677 45.1834 28.2441ZM51.5566 29.64C51.5892 30.0635 51.6217 30.439 51.6434 30.8048C52.0886 30.8337 52.5229 30.8625 52.9572 30.8818C53.1417 30.4775 53.196 30.0539 53.1526 29.6111C53.1417 29.5533 53.0657 29.4667 53.0115 29.4667C52.512 29.4282 52.0126 29.4667 51.5566 29.64Z" fill="#B3686F"/>
</g>
<defs>
<clipPath id="clip0_1414_4520">
<rect width="56.3927" height="50" fill="white" transform="translate(-0.00439453)"/>
</clipPath>
</defs>
</svg>
