<svg width="57" height="50" viewBox="0 0 57 50" fill="none" xmlns="http://www.w3.org/2000/svg">
<g clip-path="url(#clip0_1407_2123)">
<path d="M28.0818 0C28.225 0 28.3792 0 28.5224 0C29.8331 0.185547 30.9455 0.703125 31.6174 1.73828C31.9698 2.27539 32.2782 2.34375 32.9391 2.20703C35.3292 1.70898 37.4219 2.92969 37.7192 4.99023C37.8184 5.67383 37.6531 6.38672 37.6091 7.08984C37.6642 7.08008 37.7853 7.06055 37.9065 7.03125C38.8427 6.81641 38.9859 6.89453 39.3273 7.70508C39.5586 8.26172 39.7899 8.80859 40.0432 9.4043C40.4287 8.75977 40.7371 8.1543 41.1226 7.59766C42.5435 5.50781 44.3718 3.70117 46.2773 1.96289C47.0042 1.2793 47.7972 0.654297 48.5682 0C48.7114 0 48.8656 0 49.0088 0C49.6146 0.458984 49.6366 0.742188 49.0749 1.24023C48.9207 1.37695 48.7555 1.51367 48.6013 1.65039C46.6187 3.34961 44.7463 5.13672 43.1492 7.12891C42.8408 7.51953 42.5545 7.92969 42.2571 8.33008C42.4443 8.33984 42.5435 8.29102 42.6426 8.22266C44.9996 6.60156 47.5769 5.3418 50.4627 4.6582C51.8394 4.33594 53.2603 4.18945 54.6811 4.01367C54.9124 3.98437 55.2649 4.17969 55.4301 4.36523C55.6614 4.63867 55.4741 4.92188 55.2098 5.13672C55.0776 5.24414 54.9454 5.36133 54.8023 5.46875C52.1148 7.60742 49.6807 9.95117 47.6761 12.6172C47.0152 13.4863 46.4425 14.4043 45.8697 15.2344C46.5306 15.791 47.1033 16.2695 47.6871 16.7578C48.0726 16.3867 48.4801 15.9766 48.9207 15.5859C50.7711 13.9453 52.8748 12.5781 55.0005 11.2402C55.6614 10.8203 55.9257 10.8496 56.3993 11.4258C56.3993 11.5234 56.3993 11.6211 56.3993 11.7188C56.168 11.9238 55.9477 12.1387 55.7054 12.3145C53.9321 13.5742 52.1478 14.8145 50.3856 16.0742C50.0001 16.3477 49.6807 16.6992 49.2401 17.1094C49.6366 17.1094 49.8679 17.0996 50.0992 17.1094C51.6412 17.1973 52.8417 17.7832 53.5356 19.043C54.0423 19.9707 54.0202 20.957 53.7339 21.9434C53.6898 22.0898 53.7339 22.3828 53.833 22.4219C55.1988 23.0273 56.0248 24.0039 56.4103 25.293C56.4103 25.5859 56.4103 25.8789 56.4103 26.1719C56.157 27.207 55.6063 28.0762 54.604 28.7012C54.2956 28.8965 53.9652 29.0625 53.6237 29.2578C53.6788 29.4434 53.7339 29.6191 53.789 29.7852C54.2736 31.3672 53.7229 32.9297 52.4452 33.7891C52.2139 33.9453 51.9936 34.2188 51.9276 34.4629C50.9032 38.3887 49.9009 42.3145 48.8986 46.25C48.6233 47.3145 48.37 48.3789 48.0506 49.4238C47.9845 49.6484 47.654 49.8828 47.4007 49.9609C47.2355 50.0098 46.883 49.7949 46.7729 49.6191C46.6628 49.4531 46.7068 49.1699 46.7619 48.9551C47.4888 46.0742 48.2378 43.1934 48.9868 40.3027C49.4824 38.3691 49.978 36.4453 50.4627 34.5312C49.6586 34.4238 48.8876 34.3262 48.0726 34.2188C48.0285 34.2969 47.9514 34.4043 47.8853 34.5117C46.7949 36.3184 44.5811 37.1582 42.5545 36.2988C42.4664 36.2598 42.3342 36.2305 42.2461 36.2598C41.1777 36.582 40.1203 36.9141 38.9528 37.2754C39.7679 37.3145 40.4618 37.3535 41.1557 37.3926C42.0258 37.4414 42.2901 37.7246 42.0809 38.457C41.0345 42.0801 39.9771 45.6934 38.9198 49.3066C38.7766 49.8145 38.4241 50.0586 38.0166 49.9512C37.5871 49.8438 37.4219 49.5117 37.565 49.0039C38.1047 47.1289 38.6444 45.2637 39.1951 43.3887C39.6467 41.8164 40.0983 40.2539 40.5719 38.623C39.5256 38.5645 38.5453 38.5059 37.565 38.457C37.4329 38.4473 37.2897 38.5352 37.1685 38.6035C35.9459 39.3848 34.6022 39.5215 33.1924 39.1504C32.6968 39.0137 32.4875 39.1113 32.2342 39.5215C30.6481 42.0801 27.2117 42.4121 25.152 40.2344C24.8106 39.8828 24.5573 39.4629 24.2709 39.0723C22.7069 39.4043 21.991 39.4629 21.242 39.3066C19.3586 38.916 18.158 37.6367 18.0038 35.918C17.9928 35.752 17.9157 35.498 17.7835 35.4395C17.1888 35.166 16.5499 34.9609 15.9221 34.7168C14.9749 35.9473 13.7744 36.748 12.0231 36.6211C10.2608 36.4844 9.21449 35.4883 8.45451 34.209C7.93684 34.3164 7.46323 34.4141 6.94556 34.5215C6.97861 34.668 6.98962 34.8145 7.03368 34.9512C8.06901 38.6621 9.10435 42.3633 10.1287 46.0742C10.415 47.0801 10.6904 48.0957 10.9547 49.1016C11.0759 49.5703 10.8666 49.9219 10.4371 49.9707C9.94143 50.0293 9.69911 49.7754 9.59999 49.375C9.57796 49.2676 9.5339 49.1504 9.50086 49.043C8.17916 44.2773 6.84644 39.5215 5.52473 34.7559C5.44763 34.4727 5.29344 34.3359 4.97402 34.2383C3.72942 33.8281 2.96944 33.0273 2.65003 31.8848C2.40772 31.0059 2.56191 30.1465 2.84828 29.2773C1.25122 28.6328 0.281975 27.5879 -0.00439453 26.0742C-0.00439453 25.9473 -0.00439453 25.8105 -0.00439453 25.6836C0.204875 24.3652 0.931812 23.3301 2.2425 22.6855C2.7051 22.4609 2.77118 22.2656 2.63901 21.8262C1.80193 19.0332 3.9497 16.8555 7.16585 17.1875C7.35309 17.207 7.52932 17.2363 7.80467 17.2656C7.48526 16.7676 7.23193 16.3281 6.93455 15.9277C5.39256 13.7988 3.45406 11.9531 1.46049 10.166C0.964855 9.7168 0.48023 9.24805 -0.00439453 8.78906C-0.00439453 8.66211 -0.00439453 8.52539 -0.00439453 8.39844C0.579358 7.91992 0.865727 7.87109 1.33934 8.31055C2.87031 9.7168 4.43433 11.0938 5.86617 12.5684C7.02266 13.7793 8.00293 15.1172 9.06029 16.416C9.2255 16.2598 9.44579 16.0156 9.72114 15.8301C10.0075 15.6348 10.0406 15.4492 9.9194 15.166C9.41275 13.9941 8.98319 12.8027 8.43248 11.6602C6.505 7.74414 4.04883 4.12109 0.414145 1.2207C0.259946 1.09375 0.13879 0.927734 -0.00439453 0.78125C-0.00439453 0.517578 -0.00439453 0.263672 -0.00439453 0C0.326031 0 0.656457 0 0.986883 0C1.08601 0.0683594 1.18514 0.136719 1.28427 0.195312C6.41688 2.77344 10.9878 5.95703 14.9749 9.80469C15.052 9.88281 15.1401 9.94141 15.2282 10.0098C15.2723 9.99023 15.3053 9.9707 15.3494 9.95117C14.8317 9.01367 14.3471 8.04688 13.7744 7.13867C12.3866 4.93164 10.5692 3.02734 8.54262 1.26953C7.92583 0.732422 7.9809 0.400391 8.69682 0C8.80696 0 8.91711 0 9.02725 0C9.1484 0.0878906 9.29159 0.175781 9.40173 0.273438C12.2104 2.67578 14.5894 5.36133 16.1755 8.55469C16.3407 8.88672 16.4949 9.22852 16.6821 9.62891C17.0456 8.75 17.6183 8.10547 18.4003 7.62695C19.1273 7.17773 19.1383 7.19727 18.9621 6.40625C18.4224 3.93555 20.2617 2.03125 23.0924 2.1582C23.577 2.17773 24.0616 2.29492 24.5683 2.38281C25.2842 1.04492 26.4407 0.234375 28.0818 0ZM34.1286 20.8691C34.1616 20.7129 34.1947 20.5859 34.2167 20.459C34.6463 18.3398 36.4416 17.0703 38.8537 17.1875C39.3163 17.207 39.867 17.4609 40.2195 17.3145C40.5829 17.168 40.7481 16.6406 41.0455 16.3184C41.2438 16.1035 41.2438 15.9375 41.1447 15.7031C40.7041 14.6582 40.2745 13.6035 39.834 12.5488C39.2502 11.1328 38.6554 9.7168 38.0607 8.28125C31.0226 10.0195 24.0286 11.748 16.9905 13.4863C18.18 16.084 19.3476 18.6328 20.5261 21.2012C21.7927 20.8105 22.9933 20.918 24.1828 21.2695C24.2929 21.084 24.381 20.9375 24.4692 20.8008C25.5265 19.0918 27.5201 18.2617 29.4476 18.7695C30.7142 19.1016 31.6064 19.8535 32.2011 20.8691C32.3884 21.1816 32.5536 21.25 32.917 21.123C33.2805 20.9961 33.688 20.957 34.1286 20.8691ZM17.1337 17.1387C16.594 15.9473 16.0653 14.7949 15.5256 13.6328C15.3274 13.2227 15.2172 12.832 15.6798 12.4902C12.6399 9.12109 9.10435 6.29883 5.11721 3.88672C7.92583 7.29492 9.94143 11.0449 11.3402 15.0391C13.3448 14.7461 14.7877 15.4492 15.7569 16.8848C16.0763 17.3633 16.3627 17.4414 16.8694 17.2363C16.9354 17.2168 17.0015 17.1973 17.1337 17.1387ZM31.2098 29.3359C32.0579 29.1211 32.862 28.9453 33.644 28.7207C35.6045 28.1641 36.8601 27.0312 37.2897 25.2246C37.6642 23.6426 36.4856 22.207 34.7564 22.168C32.917 22.1289 31.4301 22.8223 30.56 24.2383C29.9652 25.2051 29.7119 26.3379 29.3374 27.4023C29.3044 27.4902 29.3925 27.6855 29.4696 27.7148C30.2957 28.0078 30.8243 28.5645 31.2098 29.3359ZM27.4099 32.6758C26.5949 32.373 25.9671 31.9141 25.6036 31.1914C25.5596 31.1133 25.2842 31.0645 25.141 31.0938C24.4471 31.2402 23.7532 31.3867 23.0704 31.582C21.1539 32.1387 19.8652 33.2324 19.4247 35.0293C18.9951 36.8066 20.3609 38.291 22.3654 38.1543C24.0286 38.0469 25.3393 37.3438 26.1764 36.0645C26.8592 35.0293 27.1897 33.877 27.4099 32.6758ZM19.3365 25.0293C19.5018 26.3867 20.3278 27.7051 22.1121 28.3984C23.0814 28.7695 24.1167 28.9844 25.13 29.2676C25.4054 29.3457 25.5596 29.2773 25.6807 29.0332C25.9451 28.4766 26.4077 28.0566 27.0355 27.8125C27.3439 27.6953 27.3879 27.5293 27.3108 27.2754C27.1236 26.6699 26.9694 26.0449 26.7491 25.4492C26.0993 23.7109 24.8106 22.5684 22.7399 22.2266C20.8455 21.9043 19.2594 23.0762 19.3365 25.0293ZM29.2824 32.6758C29.5137 33.4277 29.7119 34.1699 29.9763 34.8828C30.5931 36.5234 31.7936 37.6367 33.7431 38.0371C35.8578 38.4668 37.4769 37.2852 37.3448 35.3906C37.2566 34.0234 36.5077 32.9395 35.219 32.1973C34.0075 31.5039 32.6197 31.1914 31.1658 30.9863C30.8574 31.8066 30.2076 32.3242 29.2824 32.6758ZM52.6104 5.50781C52.5003 5.50781 52.4672 5.49805 52.4342 5.50781C47.9955 6.34766 44.2727 8.32031 41.0676 11.123C40.9574 11.2207 40.9023 11.4746 40.9574 11.6211C41.3649 12.6758 41.8165 13.7305 42.2461 14.7852C42.3122 14.9414 42.3782 15.1074 42.4333 15.2344C43.0391 15.1367 43.5788 15.0684 44.1075 14.9512C44.3057 14.9121 44.548 14.7949 44.6362 14.6582C46.09 12.1484 47.9735 9.91211 50.1102 7.8418C50.9253 7.05078 51.7623 6.29883 52.6104 5.50781ZM11.2962 23.2324C11.1199 22.6953 10.9437 22.0117 10.6904 21.3574C10.0406 19.6484 8.74088 18.5938 6.68122 18.3984C5.27141 18.2617 4.181 19.0137 3.91666 20.2441C3.74043 21.0547 4.00477 21.7871 4.44534 22.4805C5.56879 24.2773 7.5954 24.5801 9.3797 24.9609C10.0406 24.3555 10.6023 23.8477 11.2962 23.2324ZM9.56694 26.6309C8.80696 26.8164 8.09104 26.9727 7.39715 27.168C5.29343 27.7637 4.00477 29.1504 3.90565 30.8789C3.83956 32.0898 4.66563 33.0273 6.00936 33.2324C7.58439 33.4668 9.57796 32.5781 10.2719 31.2012C10.7124 30.332 10.9657 29.3945 11.2852 28.4863C11.3182 28.3887 11.2411 28.1738 11.153 28.1445C10.415 27.832 9.93041 27.3242 9.56694 26.6309ZM49.8459 33.2227C51.476 33.2617 52.5884 32.3145 52.5333 30.8789C52.4672 29.4141 51.6852 28.2715 50.2314 27.6172C49.2841 27.1875 48.2048 26.9824 47.1694 26.6992C47.0372 26.6602 46.8059 26.8066 46.6738 26.9238C46.2442 27.2852 45.8697 27.7051 45.4071 28.0273C45.1869 28.1836 45.0877 28.3105 45.1648 28.5352C45.3521 29.1309 45.4953 29.7363 45.7266 30.3125C46.4865 32.1094 48.0175 33.1738 49.8459 33.2227ZM44.9335 23.3789C45.8037 23.7012 46.3323 24.1211 46.6958 24.7168C46.7619 24.8242 47.0262 24.9121 47.1694 24.8828C47.8413 24.7461 48.5242 24.5996 49.174 24.4043C50.9583 23.8672 52.1148 22.8027 52.4562 21.1328C52.7867 19.5605 51.5861 18.3008 49.7798 18.3789C48.1497 18.457 46.85 19.1406 46.1341 20.4492C45.6384 21.3672 45.3411 22.373 44.9335 23.3789ZM27.3769 7.98828C27.2227 7.5 27.0465 6.8457 26.8042 6.2207C26.2645 4.79492 25.2181 3.81836 23.5329 3.45703C21.5834 3.03711 19.9643 4.23828 20.3168 5.91797C20.46 6.5918 20.8124 7.29492 21.275 7.8418C22.3544 9.12109 24.0616 9.3457 25.5375 9.6582C26.1764 9.0918 26.705 8.60352 27.3769 7.98828ZM35.6045 20.957C35.6155 20.9668 35.6265 20.9863 35.6376 20.9961C37.3668 21.4746 38.4241 22.4805 38.6995 24.1016C38.7215 24.2188 38.8978 24.375 39.0299 24.4141C39.8119 24.6387 40.605 24.8242 41.2107 24.9805C41.8936 24.3652 42.4664 23.8477 43.1602 23.2227C42.984 22.6855 42.7858 21.9824 42.5324 21.2988C42.0919 20.0977 41.2328 19.209 39.9111 18.7012C37.9065 17.9297 35.6926 18.8672 35.6045 20.957ZM36.4967 5.66406C36.4526 5.64453 36.4085 5.63477 36.3645 5.61523C36.3975 4.15039 35.175 3.16406 33.5338 3.34961C32.6968 3.44727 31.9588 3.75 31.298 4.21875C30.2076 4.99023 29.8661 6.10352 29.4916 7.20703C29.3044 7.76367 29.1171 8.31055 30.0093 8.54492C30.0534 8.55469 30.0864 8.62305 30.1415 8.63281C30.3728 8.68164 30.6151 8.79883 30.8243 8.75977C32.3333 8.4082 33.8202 8.03711 35.3181 7.65625C35.4723 7.61719 35.6816 7.51953 35.7367 7.40234C36.012 6.83594 36.2433 6.25 36.4967 5.66406ZM13.2126 23.4375C13.9506 23.7012 14.4903 24.1309 14.8538 24.7559C14.8978 24.8438 15.1291 24.9219 15.2393 24.8926C16.0323 24.7168 16.8253 24.5215 17.6073 24.2969C17.7725 24.248 17.9598 24.0527 17.9928 23.8965C18.158 23.1738 18.5215 22.5586 19.0722 22.0117C19.1493 21.9336 19.2374 21.7773 19.2044 21.6895C18.7087 20.5762 18.2021 19.4727 17.6954 18.3691C15.074 18.7891 13.7193 20.3223 13.2126 23.4375ZM28.3241 25.6836C28.8969 24.0723 29.6458 22.7246 31.1768 21.8555C30.571 20.7129 29.7339 19.8633 28.258 19.8828C26.8262 19.9023 26.0111 20.752 25.4164 21.875C26.9914 22.7246 27.7404 24.082 28.3241 25.6836ZM37.6752 27.5879C36.6949 28.9746 35.1639 29.6191 33.3796 30.1367C35.186 30.625 36.7059 31.2988 37.6972 32.6367C39.052 32.1875 39.9441 31.1914 39.9661 30.1465C39.9771 29.0918 39.096 28.0762 37.6752 27.5879ZM28.3682 34.5996C27.8175 36.2109 27.0685 37.5586 25.5485 38.4277C26.0332 39.6582 27.2007 40.4492 28.4453 40.4297C29.6348 40.4102 30.8133 39.5605 31.2098 38.4082C29.6899 37.5586 28.9409 36.2012 28.3682 34.5996ZM19.0171 27.666C17.5633 28.1543 16.6821 29.2188 16.7482 30.3125C16.8143 31.3477 17.8166 32.3926 19.0502 32.6953C19.9864 31.3477 21.5063 30.7031 23.2906 30.1758C21.4953 29.6484 19.9864 29.0234 19.0171 27.666ZM14.8538 18.0371C14.281 16.8457 13.2677 16.1816 12.1333 16.2207C11.0759 16.2598 10.0516 16.9922 9.63303 18.0566C11.0208 18.8184 11.7037 20.0488 12.2544 21.4746C12.7831 20.0391 13.466 18.8379 14.8538 18.0371ZM52.9409 28.0664C54.1744 27.666 54.9895 26.7188 54.9565 25.7031C54.9234 24.7461 54.0533 23.7988 52.8748 23.4766C52.0157 24.6973 50.6389 25.293 49.0859 25.7812C50.9142 26.4551 51.3658 26.4551 52.9409 28.0664ZM3.36595 28.125C4.00477 27.6172 4.53346 27.1094 5.16126 26.7383C5.8111 26.3574 6.56007 26.1133 7.287 25.791C5.75603 25.3711 4.39027 24.7266 3.47609 23.5059C2.3196 24.0039 1.46049 24.6777 1.46049 25.8398C1.46049 27.0117 2.3196 27.6758 3.36595 28.125ZM44.1075 21.4941C44.6472 20.0684 45.319 18.8379 46.6958 18.0566C46.2773 16.9629 45.2089 16.2207 44.0965 16.2207C42.995 16.2207 41.9046 16.9824 41.5081 18.0664C42.8629 18.8281 43.5678 20.0195 44.1075 21.4941ZM46.828 33.584C45.3961 32.8027 44.7243 31.5723 44.1956 30.2539C43.8211 30.9277 43.5568 31.582 43.1272 32.1387C42.7087 32.6953 42.1359 33.1641 41.5852 33.7109C42.0809 34.6094 42.8078 35.3711 44.1075 35.3906C45.4622 35.4102 46.2222 34.6289 46.828 33.584ZM12.2764 30.1758C11.7698 31.5918 11.0539 32.8125 9.67709 33.6133C10.2278 34.6191 10.9657 35.3613 12.2544 35.4004C13.4219 35.4297 14.1819 34.8047 14.7436 33.9648C14.9088 33.7109 14.8538 33.584 14.6114 33.3594C13.9947 32.7734 13.4219 32.1484 12.9042 31.4844C12.6289 31.123 12.5077 30.6543 12.2764 30.1758ZM30.7472 2.89062C30.2847 2.01172 29.5687 1.28906 28.3131 1.28906C27.0575 1.29883 26.3416 2.01172 25.8349 3.00781C27.1456 3.73047 27.8065 4.88281 28.3021 6.14258C28.6435 5.52734 28.8858 4.93164 29.2824 4.41406C29.6679 3.89648 30.2076 3.44727 30.7472 2.89062ZM13.2677 28.1836C13.7303 30.8496 14.7877 32.4609 16.8033 32.9785C15.79 32.1289 15.2833 31.1426 15.3384 29.9805C15.4045 28.8086 16.0984 27.9102 17.1998 27.1094C16.4508 26.9434 15.845 26.7969 15.2282 26.6797C15.1181 26.6602 14.9088 26.7285 14.8758 26.8066C14.5564 27.4609 13.9726 27.8809 13.2677 28.1836ZM19.8872 8.31055C19.6119 8.44727 19.3696 8.55469 19.1383 8.69141C18.0258 9.35547 17.6624 10.5566 18.2682 11.5039C18.4224 11.7383 18.5655 11.8066 18.8739 11.7285C20.2067 11.377 21.5504 11.0645 22.8941 10.7324C23.0924 10.6836 23.3016 10.625 23.6431 10.5273C22.057 10.0684 20.7574 9.47266 19.8872 8.31055ZM41.442 26.6504C40.8032 26.7969 40.2195 26.9238 39.5916 27.0703C41.8826 29.3555 41.9487 30.5859 39.867 32.998C40.8803 32.5781 41.6843 32.0898 42.0809 31.2695C42.5104 30.3809 42.8078 29.4336 43.1382 28.5156C43.1823 28.4082 43.0942 28.1738 42.984 28.125C42.2791 27.8125 41.7945 27.334 41.442 26.6504ZM29.9432 30.1465C29.9432 29.3945 29.2163 28.7402 28.3572 28.7402C27.4981 28.7402 26.7711 29.375 26.7601 30.1367C26.7491 30.9277 27.476 31.5625 28.3682 31.5527C29.2383 31.543 29.9432 30.9082 29.9432 30.1465ZM44.1515 27.0801C44.9225 27.0801 45.5944 26.4746 45.5834 25.8008C45.5724 25.1367 44.8785 24.5215 44.1295 24.5215C43.3695 24.5215 42.7087 25.127 42.7087 25.8105C42.7087 26.5137 43.3585 27.0801 44.1515 27.0801ZM13.7083 25.8203C13.7193 25.1465 13.0364 24.5312 12.2875 24.5215C11.5495 24.5117 10.8336 25.1367 10.8226 25.791C10.8115 26.4648 11.4834 27.0703 12.2544 27.0703C13.0254 27.0898 13.6973 26.5039 13.7083 25.8203ZM40.2745 34.209C39.7238 34.3262 39.1951 34.4434 38.6885 34.541C38.7325 35.0391 38.7656 35.4785 38.8096 35.9766C39.5696 35.7617 40.3076 35.5469 41.0676 35.332C40.7702 34.9316 40.5279 34.5703 40.2745 34.209ZM18.0038 25.5273C17.7285 25.6055 17.5192 25.6738 17.1447 25.7812C17.5633 25.9082 17.8056 25.9863 18.136 26.0938C18.0809 25.8789 18.0479 25.7422 18.0038 25.5273Z" fill="#B3686F"/>
<path d="M23.3239 17.3828C23.1697 17.2461 22.8503 17.0801 22.8063 16.875C22.7622 16.6699 22.9715 16.3867 23.1367 16.1914C23.2248 16.084 23.4671 16.0644 23.6433 16.0254C27.3331 15.0879 31.0339 14.1504 34.7236 13.2129C34.8448 13.1836 34.9659 13.1445 35.0981 13.125C35.5166 13.0566 35.836 13.1836 35.9682 13.5449C36.1004 13.916 35.8911 14.1894 35.5056 14.3066C34.8668 14.5019 34.2059 14.6484 33.5561 14.8144C30.373 15.6152 27.1899 16.4258 23.9958 17.2266C23.8196 17.2656 23.6433 17.3047 23.3239 17.3828Z" fill="#B3686F"/>
</g>
<defs>
<clipPath id="clip0_1407_2123">
<rect width="56.3927" height="50" fill="white" transform="translate(-0.00439453)"/>
</clipPath>
</defs>
</svg>
