<svg width="271" height="61" viewBox="0 0 271 61" fill="none" xmlns="http://www.w3.org/2000/svg">
<g clip-path="url(#clip0_133_3161)">
<path d="M138.924 15.1835C137.998 14.5957 136.914 14.1416 135.703 13.8343C134.985 13.6562 134.244 13.5048 133.49 13.3935C134.046 13.2332 134.542 13.0373 134.985 12.8103C135.807 12.3873 136.476 11.8975 136.968 11.3543C137.469 10.8066 137.826 10.1877 138.029 9.51981C138.233 8.86529 138.332 8.17959 138.332 7.48499C138.332 5.15631 137.307 3.42427 135.279 2.33339C133.305 1.27368 130.649 0.734919 127.384 0.734919H117.469V1.49186L117.686 1.53193C118.228 1.63434 118.757 1.95492 119.254 2.48478C119.75 3.01908 119.994 3.55339 119.994 4.12331V25.8206C119.994 26.3861 119.746 26.9471 119.254 27.4903C118.852 27.9356 118.431 28.2116 118.002 28.3408V27.851H114.046C113.965 27.851 113.82 27.8332 113.603 27.7975C113.395 27.7664 113.17 27.6907 112.939 27.5705C112.718 27.4592 112.524 27.29 112.352 27.0629C112.194 26.8492 112.113 26.5642 112.113 26.2124V3.73149C112.113 3.37529 112.212 3.06806 112.415 2.79645C112.632 2.50259 112.867 2.27105 113.12 2.08404C113.395 1.84806 113.734 1.6566 114.132 1.51857L114.308 1.45624V0.730469H106.783V1.45624L106.959 1.51857C107.357 1.6566 107.695 1.84806 108.007 2.10631C108.274 2.27105 108.508 2.50258 108.703 2.78755C108.892 3.06361 108.983 3.37084 108.983 3.73149V27.851H91.4625V3.73149C91.4625 3.37529 91.5618 3.06806 91.7651 2.79645C91.9819 2.50259 92.2168 2.2666 92.4697 2.08404C92.7452 1.84806 93.084 1.6566 93.4814 1.51857L93.6576 1.45624V0.730469H86.1328V1.45624L86.309 1.51857C86.7064 1.6566 87.0452 1.84806 87.3568 2.10631C87.6278 2.27105 87.8627 2.50258 88.0569 2.78755C88.2466 3.06361 88.3369 3.37084 88.3369 3.73149V26.2124C88.3369 26.5775 88.2556 26.8892 88.084 27.1653C87.9079 27.4547 87.7001 27.6951 87.4652 27.8777C87.2258 28.0647 87 28.2027 86.7877 28.2873C86.4941 28.4031 86.4083 28.4076 86.3993 28.4076H86.1328V29.209H114.041C114.746 29.209 115.288 29.4183 115.69 29.8502C116.114 30.3043 116.435 30.8208 116.638 31.3819C116.846 31.9562 116.982 32.5217 117.045 33.056C117.122 33.7328 117.14 33.9911 117.14 34.089V34.3517H117.993V29.209H128.928C130.179 29.209 131.561 29.1244 133.038 28.9552C134.524 28.786 135.943 28.412 137.257 27.8421C138.585 27.2677 139.71 26.4262 140.595 25.3353C141.494 24.2311 141.95 22.735 141.95 20.8916C141.95 19.547 141.679 18.3938 141.137 17.4632C140.608 16.5593 139.863 15.7846 138.924 15.1835ZM123.12 14.4087H126.733C128.404 14.4443 130.008 14.5467 131.503 14.7159C132.98 14.8807 134.285 15.1835 135.383 15.6198C136.453 16.0473 137.307 16.6751 137.921 17.4899C138.531 18.2958 138.838 19.4134 138.838 20.8026C138.838 22.3832 138.517 23.6478 137.88 24.5694C137.239 25.4956 136.426 26.2124 135.455 26.6933C134.47 27.1831 133.386 27.5037 132.239 27.6462C131.069 27.7931 129.963 27.8688 128.937 27.8688H123.12V14.4087ZM128.16 13.0462H123.12V2.10631H126.869C129.944 2.10631 132.135 2.56938 133.377 3.48215C134.61 4.39047 135.211 5.69952 135.211 7.4939C135.211 9.30609 134.664 10.6641 133.589 11.5413C132.501 12.4318 130.667 12.9394 128.16 13.0462Z" fill="white"/>
<path d="M168.164 22.7573C167.482 23.532 166.769 24.2667 166.046 24.9479C165.332 25.6203 164.542 26.208 163.697 26.7022C162.857 27.192 161.922 27.5794 160.915 27.851C159.908 28.1226 158.756 28.2606 157.491 28.2606C155.644 28.2606 154.009 27.9044 152.627 27.2009C151.245 26.4974 150.089 25.5312 149.19 24.3424C148.286 23.1446 147.604 21.7376 147.162 20.1525C146.719 18.563 146.493 16.8665 146.493 15.1033C146.493 14.1994 146.57 13.2778 146.728 12.3472H165.91C166.805 12.3472 167.455 12.2893 167.893 12.1691C168.363 12.04 168.697 11.8351 168.887 11.5591C169.072 11.2875 169.149 10.9535 169.126 10.5573C169.104 10.21 169.05 9.78697 168.964 9.30609C168.788 8.12171 168.386 6.98186 167.767 5.91325C167.148 4.84463 166.331 3.90069 165.341 3.09923C164.352 2.30223 163.173 1.6566 161.832 1.18018C160.49 0.708207 159.014 0.467773 157.437 0.467773C155.509 0.467773 153.679 0.83288 151.99 1.54974C150.305 2.27105 148.806 3.28624 147.537 4.57303C146.267 5.85982 145.247 7.42266 144.501 9.21704C143.756 11.007 143.381 12.9884 143.381 15.1033C143.381 17.2494 143.716 19.2353 144.37 21.0074C145.025 22.784 145.969 24.3468 147.175 25.6514C148.386 26.9605 149.885 27.989 151.638 28.7103C153.39 29.4272 155.364 29.7923 157.5 29.7923C158.986 29.7923 160.319 29.6097 161.466 29.2491C162.604 28.8929 163.652 28.412 164.574 27.8198C165.495 27.2321 166.326 26.5508 167.053 25.7939C167.767 25.0503 168.435 24.2711 169.045 23.4786L169.194 23.2827L168.354 22.5569L168.164 22.7573ZM166.023 10.9758H147.004C147.044 10.8155 147.085 10.6552 147.13 10.4949C147.55 8.94544 148.201 7.52507 149.068 6.26945C149.926 5.01828 151.019 3.98083 152.32 3.18383C153.612 2.39573 155.174 1.995 156.972 1.995C158.566 1.995 159.953 2.2666 161.096 2.80981C162.243 3.34857 163.191 4.06099 163.919 4.92033C164.646 5.78412 165.183 6.77704 165.518 7.87682C165.829 8.90091 166.001 9.94281 166.023 10.9758Z" fill="white"/>
<path d="M170.558 0.743652V7.25328H171.412V6.99059C171.412 6.89708 171.43 6.63884 171.507 5.9576C171.57 5.41884 171.705 4.85336 171.913 4.28343C172.116 3.72241 172.437 3.20591 172.862 2.75175C173.268 2.31985 173.806 2.11059 174.51 2.11059H183.178V26.2301C183.178 26.5907 183.087 26.898 182.898 27.174C182.703 27.459 182.469 27.6861 182.166 27.8775C181.89 28.1135 181.552 28.305 181.154 28.443L180.978 28.5053V29.2311H188.503V28.5053L188.327 28.443C187.929 28.305 187.59 28.118 187.297 27.8642C187.057 27.695 186.827 27.459 186.61 27.1651C186.407 26.8935 186.308 26.5863 186.308 26.2301V2.11059H194.975C195.68 2.11059 196.222 2.31985 196.624 2.75175C197.048 3.20591 197.369 3.72241 197.572 4.28343C197.78 4.86226 197.92 5.42329 197.979 5.9576C198.056 6.63884 198.074 6.89708 198.074 6.99059V7.25328H198.927V0.743652H170.558Z" fill="white"/>
<path d="M88.3232 45.2022C88.2374 45.0063 87.989 44.9484 87.045 45.2824C72.7633 51.93 38.9741 66.3474 33.7167 56.5963C31.4629 52.4421 37.2984 43.2832 41.2686 39.6098C49.3489 40.202 58.5629 37.8867 62.1672 36.8581C68.5266 34.6719 89.8995 26.3145 97.9934 10.4411C98.5173 8.95844 98.4631 7.56924 97.8488 6.5407C97.3385 5.69026 96.4712 5.13369 95.3285 4.93778C77.1083 2.63136 51.8421 24.5735 38.3418 37.9268C36.0608 37.2811 33.8793 36.5019 31.77 35.7539C24.9769 33.3362 18.5588 31.052 10.641 33.8304C5.92564 35.8385 2.88141 38.2073 0.749541 41.5333C0.600491 41.8316 0.496607 42.0854 0.68179 42.219C0.87149 42.3526 1.08829 42.1834 1.53996 41.7248C4.41707 37.0808 9.96806 34.0708 16.7702 33.4742C22.5786 33.0957 28.1205 35.2419 33.0076 37.1431C34.6065 37.7665 36.1241 38.3542 37.5784 38.8306L36.4854 39.8636C31.9191 44.5388 27.8089 51.8722 31.2325 57.1663C32.9172 59.8155 36.2505 60.8841 40.564 60.8841C53.1293 60.8841 74.0144 51.8187 86.7423 46.2931L87.7315 45.8612C88.2328 45.6074 88.4135 45.4071 88.3232 45.2022ZM43.1881 38.8395L42.0364 38.7861C43.7256 36.8448 49.6063 31.4839 52.1944 29.1241C52.8177 28.5541 53.2739 28.14 53.4726 27.953C61.1238 20.7711 70.5908 14.2347 79.4434 10.0226C87.4876 6.1934 94.0142 4.78194 96.4712 6.33143C97.5778 7.03048 97.8127 8.32172 97.1804 10.1473C93.7161 17.4183 85.5996 24.8585 74.9222 30.5533C64.2042 36.2749 52.637 39.2937 43.1881 38.8395Z" fill="#B3686F"/>
<path d="M270.783 40.2646C270.747 37.2903 268.805 34.5564 266.226 33.0425C264.938 32.2767 263.525 31.7557 262.088 31.4396C260.666 31.0968 259.153 30.9587 257.685 31.0255C254.871 31.1324 252.17 31.867 249.622 32.8733C252.021 29.4449 254.031 25.7314 255.106 21.6217C255.896 18.6251 256.081 15.3792 255.304 12.2758C254.55 9.15902 252.793 6.345 250.625 4.02521L250.598 3.9985L250.548 3.95398C247.698 1.50062 243.945 0.138137 240.237 -0.0755852C236.51 -0.342739 232.838 0.342956 229.392 1.45609C222.477 3.69573 216.289 7.56054 210.919 12.2446C208.241 14.6 205.761 17.2003 203.729 20.1702C202.73 21.6618 201.822 23.2424 201.24 24.9923C200.951 25.865 200.748 26.7867 200.72 27.7484C200.684 28.7013 200.874 29.7165 201.348 30.5892C201.8 31.444 202.486 32.2233 203.336 32.7353C204.18 33.2562 205.138 33.5189 206.073 33.6303C207.956 33.8484 209.776 33.5323 211.52 33.0959C215.002 32.1609 218.245 30.6871 221.362 28.9595L221.605 28.8393L221.583 28.4876C221.479 26.7154 221.605 24.9567 222.247 23.4116C222.866 21.8532 223.995 20.5709 225.363 19.5557C226.736 18.5361 228.367 17.8326 230.038 17.2226C231.66 16.6571 233.358 16.1896 235.083 15.7978C235.544 17.1113 235.571 18.5183 234.893 19.6849C234.23 20.9316 233.069 21.8978 231.836 22.717C230.594 23.5452 229.212 24.1819 227.811 24.7786C226.402 25.353 224.952 25.8739 223.489 26.2969L223.606 26.8267C226.682 26.2435 229.686 25.2372 232.391 23.5497C233.719 22.6948 234.979 21.5861 235.734 20.0945C236.095 19.3465 236.267 18.496 236.212 17.6678C236.149 16.8397 235.883 16.056 235.503 15.357L235.408 15.1833L235.241 15.2011C233.331 15.0319 231.42 15.2189 229.555 15.6865C227.694 16.1584 225.869 16.9421 224.275 18.1265C222.689 19.3019 221.344 20.9538 220.765 22.8773C220.147 24.6673 220.21 26.5641 220.585 28.305C217.64 29.9079 214.496 31.2749 211.249 32.063C209.578 32.4548 207.848 32.6997 206.213 32.477C204.582 32.2811 203.128 31.4351 202.486 30.0059C201.8 28.6523 202.057 26.9737 202.617 25.4509C203.186 23.9103 204.081 22.4543 205.07 21.083C207.093 18.3446 209.56 15.9091 212.197 13.7006C214.849 11.5011 217.703 9.52413 220.707 7.83661C223.701 6.13573 226.831 4.65303 230.097 3.63339C233.353 2.60931 236.745 2.00376 240.079 2.16405C243.398 2.30653 246.614 3.42857 249.135 5.50347C251.163 7.565 252.811 9.98274 253.687 12.7122C254.586 15.4594 254.613 18.4738 253.963 21.359C252.91 25.7982 250.634 29.8768 247.892 33.6124C245.715 34.6009 243.638 35.7675 241.646 37.0454C236.858 40.1265 232.563 43.8266 228.484 47.7048C227.766 48.3949 227.066 49.1029 226.366 49.8108C226.14 49.8108 225.851 49.8198 225.472 49.8331C223.886 49.891 222.902 49.6283 222.536 49.0495C222.215 48.5508 222.333 47.7716 222.884 46.7252C223.489 45.572 224.681 44.2362 225.838 42.9495C226.208 42.5398 226.569 42.1346 226.899 41.7517C226.989 41.6627 227.003 41.5291 226.94 41.4C226.8 41.1016 226.194 40.692 225.341 40.7543L225.278 40.7588L224.306 41.5692C224.383 40.6163 224.058 39.8149 223.371 39.2805C222.373 38.5058 220.693 38.3989 219.379 39.0312C218.281 39.5566 217.649 40.5005 217.649 41.6137C217.649 42.1792 217.897 42.6957 218.367 43.1008C219.063 43.7019 220.183 44.0181 221.438 44.0092C218.435 45.9104 212.626 48.9515 210.942 47.8695C210.544 47.6157 210.4 47.1037 210.513 46.3557C212.242 45.9505 212.468 45.2559 212.486 44.9709C212.509 44.6147 212.26 44.2941 211.863 44.1605C211.366 43.9913 210.567 44.1027 209.952 44.9709L209.925 45.0288C209.871 45.2114 209.858 45.3627 209.817 45.5364C207.396 46.4269 203.019 47.8116 198.196 46.0662C198.358 44.962 197.798 44.5835 197.437 44.4589C196.61 44.165 195.413 44.6592 195.093 45.2514C194.907 45.5898 194.993 45.9282 195.328 46.1865C195.458 46.3378 195.739 46.3423 196.19 46.3512C196.448 46.3557 197.125 46.369 197.166 46.4981C197.175 46.5338 197.211 46.8721 195.296 48.1678C194.063 48.9159 192.92 48.8669 192.383 48.0432C191.515 46.7074 192.374 43.4704 196.981 40.4471L197.184 40.3135L197.017 40.1443C196.917 40.0419 196.019 39.1737 195.332 39.4319L195.287 39.4542C191.922 41.814 190.612 43.791 190.156 45.2024C190.011 45.2069 189.862 45.2247 189.74 45.2648L187.559 46.0796C180.662 48.6665 177.202 49.9622 174.926 49.2498C174.474 49.1073 174.212 48.9159 174.153 48.6799C174 48.0832 174.984 47.0859 175.933 46.1197C177.279 44.7483 178.675 43.3324 177.979 42.1703C176.967 40.5006 174.402 40.4872 170.549 42.1257C170.49 41.9565 170.346 41.7651 170.048 41.5603C168.684 40.6252 164.781 40.0108 161.62 41.9565C161.638 41.7962 161.669 41.636 161.692 41.5024C161.719 41.3421 161.742 41.2174 161.742 41.1595V40.9503L160.305 41.0527L160.31 41.2397C160.35 42.7669 159.379 44.0626 158.336 45.1624C158.25 45.1668 158.173 45.1668 158.07 45.1757C157.803 45.1891 156.958 45.4028 155.364 45.8035C150.698 46.9879 139.772 49.7574 138.535 47.7048C138.192 47.1393 138.688 46.1241 139.967 44.7705C142.93 41.6359 146.2 39.7481 146.751 40.1711C146.787 40.1978 147.085 40.4916 146.055 42.0946L145.92 42.3038L146.737 42.5754L146.823 42.4641C147.893 41.0838 148.083 40.0776 147.388 39.4676C146.051 38.2787 143.919 38.4479 141.534 39.9217C139.47 41.1996 137.474 43.3591 136.724 45.2959C133.133 46.9078 122.112 50.0602 120.649 47.8651C120.193 47.1838 120.545 45.5854 124.8 41.8185C124.971 41.6449 125.03 41.4356 124.971 41.2219C124.849 40.7855 124.226 40.3892 123.309 40.1577L123.196 40.131L121.746 41.587C117.763 39.6768 114.443 41.3243 112.803 43.3368C112.302 43.9513 111.954 44.5969 111.76 45.2158C111.588 45.2425 111.408 45.2915 111.272 45.3316C107.298 46.6273 91.7061 50.0112 90.9744 48.6042C90.6176 47.9274 93.6347 44.9487 95.2562 43.3502C96.6474 41.9788 97.3791 41.2441 97.4649 40.928C97.5326 40.7232 97.4604 40.5184 97.2616 40.3848C96.9545 40.1755 96.3086 40.1443 95.9879 40.4026C94.4658 41.3599 93.2102 41.6359 92.2617 41.2263C91.1009 40.7276 90.7305 39.334 90.6266 38.7596L90.595 38.577L89.0368 38.7596L88.9961 38.8709C88.6664 39.7525 88.8561 40.5896 89.5291 41.2352C90.6357 42.2949 92.7224 42.5576 94.4929 41.8541C94.66 41.7784 94.8271 41.6983 94.9852 41.627C95.0304 41.6048 95.0801 41.5825 95.1298 41.5603C94.6871 41.9298 93.987 42.4864 93.0295 43.2211C92.7133 43.4749 92.2572 43.7999 91.7287 44.1694C89.6646 45.6254 87.0991 47.4376 87.8263 48.5641C88.2915 49.4101 89.8136 49.7262 91.8507 49.7262C98.0475 49.7262 108.964 46.7787 109.109 46.7386C110.387 46.3735 111.15 46.1197 111.611 45.9327C111.543 46.5694 111.661 47.1393 112.004 47.5578C112.542 48.2079 114.023 48.9916 117.943 47.0681C118.074 47.7582 118.494 48.297 119.195 48.671C120.057 49.1385 121.299 49.33 122.731 49.33C127.279 49.33 133.779 47.3976 136.471 46.1508C136.385 46.6228 136.385 47.0681 136.507 47.4643C136.751 48.2836 137.573 49.2498 140.116 49.2498C140.143 49.2498 140.165 49.2498 140.193 49.2498C144.411 49.1875 152.478 47.2907 156.353 46.3779C156.724 46.2889 157.053 46.2132 157.351 46.1464C156.99 46.5026 156.651 46.841 156.38 47.1571C156.163 47.4154 156.186 47.6335 156.24 47.7671C156.353 48.0387 156.719 48.2257 157.238 48.2792C157.916 48.3504 158.819 48.1723 159.199 47.6202C164.352 40.7054 167.464 41.164 168.864 42.0545C168.887 42.0723 168.896 42.0857 168.896 42.1079C168.937 42.5087 167.789 43.6396 166.782 44.637C165.775 45.6343 164.736 46.6629 164.167 47.5489L164.14 47.6291C164.113 47.8428 164.217 48.0387 164.438 48.1723C164.926 48.4751 166.037 48.484 166.764 48.012C168.792 45.9148 169.858 44.6147 170.563 43.7509L170.892 43.3502C171.511 42.6289 173.815 41.7116 175.328 41.7428C175.712 41.7517 176.222 41.8363 176.461 42.1524C176.583 42.3305 175.517 43.2789 174.944 43.7865C173.625 44.962 171.981 46.418 171.936 47.727C171.936 48.8268 173.024 49.5659 175.264 49.9889C175.621 50.0513 175.978 50.0869 176.353 50.0869C178.227 50.0869 180.441 49.2988 184.221 47.9541C185.856 47.3708 187.712 46.7119 189.971 45.9594C189.903 46.4492 189.935 46.8321 189.993 47.0992C190.224 48.2035 191.086 49.0138 192.297 49.2632C192.541 49.3122 192.807 49.3433 193.092 49.3433C194.515 49.3433 196.38 48.6487 197.897 46.6362C202.523 48.4973 207.306 47.117 209.686 46.2533C209.587 47.264 209.826 47.9942 210.427 48.4083C212.491 49.8376 217.992 47.077 221.213 45.0065C219.989 46.6985 219.641 48.1768 220.241 49.2454C220.779 50.1982 222.03 50.7013 223.787 50.7013C224.347 50.7013 224.957 50.6479 225.612 50.5455C222.631 53.6089 219.817 56.8147 217.148 60.1408L216.583 60.8265L217.409 60.5771C217.902 60.4257 218.173 60.2432 218.539 60.0606L219.546 59.4862C220.21 59.0944 220.865 58.6892 221.511 58.2796C222.807 57.4559 224.081 56.5965 225.341 55.7238C227.861 53.9695 230.314 52.1306 232.707 50.2071C237.473 46.3557 242.039 42.2148 246.014 37.5262C246.628 36.7916 247.233 36.0391 247.825 35.2732C248.475 34.966 249.135 34.6766 249.803 34.4095C252.355 33.3898 255.033 32.6596 257.73 32.5795C259.08 32.526 260.399 32.6774 261.727 32.9624C263.041 33.2473 264.32 33.6659 265.48 34.2848C267.793 35.4424 269.631 37.6064 270.2 40.1844C270.029 40.4115 269.803 40.643 269.55 40.8033C269.265 40.9903 268.954 41.1239 268.619 41.1862C268.285 41.2397 267.942 41.253 267.599 41.1907C267.255 41.1373 266.921 41.0215 266.591 40.8879L266.113 40.6965L266.208 41.1862C266.375 42.0367 266.46 42.9005 266.456 43.7598C266.451 44.1917 266.424 44.6192 266.366 45.0422C266.311 45.4028 266.23 45.7724 266.122 46.1019C265.869 46.1197 265.58 46.1019 265.318 46.0306C264.997 45.9505 264.69 45.8124 264.405 45.6388C264.121 45.4562 263.863 45.2381 263.633 44.9887C263.398 44.7394 263.199 44.4633 263.01 44.1739L262.608 43.5639L262.499 44.2763C262.368 45.1446 262.129 45.9995 261.777 46.8009C261.592 47.1972 261.384 47.5846 261.144 47.9452C260.982 48.1901 260.797 48.4216 260.602 48.6354C260.291 47.8829 260.078 47.0547 259.947 46.2399C259.803 45.296 259.767 44.3342 259.776 43.3769C259.785 42.4196 259.889 41.4578 260.02 40.5005C260.087 40.0241 260.164 39.5433 260.178 39.0535C260.223 38.5637 260.237 38.0695 260.16 37.5351L259.627 37.3971C259.008 38.2787 258.705 39.2805 258.552 40.2957C258.434 41.3198 258.326 42.3528 258.389 43.3903C258.43 44.4277 258.574 45.4651 258.868 46.4714C259.175 47.4732 259.577 48.4395 260.282 49.2899L260.471 49.5214L260.679 49.3344C261.059 48.9916 261.334 48.6309 261.601 48.2346C261.863 47.8428 262.084 47.4332 262.278 47.0102C262.572 46.3468 262.766 45.6477 262.915 44.9397C263.019 45.0733 263.109 45.2203 263.227 45.3449C263.488 45.621 263.782 45.8748 264.107 46.084C264.437 46.2889 264.798 46.4492 265.182 46.5471C265.571 46.6406 265.95 46.6851 266.388 46.6184L266.533 46.5961L266.587 46.4581C266.763 45.995 266.844 45.5587 266.912 45.1045C266.975 44.6548 267.002 44.2006 267.012 43.7509C267.016 43.0029 266.939 42.2638 266.822 41.5291C267.048 41.6048 267.273 41.6716 267.513 41.7072C267.91 41.7784 268.326 41.7695 268.732 41.7027C269.139 41.627 269.527 41.4623 269.866 41.2397C270.209 41.0081 270.498 40.741 270.742 40.3759L270.783 40.3224V40.2646ZM220.047 41.5469C220.436 40.603 221.298 39.7124 222.224 39.7124C222.328 39.7124 222.432 39.7214 222.531 39.7481C222.929 39.8371 223.191 40.0108 223.331 40.2779C223.552 40.6965 223.484 41.3465 223.132 42.2059C222.834 42.8025 222.409 43.1765 221.872 43.3146C221.222 43.4838 220.503 43.2789 220.11 43.0162L220.101 43.0118C219.79 42.8159 219.767 42.2281 220.047 41.5469ZM119.899 41.7339C119.985 41.7339 120.066 41.7384 120.134 41.7517C120.446 41.8096 120.5 41.9654 120.513 42.0144C120.586 42.237 120.577 42.9539 118.842 44.7483C117.6 46.3601 115.152 47.5534 114 47.3931C113.766 47.3619 113.616 47.2729 113.558 47.1259C113.485 46.9478 113.445 46.3824 114.592 44.9887C116.299 42.8916 118.734 41.7339 119.899 41.7339ZM245.286 36.9474C241.37 41.5736 236.931 45.7679 232.224 49.6461C229.871 51.583 227.45 53.4441 224.966 55.2162C223.724 56.1023 222.468 56.9706 221.19 57.8032C220.553 58.2217 219.907 58.6269 219.257 59.0232C219.026 59.1612 218.778 59.3081 218.534 59.4506C221.917 55.6214 225.549 51.997 229.302 48.533C233.412 44.7616 237.78 41.253 242.468 38.2698C243.552 37.5841 244.659 36.9385 245.783 36.3374C245.616 36.5422 245.453 36.747 245.286 36.9474Z" fill="#B3686F"/>
<path d="M270.783 40.2646C270.747 37.2903 268.805 34.5564 266.226 33.0425C264.938 32.2767 263.525 31.7557 262.088 31.4396C260.666 31.0968 259.153 30.9587 257.685 31.0255C254.871 31.1324 252.17 31.867 249.622 32.8733C252.021 29.4449 254.031 25.7314 255.106 21.6217C255.896 18.6251 256.081 15.3792 255.304 12.2758C254.55 9.15902 252.793 6.345 250.625 4.02521L250.598 3.9985L250.548 3.95398C247.698 1.50062 243.945 0.138137 240.237 -0.0755852C236.51 -0.342739 232.838 0.342956 229.392 1.45609C222.477 3.69573 216.289 7.56054 210.919 12.2446C208.241 14.6 205.761 17.2003 203.729 20.1702C202.73 21.6618 201.822 23.2424 201.24 24.9923C200.951 25.865 200.748 26.7867 200.72 27.7484C200.684 28.7013 200.874 29.7165 201.348 30.5892C201.8 31.444 202.486 32.2233 203.336 32.7353C204.18 33.2562 205.138 33.5189 206.073 33.6303C207.956 33.8484 209.776 33.5323 211.52 33.0959C215.002 32.1609 218.245 30.6871 221.362 28.9595L221.605 28.8393L221.583 28.4876C221.479 26.7154 221.605 24.9567 222.247 23.4116C222.866 21.8532 223.995 20.5709 225.363 19.5557C226.736 18.5361 228.367 17.8326 230.038 17.2226C231.66 16.6571 233.358 16.1896 235.083 15.7978C235.544 17.1113 235.571 18.5183 234.893 19.6849C234.23 20.9316 233.069 21.8978 231.836 22.717C230.594 23.5452 229.212 24.1819 227.811 24.7786C226.402 25.353 224.952 25.8739 223.489 26.2969L223.606 26.8267C226.682 26.2435 229.686 25.2372 232.391 23.5497C233.719 22.6948 234.979 21.5861 235.734 20.0945C236.095 19.3465 236.267 18.496 236.212 17.6678C236.149 16.8397 235.883 16.056 235.503 15.357L235.408 15.1833L235.241 15.2011C233.331 15.0319 231.42 15.2189 229.555 15.6865C227.694 16.1584 225.869 16.9421 224.275 18.1265C222.689 19.3019 221.344 20.9538 220.765 22.8773C220.147 24.6673 220.21 26.5641 220.585 28.305C217.64 29.9079 214.496 31.2749 211.249 32.063C209.578 32.4548 207.848 32.6997 206.213 32.477C204.582 32.2811 203.128 31.4351 202.486 30.0059C201.8 28.6523 202.057 26.9737 202.617 25.4509C203.186 23.9103 204.081 22.4543 205.07 21.083C207.093 18.3446 209.56 15.9091 212.197 13.7006C214.849 11.5011 217.703 9.52413 220.707 7.83661C223.701 6.13573 226.831 4.65303 230.097 3.63339C233.353 2.60931 236.745 2.00376 240.079 2.16405C243.398 2.30653 246.614 3.42857 249.135 5.50347C251.163 7.565 252.811 9.98274 253.687 12.7122C254.586 15.4594 254.613 18.4738 253.963 21.359C252.91 25.7982 250.634 29.8768 247.892 33.6124C245.715 34.6009 243.638 35.7675 241.646 37.0454C236.858 40.1265 232.563 43.8266 228.484 47.7048C227.766 48.3949 227.066 49.1029 226.366 49.8108C226.14 49.8108 225.851 49.8198 225.472 49.8331C223.886 49.891 222.902 49.6283 222.536 49.0495C222.215 48.5508 222.333 47.7716 222.884 46.7252C223.489 45.572 224.681 44.2362 225.838 42.9495C226.208 42.5398 226.569 42.1346 226.899 41.7517C226.989 41.6627 227.003 41.5291 226.94 41.4C226.8 41.1016 226.194 40.692 225.341 40.7543L225.278 40.7588L224.306 41.5692C224.383 40.6163 224.058 39.8149 223.371 39.2805C222.373 38.5058 220.693 38.3989 219.379 39.0312C218.281 39.5566 217.649 40.5005 217.649 41.6137C217.649 42.1792 217.897 42.6957 218.367 43.1008C219.063 43.7019 220.183 44.0181 221.438 44.0092C218.435 45.9104 212.626 48.9515 210.942 47.8695C210.544 47.6157 210.4 47.1037 210.513 46.3557C212.242 45.9505 212.468 45.2559 212.486 44.9709C212.509 44.6147 212.26 44.2941 211.863 44.1605C211.366 43.9913 210.567 44.1027 209.952 44.9709L209.925 45.0288C209.871 45.2114 209.858 45.3627 209.817 45.5364C207.396 46.4269 203.019 47.8116 198.196 46.0662C198.358 44.962 197.798 44.5835 197.437 44.4589C196.61 44.165 195.413 44.6592 195.093 45.2514C194.907 45.5898 194.993 45.9282 195.328 46.1865C195.458 46.3378 195.739 46.3423 196.19 46.3512C196.448 46.3557 197.125 46.369 197.166 46.4981C197.175 46.5338 197.211 46.8721 195.296 48.1678C194.063 48.9159 192.92 48.8669 192.383 48.0432C191.515 46.7074 192.374 43.4704 196.981 40.4471L197.184 40.3135L197.017 40.1443C196.917 40.0419 196.019 39.1737 195.332 39.4319L195.287 39.4542C191.922 41.814 190.612 43.791 190.156 45.2024C190.011 45.2069 189.862 45.2247 189.74 45.2648L187.559 46.0796C180.662 48.6665 177.202 49.9622 174.926 49.2498C174.474 49.1073 174.212 48.9159 174.153 48.6799C174 48.0832 174.984 47.0859 175.933 46.1197C177.279 44.7483 178.675 43.3324 177.979 42.1703C176.967 40.5006 174.402 40.4872 170.549 42.1257C170.49 41.9565 170.346 41.7651 170.048 41.5603C168.684 40.6252 164.781 40.0108 161.62 41.9565C161.638 41.7962 161.669 41.636 161.692 41.5024C161.719 41.3421 161.742 41.2174 161.742 41.1595V40.9503L160.305 41.0527L160.31 41.2397C160.35 42.7669 159.379 44.0626 158.336 45.1624C158.25 45.1668 158.173 45.1668 158.07 45.1757C157.803 45.1891 156.958 45.4028 155.364 45.8035C150.698 46.9879 139.772 49.7574 138.535 47.7048C138.192 47.1393 138.688 46.1241 139.967 44.7705C142.93 41.6359 146.2 39.7481 146.751 40.1711C146.787 40.1978 147.085 40.4916 146.055 42.0946L145.92 42.3038L146.737 42.5754L146.823 42.4641C147.893 41.0838 148.083 40.0776 147.388 39.4676C146.051 38.2787 143.919 38.4479 141.534 39.9217C139.47 41.1996 137.474 43.3591 136.724 45.2959C133.133 46.9078 122.112 50.0602 120.649 47.8651C120.193 47.1838 120.545 45.5854 124.8 41.8185C124.971 41.6449 125.03 41.4356 124.971 41.2219C124.849 40.7855 124.226 40.3892 123.309 40.1577L123.196 40.131L121.746 41.587C117.763 39.6768 114.443 41.3243 112.803 43.3368C112.302 43.9513 111.954 44.5969 111.76 45.2158C111.588 45.2425 111.408 45.2915 111.272 45.3316C107.298 46.6273 91.7061 50.0112 90.9744 48.6042C90.6176 47.9274 93.6347 44.9487 95.2562 43.3502C96.6474 41.9788 97.3791 41.2441 97.4649 40.928C97.5326 40.7232 97.4604 40.5184 97.2616 40.3848C96.9545 40.1755 96.3086 40.1443 95.9879 40.4026C94.4658 41.3599 93.2102 41.6359 92.2617 41.2263C91.1009 40.7276 90.7305 39.334 90.6266 38.7596L90.595 38.577L89.0368 38.7596L88.9961 38.8709C88.6664 39.7525 88.8561 40.5896 89.5291 41.2352C90.6357 42.2949 92.7224 42.5576 94.4929 41.8541C94.66 41.7784 94.8271 41.6983 94.9852 41.627C95.0304 41.6048 95.0801 41.5825 95.1298 41.5603C94.6871 41.9298 93.987 42.4864 93.0295 43.2211C92.7133 43.4749 92.2572 43.7999 91.7287 44.1694C89.6646 45.6254 87.0991 47.4376 87.8263 48.5641C88.2915 49.4101 89.8136 49.7262 91.8507 49.7262C98.0475 49.7262 108.964 46.7787 109.109 46.7386C110.387 46.3735 111.15 46.1197 111.611 45.9327C111.543 46.5694 111.661 47.1393 112.004 47.5578C112.542 48.2079 114.023 48.9916 117.943 47.0681C118.074 47.7582 118.494 48.297 119.195 48.671C120.057 49.1385 121.299 49.33 122.731 49.33C127.279 49.33 133.779 47.3976 136.471 46.1508C136.385 46.6228 136.385 47.0681 136.507 47.4643C136.751 48.2836 137.573 49.2498 140.116 49.2498C140.143 49.2498 140.165 49.2498 140.193 49.2498C144.411 49.1875 152.478 47.2907 156.353 46.3779C156.724 46.2889 157.053 46.2132 157.351 46.1464C156.99 46.5026 156.651 46.841 156.38 47.1571C156.163 47.4154 156.186 47.6335 156.24 47.7671C156.353 48.0387 156.719 48.2257 157.238 48.2792C157.916 48.3504 158.819 48.1723 159.199 47.6202C164.352 40.7054 167.464 41.164 168.864 42.0545C168.887 42.0723 168.896 42.0857 168.896 42.1079C168.937 42.5087 167.789 43.6396 166.782 44.637C165.775 45.6343 164.736 46.6629 164.167 47.5489L164.14 47.6291C164.113 47.8428 164.217 48.0387 164.438 48.1723C164.926 48.4751 166.037 48.484 166.764 48.012C168.792 45.9148 169.858 44.6147 170.563 43.7509L170.892 43.3502C171.511 42.6289 173.815 41.7116 175.328 41.7428C175.712 41.7517 176.222 41.8363 176.461 42.1524C176.583 42.3305 175.517 43.2789 174.944 43.7865C173.625 44.962 171.981 46.418 171.936 47.727C171.936 48.8268 173.024 49.5659 175.264 49.9889C175.621 50.0513 175.978 50.0869 176.353 50.0869C178.227 50.0869 180.441 49.2988 184.221 47.9541C185.856 47.3708 187.712 46.7119 189.971 45.9594C189.903 46.4492 189.935 46.8321 189.993 47.0992C190.224 48.2035 191.086 49.0138 192.297 49.2632C192.541 49.3122 192.807 49.3433 193.092 49.3433C194.515 49.3433 196.38 48.6487 197.897 46.6362C202.523 48.4973 207.306 47.117 209.686 46.2533C209.587 47.264 209.826 47.9942 210.427 48.4083C212.491 49.8376 217.992 47.077 221.213 45.0065C219.989 46.6985 219.641 48.1768 220.241 49.2454C220.779 50.1982 222.03 50.7013 223.787 50.7013C224.347 50.7013 224.957 50.6479 225.612 50.5455C222.631 53.6089 219.817 56.8147 217.148 60.1408L216.583 60.8265L217.409 60.5771C217.902 60.4257 218.173 60.2432 218.539 60.0606L219.546 59.4862C220.21 59.0944 220.865 58.6892 221.511 58.2796C222.807 57.4559 224.081 56.5965 225.341 55.7238C227.861 53.9695 230.314 52.1306 232.707 50.2071C237.473 46.3557 242.039 42.2148 246.014 37.5262C246.628 36.7916 247.233 36.0391 247.825 35.2732C248.475 34.966 249.135 34.6766 249.803 34.4095C252.355 33.3898 255.033 32.6596 257.73 32.5795C259.08 32.526 260.399 32.6774 261.727 32.9624C263.041 33.2473 264.32 33.6659 265.48 34.2848C267.793 35.4424 269.631 37.6064 270.2 40.1844C270.029 40.4115 269.803 40.643 269.55 40.8033C269.265 40.9903 268.954 41.1239 268.619 41.1862C268.285 41.2397 267.942 41.253 267.599 41.1907C267.255 41.1373 266.921 41.0215 266.591 40.8879L266.113 40.6965L266.208 41.1862C266.375 42.0367 266.46 42.9005 266.456 43.7598C266.451 44.1917 266.424 44.6192 266.366 45.0422C266.311 45.4028 266.23 45.7724 266.122 46.1019C265.869 46.1197 265.58 46.1019 265.318 46.0306C264.997 45.9505 264.69 45.8124 264.405 45.6388C264.121 45.4562 263.863 45.2381 263.633 44.9887C263.398 44.7394 263.199 44.4633 263.01 44.1739L262.608 43.5639L262.499 44.2763C262.368 45.1446 262.129 45.9995 261.777 46.8009C261.592 47.1972 261.384 47.5846 261.144 47.9452C260.982 48.1901 260.797 48.4216 260.602 48.6354C260.291 47.8829 260.078 47.0547 259.947 46.2399C259.803 45.296 259.767 44.3342 259.776 43.3769C259.785 42.4196 259.889 41.4578 260.02 40.5005C260.087 40.0241 260.164 39.5433 260.178 39.0535C260.223 38.5637 260.237 38.0695 260.16 37.5351L259.627 37.3971C259.008 38.2787 258.705 39.2805 258.552 40.2957C258.434 41.3198 258.326 42.3528 258.389 43.3903C258.43 44.4277 258.574 45.4651 258.868 46.4714C259.175 47.4732 259.577 48.4395 260.282 49.2899L260.471 49.5214L260.679 49.3344C261.059 48.9916 261.334 48.6309 261.601 48.2346C261.863 47.8428 262.084 47.4332 262.278 47.0102C262.572 46.3468 262.766 45.6477 262.915 44.9397C263.019 45.0733 263.109 45.2203 263.227 45.3449C263.488 45.621 263.782 45.8748 264.107 46.084C264.437 46.2889 264.798 46.4492 265.182 46.5471C265.571 46.6406 265.95 46.6851 266.388 46.6184L266.533 46.5961L266.587 46.4581C266.763 45.995 266.844 45.5587 266.912 45.1045C266.975 44.6548 267.002 44.2006 267.012 43.7509C267.016 43.0029 266.939 42.2638 266.822 41.5291C267.048 41.6048 267.273 41.6716 267.513 41.7072C267.91 41.7784 268.326 41.7695 268.732 41.7027C269.139 41.627 269.527 41.4623 269.866 41.2397C270.209 41.0081 270.498 40.741 270.742 40.3759L270.783 40.3224V40.2646ZM220.047 41.5469C220.436 40.603 221.298 39.7124 222.224 39.7124C222.328 39.7124 222.432 39.7214 222.531 39.7481C222.929 39.8371 223.191 40.0108 223.331 40.2779C223.552 40.6965 223.484 41.3465 223.132 42.2059C222.834 42.8025 222.409 43.1765 221.872 43.3146C221.222 43.4838 220.503 43.2789 220.11 43.0162L220.101 43.0118C219.79 42.8159 219.767 42.2281 220.047 41.5469ZM119.899 41.7339C119.985 41.7339 120.066 41.7384 120.134 41.7517C120.446 41.8096 120.5 41.9654 120.513 42.0144C120.586 42.237 120.577 42.9539 118.842 44.7483C117.6 46.3601 115.152 47.5534 114 47.3931C113.766 47.3619 113.616 47.2729 113.558 47.1259C113.485 46.9478 113.445 46.3824 114.592 44.9887C116.299 42.8916 118.734 41.7339 119.899 41.7339ZM245.286 36.9474C241.37 41.5736 236.931 45.7679 232.224 49.6461C229.871 51.583 227.45 53.4441 224.966 55.2162C223.724 56.1023 222.468 56.9706 221.19 57.8032C220.553 58.2217 219.907 58.6269 219.257 59.0232C219.026 59.1612 218.778 59.3081 218.534 59.4506C221.917 55.6214 225.549 51.997 229.302 48.533C233.412 44.7616 237.78 41.253 242.468 38.2698C243.552 37.5841 244.659 36.9385 245.783 36.3374C245.616 36.5422 245.453 36.747 245.286 36.9474Z" fill="#B3686F"/>
<path d="M270.783 40.2646C270.747 37.2903 268.805 34.5564 266.226 33.0425C264.938 32.2767 263.525 31.7557 262.088 31.4396C260.666 31.0968 259.153 30.9587 257.685 31.0255C254.871 31.1324 252.17 31.867 249.622 32.8733C252.021 29.4449 254.031 25.7314 255.106 21.6217C255.896 18.6251 256.081 15.3792 255.304 12.2758C254.55 9.15902 252.793 6.345 250.625 4.02521L250.598 3.9985L250.548 3.95398C247.698 1.50062 243.945 0.138137 240.237 -0.0755852C236.51 -0.342739 232.838 0.342956 229.392 1.45609C222.477 3.69573 216.289 7.56054 210.919 12.2446C208.241 14.6 205.761 17.2003 203.729 20.1702C202.73 21.6618 201.822 23.2424 201.24 24.9923C200.951 25.865 200.748 26.7867 200.72 27.7484C200.684 28.7013 200.874 29.7165 201.348 30.5892C201.8 31.444 202.486 32.2233 203.336 32.7353C204.18 33.2562 205.138 33.5189 206.073 33.6303C207.956 33.8484 209.776 33.5323 211.52 33.0959C215.002 32.1609 218.245 30.6871 221.362 28.9595L221.605 28.8393L221.583 28.4876C221.479 26.7154 221.605 24.9567 222.247 23.4116C222.866 21.8532 223.995 20.5709 225.363 19.5557C226.736 18.5361 228.367 17.8326 230.038 17.2226C231.66 16.6571 233.358 16.1896 235.083 15.7978C235.544 17.1113 235.571 18.5183 234.893 19.6849C234.23 20.9316 233.069 21.8978 231.836 22.717C230.594 23.5452 229.212 24.1819 227.811 24.7786C226.402 25.353 224.952 25.8739 223.489 26.2969L223.606 26.8267C226.682 26.2435 229.686 25.2372 232.391 23.5497C233.719 22.6948 234.979 21.5861 235.734 20.0945C236.095 19.3465 236.267 18.496 236.212 17.6678C236.149 16.8397 235.883 16.056 235.503 15.357L235.408 15.1833L235.241 15.2011C233.331 15.0319 231.42 15.2189 229.555 15.6865C227.694 16.1584 225.869 16.9421 224.275 18.1265C222.689 19.3019 221.344 20.9538 220.765 22.8773C220.147 24.6673 220.21 26.5641 220.585 28.305C217.64 29.9079 214.496 31.2749 211.249 32.063C209.578 32.4548 207.848 32.6997 206.213 32.477C204.582 32.2811 203.128 31.4351 202.486 30.0059C201.8 28.6523 202.057 26.9737 202.617 25.4509C203.186 23.9103 204.081 22.4543 205.07 21.083C207.093 18.3446 209.56 15.9091 212.197 13.7006C214.849 11.5011 217.703 9.52413 220.707 7.83661C223.701 6.13573 226.831 4.65303 230.097 3.63339C233.353 2.60931 236.745 2.00376 240.079 2.16405C243.398 2.30653 246.614 3.42857 249.135 5.50347C251.163 7.565 252.811 9.98274 253.687 12.7122C254.586 15.4594 254.613 18.4738 253.963 21.359C252.91 25.7982 250.634 29.8768 247.892 33.6124C245.715 34.6009 243.638 35.7675 241.646 37.0454C236.858 40.1265 232.563 43.8266 228.484 47.7048C227.766 48.3949 227.066 49.1029 226.366 49.8108C226.14 49.8108 225.851 49.8198 225.472 49.8331C223.886 49.891 222.902 49.6283 222.536 49.0495C222.215 48.5508 222.333 47.7716 222.884 46.7252C223.489 45.572 224.681 44.2362 225.838 42.9495C226.208 42.5398 226.569 42.1346 226.899 41.7517C226.989 41.6627 227.003 41.5291 226.94 41.4C226.8 41.1016 226.194 40.692 225.341 40.7543L225.278 40.7588L224.306 41.5692C224.383 40.6163 224.058 39.8149 223.371 39.2805C222.373 38.5058 220.693 38.3989 219.379 39.0312C218.281 39.5566 217.649 40.5005 217.649 41.6137C217.649 42.1792 217.897 42.6957 218.367 43.1008C219.063 43.7019 220.183 44.0181 221.438 44.0092C218.435 45.9104 212.626 48.9515 210.942 47.8695C210.544 47.6157 210.4 47.1037 210.513 46.3557C212.242 45.9505 212.468 45.2559 212.486 44.9709C212.509 44.6147 212.26 44.2941 211.863 44.1605C211.366 43.9913 210.567 44.1027 209.952 44.9709L209.925 45.0288C209.871 45.2114 209.858 45.3627 209.817 45.5364C207.396 46.4269 203.019 47.8116 198.196 46.0662C198.358 44.962 197.798 44.5835 197.437 44.4589C196.61 44.165 195.413 44.6592 195.093 45.2514C194.907 45.5898 194.993 45.9282 195.328 46.1865C195.458 46.3378 195.739 46.3423 196.19 46.3512C196.448 46.3557 197.125 46.369 197.166 46.4981C197.175 46.5338 197.211 46.8721 195.296 48.1678C194.063 48.9159 192.92 48.8669 192.383 48.0432C191.515 46.7074 192.374 43.4704 196.981 40.4471L197.184 40.3135L197.017 40.1443C196.917 40.0419 196.019 39.1737 195.332 39.4319L195.287 39.4542C191.922 41.814 190.612 43.791 190.156 45.2024C190.011 45.2069 189.862 45.2247 189.74 45.2648L187.559 46.0796C180.662 48.6665 177.202 49.9622 174.926 49.2498C174.474 49.1073 174.212 48.9159 174.153 48.6799C174 48.0832 174.984 47.0859 175.933 46.1197C177.279 44.7483 178.675 43.3324 177.979 42.1703C176.967 40.5006 174.402 40.4872 170.549 42.1257C170.49 41.9565 170.346 41.7651 170.048 41.5603C168.684 40.6252 164.781 40.0108 161.62 41.9565C161.638 41.7962 161.669 41.636 161.692 41.5024C161.719 41.3421 161.742 41.2174 161.742 41.1595V40.9503L160.305 41.0527L160.31 41.2397C160.35 42.7669 159.379 44.0626 158.336 45.1624C158.25 45.1668 158.173 45.1668 158.07 45.1757C157.803 45.1891 156.958 45.4028 155.364 45.8035C150.698 46.9879 139.772 49.7574 138.535 47.7048C138.192 47.1393 138.688 46.1241 139.967 44.7705C142.93 41.6359 146.2 39.7481 146.751 40.1711C146.787 40.1978 147.085 40.4916 146.055 42.0946L145.92 42.3038L146.737 42.5754L146.823 42.4641C147.893 41.0838 148.083 40.0776 147.388 39.4676C146.051 38.2787 143.919 38.4479 141.534 39.9217C139.47 41.1996 137.474 43.3591 136.724 45.2959C133.133 46.9078 122.112 50.0602 120.649 47.8651C120.193 47.1838 120.545 45.5854 124.8 41.8185C124.971 41.6449 125.03 41.4356 124.971 41.2219C124.849 40.7855 124.226 40.3892 123.309 40.1577L123.196 40.131L121.746 41.587C117.763 39.6768 114.443 41.3243 112.803 43.3368C112.302 43.9513 111.954 44.5969 111.76 45.2158C111.588 45.2425 111.408 45.2915 111.272 45.3316C107.298 46.6273 91.7061 50.0112 90.9744 48.6042C90.6176 47.9274 93.6347 44.9487 95.2562 43.3502C96.6474 41.9788 97.3791 41.2441 97.4649 40.928C97.5326 40.7232 97.4604 40.5184 97.2616 40.3848C96.9545 40.1755 96.3086 40.1443 95.9879 40.4026C94.4658 41.3599 93.2102 41.6359 92.2617 41.2263C91.1009 40.7276 90.7305 39.334 90.6266 38.7596L90.595 38.577L89.0368 38.7596L88.9961 38.8709C88.6664 39.7525 88.8561 40.5896 89.5291 41.2352C90.6357 42.2949 92.7224 42.5576 94.4929 41.8541C94.66 41.7784 94.8271 41.6983 94.9852 41.627C95.0304 41.6048 95.0801 41.5825 95.1298 41.5603C94.6871 41.9298 93.987 42.4864 93.0295 43.2211C92.7133 43.4749 92.2572 43.7999 91.7287 44.1694C89.6646 45.6254 87.0991 47.4376 87.8263 48.5641C88.2915 49.4101 89.8136 49.7262 91.8507 49.7262C98.0475 49.7262 108.964 46.7787 109.109 46.7386C110.387 46.3735 111.15 46.1197 111.611 45.9327C111.543 46.5694 111.661 47.1393 112.004 47.5578C112.542 48.2079 114.023 48.9916 117.943 47.0681C118.074 47.7582 118.494 48.297 119.195 48.671C120.057 49.1385 121.299 49.33 122.731 49.33C127.279 49.33 133.779 47.3976 136.471 46.1508C136.385 46.6228 136.385 47.0681 136.507 47.4643C136.751 48.2836 137.573 49.2498 140.116 49.2498C140.143 49.2498 140.165 49.2498 140.193 49.2498C144.411 49.1875 152.478 47.2907 156.353 46.3779C156.724 46.2889 157.053 46.2132 157.351 46.1464C156.99 46.5026 156.651 46.841 156.38 47.1571C156.163 47.4154 156.186 47.6335 156.24 47.7671C156.353 48.0387 156.719 48.2257 157.238 48.2792C157.916 48.3504 158.819 48.1723 159.199 47.6202C164.352 40.7054 167.464 41.164 168.864 42.0545C168.887 42.0723 168.896 42.0857 168.896 42.1079C168.937 42.5087 167.789 43.6396 166.782 44.637C165.775 45.6343 164.736 46.6629 164.167 47.5489L164.14 47.6291C164.113 47.8428 164.217 48.0387 164.438 48.1723C164.926 48.4751 166.037 48.484 166.764 48.012C168.792 45.9148 169.858 44.6147 170.563 43.7509L170.892 43.3502C171.511 42.6289 173.815 41.7116 175.328 41.7428C175.712 41.7517 176.222 41.8363 176.461 42.1524C176.583 42.3305 175.517 43.2789 174.944 43.7865C173.625 44.962 171.981 46.418 171.936 47.727C171.936 48.8268 173.024 49.5659 175.264 49.9889C175.621 50.0513 175.978 50.0869 176.353 50.0869C178.227 50.0869 180.441 49.2988 184.221 47.9541C185.856 47.3708 187.712 46.7119 189.971 45.9594C189.903 46.4492 189.935 46.8321 189.993 47.0992C190.224 48.2035 191.086 49.0138 192.297 49.2632C192.541 49.3122 192.807 49.3433 193.092 49.3433C194.515 49.3433 196.38 48.6487 197.897 46.6362C202.523 48.4973 207.306 47.117 209.686 46.2533C209.587 47.264 209.826 47.9942 210.427 48.4083C212.491 49.8376 217.992 47.077 221.213 45.0065C219.989 46.6985 219.641 48.1768 220.241 49.2454C220.779 50.1982 222.03 50.7013 223.787 50.7013C224.347 50.7013 224.957 50.6479 225.612 50.5455C222.631 53.6089 219.817 56.8147 217.148 60.1408L216.583 60.8265L217.409 60.5771C217.902 60.4257 218.173 60.2432 218.539 60.0606L219.546 59.4862C220.21 59.0944 220.865 58.6892 221.511 58.2796C222.807 57.4559 224.081 56.5965 225.341 55.7238C227.861 53.9695 230.314 52.1306 232.707 50.2071C237.473 46.3557 242.039 42.2148 246.014 37.5262C246.628 36.7916 247.233 36.0391 247.825 35.2732C248.475 34.966 249.135 34.6766 249.803 34.4095C252.355 33.3898 255.033 32.6596 257.73 32.5795C259.08 32.526 260.399 32.6774 261.727 32.9624C263.041 33.2473 264.32 33.6659 265.48 34.2848C267.793 35.4424 269.631 37.6064 270.2 40.1844C270.029 40.4115 269.803 40.643 269.55 40.8033C269.265 40.9903 268.954 41.1239 268.619 41.1862C268.285 41.2397 267.942 41.253 267.599 41.1907C267.255 41.1373 266.921 41.0215 266.591 40.8879L266.113 40.6965L266.208 41.1862C266.375 42.0367 266.46 42.9005 266.456 43.7598C266.451 44.1917 266.424 44.6192 266.366 45.0422C266.311 45.4028 266.23 45.7724 266.122 46.1019C265.869 46.1197 265.58 46.1019 265.318 46.0306C264.997 45.9505 264.69 45.8124 264.405 45.6388C264.121 45.4562 263.863 45.2381 263.633 44.9887C263.398 44.7394 263.199 44.4633 263.01 44.1739L262.608 43.5639L262.499 44.2763C262.368 45.1446 262.129 45.9995 261.777 46.8009C261.592 47.1972 261.384 47.5846 261.144 47.9452C260.982 48.1901 260.797 48.4216 260.602 48.6354C260.291 47.8829 260.078 47.0547 259.947 46.2399C259.803 45.296 259.767 44.3342 259.776 43.3769C259.785 42.4196 259.889 41.4578 260.02 40.5005C260.087 40.0241 260.164 39.5433 260.178 39.0535C260.223 38.5637 260.237 38.0695 260.16 37.5351L259.627 37.3971C259.008 38.2787 258.705 39.2805 258.552 40.2957C258.434 41.3198 258.326 42.3528 258.389 43.3903C258.43 44.4277 258.574 45.4651 258.868 46.4714C259.175 47.4732 259.577 48.4395 260.282 49.2899L260.471 49.5214L260.679 49.3344C261.059 48.9916 261.334 48.6309 261.601 48.2346C261.863 47.8428 262.084 47.4332 262.278 47.0102C262.572 46.3468 262.766 45.6477 262.915 44.9397C263.019 45.0733 263.109 45.2203 263.227 45.3449C263.488 45.621 263.782 45.8748 264.107 46.084C264.437 46.2889 264.798 46.4492 265.182 46.5471C265.571 46.6406 265.95 46.6851 266.388 46.6184L266.533 46.5961L266.587 46.4581C266.763 45.995 266.844 45.5587 266.912 45.1045C266.975 44.6548 267.002 44.2006 267.012 43.7509C267.016 43.0029 266.939 42.2638 266.822 41.5291C267.048 41.6048 267.273 41.6716 267.513 41.7072C267.91 41.7784 268.326 41.7695 268.732 41.7027C269.139 41.627 269.527 41.4623 269.866 41.2397C270.209 41.0081 270.498 40.741 270.742 40.3759L270.783 40.3224V40.2646ZM220.047 41.5469C220.436 40.603 221.298 39.7124 222.224 39.7124C222.328 39.7124 222.432 39.7214 222.531 39.7481C222.929 39.8371 223.191 40.0108 223.331 40.2779C223.552 40.6965 223.484 41.3465 223.132 42.2059C222.834 42.8025 222.409 43.1765 221.872 43.3146C221.222 43.4838 220.503 43.2789 220.11 43.0162L220.101 43.0118C219.79 42.8159 219.767 42.2281 220.047 41.5469ZM119.899 41.7339C119.985 41.7339 120.066 41.7384 120.134 41.7517C120.446 41.8096 120.5 41.9654 120.513 42.0144C120.586 42.237 120.577 42.9539 118.842 44.7483C117.6 46.3601 115.152 47.5534 114 47.3931C113.766 47.3619 113.616 47.2729 113.558 47.1259C113.485 46.9478 113.445 46.3824 114.592 44.9887C116.299 42.8916 118.734 41.7339 119.899 41.7339ZM245.286 36.9474C241.37 41.5736 236.931 45.7679 232.224 49.6461C229.871 51.583 227.45 53.4441 224.966 55.2162C223.724 56.1023 222.468 56.9706 221.19 57.8032C220.553 58.2217 219.907 58.6269 219.257 59.0232C219.026 59.1612 218.778 59.3081 218.534 59.4506C221.917 55.6214 225.549 51.997 229.302 48.533C233.412 44.7616 237.78 41.253 242.468 38.2698C243.552 37.5841 244.659 36.9385 245.783 36.3374C245.616 36.5422 245.453 36.747 245.286 36.9474Z" fill="#B3686F"/>
<path d="M91.4623 15.0186H88.3413V25.2283H91.4623V15.0186Z" fill="white"/>
</g>
<defs>
<clipPath id="clip0_133_3161">
<rect width="271" height="61" fill="white"/>
</clipPath>
</defs>
</svg>
