<svg width="21" height="14" viewBox="0 0 21 14" fill="none" xmlns="http://www.w3.org/2000/svg">
<path d="M19.0355 6.08033C18.8926 6.08033 18.7498 6.08033 18.6069 6.08033C18.6069 6.04461 18.6069 6.0089 18.6069 6.0089C18.6069 5.90175 18.6069 5.79461 18.6069 5.72318C18.6069 5.18747 18.6069 4.61604 18.6069 4.08033C18.6069 4.0089 18.4998 3.83033 18.4641 3.83033C17.9641 3.79461 17.4641 3.83033 16.9284 3.83033C16.9284 4.47318 16.9284 5.11604 16.9284 5.7589C16.9284 5.90175 16.9284 6.0089 16.9284 6.15175C16.1426 6.15175 15.4284 6.15175 14.6069 6.15175C14.6069 6.33033 14.6069 6.43747 14.6069 6.54461C14.6069 6.97318 14.6427 7.36604 14.6784 7.79461C15.0712 7.79461 15.4998 7.83033 15.8926 7.83033C16.2498 7.83033 16.5712 7.83033 16.9641 7.83033C16.9641 8.61604 16.9641 9.36604 16.9641 10.0803C17.5355 10.0803 18.0712 10.0803 18.6426 10.0803C18.6426 9.33032 18.6426 8.58033 18.6426 7.79461C19.4284 7.79461 20.1784 7.79461 20.9284 7.79461C20.9284 7.36604 20.9284 6.93747 20.9284 6.5089C20.9284 6.36604 20.9284 6.22318 20.9284 6.08033C20.2498 6.08033 19.6426 6.08033 19.0355 6.08033Z" fill="white"/>
<path d="M12.4999 5.86581C11.0713 5.90152 9.64276 5.86581 8.17847 5.86581C7.78562 5.86581 7.35704 5.86581 6.96418 5.86581C6.89275 5.86581 6.7499 5.97295 6.7499 6.00866C6.7499 6.83009 6.7499 7.65152 6.7499 8.54438C7.92847 8.54438 9.07133 8.54438 10.2499 8.54438C10.2142 8.72295 10.1785 8.83009 10.1428 8.97295C9.60705 10.5801 7.96419 11.3658 6.17847 11.0801C3.96419 10.7229 2.60705 8.68723 2.9999 6.47295C3.07133 6.15152 3.14276 5.8658 3.28561 5.58009C3.9999 3.97295 5.82133 3.00866 7.57133 3.40152C8.21418 3.54438 8.7499 3.86581 9.21419 4.25866C9.85704 3.61581 10.4642 2.97295 11.1428 2.33009C11.107 2.29438 11.0356 2.25866 10.9642 2.22295C9.42847 0.90152 7.64276 0.437233 5.64276 0.758662C2.78561 1.22295 0.714184 3.47295 0.249899 6.1158C0.0356128 7.25866 0.142756 8.43723 0.607041 9.61581C1.71418 12.4015 4.53561 14.1158 7.53561 13.7944C8.9999 13.6158 10.3213 13.1158 11.357 12.0087C12.857 10.4015 13.2499 8.43723 13.0356 6.33009C12.9642 5.93723 12.8213 5.86581 12.4999 5.86581Z" fill="white"/>
</svg>
