<svg width="41" height="40" viewBox="0 0 41 40" fill="none" xmlns="http://www.w3.org/2000/svg">
<path d="M40.25 20C40.25 30.7696 31.5196 39.5 20.75 39.5C9.98045 39.5 1.25 30.7696 1.25 20C1.25 9.23045 9.98045 0.5 20.75 0.5C31.5196 0.5 40.25 9.23045 40.25 20Z" stroke="#23B180"/>
<path d="M40.25 20C40.25 30.7696 31.5196 39.5 20.75 39.5C9.98045 39.5 1.25 30.7696 1.25 20C1.25 9.23045 9.98045 0.5 20.75 0.5C31.5196 0.5 40.25 9.23045 40.25 20Z" stroke="#23B180"/>
<path d="M32.5702 18.5713C32.4273 12.3213 27.2845 7.32129 20.9273 7.32129C14.6773 7.32129 9.57017 12.2141 9.32017 18.357C9.32017 18.5356 9.32017 18.6784 9.32017 18.857C9.32017 21.0356 9.92731 23.0713 10.9987 24.8213L8.8916 30.9999L15.3202 28.9641C16.9987 29.8927 18.8916 30.3927 20.9273 30.3927C27.3559 30.3927 32.5702 25.2141 32.5702 18.857C32.5702 18.7499 32.5702 18.6427 32.5702 18.5713Z" fill="#23B180"/>
<path d="M26.2842 21.1784C25.9985 21.0356 24.6056 20.357 24.3199 20.2499C24.0699 20.1427 23.8556 20.107 23.677 20.3927C23.4985 20.6784 22.927 21.3213 22.7842 21.4999C22.6056 21.6784 22.4628 21.7141 22.177 21.5713C21.8913 21.4284 20.9628 21.1427 19.8913 20.1784C19.0342 19.4284 18.4628 18.4999 18.3199 18.2141C18.1413 17.9284 18.3199 17.7856 18.427 17.6427C18.5699 17.4999 18.7128 17.3213 18.8556 17.1427C18.8913 17.107 18.927 17.0356 18.9628 16.9999C19.0342 16.8927 19.0699 16.7856 19.1413 16.6784C19.2485 16.4999 19.177 16.3213 19.1056 16.1784C19.0342 16.0356 18.4628 14.6427 18.2128 14.0713C17.9628 13.4999 17.7485 13.607 17.5699 13.607C17.3913 13.607 17.2127 13.5713 17.0342 13.5713C16.8556 13.5713 16.5342 13.6427 16.2842 13.9284C16.0342 14.2141 15.2842 14.8927 15.2842 16.2856C15.2842 16.607 15.3556 16.9284 15.427 17.2499C15.7127 18.2499 16.3199 19.0713 16.427 19.2141C16.5699 19.3927 18.3913 22.357 21.2842 23.4999C24.177 24.6427 24.177 24.2499 24.7128 24.2141C25.2485 24.1784 26.3913 23.5356 26.6413 22.857C26.8913 22.2141 26.8913 21.6427 26.8199 21.4999C26.7485 21.3927 26.5699 21.3213 26.2842 21.1784Z" fill="white"/>
</svg>
