<svg width="15" height="14" viewBox="0 0 15 14" fill="none" xmlns="http://www.w3.org/2000/svg">
<path d="M6.63632 0.487005L4.85099 4.10687L0.856561 4.68922C0.140243 4.79311 -0.146831 5.67621 0.372636 6.182L3.26251 8.99806L2.579 12.9761C2.45597 13.6951 3.2133 14.2337 3.8476 13.8975L7.42098 12.0192L10.9944 13.8975C11.6287 14.231 12.386 13.6951 12.263 12.9761L11.5795 8.99806L14.4693 6.182C14.9888 5.67621 14.7017 4.79311 13.9854 4.68922L9.99098 4.10687L8.20565 0.487005C7.88577 -0.158228 6.95893 -0.16643 6.63632 0.487005Z" fill="#F7B249" fill-opacity="0.2"/>
<path d="M6.63632 0.487005L4.85099 4.10687L0.856561 4.68922C0.140243 4.79311 -0.146831 5.67621 0.372636 6.182L3.26251 8.99806L2.579 12.9761C2.45597 13.6951 3.2133 14.2337 3.8476 13.8975L7.42098 12.0192L10.9944 13.8975C11.6287 14.231 12.386 13.6951 12.263 12.9761L11.5795 8.99806L14.4693 6.182C14.9888 5.67621 14.7017 4.79311 13.9854 4.68922L9.99098 4.10687L8.20565 0.487005C7.88577 -0.158228 6.95893 -0.16643 6.63632 0.487005Z" fill="#F7B249" fill-opacity="0.2"/>
<path d="M6.63632 0.487005L4.85099 4.10687L0.856561 4.68922C0.140243 4.79311 -0.146831 5.67621 0.372636 6.182L3.26251 8.99806L2.579 12.9761C2.45597 13.6951 3.2133 14.2337 3.8476 13.8975L7.42098 12.0192L10.9944 13.8975C11.6287 14.231 12.386 13.6951 12.263 12.9761L11.5795 8.99806L14.4693 6.182C14.9888 5.67621 14.7017 4.79311 13.9854 4.68922L9.99098 4.10687L8.20565 0.487005C7.88577 -0.158228 6.95893 -0.16643 6.63632 0.487005Z" fill="#F7B249" fill-opacity="0.2"/>
</svg>
