<svg width="25" height="24" viewBox="0 0 25 24" fill="none" xmlns="http://www.w3.org/2000/svg">
<path d="M6.47451 2L3.44531 6V20C3.44531 20.5304 3.65808 21.0391 4.0368 21.4142C4.41552 21.7893 4.92918 22 5.46478 22H19.601C20.1366 22 20.6503 21.7893 21.029 21.4142C21.4077 21.0391 21.6205 20.5304 21.6205 20V6L18.5913 2H6.47451Z" stroke="#C0C0C0" stroke-width="2" stroke-linecap="round" stroke-linejoin="round"/>
<path d="M3.44531 6H21.6205" stroke="#C0C0C0" stroke-width="2" stroke-linecap="round" stroke-linejoin="round"/>
<path d="M16.5715 10C16.5715 11.0609 16.146 12.0783 15.3885 12.8284C14.6311 13.5786 13.6038 14 12.5326 14C11.4614 14 10.4341 13.5786 9.67663 12.8284C8.91918 12.0783 8.49365 11.0609 8.49365 10" stroke="#C0C0C0" stroke-width="2" stroke-linecap="round" stroke-linejoin="round"/>
</svg>
