<svg width="41" height="40" viewBox="0 0 41 40" fill="none" xmlns="http://www.w3.org/2000/svg">
<g clip-path="url(#clip0_2859_7366)">
<path d="M40.2764 20.0132C40.2764 30.79 31.54 39.5264 20.7632 39.5264C9.98636 39.5264 1.25 30.79 1.25 20.0132C1.25 9.23636 9.98636 0.5 20.7632 0.5C31.54 0.5 40.2764 9.23636 40.2764 20.0132Z" stroke="#00A9E1"/>
<path d="M14.1357 21.5973L16.4328 27.8548L26.6506 13.6501L14.1357 21.5973Z" fill="#00AFE5" fill-opacity="0.69"/>
<path d="M16.6976 22.9967L16.46 27.9076L21.8461 23.3399L16.6976 22.9967Z" fill="#00AFE5" fill-opacity="0.69"/>
<path d="M29.1333 11.2739L9.01446 18.9306C8.43361 19.1419 8.46001 19.9603 9.04087 20.1452L14.2158 21.8877L26.0442 14.2574L16.6976 22.9966L23.9848 28.5148C24.7504 29.0957 25.8329 28.6996 26.0706 27.7755L30.0046 12.0131C30.1366 11.5115 29.6349 11.0891 29.1333 11.2739Z" fill="#00AFE5" fill-opacity="0.69"/>
</g>
<defs>
<clipPath id="clip0_2859_7366">
<rect width="40" height="40" fill="white" transform="translate(0.75)"/>
</clipPath>
</defs>
</svg>
