<svg width="22" height="22" viewBox="0 0 22 22" fill="none" xmlns="http://www.w3.org/2000/svg">
<path d="M2.75 5.5H4.58333H19.25" stroke="#9C9C9C" stroke-linecap="round" stroke-linejoin="round"/>
<path d="M17.4173 5.49998V18.3333C17.4173 18.8195 17.2242 19.2859 16.8803 19.6297C16.5365 19.9735 16.0702 20.1666 15.584 20.1666H6.41732C5.93109 20.1666 5.46477 19.9735 5.12096 19.6297C4.77714 19.2859 4.58398 18.8195 4.58398 18.3333V5.49998M7.33398 5.49998V3.66665C7.33398 3.18042 7.52714 2.7141 7.87096 2.37028C8.21477 2.02647 8.68109 1.83331 9.16732 1.83331H12.834C13.3202 1.83331 13.7865 2.02647 14.1303 2.37028C14.4742 2.7141 14.6673 3.18042 14.6673 3.66665V5.49998" stroke="#9C9C9C" stroke-linecap="round" stroke-linejoin="round"/>
<path d="M9.16602 10.0833V15.5833" stroke="#9C9C9C" stroke-linecap="round" stroke-linejoin="round"/>
<path d="M12.834 10.0833V15.5833" stroke="#9C9C9C" stroke-linecap="round" stroke-linejoin="round"/>
</svg>
