<svg width="23" height="23" viewBox="0 0 23 23" fill="none" xmlns="http://www.w3.org/2000/svg">
<path d="M18.5596 0H4.44042C1.97738 0 0 2.01207 0 4.44042V9.12368V10.8582V18.5596C0 21.0226 2.01207 23 4.44042 23H18.5596C21.0226 23 23 20.9879 23 18.5596V10.8929V9.15837V4.47511C23 2.01207 20.9879 0 18.5596 0ZM19.8431 2.67119H20.3635V3.19155V6.59125H16.4781V2.70588L19.8431 2.67119ZM8.18703 9.15837C8.91554 8.15234 10.1297 7.45852 11.4827 7.45852C12.8356 7.45852 14.0151 8.11765 14.7783 9.15837C14.8824 9.29713 14.9517 9.40121 15.0211 9.53997C15.368 10.1297 15.5415 10.7888 15.5415 11.5173C15.5415 13.7376 13.7376 15.5762 11.4827 15.5762C9.26244 15.5762 7.42383 13.7722 7.42383 11.5173C7.42383 10.7888 7.63198 10.1297 7.94419 9.53997C8.04827 9.40121 8.11765 9.29713 8.18703 9.15837ZM20.7451 18.5943C20.7451 19.8084 19.7391 20.8145 18.5249 20.8145H4.44042C3.22624 20.8145 2.22021 19.8084 2.22021 18.5943V10.3725V9.19306H5.6546C5.58522 9.40121 5.48115 9.60935 5.44646 9.85219C5.30769 10.4072 5.20362 10.9623 5.20362 11.552C5.20362 15.0211 8.01357 17.8311 11.4827 17.8311C14.9517 17.8311 17.7617 15.0211 17.7617 11.552C17.7617 10.9623 17.6923 10.3725 17.5189 9.85219C17.4495 9.64404 17.3801 9.40121 17.3107 9.19306H20.7451V10.3725V18.5943Z" fill="white" fill-opacity="0.5"/>
</svg>
