<svg width="24" height="23" viewBox="0 0 24 23" fill="none" xmlns="http://www.w3.org/2000/svg">
<path d="M23.5562 10.9276C23.4174 4.85671 18.4219 0 12.247 0C6.17606 0 1.21528 4.75264 0.972441 10.7195C0.972441 10.8929 0.972441 11.0317 0.972441 11.2051C0.972441 13.3213 1.56218 15.2986 2.60291 16.9985L0.556152 23L6.8005 21.0226C8.43097 21.9246 10.2696 22.4103 12.247 22.4103C18.4913 22.4103 23.5562 17.3801 23.5562 11.2051C23.5562 11.1011 23.5562 10.997 23.5562 10.9276ZM12.2816 20.6063C10.339 20.6063 8.56973 20.0166 7.04333 19.0452L3.4008 20.19L4.58028 16.6863C3.43549 15.1252 2.77636 13.2172 2.77636 11.1704C2.77636 10.8582 2.77636 10.546 2.81105 10.2685C3.26204 5.48115 7.35555 1.76923 12.2816 1.76923C17.2771 1.76923 21.3706 5.61991 21.7522 10.4766C21.7869 10.7195 21.7869 10.9623 21.7869 11.2051C21.7522 16.4087 17.52 20.6063 12.2816 20.6063Z" fill="white" fill-opacity="0.5"/>
<path d="M17.4509 13.4599C17.1734 13.3212 15.8204 12.6621 15.5429 12.558C15.3001 12.4539 15.0919 12.4192 14.9185 12.6967C14.745 12.9743 14.1899 13.5987 14.0512 13.7722C13.8777 13.9456 13.739 13.9803 13.4614 13.8415C13.1839 13.7028 12.2819 13.4253 11.2412 12.4886C10.4086 11.7601 9.8536 10.8581 9.71483 10.5806C9.54138 10.3031 9.71483 10.1643 9.81891 10.0256C9.95767 9.88679 10.0964 9.71333 10.2352 9.53988C10.2699 9.50519 10.3046 9.43581 10.3393 9.40112C10.4086 9.29704 10.4433 9.19297 10.5127 9.0889C10.6168 8.91545 10.5474 8.74199 10.478 8.60323C10.4086 8.46447 9.85359 7.11153 9.61076 6.55647C9.36792 6.00142 9.15978 6.10549 8.98632 6.10549C8.81287 6.10549 8.63941 6.0708 8.46596 6.0708C8.29251 6.0708 7.98029 6.14018 7.73746 6.41771C7.49462 6.69524 6.76611 7.35436 6.76611 8.7073C6.76611 9.01952 6.83549 9.33174 6.90487 9.64395C7.1824 10.6153 7.77215 11.4132 7.87622 11.5519C8.01498 11.7254 9.78421 14.6047 12.5942 15.7148C15.4041 16.825 15.4041 16.4434 15.9245 16.4087C16.4448 16.374 17.555 15.7495 17.7978 15.0904C18.0406 14.466 18.0406 13.9109 17.9712 13.7722C17.9019 13.6681 17.7284 13.5987 17.4509 13.4599Z" fill="white" fill-opacity="0.5"/>
</svg>
