<svg width="25" height="24" viewBox="0 0 25 24" fill="none" xmlns="http://www.w3.org/2000/svg">
<g clip-path="url(#clip0_1447_4372)">
<path d="M21.459 4.60999C20.9433 4.099 20.331 3.69364 19.657 3.41708C18.9831 3.14052 18.2607 2.99817 17.5312 2.99817C16.8016 2.99817 16.0793 3.14052 15.4053 3.41708C14.7314 3.69364 14.119 4.099 13.6033 4.60999L12.533 5.66999L11.4627 4.60999C10.4209 3.5783 9.00804 2.9987 7.53481 2.9987C6.06158 2.9987 4.64869 3.5783 3.60695 4.60999C2.56522 5.64169 1.97998 7.04096 1.97998 8.49999C1.97998 9.95903 2.56522 11.3583 3.60695 12.39L4.67727 13.45L12.533 21.23L20.3887 13.45L21.459 12.39C21.975 11.8792 22.3843 11.2728 22.6635 10.6053C22.9428 9.93789 23.0865 9.22248 23.0865 8.49999C23.0865 7.77751 22.9428 7.0621 22.6635 6.39464C22.3843 5.72718 21.975 5.12075 21.459 4.60999Z" stroke="#C0C0C0" stroke-width="2" stroke-linecap="round" stroke-linejoin="round"/>
</g>
<defs>
<clipPath id="clip0_1447_4372">
<rect x="0.416016" width="24.2336" height="24" rx="10" fill="white"/>
</clipPath>
</defs>
</svg>
