<svg width="27" height="17" viewBox="0 0 27 17" fill="none" xmlns="http://www.w3.org/2000/svg">
<path d="M26.0358 2.00895C25.7144 1.72323 24.4644 1.75894 23.2144 1.75894C21.9644 1.75894 20.6787 1.75894 20.393 1.9018C20.1072 2.00894 19.5001 3.47323 18.7144 4.97323C17.8215 6.68751 16.7144 8.29465 16.0358 8.29465C15.143 8.29465 15.3572 5.47323 15.393 3.43752C15.4287 2.08038 15.2144 1.6518 15.0001 1.50894C14.5358 1.18751 13.2144 0.866085 13.2144 0.866085C13.2144 0.866085 9.28583 0.580369 8.75011 2.25894C9.50011 2.36608 10.7858 2.11609 10.2858 7.36609C10.2501 7.61609 9.67868 9.79465 7.85725 6.86608C7.39297 6.1518 5.64296 1.75894 5.03582 1.75894C3.0001 1.68751 1.00011 1.61609 0.285822 2.00895C-0.357036 2.36609 1.17868 5.4018 3.75011 9.43751C5.85725 12.7232 8.07153 15.3304 11.9287 15.9732C12.643 16.0447 14.5358 16.1161 15.143 15.8304C15.5358 15.6161 15.0715 12.7589 16.4287 12.5089C17.0358 12.4018 19.393 15.4732 20.2858 15.8304C20.8215 16.0447 22.0001 16.1161 23.2144 16.0804C24.5358 16.0447 26.0001 16.1875 26.143 15.2947C26.4644 13.3304 22.1787 10.7589 22.0358 9.54465C21.9287 8.68751 23.6073 7.04465 24.4644 5.83037C25.5715 4.36608 26.7144 2.58038 26.0358 2.00895Z" fill="white"/>
</svg>
