<svg width="1196" height="305" viewBox="0 0 1196 305" fill="none" xmlns="http://www.w3.org/2000/svg">
<g filter="url(#filter0_i_741_1392)">
<path fill-rule="evenodd" clip-rule="evenodd" d="M173.589 7.35373e-10V136.132C173.589 175.654 198.758 186.433 225.898 186.433H347.627V229.947C347.627 261.485 321.685 269.869 301.33 253.501C292.8 246.641 292.949 222.362 292.949 222.362H263.016C263.016 222.362 262.192 245.744 269.401 261.485C273.767 271.017 290.13 288.632 323.681 288.632C353.614 288.632 375.141 271.066 375.141 239.928V186.433H408.268V158.887H375.141V56.2892C375.141 39.123 354.812 -0.00019471 313.678 7.35373e-10C288.933 0.000117134 173.589 7.35373e-10 173.589 7.35373e-10ZM200.754 122.958V25.1505H304.523C343.237 25.1505 347.627 49.1035 347.627 74.2538V158.887H245.455C212.727 158.887 200.754 156.093 200.754 122.958Z" fill="#4531C6"/>
<path d="M297.339 74.2538C290.182 74.5747 284.878 80.2682 284.568 87.4279C284.242 94.9301 289.839 101.464 297.339 101.8C305.157 102.149 311.648 95.2483 311.308 87.4279C310.982 79.9354 304.829 73.9181 297.339 74.2538Z" fill="#4531C6"/>
<path d="M0 140.523C-5.45362e-05 94.6138 53.0594 35.53 106.564 35.5301H160.443V64.6727H114.545C80.5959 64.6727 29.5344 98.2691 29.5344 140.523V279.051H96.1862C96.1862 249.908 124.124 229.947 154.856 229.947C188.78 229.947 212.328 255.497 214.324 279.051H267.406C267.406 279.051 279.379 295.019 297.339 295.019V302.205C297.294 303.724 296.831 304.126 295.344 304.201H191.973C189.535 303.677 188.783 302.836 188.78 300.209C188.78 300.209 188.78 281.047 187.184 276.655C183.411 266.276 171.219 260.687 154.856 260.288C138.492 259.888 123.725 268.272 122.129 276.655C120.532 285.039 120.931 300.209 120.931 300.209C120.872 303.311 120.463 304.056 119.335 304.201L4.39024 305C1.09017 305.02 0.0326069 304.312 0 301.407V140.523Z" fill="#4531C6"/>
</g>
<g filter="url(#filter1_i_741_1392)">
<path d="M427 186.407V158.886H500.759L540.57 256.688L576.45 158.886H631.35L668.417 258.152L707.6 158.886H759.45L703.148 305H635.603L604.493 222.389L573.384 305H505.839L458.562 186.407H427ZM756.862 221.343V194.154H972.071V249.577L836.767 268.4V277.811H918.801V268.4L972.071 263.171V305H783.496V221.343H756.862ZM836.767 241.421L918.801 230.754V221.343H836.767V241.421ZM978.261 185.789V158.6H1058.17V189.971L1195.6 206.703V305H1064.56L1053.9 294.543L1043.04 305H1004.9V185.789H978.261ZM1058.17 277.811H1142.33V226.571L1058.17 216.114V277.811Z" fill="#4531C6"/>
</g>
<g filter="url(#filter2_i_741_1392)">
<path d="M427 30.0054V6.5946H494.817V98.5892H563.957V84.5757L607.128 78.6405V122H451.646V30.0054H427ZM613.729 56.0541V34.6216H675.757V122H634.405V56.0541H613.729ZM634.405 23.0811V0H675.757V23.0811H634.405ZM690.618 56.0541V34.6216H711.294V6.5946H752.645V34.6216H793.17V56.0541H752.645V95.6216L762.57 100.568H826.252V122H751.818L711.294 102.216V56.0541H690.618ZM812.735 56.0541V34.6216H833.411V6.5946H874.763V34.6216H915.288V56.0541H874.763V95.6216L884.688 100.568H948.369V122H873.936L833.411 102.216V56.0541H812.735ZM966.538 122V6.5946H1007.89V100.568H1028.57V122H966.538ZM1028.54 56.0541V34.6216H1195.6V78.3108L1090.57 93.1486V100.568H1154.25V93.1486L1195.6 89.027V122H1049.21V56.0541H1028.54ZM1090.57 71.8811L1154.25 63.473V56.0541H1090.57V71.8811Z" fill="#A2D729"/>
</g>
<defs>
<filter id="filter0_i_741_1392" x="0" y="0" width="410.268" height="311" filterUnits="userSpaceOnUse" color-interpolation-filters="sRGB">
<feFlood flood-opacity="0" result="BackgroundImageFix"/>
<feBlend mode="normal" in="SourceGraphic" in2="BackgroundImageFix" result="shape"/>
<feColorMatrix in="SourceAlpha" type="matrix" values="0 0 0 0 0 0 0 0 0 0 0 0 0 0 0 0 0 0 127 0" result="hardAlpha"/>
<feOffset dx="2" dy="6"/>
<feGaussianBlur stdDeviation="5"/>
<feComposite in2="hardAlpha" operator="arithmetic" k2="-1" k3="1"/>
<feColorMatrix type="matrix" values="0 0 0 0 0 0 0 0 0 0 0 0 0 0 0 0 0 0 0.15 0"/>
<feBlend mode="normal" in2="shape" result="effect1_innerShadow_741_1392"/>
</filter>
<filter id="filter1_i_741_1392" x="427" y="158.6" width="770.6" height="152.4" filterUnits="userSpaceOnUse" color-interpolation-filters="sRGB">
<feFlood flood-opacity="0" result="BackgroundImageFix"/>
<feBlend mode="normal" in="SourceGraphic" in2="BackgroundImageFix" result="shape"/>
<feColorMatrix in="SourceAlpha" type="matrix" values="0 0 0 0 0 0 0 0 0 0 0 0 0 0 0 0 0 0 127 0" result="hardAlpha"/>
<feOffset dx="2" dy="6"/>
<feGaussianBlur stdDeviation="5"/>
<feComposite in2="hardAlpha" operator="arithmetic" k2="-1" k3="1"/>
<feColorMatrix type="matrix" values="0 0 0 0 0 0 0 0 0 0 0 0 0 0 0 0 0 0 0.15 0"/>
<feBlend mode="normal" in2="shape" result="effect1_innerShadow_741_1392"/>
</filter>
<filter id="filter2_i_741_1392" x="427" y="0" width="770.6" height="128" filterUnits="userSpaceOnUse" color-interpolation-filters="sRGB">
<feFlood flood-opacity="0" result="BackgroundImageFix"/>
<feBlend mode="normal" in="SourceGraphic" in2="BackgroundImageFix" result="shape"/>
<feColorMatrix in="SourceAlpha" type="matrix" values="0 0 0 0 0 0 0 0 0 0 0 0 0 0 0 0 0 0 127 0" result="hardAlpha"/>
<feOffset dx="2" dy="6"/>
<feGaussianBlur stdDeviation="5"/>
<feComposite in2="hardAlpha" operator="arithmetic" k2="-1" k3="1"/>
<feColorMatrix type="matrix" values="0 0 0 0 0 0 0 0 0 0 0 0 0 0 0 0 0 0 0.15 0"/>
<feBlend mode="normal" in2="shape" result="effect1_innerShadow_741_1392"/>
</filter>
</defs>
</svg>
