<svg width="206" height="68" viewBox="0 0 206 68" fill="none" xmlns="http://www.w3.org/2000/svg">
<g filter="url(#filter0_i_741_1398)">
<path fill-rule="evenodd" clip-rule="evenodd" d="M29.9091 1.26703e-10V23.4553C29.9091 30.2649 34.2457 32.1221 38.9218 32.1221H59.8956V39.6195C59.8956 45.0534 55.4257 46.4979 51.9187 43.6777C50.4488 42.4958 50.4746 38.3126 50.4746 38.3126H45.3171C45.3171 38.3126 45.1752 42.3413 46.4173 45.0534C47.1695 46.6957 49.9889 49.7307 55.7696 49.7307C60.9271 49.7307 64.6361 46.7042 64.6361 41.3391V32.1221H70.3438V27.376H64.6361V9.69853C64.6361 6.74082 61.1334 -3.35482e-05 54.0461 1.26703e-10C49.7826 2.0182e-05 29.9091 1.26703e-10 29.9091 1.26703e-10ZM34.5895 21.1854V4.33338H52.4688C59.1391 4.33338 59.8956 8.46045 59.8956 12.7938V27.376H42.2914C36.6525 27.376 34.5895 26.8945 34.5895 21.1854Z" fill="#4531C6"/>
<path d="M51.231 12.7938C49.9978 12.8491 49.084 13.8301 49.0305 15.0637C48.9744 16.3563 49.9388 17.4821 51.231 17.5399C52.578 17.6001 53.6964 16.4111 53.6378 15.0637C53.5817 13.7727 52.5215 12.7359 51.231 12.7938Z" fill="#4531C6"/>
<path d="M0 24.2119C-9.39649e-06 16.3018 9.14203 6.12176 18.3608 6.12177H27.6441V11.143H19.736C13.8865 11.143 5.08872 16.9316 5.08872 24.2119V48.0799H16.5727C16.5727 43.0587 21.3864 39.6195 26.6814 39.6195C32.5265 39.6195 36.5837 44.0217 36.9276 48.0799H46.0735C46.0735 48.0799 48.1365 50.8313 51.231 50.8313V52.0694C51.2232 52.3311 51.1434 52.4003 50.8872 52.4133H33.0767C32.6565 52.3229 32.5269 52.178 32.5265 51.7254C32.5265 51.7254 32.5265 48.4238 32.2515 47.6672C31.6013 45.8788 29.5008 44.9158 26.6814 44.8471C23.862 44.7783 21.3176 46.2227 21.0425 47.6672C20.7675 49.1117 20.8362 51.7254 20.8362 51.7254C20.826 52.26 20.7555 52.3882 20.5612 52.4133L0.756431 52.5508C0.187835 52.5544 0.0056181 52.4324 0 51.9318V24.2119Z" fill="#4531C6"/>
</g>
<g filter="url(#filter1_i_741_1398)">
<path d="M73.571 32.1175V27.3756H86.2796L93.139 44.2267L99.321 27.3756H108.78L115.167 44.4789L121.918 27.3756H130.852L121.151 52.5507H109.513L104.153 38.3169L98.7927 52.5507H87.1548L79.009 32.1175H73.571ZM130.406 38.1368V33.4522H167.486V43.0015L144.173 46.2446V47.8662H158.307V46.2446L167.486 45.3438V52.5507H134.995V38.1368H130.406ZM144.173 41.5961L158.307 39.7583V38.1368H144.173V41.5961ZM168.552 32.0108V27.3263H182.32V32.7315L205.999 35.6143V52.5507H183.421L181.585 50.749L179.713 52.5507H173.141V32.0108H168.552ZM182.32 47.8662H196.821V39.0376L182.32 37.2359V47.8662Z" fill="#4531C6"/>
</g>
<g filter="url(#filter2_i_741_1398)">
<path d="M73.571 5.16987V1.13624H85.2558V16.9867H97.1685V14.5722L104.607 13.5496V21.0204H77.8174V5.16987H73.571ZM105.744 9.65801V5.96524H116.431V21.0204H109.307V9.65801H105.744ZM109.307 3.97683V0H116.431V3.97683H109.307ZM118.992 9.65801V5.96524H122.554V1.13624H129.679V5.96524H136.661V9.65801H129.679V16.4754L131.389 17.3276H142.361V21.0204H129.537L122.554 17.6117V9.65801H118.992ZM140.033 9.65801V5.96524H143.595V1.13624H150.72V5.96524H157.702V9.65801H150.72V16.4754L152.43 17.3276H163.402V21.0204H150.577L143.595 17.6117V9.65801H140.033ZM166.532 21.0204V1.13624H173.657V17.3276H177.22V21.0204H166.532ZM177.215 9.65801V5.96524H205.999V13.4928L187.902 16.0493V17.3276H198.875V16.0493L205.999 15.3392V21.0204H180.777V9.65801H177.215ZM187.902 12.385L198.875 10.9363V9.65801H187.902V12.385Z" fill="#A2D729"/>
</g>
<path d="M1.05682 64.5509V55.8236H4.00568C4.69034 55.8236 5.25 55.9472 5.68466 56.1944C6.12216 56.4387 6.44602 56.7697 6.65625 57.1873C6.86648 57.6049 6.97159 58.0708 6.97159 58.585C6.97159 59.0992 6.86648 59.5665 6.65625 59.987C6.44886 60.4074 6.12784 60.7427 5.69318 60.9927C5.25852 61.2398 4.7017 61.3634 4.02273 61.3634H1.90909V60.4259H3.98864C4.45739 60.4259 4.83381 60.3449 5.1179 60.183C5.40199 60.0211 5.60795 59.8023 5.7358 59.5268C5.86648 59.2483 5.93182 58.9344 5.93182 58.585C5.93182 58.2356 5.86648 57.9231 5.7358 57.6475C5.60795 57.3719 5.40057 57.156 5.11364 56.9998C4.8267 56.8407 4.44602 56.7611 3.97159 56.7611H2.11364V64.5509H1.05682ZM10.4638 64.7043C10.049 64.7043 9.67259 64.6262 9.33452 64.4699C8.99645 64.3108 8.72798 64.0822 8.52912 63.7839C8.33026 63.4827 8.23082 63.1191 8.23082 62.6929C8.23082 62.3179 8.30469 62.014 8.45241 61.781C8.60014 61.5452 8.79759 61.3606 9.04474 61.227C9.2919 61.0935 9.56463 60.9941 9.86293 60.9287C10.1641 60.8606 10.4666 60.8066 10.7706 60.7668C11.1683 60.7157 11.4908 60.6773 11.7379 60.6518C11.9879 60.6233 12.1697 60.5765 12.2834 60.5111C12.3999 60.4458 12.4581 60.3322 12.4581 60.1702V60.1361C12.4581 59.7157 12.343 59.389 12.1129 59.156C11.8857 58.9231 11.5405 58.8066 11.0774 58.8066C10.5973 58.8066 10.2209 58.9117 9.94815 59.1219C9.67543 59.3322 9.48366 59.5566 9.37287 59.7952L8.41832 59.4543C8.58878 59.0566 8.81605 58.7469 9.10014 58.5253C9.38707 58.3009 9.69957 58.1447 10.0376 58.0566C10.3786 57.9657 10.7138 57.9202 11.0433 57.9202C11.2536 57.9202 11.495 57.9458 11.7678 57.9969C12.0433 58.0452 12.3089 58.1461 12.5646 58.2995C12.8232 58.4529 13.0376 58.6844 13.2081 58.9941C13.3786 59.3037 13.4638 59.7185 13.4638 60.2384V64.5509H12.4581V63.6645H12.407C12.3388 63.8066 12.2251 63.9586 12.0661 64.1205C11.907 64.2824 11.6953 64.4202 11.4311 64.5339C11.1669 64.6475 10.8445 64.7043 10.4638 64.7043ZM10.6172 63.8009C11.0149 63.8009 11.3501 63.7228 11.6229 63.5665C11.8984 63.4103 12.1058 63.2086 12.245 62.9614C12.3871 62.7143 12.4581 62.4543 12.4581 62.1816V61.2611C12.4155 61.3123 12.3217 61.3591 12.1768 61.4018C12.0348 61.4415 11.87 61.477 11.6825 61.5083C11.4979 61.5367 11.3175 61.5623 11.1413 61.585C10.968 61.6049 10.8274 61.6219 10.7195 61.6361C10.4581 61.6702 10.2138 61.7256 9.98651 61.8023C9.76207 61.8762 9.58026 61.9884 9.44105 62.139C9.30469 62.2867 9.23651 62.4884 9.23651 62.7441C9.23651 63.0935 9.36577 63.3577 9.62429 63.5367C9.88565 63.7128 10.2166 63.8009 10.6172 63.8009ZM14.8903 62.8804H15.9641C15.9869 63.1759 16.1204 63.4003 16.3647 63.5537C16.6119 63.7072 16.9329 63.7839 17.3278 63.7839C17.7312 63.7839 18.0763 63.7015 18.3633 63.5367C18.6502 63.3691 18.7937 63.0992 18.7937 62.727C18.7937 62.5083 18.7397 62.3179 18.6317 62.156C18.5238 61.9912 18.3718 61.8634 18.1758 61.7725C17.9798 61.6816 17.7482 61.6361 17.4812 61.6361H16.3562V60.7327H17.4812C17.8817 60.7327 18.1772 60.6418 18.3675 60.46C18.5607 60.2782 18.6573 60.0509 18.6573 59.7782C18.6573 59.4856 18.5536 59.2512 18.3462 59.0751C18.1388 58.8961 17.8448 58.8066 17.4641 58.8066C17.0806 58.8066 16.761 58.8932 16.5053 59.0665C16.2496 59.237 16.1147 59.4572 16.1005 59.727H15.0437C15.055 59.3748 15.163 59.0637 15.3675 58.7938C15.5721 58.5211 15.8505 58.308 16.2028 58.1546C16.555 57.9983 16.9585 57.9202 17.413 57.9202C17.8732 57.9202 18.2724 58.0012 18.6104 58.1631C18.9513 58.3222 19.2141 58.5395 19.3988 58.8151C19.5863 59.0878 19.68 59.3975 19.68 59.7441C19.68 60.1134 19.5763 60.4117 19.369 60.639C19.1616 60.8662 18.9016 61.0282 18.5891 61.1248V61.1929C18.8363 61.21 19.0508 61.2895 19.2326 61.4316C19.4173 61.5708 19.5607 61.754 19.663 61.9813C19.7653 62.2057 19.8164 62.4543 19.8164 62.727C19.8164 63.1248 19.7099 63.4714 19.4968 63.7668C19.2837 64.0594 18.9911 64.2867 18.619 64.4486C18.2468 64.6077 17.8221 64.6873 17.3448 64.6873C16.8817 64.6873 16.467 64.612 16.1005 64.4614C15.734 64.308 15.4428 64.0964 15.2269 63.8265C15.0138 63.5537 14.9016 63.2384 14.8903 62.8804ZM21.229 67.0054V58.0054H22.2006V59.0452H22.32C22.3938 58.9316 22.4961 58.7867 22.6268 58.6106C22.7603 58.4316 22.9506 58.2725 23.1978 58.1333C23.4478 57.9912 23.7859 57.9202 24.212 57.9202C24.7631 57.9202 25.2489 58.058 25.6694 58.3336C26.0898 58.6091 26.418 58.9998 26.6538 59.5054C26.8896 60.0111 27.0075 60.6077 27.0075 61.2952C27.0075 61.9884 26.8896 62.5893 26.6538 63.0978C26.418 63.6035 26.0913 63.9955 25.6737 64.2739C25.256 64.5495 24.7745 64.6873 24.229 64.6873C23.8086 64.6873 23.4719 64.6177 23.2191 64.4785C22.9663 64.3364 22.7717 64.1759 22.6353 63.9969C22.4989 63.8151 22.3938 63.6645 22.32 63.5452H22.2347V67.0054H21.229ZM22.2177 61.2782C22.2177 61.7725 22.2901 62.2086 22.435 62.5864C22.5799 62.9614 22.7915 63.2554 23.07 63.4685C23.3484 63.6787 23.6893 63.7839 24.0927 63.7839C24.5131 63.7839 24.864 63.6731 25.1452 63.4515C25.4293 63.227 25.6424 62.9259 25.7844 62.5481C25.9293 62.1674 26.0018 61.7441 26.0018 61.2782C26.0018 60.8179 25.9308 60.4032 25.7887 60.0339C25.6495 59.6617 25.4379 59.3677 25.1538 59.1518C24.8725 58.933 24.5188 58.8236 24.0927 58.8236C23.6836 58.8236 23.3398 58.9273 23.0614 59.1347C22.783 59.3393 22.5728 59.6262 22.4308 59.9955C22.2887 60.362 22.2177 60.7895 22.2177 61.2782ZM30.4677 64.7043C30.0529 64.7043 29.6765 64.6262 29.3384 64.4699C29.0004 64.3108 28.7319 64.0822 28.533 63.7839C28.3342 63.4827 28.2347 63.1191 28.2347 62.6929C28.2347 62.3179 28.3086 62.014 28.4563 61.781C28.604 61.5452 28.8015 61.3606 29.0487 61.227C29.2958 61.0935 29.5685 60.9941 29.8668 60.9287C30.168 60.8606 30.4705 60.8066 30.7745 60.7668C31.1722 60.7157 31.4947 60.6773 31.7418 60.6518C31.9918 60.6233 32.1737 60.5765 32.2873 60.5111C32.4038 60.4458 32.462 60.3322 32.462 60.1702V60.1361C32.462 59.7157 32.3469 59.389 32.1168 59.156C31.8896 58.9231 31.5444 58.8066 31.0813 58.8066C30.6012 58.8066 30.2248 58.9117 29.9521 59.1219C29.6793 59.3322 29.4876 59.5566 29.3768 59.7952L28.4222 59.4543C28.5927 59.0566 28.82 58.7469 29.104 58.5253C29.391 58.3009 29.7035 58.1447 30.0415 58.0566C30.3825 57.9657 30.7177 57.9202 31.0472 57.9202C31.2575 57.9202 31.4989 57.9458 31.7717 57.9969C32.0472 58.0452 32.3129 58.1461 32.5685 58.2995C32.8271 58.4529 33.0415 58.6844 33.212 58.9941C33.3825 59.3037 33.4677 59.7185 33.4677 60.2384V64.5509H32.462V63.6645H32.4109C32.3427 63.8066 32.229 63.9586 32.07 64.1205C31.9109 64.2824 31.6992 64.4202 31.435 64.5339C31.1708 64.6475 30.8484 64.7043 30.4677 64.7043ZM30.6211 63.8009C31.0188 63.8009 31.354 63.7228 31.6268 63.5665C31.9023 63.4103 32.1097 63.2086 32.2489 62.9614C32.391 62.7143 32.462 62.4543 32.462 62.1816V61.2611C32.4194 61.3123 32.3256 61.3591 32.1808 61.4018C32.0387 61.4415 31.8739 61.477 31.6864 61.5083C31.5018 61.5367 31.3214 61.5623 31.1452 61.585C30.9719 61.6049 30.8313 61.6219 30.7234 61.6361C30.462 61.6702 30.2177 61.7256 29.9904 61.8023C29.766 61.8762 29.5842 61.9884 29.445 62.139C29.3086 62.2867 29.2404 62.4884 29.2404 62.7441C29.2404 63.0935 29.3697 63.3577 29.6282 63.5367C29.8896 63.7128 30.2205 63.8009 30.6211 63.8009ZM40.1612 55.5509L40.6726 56.1645C40.4737 56.3577 40.2436 56.4927 39.9822 56.5694C39.7209 56.6461 39.4254 56.6929 39.0959 56.71C38.7663 56.727 38.3999 56.7441 37.9964 56.7611C37.5419 56.7782 37.1655 56.889 36.8672 57.0935C36.5689 57.2981 36.3388 57.5935 36.1768 57.9799C36.0149 58.3662 35.9112 58.8407 35.8658 59.4032H35.951C36.1726 58.9941 36.4794 58.6929 36.8714 58.4998C37.2635 58.3066 37.6839 58.21 38.1328 58.21C38.6442 58.21 39.1044 58.3293 39.5135 58.5679C39.9226 58.8066 40.2464 59.1603 40.4851 59.629C40.7237 60.0978 40.843 60.6759 40.843 61.3634C40.843 62.0481 40.7209 62.639 40.4766 63.1361C40.2351 63.6333 39.8956 64.0168 39.4581 64.2867C39.0234 64.5537 38.5135 64.6873 37.9283 64.6873C37.343 64.6873 36.8303 64.5495 36.3899 64.2739C35.9496 63.9955 35.6072 63.5836 35.3629 63.0381C35.1186 62.4898 34.9964 61.8123 34.9964 61.0054V60.3066C34.9964 58.8492 35.2436 57.7441 35.7379 56.9912C36.2351 56.2384 36.9822 55.8492 37.9794 55.8236C38.3317 55.8123 38.6456 55.8094 38.9212 55.8151C39.1967 55.8208 39.4368 55.808 39.6413 55.7768C39.8459 55.7455 40.0192 55.6702 40.1612 55.5509ZM37.9283 63.7839C38.3232 63.7839 38.6626 63.6844 38.9467 63.4856C39.2337 63.2867 39.4538 63.0069 39.6072 62.6461C39.7607 62.2824 39.8374 61.8549 39.8374 61.3634C39.8374 60.8861 39.7592 60.4799 39.603 60.1447C39.4496 59.8094 39.2294 59.5537 38.9425 59.3776C38.6555 59.2015 38.3118 59.1134 37.9112 59.1134C37.6186 59.1134 37.3558 59.1631 37.1229 59.2626C36.8899 59.362 36.6911 59.5083 36.5263 59.7015C36.3615 59.8947 36.2337 60.1304 36.1428 60.4089C36.0547 60.6873 36.0078 61.0054 36.0021 61.3634C36.0021 62.0964 36.174 62.683 36.5178 63.1233C36.8615 63.5637 37.3317 63.7839 37.9283 63.7839ZM45.0405 64.6873C44.4496 64.6873 43.9311 64.5466 43.4851 64.2654C43.0419 63.9841 42.6953 63.5907 42.4453 63.085C42.1982 62.5793 42.0746 61.9884 42.0746 61.3123C42.0746 60.6304 42.1982 60.0353 42.4453 59.5268C42.6953 59.0182 43.0419 58.6233 43.4851 58.3421C43.9311 58.0608 44.4496 57.9202 45.0405 57.9202C45.6314 57.9202 46.1484 58.0608 46.5916 58.3421C47.0376 58.6233 47.3842 59.0182 47.6314 59.5268C47.8814 60.0353 48.0064 60.6304 48.0064 61.3123C48.0064 61.9884 47.8814 62.5793 47.6314 63.085C47.3842 63.5907 47.0376 63.9841 46.5916 64.2654C46.1484 64.5466 45.6314 64.6873 45.0405 64.6873ZM45.0405 63.7839C45.4893 63.7839 45.8587 63.6688 46.1484 63.4387C46.4382 63.2086 46.6527 62.906 46.7919 62.531C46.9311 62.156 47.0007 61.7498 47.0007 61.3123C47.0007 60.8748 46.9311 60.4671 46.7919 60.0893C46.6527 59.7114 46.4382 59.406 46.1484 59.1731C45.8587 58.9401 45.4893 58.8236 45.0405 58.8236C44.5916 58.8236 44.2223 58.9401 43.9325 59.1731C43.6428 59.406 43.4283 59.7114 43.2891 60.0893C43.1499 60.4671 43.0803 60.8748 43.0803 61.3123C43.0803 61.7498 43.1499 62.156 43.2891 62.531C43.4283 62.906 43.6428 63.2086 43.9325 63.4387C44.2223 63.6688 44.5916 63.7839 45.0405 63.7839ZM48.6861 58.9429V58.0054H54.0043V58.9429H51.8565V64.5509H50.8509V58.9429H48.6861ZM55.4712 64.5509V58.0054H56.4769V60.852H57.1417L59.494 58.0054H60.7894L58.1474 61.1589L60.8235 64.5509H59.5281L57.3803 61.7895H56.4769V64.5509H55.4712ZM63.8427 64.7043C63.4279 64.7043 63.0515 64.6262 62.7134 64.4699C62.3754 64.3108 62.1069 64.0822 61.908 63.7839C61.7092 63.4827 61.6097 63.1191 61.6097 62.6929C61.6097 62.3179 61.6836 62.014 61.8313 61.781C61.979 61.5452 62.1765 61.3606 62.4237 61.227C62.6708 61.0935 62.9435 60.9941 63.2418 60.9287C63.543 60.8606 63.8455 60.8066 64.1495 60.7668C64.5472 60.7157 64.8697 60.6773 65.1168 60.6518C65.3668 60.6233 65.5487 60.5765 65.6623 60.5111C65.7788 60.4458 65.837 60.3322 65.837 60.1702V60.1361C65.837 59.7157 65.7219 59.389 65.4918 59.156C65.2646 58.9231 64.9194 58.8066 64.4563 58.8066C63.9762 58.8066 63.5998 58.9117 63.3271 59.1219C63.0543 59.3322 62.8626 59.5566 62.7518 59.7952L61.7972 59.4543C61.9677 59.0566 62.195 58.7469 62.479 58.5253C62.766 58.3009 63.0785 58.1447 63.4165 58.0566C63.7575 57.9657 64.0927 57.9202 64.4222 57.9202C64.6325 57.9202 64.8739 57.9458 65.1467 57.9969C65.4222 58.0452 65.6879 58.1461 65.9435 58.2995C66.2021 58.4529 66.4165 58.6844 66.587 58.9941C66.7575 59.3037 66.8427 59.7185 66.8427 60.2384V64.5509H65.837V63.6645H65.7859C65.7177 63.8066 65.604 63.9586 65.445 64.1205C65.2859 64.2824 65.0742 64.4202 64.81 64.5339C64.5458 64.6475 64.2234 64.7043 63.8427 64.7043ZM63.9961 63.8009C64.3938 63.8009 64.729 63.7228 65.0018 63.5665C65.2773 63.4103 65.4847 63.2086 65.6239 62.9614C65.766 62.7143 65.837 62.4543 65.837 62.1816V61.2611C65.7944 61.3123 65.7006 61.3591 65.5558 61.4018C65.4137 61.4415 65.2489 61.477 65.0614 61.5083C64.8768 61.5367 64.6964 61.5623 64.5202 61.585C64.3469 61.6049 64.2063 61.6219 64.0984 61.6361C63.837 61.6702 63.5927 61.7256 63.3654 61.8023C63.141 61.8762 62.9592 61.9884 62.82 62.139C62.6836 62.2867 62.6154 62.4884 62.6154 62.7441C62.6154 63.0935 62.7447 63.3577 63.0032 63.5367C63.2646 63.7128 63.5955 63.8009 63.9961 63.8009ZM73.0589 63.0679L76.2124 58.0054H77.3714V64.5509H76.3658V59.4884L73.2294 64.5509H72.0533V58.0054H73.0589V63.0679ZM82.5884 64.5509V58.0054H87.7362V64.5509H86.7305V58.9429H83.5941V64.5509H82.5884ZM89.5728 67.0054V58.0054H90.5444V59.0452H90.6637C90.7376 58.9316 90.8398 58.7867 90.9705 58.6106C91.104 58.4316 91.2944 58.2725 91.5415 58.1333C91.7915 57.9912 92.1296 57.9202 92.5558 57.9202C93.1069 57.9202 93.5927 58.058 94.0131 58.3336C94.4336 58.6091 94.7617 58.9998 94.9975 59.5054C95.2333 60.0111 95.3512 60.6077 95.3512 61.2952C95.3512 61.9884 95.2333 62.5893 94.9975 63.0978C94.7617 63.6035 94.435 63.9955 94.0174 64.2739C93.5998 64.5495 93.1183 64.6873 92.5728 64.6873C92.1523 64.6873 91.8157 64.6177 91.5629 64.4785C91.31 64.3364 91.1154 64.1759 90.979 63.9969C90.8427 63.8151 90.7376 63.6645 90.6637 63.5452H90.5785V67.0054H89.5728ZM90.5614 61.2782C90.5614 61.7725 90.6339 62.2086 90.7788 62.5864C90.9237 62.9614 91.1353 63.2554 91.4137 63.4685C91.6921 63.6787 92.033 63.7839 92.4364 63.7839C92.8569 63.7839 93.2077 63.6731 93.489 63.4515C93.7731 63.227 93.9862 62.9259 94.1282 62.5481C94.2731 62.1674 94.3455 61.7441 94.3455 61.2782C94.3455 60.8179 94.2745 60.4032 94.1325 60.0339C93.9933 59.6617 93.7816 59.3677 93.4975 59.1518C93.2163 58.933 92.8626 58.8236 92.4364 58.8236C92.0273 58.8236 91.6836 58.9273 91.4052 59.1347C91.1268 59.3393 90.9165 59.6262 90.7745 59.9955C90.6325 60.362 90.5614 60.7895 90.5614 61.2782ZM99.5444 64.6873C98.9535 64.6873 98.435 64.5466 97.989 64.2654C97.5458 63.9841 97.1992 63.5907 96.9492 63.085C96.7021 62.5793 96.5785 61.9884 96.5785 61.3123C96.5785 60.6304 96.7021 60.0353 96.9492 59.5268C97.1992 59.0182 97.5458 58.6233 97.989 58.3421C98.435 58.0608 98.9535 57.9202 99.5444 57.9202C100.135 57.9202 100.652 58.0608 101.096 58.3421C101.542 58.6233 101.888 59.0182 102.135 59.5268C102.385 60.0353 102.51 60.6304 102.51 61.3123C102.51 61.9884 102.385 62.5793 102.135 63.085C101.888 63.5907 101.542 63.9841 101.096 64.2654C100.652 64.5466 100.135 64.6873 99.5444 64.6873ZM99.5444 63.7839C99.9933 63.7839 100.363 63.6688 100.652 63.4387C100.942 63.2086 101.157 62.906 101.296 62.531C101.435 62.156 101.505 61.7498 101.505 61.3123C101.505 60.8748 101.435 60.4671 101.296 60.0893C101.157 59.7114 100.942 59.406 100.652 59.1731C100.363 58.9401 99.9933 58.8236 99.5444 58.8236C99.0955 58.8236 98.7262 58.9401 98.4364 59.1731C98.1467 59.406 97.9322 59.7114 97.793 60.0893C97.6538 60.4671 97.5842 60.8748 97.5842 61.3123C97.5842 61.7498 97.6538 62.156 97.793 62.531C97.9322 62.906 98.1467 63.2086 98.4364 63.4387C98.7262 63.6688 99.0955 63.7839 99.5444 63.7839ZM103.347 66.4259V63.6134H103.892C104.026 63.4742 104.141 63.3236 104.237 63.1617C104.334 62.9998 104.418 62.808 104.489 62.5864C104.563 62.362 104.625 62.0893 104.676 61.7682C104.727 61.4444 104.773 61.0537 104.812 60.5964L105.034 58.0054H109.193V63.6134H110.199V66.4259H109.193V64.5509H104.352V66.4259H103.347ZM105.034 63.6134H108.188V58.9429H105.972L105.801 60.5964C105.73 61.281 105.642 61.879 105.537 62.3904C105.432 62.9018 105.264 63.3094 105.034 63.6134ZM111.534 64.5509V58.0054H114.21C114.914 58.0054 115.474 58.1645 115.889 58.4827C116.304 58.8009 116.511 59.2214 116.511 59.7441C116.511 60.1418 116.393 60.4501 116.157 60.6688C115.922 60.8847 115.619 61.031 115.25 61.1077C115.491 61.1418 115.725 61.227 115.953 61.3634C116.183 61.4998 116.373 61.6873 116.524 61.9259C116.674 62.1617 116.75 62.4515 116.75 62.7952C116.75 63.1304 116.664 63.4302 116.494 63.6944C116.324 63.9586 116.079 64.1674 115.761 64.3208C115.443 64.4742 115.062 64.5509 114.619 64.5509H111.534ZM112.488 63.6304H114.619C114.966 63.6304 115.237 63.5481 115.433 63.3833C115.629 63.2185 115.727 62.9941 115.727 62.71C115.727 62.3719 115.629 62.1063 115.433 61.9131C115.237 61.7171 114.966 61.6191 114.619 61.6191H112.488V63.6304ZM112.488 60.7498H114.21C114.48 60.7498 114.711 60.7128 114.904 60.639C115.098 60.5623 115.245 60.4543 115.348 60.3151C115.453 60.1731 115.505 60.0054 115.505 59.8123C115.505 59.5367 115.39 59.3208 115.16 59.1645C114.93 59.0054 114.613 58.9259 114.21 58.9259H112.488V60.7498ZM119.278 63.0679L122.431 58.0054H123.59V64.5509H122.585V59.4884L119.448 64.5509H118.272V58.0054H119.278V63.0679ZM125.023 64.5509L127.682 61.227L125.057 58.0054H126.25L128.432 60.8009H128.978V58.0054H129.983V60.8009H130.512L132.694 58.0054H133.887L131.279 61.227L133.921 64.5509H132.711L130.495 61.7384H129.983V64.5509H128.978V61.7384H128.466L126.233 64.5509H125.023ZM137.833 64.6873C137.202 64.6873 136.658 64.5481 136.201 64.2697C135.746 63.9884 135.395 63.5964 135.148 63.0935C134.904 62.5878 134.782 61.9998 134.782 61.3293C134.782 60.6589 134.904 60.0679 135.148 59.5566C135.395 59.0424 135.739 58.6418 136.179 58.3549C136.623 58.0651 137.14 57.9202 137.73 57.9202C138.071 57.9202 138.408 57.977 138.74 58.0907C139.073 58.2043 139.375 58.389 139.648 58.6447C139.921 58.8975 140.138 59.2327 140.3 59.6503C140.462 60.0679 140.543 60.5822 140.543 61.1929V61.6191H135.498V60.7498H139.52C139.52 60.3804 139.446 60.0509 139.299 59.7611C139.154 59.4714 138.946 59.2427 138.676 59.0751C138.409 58.9074 138.094 58.8236 137.73 58.8236C137.33 58.8236 136.983 58.9231 136.691 59.1219C136.401 59.3179 136.178 59.5736 136.022 59.889C135.865 60.2043 135.787 60.5424 135.787 60.9032V61.4827C135.787 61.977 135.873 62.3961 136.043 62.7398C136.216 63.0807 136.456 63.3407 136.763 63.5197C137.07 63.6958 137.426 63.7839 137.833 63.7839C138.097 63.7839 138.336 63.7469 138.549 63.6731C138.765 63.5964 138.951 63.4827 139.107 63.3322C139.263 63.1787 139.384 62.9884 139.469 62.7611L140.441 63.0339C140.338 63.3634 140.167 63.6532 139.925 63.9032C139.684 64.1503 139.385 64.3435 139.03 64.4827C138.675 64.6191 138.276 64.6873 137.833 64.6873ZM146.453 60.8179V61.7554H142.84V60.8179H146.453ZM143.078 58.0054V64.5509H142.073V58.0054H143.078ZM147.221 58.0054V64.5509H146.215V58.0054H147.221ZM150.063 63.0679L153.216 58.0054H154.375V64.5509H153.37V59.4884L150.233 64.5509H149.057V58.0054H150.063V63.0679ZM158.962 64.6873C158.331 64.6873 157.787 64.5481 157.33 64.2697C156.875 63.9884 156.524 63.5964 156.277 63.0935C156.033 62.5878 155.911 61.9998 155.911 61.3293C155.911 60.6589 156.033 60.0679 156.277 59.5566C156.524 59.0424 156.868 58.6418 157.308 58.3549C157.751 58.0651 158.268 57.9202 158.859 57.9202C159.2 57.9202 159.537 57.977 159.869 58.0907C160.202 58.2043 160.504 58.389 160.777 58.6447C161.05 58.8975 161.267 59.2327 161.429 59.6503C161.591 60.0679 161.672 60.5822 161.672 61.1929V61.6191H156.626V60.7498H160.649C160.649 60.3804 160.575 60.0509 160.428 59.7611C160.283 59.4714 160.075 59.2427 159.805 59.0751C159.538 58.9074 159.223 58.8236 158.859 58.8236C158.459 58.8236 158.112 58.9231 157.82 59.1219C157.53 59.3179 157.307 59.5736 157.151 59.889C156.994 60.2043 156.916 60.5424 156.916 60.9032V61.4827C156.916 61.977 157.001 62.3961 157.172 62.7398C157.345 63.0807 157.585 63.3407 157.892 63.5197C158.199 63.6958 158.555 63.7839 158.962 63.7839C159.226 63.7839 159.464 63.7469 159.678 63.6731C159.893 63.5964 160.08 63.4827 160.236 63.3322C160.392 63.1787 160.513 62.9884 160.598 62.7611L161.57 63.0339C161.467 63.3634 161.295 63.6532 161.054 63.9032C160.813 64.1503 160.514 64.3435 160.159 64.4827C159.804 64.6191 159.405 64.6873 158.962 64.6873ZM169.236 64.6873C168.622 64.6873 168.094 64.5424 167.651 64.2526C167.207 63.9628 166.866 63.5637 166.628 63.0552C166.389 62.5466 166.27 61.9657 166.27 61.3123C166.27 60.6475 166.392 60.0608 166.636 59.5523C166.884 59.041 167.227 58.6418 167.668 58.3549C168.111 58.0651 168.628 57.9202 169.219 57.9202C169.679 57.9202 170.094 58.0054 170.463 58.1759C170.832 58.3464 171.135 58.585 171.371 58.8918C171.607 59.1986 171.753 59.5566 171.81 59.9657H170.804C170.727 59.6674 170.557 59.4032 170.293 59.1731C170.031 58.9401 169.679 58.8236 169.236 58.8236C168.844 58.8236 168.5 58.9259 168.205 59.1304C167.912 59.3322 167.683 59.6177 167.518 59.987C167.357 60.3535 167.276 60.7839 167.276 61.2782C167.276 61.7839 167.355 62.2242 167.514 62.5992C167.676 62.9742 167.903 63.2654 168.196 63.4728C168.491 63.6802 168.838 63.7839 169.236 63.7839C169.497 63.7839 169.734 63.7384 169.947 63.6475C170.161 63.5566 170.341 63.4259 170.489 63.2554C170.636 63.085 170.741 62.8804 170.804 62.6418H171.81C171.753 63.0282 171.612 63.3762 171.388 63.6858C171.166 63.9927 170.872 64.237 170.506 64.4188C170.142 64.5978 169.719 64.6873 169.236 64.6873ZM175.206 64.7043C174.791 64.7043 174.415 64.6262 174.077 64.4699C173.739 64.3108 173.47 64.0822 173.271 63.7839C173.072 63.4827 172.973 63.1191 172.973 62.6929C172.973 62.3179 173.047 62.014 173.195 61.781C173.342 61.5452 173.54 61.3606 173.787 61.227C174.034 61.0935 174.307 60.9941 174.605 60.9287C174.906 60.8606 175.209 60.8066 175.513 60.7668C175.911 60.7157 176.233 60.6773 176.48 60.6518C176.73 60.6233 176.912 60.5765 177.026 60.5111C177.142 60.4458 177.2 60.3322 177.2 60.1702V60.1361C177.2 59.7157 177.085 59.389 176.855 59.156C176.628 58.9231 176.283 58.8066 175.82 58.8066C175.339 58.8066 174.963 58.9117 174.69 59.1219C174.418 59.3322 174.226 59.5566 174.115 59.7952L173.161 59.4543C173.331 59.0566 173.558 58.7469 173.842 58.5253C174.129 58.3009 174.442 58.1447 174.78 58.0566C175.121 57.9657 175.456 57.9202 175.786 57.9202C175.996 57.9202 176.237 57.9458 176.51 57.9969C176.786 58.0452 177.051 58.1461 177.307 58.2995C177.565 58.4529 177.78 58.6844 177.95 58.9941C178.121 59.3037 178.206 59.7185 178.206 60.2384V64.5509H177.2V63.6645H177.149C177.081 63.8066 176.967 63.9586 176.808 64.1205C176.649 64.2824 176.438 64.4202 176.173 64.5339C175.909 64.6475 175.587 64.7043 175.206 64.7043ZM175.359 63.8009C175.757 63.8009 176.092 63.7228 176.365 63.5665C176.641 63.4103 176.848 63.2086 176.987 62.9614C177.129 62.7143 177.2 62.4543 177.2 62.1816V61.2611C177.158 61.3123 177.064 61.3591 176.919 61.4018C176.777 61.4415 176.612 61.477 176.425 61.5083C176.24 61.5367 176.06 61.5623 175.884 61.585C175.71 61.6049 175.57 61.6219 175.462 61.6361C175.2 61.6702 174.956 61.7256 174.729 61.8023C174.504 61.8762 174.322 61.9884 174.183 62.139C174.047 62.2867 173.979 62.4884 173.979 62.7441C173.979 63.0935 174.108 63.3577 174.366 63.5367C174.628 63.7128 174.959 63.8009 175.359 63.8009ZM181.047 63.0679L184.201 58.0054H185.36V64.5509H184.354V59.4884L181.218 64.5509H180.042V58.0054H181.047V63.0679ZM183.536 55.8236H184.473C184.473 56.2839 184.314 56.6603 183.996 56.9529C183.678 57.2455 183.246 57.3918 182.701 57.3918C182.164 57.3918 181.736 57.2455 181.418 56.9529C181.103 56.6603 180.945 56.2839 180.945 55.8236H181.882C181.882 56.0452 181.944 56.2398 182.066 56.4074C182.191 56.5751 182.402 56.6589 182.701 56.6589C182.999 56.6589 183.212 56.5751 183.34 56.4074C183.471 56.2398 183.536 56.0452 183.536 55.8236ZM186.311 58.9429V58.0054H191.629V58.9429H189.482V64.5509H188.476V58.9429H186.311ZM195.415 64.6873C194.825 64.6873 194.306 64.5466 193.86 64.2654C193.417 63.9841 193.07 63.5907 192.82 63.085C192.573 62.5793 192.45 61.9884 192.45 61.3123C192.45 60.6304 192.573 60.0353 192.82 59.5268C193.07 59.0182 193.417 58.6233 193.86 58.3421C194.306 58.0608 194.825 57.9202 195.415 57.9202C196.006 57.9202 196.523 58.0608 196.967 58.3421C197.413 58.6233 197.759 59.0182 198.006 59.5268C198.256 60.0353 198.381 60.6304 198.381 61.3123C198.381 61.9884 198.256 62.5793 198.006 63.085C197.759 63.5907 197.413 63.9841 196.967 64.2654C196.523 64.5466 196.006 64.6873 195.415 64.6873ZM195.415 63.7839C195.864 63.7839 196.234 63.6688 196.523 63.4387C196.813 63.2086 197.028 62.906 197.167 62.531C197.306 62.156 197.376 61.7498 197.376 61.3123C197.376 60.8748 197.306 60.4671 197.167 60.0893C197.028 59.7114 196.813 59.406 196.523 59.1731C196.234 58.9401 195.864 58.8236 195.415 58.8236C194.967 58.8236 194.597 58.9401 194.308 59.1731C194.018 59.406 193.803 59.7114 193.664 60.0893C193.525 60.4671 193.455 60.8748 193.455 61.3123C193.455 61.7498 193.525 62.156 193.664 62.531C193.803 62.906 194.018 63.2086 194.308 63.4387C194.597 63.6688 194.967 63.7839 195.415 63.7839ZM199.917 64.5509V58.0054H202.593C203.297 58.0054 203.857 58.1645 204.272 58.4827C204.686 58.8009 204.894 59.2214 204.894 59.7441C204.894 60.1418 204.776 60.4501 204.54 60.6688C204.304 60.8847 204.002 61.031 203.632 61.1077C203.874 61.1418 204.108 61.227 204.336 61.3634C204.566 61.4998 204.756 61.6873 204.907 61.9259C205.057 62.1617 205.132 62.4515 205.132 62.7952C205.132 63.1304 205.047 63.4302 204.877 63.6944C204.706 63.9586 204.462 64.1674 204.144 64.3208C203.826 64.4742 203.445 64.5509 203.002 64.5509H199.917ZM200.871 63.6304H203.002C203.348 63.6304 203.62 63.5481 203.816 63.3833C204.012 63.2185 204.11 62.9941 204.11 62.71C204.11 62.3719 204.012 62.1063 203.816 61.9131C203.62 61.7171 203.348 61.6191 203.002 61.6191H200.871V63.6304ZM200.871 60.7498H202.593C202.863 60.7498 203.094 60.7128 203.287 60.639C203.48 60.5623 203.628 60.4543 203.73 60.3151C203.836 60.1731 203.888 60.0054 203.888 59.8123C203.888 59.5367 203.773 59.3208 203.543 59.1645C203.313 59.0054 202.996 58.9259 202.593 58.9259H200.871V60.7498Z" fill="#FFFCE1"/>
<defs>
<filter id="filter0_i_741_1398" x="0" y="0" width="72.3438" height="58.5509" filterUnits="userSpaceOnUse" color-interpolation-filters="sRGB">
<feFlood flood-opacity="0" result="BackgroundImageFix"/>
<feBlend mode="normal" in="SourceGraphic" in2="BackgroundImageFix" result="shape"/>
<feColorMatrix in="SourceAlpha" type="matrix" values="0 0 0 0 0 0 0 0 0 0 0 0 0 0 0 0 0 0 127 0" result="hardAlpha"/>
<feOffset dx="2" dy="6"/>
<feGaussianBlur stdDeviation="5"/>
<feComposite in2="hardAlpha" operator="arithmetic" k2="-1" k3="1"/>
<feColorMatrix type="matrix" values="0 0 0 0 0 0 0 0 0 0 0 0 0 0 0 0 0 0 0.15 0"/>
<feBlend mode="normal" in2="shape" result="effect1_innerShadow_741_1398"/>
</filter>
<filter id="filter1_i_741_1398" x="73.571" y="27.3263" width="134.428" height="31.2245" filterUnits="userSpaceOnUse" color-interpolation-filters="sRGB">
<feFlood flood-opacity="0" result="BackgroundImageFix"/>
<feBlend mode="normal" in="SourceGraphic" in2="BackgroundImageFix" result="shape"/>
<feColorMatrix in="SourceAlpha" type="matrix" values="0 0 0 0 0 0 0 0 0 0 0 0 0 0 0 0 0 0 127 0" result="hardAlpha"/>
<feOffset dx="2" dy="6"/>
<feGaussianBlur stdDeviation="5"/>
<feComposite in2="hardAlpha" operator="arithmetic" k2="-1" k3="1"/>
<feColorMatrix type="matrix" values="0 0 0 0 0 0 0 0 0 0 0 0 0 0 0 0 0 0 0.15 0"/>
<feBlend mode="normal" in2="shape" result="effect1_innerShadow_741_1398"/>
</filter>
<filter id="filter2_i_741_1398" x="73.571" y="0" width="134.428" height="27.0204" filterUnits="userSpaceOnUse" color-interpolation-filters="sRGB">
<feFlood flood-opacity="0" result="BackgroundImageFix"/>
<feBlend mode="normal" in="SourceGraphic" in2="BackgroundImageFix" result="shape"/>
<feColorMatrix in="SourceAlpha" type="matrix" values="0 0 0 0 0 0 0 0 0 0 0 0 0 0 0 0 0 0 127 0" result="hardAlpha"/>
<feOffset dx="2" dy="6"/>
<feGaussianBlur stdDeviation="5"/>
<feComposite in2="hardAlpha" operator="arithmetic" k2="-1" k3="1"/>
<feColorMatrix type="matrix" values="0 0 0 0 0 0 0 0 0 0 0 0 0 0 0 0 0 0 0.15 0"/>
<feBlend mode="normal" in2="shape" result="effect1_innerShadow_741_1398"/>
</filter>
</defs>
</svg>
