<svg width="1920" height="485" viewBox="0 0 1920 485" fill="none" xmlns="http://www.w3.org/2000/svg">
<path d="M1042.74 121.631C1035.38 116.964 1026.78 113.358 1017.16 110.918C1011.46 109.504 1005.57 108.301 999.584 107.417C1004 106.144 1007.94 104.589 1011.46 102.785C1017.99 99.4264 1023.3 95.537 1027.21 91.2232C1031.19 86.8742 1034.02 81.9594 1035.64 76.6556C1037.25 71.4579 1038.04 66.0127 1038.04 60.4968C1038.04 42.0044 1029.9 28.25 1013.79 19.5872C998.113 11.1719 977.02 6.89349 951.084 6.89349H872.344V12.9045L874.066 13.2227C878.37 14.0359 882.568 16.5817 886.513 20.7894C890.459 25.0324 892.397 29.2753 892.397 33.8012V206.103C892.397 210.593 890.424 215.048 886.513 219.362C883.321 222.898 879.985 225.09 876.577 226.115V222.226H845.152C844.507 222.226 843.359 222.085 841.637 221.802C839.987 221.554 838.193 220.953 836.364 219.998C834.606 219.114 833.063 217.771 831.7 215.968C830.445 214.27 829.799 212.007 829.799 209.214V30.6897C829.799 27.861 830.588 25.4213 832.203 23.2644C833.924 20.9308 835.79 19.0921 837.799 17.6071C839.987 15.7331 842.677 14.2127 845.834 13.1166L847.233 12.6216V6.85815H787.47V12.6216L788.869 13.1166C792.025 14.2127 794.716 15.7331 797.191 17.7839C799.307 19.0921 801.173 20.9308 802.715 23.1937C804.222 25.3859 804.939 27.8257 804.939 30.6897V222.226H665.79V30.6897C665.79 27.861 666.579 25.4213 668.193 23.2644C669.915 20.9308 671.781 19.0568 673.79 17.6071C675.978 15.7331 678.668 14.2127 681.825 13.1166L683.224 12.6216V6.85815H623.46V12.6216L624.859 13.1166C628.016 14.2127 630.707 15.7331 633.182 17.7839C635.334 19.0921 637.2 20.9308 638.742 23.1937C640.249 25.3859 640.966 27.8257 640.966 30.6897V209.214C640.966 212.113 640.32 214.589 638.957 216.781C637.558 219.079 635.908 220.988 634.043 222.438C632.142 223.923 630.348 225.019 628.662 225.691C626.33 226.61 625.649 226.646 625.577 226.646H623.46V233.01H845.117C850.713 233.01 855.017 234.672 858.21 238.102C861.582 241.708 864.129 245.81 865.743 250.265C867.393 254.826 868.47 259.317 868.972 263.56C869.582 268.934 869.725 270.985 869.725 271.763V273.849H876.505V233.01H963.352C973.289 233.01 984.266 232.339 995.996 230.995C1007.8 229.651 1019.06 226.681 1029.5 222.155C1040.05 217.594 1048.98 210.911 1056.01 202.249C1063.15 193.48 1066.77 181.599 1066.77 166.961C1066.77 156.283 1064.62 147.125 1060.32 139.735C1056.12 132.557 1050.2 126.405 1042.74 121.631ZM917.22 115.479H945.918C959.191 115.762 971.926 116.575 983.8 117.919C995.53 119.227 1005.9 121.631 1014.61 125.097C1023.12 128.491 1029.9 133.476 1034.77 139.947C1039.62 146.347 1042.06 155.222 1042.06 166.254C1042.06 178.806 1039.51 188.848 1034.45 196.167C1029.36 203.521 1022.9 209.214 1015.19 213.033C1007.37 216.922 998.759 219.468 989.647 220.6C980.356 221.766 971.567 222.367 963.424 222.367H917.22V115.479ZM957.254 104.659H917.22V17.7839H946.995C971.424 17.7839 988.822 21.4612 998.687 28.7097C1008.48 35.9228 1013.25 46.3181 1013.25 60.5675C1013.25 74.9584 1008.91 85.7427 1000.37 92.7083C991.728 99.78 977.163 103.811 957.254 104.659Z" fill="#C0C0C0" fill-opacity="0.05"/>
<path d="M1274.98 181.776C1269.56 187.928 1263.89 193.762 1258.15 199.172C1252.48 204.511 1246.21 209.179 1239.5 213.104C1232.83 216.993 1225.4 220.069 1217.4 222.226C1209.4 224.383 1200.25 225.479 1190.21 225.479C1175.54 225.479 1162.55 222.65 1151.58 217.064C1140.6 211.477 1131.42 203.804 1124.28 194.364C1117.1 184.852 1111.69 173.679 1108.17 161.091C1104.65 148.468 1102.86 134.997 1102.86 120.995C1102.86 113.817 1103.47 106.498 1104.73 99.1081H1257.08C1264.18 99.1081 1269.34 98.6485 1272.82 97.6938C1276.56 96.6684 1279.21 95.042 1280.72 92.8497C1282.19 90.6929 1282.8 88.041 1282.62 84.8941C1282.44 82.1362 1282.01 78.7771 1281.33 74.9584C1279.93 65.553 1276.73 56.5013 1271.82 48.0153C1266.91 39.5293 1260.41 32.0333 1252.56 25.6688C1244.7 19.3397 1235.34 14.2127 1224.68 10.4293C1214.03 6.68135 1202.3 4.77203 1189.78 4.77203C1174.46 4.77203 1159.93 7.67139 1146.52 13.3641C1133.14 19.0921 1121.23 27.1539 1111.15 37.3725C1101.07 47.591 1092.96 60.0018 1087.04 74.2512C1081.12 88.4653 1078.14 104.2 1078.14 120.995C1078.14 138.038 1080.8 153.808 1086 167.88C1091.2 181.988 1098.7 194.399 1108.28 204.759C1117.89 215.154 1129.8 223.322 1143.72 229.05C1157.64 234.743 1173.31 237.642 1190.28 237.642C1202.08 237.642 1212.67 236.193 1221.78 233.329C1230.82 230.5 1239.14 226.681 1246.46 221.978C1253.78 217.311 1260.38 211.901 1266.15 205.89C1271.82 199.986 1277.13 193.798 1281.97 187.504L1283.16 185.948L1276.48 180.185L1274.98 181.776ZM1257.97 88.2178H1106.91C1107.24 86.9449 1107.56 85.672 1107.92 84.3991C1111.25 72.0944 1116.42 60.815 1123.31 50.844C1130.12 40.9083 1138.8 32.6698 1149.14 26.3406C1159.4 20.0822 1171.81 16.8999 1186.08 16.8999C1198.75 16.8999 1209.76 19.0568 1218.84 23.3705C1227.95 27.6489 1235.48 33.3062 1241.26 40.1304C1247.03 46.9899 1251.3 54.8748 1253.96 63.6084C1256.43 71.7408 1257.79 80.0146 1257.97 88.2178Z" fill="#C0C0C0" fill-opacity="0.05"/>
<path d="M1293.99 6.96423V58.6582H1300.77V56.572C1300.77 55.8295 1300.91 53.7787 1301.52 48.3689C1302.02 44.0905 1303.1 39.6 1304.75 35.0741C1306.37 30.619 1308.91 26.5174 1312.28 22.9108C1315.51 19.4811 1319.78 17.8193 1325.38 17.8193H1394.22V209.356C1394.22 212.22 1393.5 214.659 1391.99 216.852C1390.45 219.114 1388.59 220.918 1386.18 222.438C1383.99 224.312 1381.3 225.833 1378.15 226.929L1376.75 227.424V233.187H1436.51V227.424L1435.11 226.929C1431.95 225.833 1429.26 224.348 1426.93 222.332C1425.03 220.988 1423.2 219.114 1421.48 216.781C1419.87 214.624 1419.08 212.184 1419.08 209.356V17.8193H1487.92C1493.51 17.8193 1497.82 19.4811 1501.01 22.9108C1504.38 26.5174 1506.93 30.619 1508.54 35.0741C1510.19 39.6707 1511.3 44.1259 1511.77 48.3689C1512.38 53.7787 1512.52 55.8295 1512.52 56.572V58.6582H1519.3V6.96423H1293.99Z" fill="#C0C0C0" fill-opacity="0.05"/>
<path d="M640.858 360.018C640.177 358.462 638.204 358.002 630.706 360.654C517.278 413.444 248.915 527.935 207.16 450.5C189.259 417.51 235.607 344.778 267.139 315.608C331.315 320.31 404.494 301.924 433.121 293.756C483.629 276.395 653.378 210.027 717.661 83.9748C721.823 72.2005 721.392 61.1687 716.514 53.0009C712.46 46.2475 705.572 41.8276 696.497 40.2719C551.787 21.9562 351.116 196.202 243.893 302.242C225.778 297.115 208.451 290.927 191.699 284.987C137.747 265.788 86.7718 247.649 23.8873 269.712C-13.5636 285.659 -37.7417 304.47 -54.6735 330.882C-55.8573 333.251 -56.6823 335.267 -55.2116 336.328C-53.7049 337.388 -51.983 336.045 -48.3958 332.403C-25.545 295.524 18.5423 271.622 72.5663 266.884C118.698 263.878 162.714 280.921 201.528 296.019C214.227 300.969 226.28 305.636 237.831 309.42L229.15 317.623C192.883 354.749 160.239 412.985 187.43 455.026C200.81 476.064 227.284 484.55 261.543 484.55C361.34 484.55 527.214 412.56 628.303 368.68L636.159 365.251C640.141 363.235 641.576 361.644 640.858 360.018ZM282.384 309.491L273.237 309.066C286.653 293.65 333.359 251.079 353.914 232.339C358.865 227.813 362.488 224.524 364.066 223.039C424.834 166.006 500.023 114.1 570.333 80.6511C634.222 50.2429 686.058 39.0343 705.572 51.3391C714.361 56.8903 716.227 67.1442 711.204 81.6412C683.69 139.381 619.227 198.465 534.425 243.689C449.299 289.124 357.43 313.097 282.384 309.491Z" fill="#C0C0C0" fill-opacity="0.05"/>
<path d="M2090 320.805C2089.71 297.186 2074.29 275.476 2053.8 263.454C2043.58 257.372 2032.35 253.235 2020.95 250.725C2009.65 248.002 1997.63 246.906 1985.97 247.437C1963.62 248.285 1942.17 254.119 1921.94 262.11C1940.99 234.884 1956.95 205.395 1965.49 172.76C1971.76 148.963 1973.23 123.187 1967.06 98.5425C1961.07 73.7916 1947.12 51.4451 1929.9 33.0234L1929.69 32.8112L1929.29 32.4577C1906.66 12.9752 1876.85 2.15553 1847.39 0.458328C1817.8 -1.66317 1788.63 3.78202 1761.26 12.6216C1706.34 30.4069 1657.2 61.0979 1614.55 98.2949C1593.27 117 1573.58 137.649 1557.44 161.233C1549.51 173.078 1542.3 185.63 1537.67 199.526C1535.37 206.456 1533.76 213.775 1533.55 221.413C1533.26 228.98 1534.77 237.041 1538.53 243.971C1542.12 250.76 1547.57 256.948 1554.32 261.014C1561.02 265.151 1568.63 267.237 1576.05 268.121C1591.01 269.854 1605.47 267.343 1619.32 263.878C1646.97 256.453 1672.73 244.749 1697.48 231.03L1699.42 230.076L1699.24 227.282C1698.42 213.21 1699.42 199.243 1704.51 186.974C1709.43 174.598 1718.4 164.415 1729.27 156.353C1740.17 148.256 1753.12 142.67 1766.39 137.826C1779.27 133.335 1792.76 129.622 1806.46 126.511C1810.12 136.942 1810.34 148.115 1804.96 157.379C1799.68 167.279 1790.46 174.952 1780.67 181.458C1770.81 188.035 1759.83 193.091 1748.71 197.829C1737.52 202.39 1726 206.527 1714.38 209.886L1715.31 214.094C1739.74 209.462 1763.6 201.471 1785.08 188.07C1795.63 181.281 1805.64 172.477 1811.63 160.632C1814.5 154.692 1815.86 147.938 1815.43 141.361C1814.93 134.785 1812.81 128.562 1809.8 123.01L1809.05 121.631L1807.72 121.773C1792.55 120.429 1777.37 121.914 1762.56 125.627C1747.78 129.375 1733.28 135.598 1720.62 145.003C1708.03 154.338 1697.34 167.456 1692.75 182.731C1687.83 196.945 1688.34 212.007 1691.31 225.833C1667.92 238.562 1642.96 249.417 1617.16 255.675C1603.89 258.787 1590.15 260.731 1577.17 258.963C1564.22 257.408 1552.67 250.69 1547.57 239.339C1542.12 228.591 1544.16 215.26 1548.61 203.168C1553.13 190.934 1560.23 179.372 1568.09 168.481C1584.16 146.736 1603.75 127.395 1624.7 109.857C1645.75 92.3901 1668.43 76.691 1692.28 63.2902C1716.06 49.7833 1740.92 38.0089 1766.86 29.9119C1792.72 21.7794 1819.66 16.9707 1846.14 18.2436C1872.5 19.3751 1898.05 28.2854 1918.06 44.7624C1934.17 61.1333 1947.26 80.3329 1954.22 102.008C1961.36 123.824 1961.58 147.761 1956.41 170.674C1948.05 205.926 1929.97 238.314 1908.2 267.98C1890.91 275.829 1874.41 285.093 1858.59 295.241C1820.56 319.709 1786.45 349.092 1754.05 379.889C1748.35 385.37 1742.79 390.992 1737.23 396.614C1735.44 396.614 1733.14 396.684 1730.13 396.79C1717.54 397.25 1709.72 395.164 1706.81 390.567C1704.26 386.607 1705.2 380.419 1709.57 372.11C1714.38 362.952 1723.85 352.345 1733.03 342.126C1735.97 338.873 1738.84 335.656 1741.46 332.615C1742.18 331.908 1742.29 330.847 1741.79 329.822C1740.67 327.453 1735.87 324.2 1729.09 324.695L1728.58 324.73L1720.87 331.165C1721.48 323.598 1718.9 317.234 1713.45 312.991C1705.52 306.839 1692.17 305.99 1681.73 311.011C1673.02 315.183 1668 322.679 1668 331.519C1668 336.009 1669.97 340.111 1673.7 343.328C1679.22 348.102 1688.12 350.612 1698.09 350.542C1674.24 365.64 1628.11 389.789 1614.73 381.197C1611.57 379.182 1610.42 375.116 1611.32 369.175C1625.06 365.958 1626.85 360.442 1626.99 358.179C1627.17 355.35 1625.2 352.804 1622.04 351.744C1618.1 350.4 1611.75 351.284 1606.87 358.179L1606.65 358.639C1606.22 360.088 1606.12 361.291 1605.79 362.669C1586.57 369.741 1551.8 380.738 1513.49 366.877C1514.78 358.108 1510.34 355.103 1507.47 354.113C1500.9 351.779 1491.4 355.704 1488.85 360.407C1487.38 363.094 1488.06 365.781 1490.71 367.832C1491.75 369.034 1493.98 369.069 1497.57 369.14C1499.61 369.175 1504.99 369.281 1505.31 370.307C1505.39 370.59 1505.67 373.277 1490.46 383.566C1480.67 389.506 1471.59 389.118 1467.32 382.576C1460.44 371.969 1467.25 346.263 1503.84 322.255L1505.46 321.194L1504.13 319.85C1503.34 319.037 1496.2 312.142 1490.75 314.193L1490.39 314.37C1463.67 333.11 1453.26 348.809 1449.64 360.018C1448.49 360.053 1447.31 360.194 1446.34 360.513L1429.01 366.983C1374.24 387.526 1346.76 397.816 1328.68 392.158C1325.09 391.027 1323.01 389.506 1322.54 387.632C1321.32 382.894 1329.14 374.974 1336.68 367.301C1347.37 356.411 1358.45 345.167 1352.93 335.939C1344.89 322.679 1324.52 322.573 1293.92 335.585C1293.45 334.241 1292.3 332.721 1289.94 331.094C1279.1 323.669 1248.11 318.79 1223 334.241C1223.14 332.968 1223.39 331.696 1223.57 330.635C1223.79 329.362 1223.97 328.372 1223.97 327.912V326.25L1212.56 327.064L1212.59 328.549C1212.92 340.677 1205.2 350.966 1196.92 359.699C1196.24 359.735 1195.63 359.735 1194.8 359.805C1192.68 359.912 1185.98 361.609 1173.31 364.791C1136.26 374.196 1049.48 396.189 1039.65 379.889C1036.93 375.399 1040.87 367.337 1051.02 356.588C1074.56 331.696 1100.53 316.704 1104.9 320.063C1105.19 320.275 1107.56 322.608 1099.38 335.337L1098.3 336.999L1104.8 339.156L1105.48 338.272C1113.98 327.311 1115.49 319.32 1109.96 314.476C1099.34 305.035 1082.41 306.379 1063.47 318.083C1047.08 328.23 1031.22 345.379 1025.27 360.76C996.749 373.56 909.22 398.594 897.598 381.162C893.975 375.752 896.773 363.058 930.565 333.145C931.928 331.766 932.394 330.104 931.928 328.407C930.959 324.942 926.009 321.795 918.727 319.957L917.83 319.744L906.315 331.307C874.675 316.138 848.309 329.22 835.287 345.202C831.305 350.082 828.543 355.209 827.001 360.124C825.638 360.336 824.203 360.725 823.126 361.043C791.559 371.332 667.727 398.205 661.915 387.031C659.082 381.657 683.044 358.002 695.923 345.309C706.971 334.418 712.783 328.584 713.464 326.074C714.002 324.447 713.428 322.821 711.85 321.76C709.411 320.098 704.281 319.85 701.734 321.901C689.645 329.503 679.672 331.696 672.139 328.443C662.92 324.482 659.978 313.415 659.153 308.854L658.902 307.404L646.526 308.854L646.203 309.738C643.585 316.739 645.091 323.386 650.436 328.513C659.225 336.929 675.798 339.015 689.86 333.428C691.187 332.827 692.515 332.191 693.77 331.625C694.129 331.448 694.523 331.271 694.918 331.094C691.403 334.029 685.842 338.449 678.237 344.283C675.726 346.299 672.103 348.88 667.906 351.814C651.512 363.377 631.137 377.768 636.912 386.713C640.607 393.431 652.696 395.942 668.875 395.942C718.092 395.942 804.796 372.534 805.944 372.216C816.095 369.317 822.158 367.301 825.817 365.816C825.279 370.873 826.212 375.398 828.938 378.722C833.207 383.884 844.973 390.108 876.11 374.833C877.15 380.313 880.487 384.592 886.047 387.562C892.898 391.274 902.763 392.795 914.135 392.795C950.259 392.795 1001.88 377.449 1023.26 367.549C1022.58 371.297 1022.58 374.833 1023.55 377.98C1025.48 384.486 1032.01 392.158 1052.21 392.158C1052.42 392.158 1052.6 392.158 1052.82 392.158C1086.32 391.663 1150.39 376.601 1181.17 369.352C1184.11 368.645 1186.73 368.044 1189.1 367.514C1186.23 370.342 1183.54 373.029 1181.39 375.54C1179.66 377.591 1179.84 379.323 1180.27 380.384C1181.17 382.541 1184.08 384.026 1188.2 384.45C1193.58 385.016 1200.76 383.602 1203.77 379.217C1244.7 324.306 1269.42 327.948 1280.54 335.019C1280.72 335.161 1280.79 335.267 1280.79 335.444C1281.11 338.626 1272 347.607 1264 355.527C1256 363.447 1247.75 371.615 1243.23 378.651L1243.01 379.288C1242.8 380.985 1243.62 382.541 1245.38 383.602C1249.26 386.006 1258.08 386.077 1263.86 382.329C1279.96 365.675 1288.43 355.35 1294.02 348.491L1296.64 345.309C1301.56 339.58 1319.85 332.297 1331.87 332.544C1334.92 332.615 1338.97 333.287 1340.87 335.797C1341.84 337.211 1333.38 344.743 1328.82 348.774C1318.35 358.108 1305.29 369.67 1304.93 380.066C1304.93 388.799 1313.58 394.669 1331.37 398.028C1334.2 398.523 1337.04 398.806 1340.01 398.806C1354.9 398.806 1372.48 392.547 1402.5 381.869C1415.49 377.237 1430.23 372.004 1448.17 366.029C1447.63 369.918 1447.88 372.959 1448.35 375.08C1450.18 383.849 1457.03 390.284 1466.64 392.264C1468.58 392.653 1470.7 392.901 1472.96 392.901C1484.26 392.901 1499.07 387.385 1511.13 371.403C1547.86 386.183 1585.85 375.222 1604.75 368.362C1603.96 376.389 1605.86 382.187 1610.64 385.476C1627.03 396.826 1670.72 374.903 1696.3 358.462C1686.58 371.898 1683.82 383.637 1688.59 392.123C1692.86 399.69 1702.79 403.685 1716.75 403.685C1721.19 403.685 1726.04 403.261 1731.24 402.448C1707.56 426.774 1685.21 452.232 1664.01 478.645L1659.53 484.09L1666.09 482.11C1670 480.908 1672.16 479.458 1675.06 478.009L1683.06 473.447C1688.34 470.336 1693.54 467.118 1698.67 463.865C1708.96 457.324 1719.08 450.5 1729.09 443.569C1749.1 429.638 1768.58 415.035 1787.59 399.76C1825.44 369.175 1861.71 336.292 1893.27 299.06C1898.15 293.226 1902.96 287.25 1907.66 281.168C1912.83 278.729 1918.06 276.43 1923.37 274.309C1943.64 266.212 1964.91 260.413 1986.33 259.777C1997.05 259.352 2007.53 260.555 2018.08 262.817C2028.51 265.08 2038.67 268.404 2047.89 273.319C2066.25 282.512 2080.85 299.696 2085.37 320.169C2084.01 321.972 2082.22 323.811 2080.21 325.084C2077.95 326.569 2075.47 327.629 2072.82 328.124C2070.16 328.549 2067.44 328.655 2064.71 328.16C2061.98 327.735 2059.33 326.816 2056.71 325.755L2052.91 324.235L2053.66 328.124C2054.99 334.878 2055.67 341.737 2055.63 348.561C2055.6 351.991 2055.38 355.386 2054.92 358.745C2054.49 361.609 2053.84 364.543 2052.98 367.16C2050.97 367.301 2048.67 367.16 2046.59 366.594C2044.05 365.958 2041.61 364.862 2039.35 363.483C2037.09 362.033 2035.04 360.3 2033.21 358.32C2031.35 356.34 2029.77 354.148 2028.26 351.85L2025.07 347.006L2024.21 352.663C2023.17 359.558 2021.27 366.347 2018.47 372.711C2017 375.858 2015.35 378.934 2013.45 381.798C2012.16 383.743 2010.69 385.582 2009.14 387.279C2006.67 381.303 2004.98 374.727 2003.94 368.256C2002.79 360.76 2002.51 353.123 2002.58 345.521C2002.65 337.919 2003.48 330.281 2004.52 322.679C2005.05 318.896 2005.66 315.077 2005.77 311.188C2006.13 307.298 2006.24 303.374 2005.63 299.13L2001.39 298.034C1996.48 305.035 1994.08 312.991 1992.86 321.053C1991.92 329.185 1991.06 337.388 1991.57 345.627C1991.89 353.865 1993.04 362.104 1995.37 370.095C1997.81 378.05 2001 385.723 2006.6 392.477L2008.1 394.315L2009.75 392.83C2012.77 390.108 2014.95 387.243 2017.07 384.097C2019.15 380.985 2020.91 377.732 2022.45 374.373C2024.78 369.105 2026.33 363.553 2027.51 357.931C2028.33 358.992 2029.05 360.159 2029.98 361.149C2032.07 363.341 2034.4 365.357 2036.98 367.019C2039.6 368.645 2042.47 369.918 2045.52 370.696C2048.6 371.438 2051.62 371.792 2055.1 371.262L2056.24 371.085L2056.67 369.989C2058.07 366.311 2058.72 362.846 2059.26 359.24C2059.76 355.669 2059.97 352.062 2060.05 348.491C2060.08 342.551 2059.47 336.681 2058.54 330.847C2060.33 331.448 2062.13 331.978 2064.03 332.261C2067.18 332.827 2070.48 332.756 2073.71 332.226C2076.94 331.625 2080.03 330.317 2082.72 328.549C2085.44 326.71 2087.74 324.589 2089.68 321.689L2090 321.265V320.805ZM1687.04 330.988C1690.13 323.492 1696.98 316.421 1704.33 316.421C1705.16 316.421 1705.98 316.491 1706.77 316.704C1709.93 317.411 1712.01 318.79 1713.12 320.911C1714.88 324.235 1714.34 329.397 1711.54 336.221C1709.18 340.959 1705.81 343.93 1701.54 345.026C1696.37 346.369 1690.67 344.743 1687.55 342.657L1687.47 342.621C1685 341.066 1684.82 336.398 1687.04 330.988ZM891.643 332.473C892.324 332.473 892.97 332.509 893.508 332.615C895.984 333.075 896.414 334.312 896.522 334.701C897.096 336.469 897.024 342.162 883.249 356.411C873.384 369.211 853.941 378.687 844.793 377.414C842.928 377.166 841.744 376.459 841.278 375.292C840.704 373.878 840.381 369.388 849.493 358.32C863.052 341.667 882.388 332.473 891.643 332.473ZM1887.5 294.463C1856.4 331.201 1821.14 364.508 1783.76 395.305C1765.07 410.686 1745.84 425.466 1726.11 439.539C1716.24 446.575 1706.27 453.47 1696.12 460.082C1691.06 463.406 1685.93 466.623 1680.77 469.77C1678.94 470.866 1676.96 472.033 1675.03 473.164C1701.9 442.756 1730.74 413.974 1760.55 386.466C1793.19 356.517 1827.88 328.655 1865.12 304.965C1873.72 299.519 1882.51 294.392 1891.45 289.619C1890.12 291.246 1888.83 292.872 1887.5 294.463Z" fill="#C0C0C0" fill-opacity="0.05"/>
<path d="M2090 320.805C2089.71 297.186 2074.29 275.476 2053.8 263.454C2043.58 257.372 2032.35 253.235 2020.95 250.725C2009.65 248.002 1997.63 246.906 1985.97 247.437C1963.62 248.285 1942.17 254.119 1921.94 262.11C1940.99 234.884 1956.95 205.395 1965.49 172.76C1971.76 148.963 1973.23 123.187 1967.06 98.5425C1961.07 73.7916 1947.12 51.4451 1929.9 33.0234L1929.69 32.8112L1929.29 32.4577C1906.66 12.9752 1876.85 2.15553 1847.39 0.458328C1817.8 -1.66317 1788.63 3.78202 1761.26 12.6216C1706.34 30.4069 1657.2 61.0979 1614.55 98.2949C1593.27 117 1573.58 137.649 1557.44 161.233C1549.51 173.078 1542.3 185.63 1537.67 199.526C1535.37 206.456 1533.76 213.775 1533.55 221.413C1533.26 228.98 1534.77 237.041 1538.53 243.971C1542.12 250.76 1547.57 256.948 1554.32 261.014C1561.02 265.151 1568.63 267.237 1576.05 268.121C1591.01 269.854 1605.47 267.343 1619.32 263.878C1646.97 256.453 1672.73 244.749 1697.48 231.03L1699.42 230.076L1699.24 227.282C1698.42 213.21 1699.42 199.243 1704.51 186.974C1709.43 174.598 1718.4 164.415 1729.27 156.353C1740.17 148.256 1753.12 142.67 1766.39 137.826C1779.27 133.335 1792.76 129.622 1806.46 126.511C1810.12 136.942 1810.34 148.115 1804.96 157.379C1799.68 167.279 1790.46 174.952 1780.67 181.458C1770.81 188.035 1759.83 193.091 1748.71 197.829C1737.52 202.39 1726 206.527 1714.38 209.886L1715.31 214.094C1739.74 209.462 1763.6 201.471 1785.08 188.07C1795.63 181.281 1805.64 172.477 1811.63 160.632C1814.5 154.692 1815.86 147.938 1815.43 141.361C1814.93 134.785 1812.81 128.562 1809.8 123.01L1809.05 121.631L1807.72 121.773C1792.55 120.429 1777.37 121.914 1762.56 125.627C1747.78 129.375 1733.28 135.598 1720.62 145.003C1708.03 154.338 1697.34 167.456 1692.75 182.731C1687.83 196.945 1688.34 212.007 1691.31 225.833C1667.92 238.562 1642.96 249.417 1617.16 255.675C1603.89 258.787 1590.15 260.731 1577.17 258.963C1564.22 257.408 1552.67 250.69 1547.57 239.339C1542.12 228.591 1544.16 215.26 1548.61 203.168C1553.13 190.934 1560.23 179.372 1568.09 168.481C1584.16 146.736 1603.75 127.395 1624.7 109.857C1645.75 92.3901 1668.43 76.691 1692.28 63.2902C1716.06 49.7833 1740.92 38.0089 1766.86 29.9119C1792.72 21.7794 1819.66 16.9707 1846.14 18.2436C1872.5 19.3751 1898.05 28.2854 1918.06 44.7624C1934.17 61.1333 1947.26 80.3329 1954.22 102.008C1961.36 123.824 1961.58 147.761 1956.41 170.674C1948.05 205.926 1929.97 238.314 1908.2 267.98C1890.91 275.829 1874.41 285.093 1858.59 295.241C1820.56 319.709 1786.45 349.092 1754.05 379.889C1748.35 385.37 1742.79 390.992 1737.23 396.614C1735.44 396.614 1733.14 396.684 1730.13 396.79C1717.54 397.25 1709.72 395.164 1706.81 390.567C1704.26 386.607 1705.2 380.419 1709.57 372.11C1714.38 362.952 1723.85 352.345 1733.03 342.126C1735.97 338.873 1738.84 335.656 1741.46 332.615C1742.18 331.908 1742.29 330.847 1741.79 329.822C1740.67 327.453 1735.87 324.2 1729.09 324.695L1728.58 324.73L1720.87 331.165C1721.48 323.598 1718.9 317.234 1713.45 312.991C1705.52 306.839 1692.17 305.99 1681.73 311.011C1673.02 315.183 1668 322.679 1668 331.519C1668 336.009 1669.97 340.111 1673.7 343.328C1679.22 348.102 1688.12 350.612 1698.09 350.542C1674.24 365.64 1628.11 389.789 1614.73 381.197C1611.57 379.182 1610.42 375.116 1611.32 369.175C1625.06 365.958 1626.85 360.442 1626.99 358.179C1627.17 355.35 1625.2 352.804 1622.04 351.744C1618.1 350.4 1611.75 351.284 1606.87 358.179L1606.65 358.639C1606.22 360.088 1606.12 361.291 1605.79 362.669C1586.57 369.741 1551.8 380.738 1513.49 366.877C1514.78 358.108 1510.34 355.103 1507.47 354.113C1500.9 351.779 1491.4 355.704 1488.85 360.407C1487.38 363.094 1488.06 365.781 1490.71 367.832C1491.75 369.034 1493.98 369.069 1497.57 369.14C1499.61 369.175 1504.99 369.281 1505.31 370.307C1505.39 370.59 1505.67 373.277 1490.46 383.566C1480.67 389.506 1471.59 389.118 1467.32 382.576C1460.44 371.969 1467.25 346.263 1503.84 322.255L1505.46 321.194L1504.13 319.85C1503.34 319.037 1496.2 312.142 1490.75 314.193L1490.39 314.37C1463.67 333.11 1453.26 348.809 1449.64 360.018C1448.49 360.053 1447.31 360.194 1446.34 360.513L1429.01 366.983C1374.24 387.526 1346.76 397.816 1328.68 392.158C1325.09 391.027 1323.01 389.506 1322.54 387.632C1321.32 382.894 1329.14 374.974 1336.68 367.301C1347.37 356.411 1358.45 345.167 1352.93 335.939C1344.89 322.679 1324.52 322.573 1293.92 335.585C1293.45 334.241 1292.3 332.721 1289.94 331.094C1279.1 323.669 1248.11 318.79 1223 334.241C1223.14 332.968 1223.39 331.696 1223.57 330.635C1223.79 329.362 1223.97 328.372 1223.97 327.912V326.25L1212.56 327.064L1212.59 328.549C1212.92 340.677 1205.2 350.966 1196.92 359.699C1196.24 359.735 1195.63 359.735 1194.8 359.805C1192.68 359.912 1185.98 361.609 1173.31 364.791C1136.26 374.196 1049.48 396.189 1039.65 379.889C1036.93 375.399 1040.87 367.337 1051.02 356.588C1074.56 331.696 1100.53 316.704 1104.9 320.063C1105.19 320.275 1107.56 322.608 1099.38 335.337L1098.3 336.999L1104.8 339.156L1105.48 338.272C1113.98 327.311 1115.49 319.32 1109.96 314.476C1099.34 305.035 1082.41 306.379 1063.47 318.083C1047.08 328.23 1031.22 345.379 1025.27 360.76C996.749 373.56 909.22 398.594 897.598 381.162C893.975 375.752 896.773 363.058 930.565 333.145C931.928 331.766 932.394 330.104 931.928 328.407C930.959 324.942 926.009 321.795 918.727 319.957L917.83 319.744L906.315 331.307C874.675 316.138 848.309 329.22 835.287 345.202C831.305 350.082 828.543 355.209 827.001 360.124C825.638 360.336 824.203 360.725 823.126 361.043C791.559 371.332 667.727 398.205 661.915 387.031C659.082 381.657 683.044 358.002 695.923 345.309C706.971 334.418 712.783 328.584 713.464 326.074C714.002 324.447 713.428 322.821 711.85 321.76C709.411 320.098 704.281 319.85 701.734 321.901C689.645 329.503 679.672 331.696 672.139 328.443C662.92 324.482 659.978 313.415 659.153 308.854L658.902 307.404L646.526 308.854L646.203 309.738C643.585 316.739 645.091 323.386 650.436 328.513C659.225 336.929 675.798 339.015 689.86 333.428C691.187 332.827 692.515 332.191 693.77 331.625C694.129 331.448 694.523 331.271 694.918 331.094C691.403 334.029 685.842 338.449 678.237 344.283C675.726 346.299 672.103 348.88 667.906 351.814C651.512 363.377 631.137 377.768 636.912 386.713C640.607 393.431 652.696 395.942 668.875 395.942C718.092 395.942 804.796 372.534 805.944 372.216C816.095 369.317 822.158 367.301 825.817 365.816C825.279 370.873 826.212 375.398 828.938 378.722C833.207 383.884 844.973 390.108 876.11 374.833C877.15 380.313 880.487 384.592 886.047 387.562C892.898 391.274 902.763 392.795 914.135 392.795C950.259 392.795 1001.88 377.449 1023.26 367.549C1022.58 371.297 1022.58 374.833 1023.55 377.98C1025.48 384.486 1032.01 392.158 1052.21 392.158C1052.42 392.158 1052.6 392.158 1052.82 392.158C1086.32 391.663 1150.39 376.601 1181.17 369.352C1184.11 368.645 1186.73 368.044 1189.1 367.514C1186.23 370.342 1183.54 373.029 1181.39 375.54C1179.66 377.591 1179.84 379.323 1180.27 380.384C1181.17 382.541 1184.08 384.026 1188.2 384.45C1193.58 385.016 1200.76 383.602 1203.77 379.217C1244.7 324.306 1269.42 327.948 1280.54 335.019C1280.72 335.161 1280.79 335.267 1280.79 335.444C1281.11 338.626 1272 347.607 1264 355.527C1256 363.447 1247.75 371.615 1243.23 378.651L1243.01 379.288C1242.8 380.985 1243.62 382.541 1245.38 383.602C1249.26 386.006 1258.08 386.077 1263.86 382.329C1279.96 365.675 1288.43 355.35 1294.02 348.491L1296.64 345.309C1301.56 339.58 1319.85 332.297 1331.87 332.544C1334.92 332.615 1338.97 333.287 1340.87 335.797C1341.84 337.211 1333.38 344.743 1328.82 348.774C1318.35 358.108 1305.29 369.67 1304.93 380.066C1304.93 388.799 1313.58 394.669 1331.37 398.028C1334.2 398.523 1337.04 398.806 1340.01 398.806C1354.9 398.806 1372.48 392.547 1402.5 381.869C1415.49 377.237 1430.23 372.004 1448.17 366.029C1447.63 369.918 1447.88 372.959 1448.35 375.08C1450.18 383.849 1457.03 390.284 1466.64 392.264C1468.58 392.653 1470.7 392.901 1472.96 392.901C1484.26 392.901 1499.07 387.385 1511.13 371.403C1547.86 386.183 1585.85 375.222 1604.75 368.362C1603.96 376.389 1605.86 382.187 1610.64 385.476C1627.03 396.826 1670.72 374.903 1696.3 358.462C1686.58 371.898 1683.82 383.637 1688.59 392.123C1692.86 399.69 1702.79 403.685 1716.75 403.685C1721.19 403.685 1726.04 403.261 1731.24 402.448C1707.56 426.774 1685.21 452.232 1664.01 478.645L1659.53 484.09L1666.09 482.11C1670 480.908 1672.16 479.458 1675.06 478.009L1683.06 473.447C1688.34 470.336 1693.54 467.118 1698.67 463.865C1708.96 457.324 1719.08 450.5 1729.09 443.569C1749.1 429.638 1768.58 415.035 1787.59 399.76C1825.44 369.175 1861.71 336.292 1893.27 299.06C1898.15 293.226 1902.96 287.25 1907.66 281.168C1912.83 278.729 1918.06 276.43 1923.37 274.309C1943.64 266.212 1964.91 260.413 1986.33 259.777C1997.05 259.352 2007.53 260.555 2018.08 262.817C2028.51 265.08 2038.67 268.404 2047.89 273.319C2066.25 282.512 2080.85 299.696 2085.37 320.169C2084.01 321.972 2082.22 323.811 2080.21 325.084C2077.95 326.569 2075.47 327.629 2072.82 328.124C2070.16 328.549 2067.44 328.655 2064.71 328.16C2061.98 327.735 2059.33 326.816 2056.71 325.755L2052.91 324.235L2053.66 328.124C2054.99 334.878 2055.67 341.737 2055.63 348.561C2055.6 351.991 2055.38 355.386 2054.92 358.745C2054.49 361.609 2053.84 364.543 2052.98 367.16C2050.97 367.301 2048.67 367.16 2046.59 366.594C2044.05 365.958 2041.61 364.862 2039.35 363.483C2037.09 362.033 2035.04 360.3 2033.21 358.32C2031.35 356.34 2029.77 354.148 2028.26 351.85L2025.07 347.006L2024.21 352.663C2023.17 359.558 2021.27 366.347 2018.47 372.711C2017 375.858 2015.35 378.934 2013.45 381.798C2012.16 383.743 2010.69 385.582 2009.14 387.279C2006.67 381.303 2004.98 374.727 2003.94 368.256C2002.79 360.76 2002.51 353.123 2002.58 345.521C2002.65 337.919 2003.48 330.281 2004.52 322.679C2005.05 318.896 2005.66 315.077 2005.77 311.188C2006.13 307.298 2006.24 303.374 2005.63 299.13L2001.39 298.034C1996.48 305.035 1994.08 312.991 1992.86 321.053C1991.92 329.185 1991.06 337.388 1991.57 345.627C1991.89 353.865 1993.04 362.104 1995.37 370.095C1997.81 378.05 2001 385.723 2006.6 392.477L2008.1 394.315L2009.75 392.83C2012.77 390.108 2014.95 387.243 2017.07 384.097C2019.15 380.985 2020.91 377.732 2022.45 374.373C2024.78 369.105 2026.33 363.553 2027.51 357.931C2028.33 358.992 2029.05 360.159 2029.98 361.149C2032.07 363.341 2034.4 365.357 2036.98 367.019C2039.6 368.645 2042.47 369.918 2045.52 370.696C2048.6 371.438 2051.62 371.792 2055.1 371.262L2056.24 371.085L2056.67 369.989C2058.07 366.311 2058.72 362.846 2059.26 359.24C2059.76 355.669 2059.97 352.062 2060.05 348.491C2060.08 342.551 2059.47 336.681 2058.54 330.847C2060.33 331.448 2062.13 331.978 2064.03 332.261C2067.18 332.827 2070.48 332.756 2073.71 332.226C2076.94 331.625 2080.03 330.317 2082.72 328.549C2085.44 326.71 2087.74 324.589 2089.68 321.689L2090 321.265V320.805ZM1687.04 330.988C1690.13 323.492 1696.98 316.421 1704.33 316.421C1705.16 316.421 1705.98 316.491 1706.77 316.704C1709.93 317.411 1712.01 318.79 1713.12 320.911C1714.88 324.235 1714.34 329.397 1711.54 336.221C1709.18 340.959 1705.81 343.93 1701.54 345.026C1696.37 346.369 1690.67 344.743 1687.55 342.657L1687.47 342.621C1685 341.066 1684.82 336.398 1687.04 330.988ZM891.643 332.473C892.324 332.473 892.97 332.509 893.508 332.615C895.984 333.075 896.414 334.312 896.522 334.701C897.096 336.469 897.024 342.162 883.249 356.411C873.384 369.211 853.941 378.687 844.793 377.414C842.928 377.166 841.744 376.459 841.278 375.292C840.704 373.878 840.381 369.388 849.493 358.32C863.052 341.667 882.388 332.473 891.643 332.473ZM1887.5 294.463C1856.4 331.201 1821.14 364.508 1783.76 395.305C1765.07 410.686 1745.84 425.466 1726.11 439.539C1716.24 446.575 1706.27 453.47 1696.12 460.082C1691.06 463.406 1685.93 466.623 1680.77 469.77C1678.94 470.866 1676.96 472.033 1675.03 473.164C1701.9 442.756 1730.74 413.974 1760.55 386.466C1793.19 356.517 1827.88 328.655 1865.12 304.965C1873.72 299.519 1882.51 294.392 1891.45 289.619C1890.12 291.246 1888.83 292.872 1887.5 294.463Z" fill="#C0C0C0" fill-opacity="0.05"/>
<path d="M2090 320.805C2089.71 297.186 2074.29 275.476 2053.8 263.454C2043.58 257.372 2032.35 253.235 2020.95 250.725C2009.65 248.002 1997.63 246.906 1985.97 247.437C1963.62 248.285 1942.17 254.119 1921.94 262.11C1940.99 234.884 1956.95 205.395 1965.49 172.76C1971.76 148.963 1973.23 123.187 1967.06 98.5425C1961.07 73.7916 1947.12 51.4451 1929.9 33.0234L1929.69 32.8112L1929.29 32.4577C1906.66 12.9752 1876.85 2.15553 1847.39 0.458328C1817.8 -1.66317 1788.63 3.78202 1761.26 12.6216C1706.34 30.4069 1657.2 61.0979 1614.55 98.2949C1593.27 117 1573.58 137.649 1557.44 161.233C1549.51 173.078 1542.3 185.63 1537.67 199.526C1535.37 206.456 1533.76 213.775 1533.55 221.413C1533.26 228.98 1534.77 237.041 1538.53 243.971C1542.12 250.76 1547.57 256.948 1554.32 261.014C1561.02 265.151 1568.63 267.237 1576.05 268.121C1591.01 269.854 1605.47 267.343 1619.32 263.878C1646.97 256.453 1672.73 244.749 1697.48 231.03L1699.42 230.076L1699.24 227.282C1698.42 213.21 1699.42 199.243 1704.51 186.974C1709.43 174.598 1718.4 164.415 1729.27 156.353C1740.17 148.256 1753.12 142.67 1766.39 137.826C1779.27 133.335 1792.76 129.622 1806.46 126.511C1810.12 136.942 1810.34 148.115 1804.96 157.379C1799.68 167.279 1790.46 174.952 1780.67 181.458C1770.81 188.035 1759.83 193.091 1748.71 197.829C1737.52 202.39 1726 206.527 1714.38 209.886L1715.31 214.094C1739.74 209.462 1763.6 201.471 1785.08 188.07C1795.63 181.281 1805.64 172.477 1811.63 160.632C1814.5 154.692 1815.86 147.938 1815.43 141.361C1814.93 134.785 1812.81 128.562 1809.8 123.01L1809.05 121.631L1807.72 121.773C1792.55 120.429 1777.37 121.914 1762.56 125.627C1747.78 129.375 1733.28 135.598 1720.62 145.003C1708.03 154.338 1697.34 167.456 1692.75 182.731C1687.83 196.945 1688.34 212.007 1691.31 225.833C1667.92 238.562 1642.96 249.417 1617.16 255.675C1603.89 258.787 1590.15 260.731 1577.17 258.963C1564.22 257.408 1552.67 250.69 1547.57 239.339C1542.12 228.591 1544.16 215.26 1548.61 203.168C1553.13 190.934 1560.23 179.372 1568.09 168.481C1584.16 146.736 1603.75 127.395 1624.7 109.857C1645.75 92.3901 1668.43 76.691 1692.28 63.2902C1716.06 49.7833 1740.92 38.0089 1766.86 29.9119C1792.72 21.7794 1819.66 16.9707 1846.14 18.2436C1872.5 19.3751 1898.05 28.2854 1918.06 44.7624C1934.17 61.1333 1947.26 80.3329 1954.22 102.008C1961.36 123.824 1961.58 147.761 1956.41 170.674C1948.05 205.926 1929.97 238.314 1908.2 267.98C1890.91 275.829 1874.41 285.093 1858.59 295.241C1820.56 319.709 1786.45 349.092 1754.05 379.889C1748.35 385.37 1742.79 390.992 1737.23 396.614C1735.44 396.614 1733.14 396.684 1730.13 396.79C1717.54 397.25 1709.72 395.164 1706.81 390.567C1704.26 386.607 1705.2 380.419 1709.57 372.11C1714.38 362.952 1723.85 352.345 1733.03 342.126C1735.97 338.873 1738.84 335.656 1741.46 332.615C1742.18 331.908 1742.29 330.847 1741.79 329.822C1740.67 327.453 1735.87 324.2 1729.09 324.695L1728.58 324.73L1720.87 331.165C1721.48 323.598 1718.9 317.234 1713.45 312.991C1705.52 306.839 1692.17 305.99 1681.73 311.011C1673.02 315.183 1668 322.679 1668 331.519C1668 336.009 1669.97 340.111 1673.7 343.328C1679.22 348.102 1688.12 350.612 1698.09 350.542C1674.24 365.64 1628.11 389.789 1614.73 381.197C1611.57 379.182 1610.42 375.116 1611.32 369.175C1625.06 365.958 1626.85 360.442 1626.99 358.179C1627.17 355.35 1625.2 352.804 1622.04 351.744C1618.1 350.4 1611.75 351.284 1606.87 358.179L1606.65 358.639C1606.22 360.088 1606.12 361.291 1605.79 362.669C1586.57 369.741 1551.8 380.738 1513.49 366.877C1514.78 358.108 1510.34 355.103 1507.47 354.113C1500.9 351.779 1491.4 355.704 1488.85 360.407C1487.38 363.094 1488.06 365.781 1490.71 367.832C1491.75 369.034 1493.98 369.069 1497.57 369.14C1499.61 369.175 1504.99 369.281 1505.31 370.307C1505.39 370.59 1505.67 373.277 1490.46 383.566C1480.67 389.506 1471.59 389.118 1467.32 382.576C1460.44 371.969 1467.25 346.263 1503.84 322.255L1505.46 321.194L1504.13 319.851C1503.34 319.037 1496.2 312.142 1490.75 314.193L1490.39 314.37C1463.67 333.11 1453.26 348.809 1449.64 360.018C1448.49 360.053 1447.31 360.194 1446.34 360.513L1429.01 366.983C1374.24 387.526 1346.76 397.816 1328.68 392.158C1325.09 391.027 1323.01 389.506 1322.54 387.632C1321.32 382.894 1329.14 374.974 1336.68 367.301C1347.37 356.411 1358.45 345.167 1352.93 335.939C1344.89 322.679 1324.52 322.573 1293.92 335.585C1293.45 334.241 1292.3 332.721 1289.94 331.094C1279.1 323.669 1248.11 318.79 1223 334.241C1223.14 332.968 1223.39 331.696 1223.57 330.635C1223.79 329.362 1223.97 328.372 1223.97 327.912V326.25L1212.56 327.064L1212.59 328.549C1212.92 340.677 1205.2 350.966 1196.92 359.699C1196.24 359.735 1195.63 359.735 1194.8 359.806C1192.68 359.912 1185.98 361.609 1173.31 364.791C1136.26 374.196 1049.48 396.189 1039.65 379.889C1036.93 375.399 1040.87 367.337 1051.02 356.588C1074.56 331.696 1100.53 316.704 1104.9 320.063C1105.19 320.275 1107.56 322.608 1099.38 335.337L1098.3 336.999L1104.8 339.156L1105.48 338.272C1113.98 327.311 1115.49 319.32 1109.96 314.476C1099.34 305.035 1082.41 306.379 1063.47 318.083C1047.08 328.23 1031.22 345.379 1025.27 360.76C996.749 373.56 909.22 398.594 897.598 381.162C893.975 375.752 896.773 363.058 930.565 333.145C931.928 331.766 932.394 330.104 931.928 328.407C930.959 324.942 926.009 321.795 918.727 319.957L917.83 319.744L906.315 331.307C874.675 316.138 848.309 329.22 835.287 345.202C831.305 350.082 828.543 355.209 827.001 360.124C825.638 360.336 824.203 360.725 823.126 361.043C791.559 371.332 667.727 398.205 661.915 387.031C659.082 381.657 683.044 358.002 695.923 345.309C706.971 334.418 712.783 328.584 713.464 326.074C714.002 324.447 713.428 322.821 711.85 321.76C709.411 320.098 704.281 319.851 701.734 321.901C689.645 329.503 679.672 331.696 672.139 328.443C662.92 324.482 659.978 313.415 659.153 308.854L658.902 307.404L646.526 308.854L646.203 309.738C643.585 316.739 645.091 323.386 650.436 328.513C659.225 336.929 675.798 339.015 689.86 333.428C691.187 332.827 692.515 332.191 693.77 331.625C694.129 331.448 694.523 331.271 694.918 331.094C691.403 334.029 685.842 338.449 678.237 344.283C675.726 346.299 672.103 348.88 667.906 351.814C651.512 363.377 631.137 377.768 636.912 386.713C640.607 393.431 652.696 395.942 668.875 395.942C718.092 395.942 804.796 372.535 805.944 372.216C816.095 369.317 822.158 367.301 825.817 365.816C825.279 370.873 826.212 375.399 828.938 378.722C833.207 383.885 844.973 390.108 876.11 374.833C877.15 380.313 880.487 384.592 886.047 387.562C892.898 391.274 902.763 392.795 914.135 392.795C950.259 392.795 1001.88 377.449 1023.26 367.549C1022.58 371.297 1022.58 374.833 1023.55 377.98C1025.48 384.486 1032.01 392.158 1052.21 392.158C1052.42 392.158 1052.6 392.158 1052.82 392.158C1086.32 391.663 1150.39 376.601 1181.17 369.352C1184.11 368.645 1186.73 368.044 1189.1 367.514C1186.23 370.342 1183.54 373.03 1181.39 375.54C1179.66 377.591 1179.84 379.323 1180.27 380.384C1181.17 382.541 1184.08 384.026 1188.2 384.45C1193.58 385.016 1200.76 383.602 1203.77 379.217C1244.7 324.306 1269.42 327.948 1280.54 335.019C1280.72 335.161 1280.79 335.267 1280.79 335.444C1281.11 338.626 1272 347.607 1264 355.527C1256 363.447 1247.75 371.615 1243.23 378.651L1243.01 379.288C1242.8 380.985 1243.62 382.541 1245.38 383.602C1249.26 386.006 1258.08 386.077 1263.86 382.329C1279.96 365.675 1288.43 355.35 1294.02 348.491L1296.64 345.309C1301.56 339.58 1319.85 332.297 1331.87 332.544C1334.92 332.615 1338.97 333.287 1340.87 335.797C1341.84 337.211 1333.38 344.743 1328.82 348.774C1318.35 358.108 1305.29 369.67 1304.93 380.066C1304.93 388.799 1313.58 394.669 1331.37 398.028C1334.2 398.523 1337.04 398.806 1340.01 398.806C1354.9 398.806 1372.48 392.547 1402.5 381.869C1415.49 377.237 1430.23 372.004 1448.17 366.029C1447.63 369.918 1447.88 372.959 1448.35 375.08C1450.18 383.849 1457.03 390.284 1466.64 392.264C1468.58 392.653 1470.7 392.901 1472.96 392.901C1484.26 392.901 1499.07 387.385 1511.13 371.403C1547.86 386.183 1585.85 375.222 1604.75 368.362C1603.96 376.389 1605.86 382.187 1610.64 385.476C1627.03 396.826 1670.72 374.904 1696.3 358.462C1686.58 371.898 1683.82 383.637 1688.59 392.123C1692.86 399.69 1702.79 403.685 1716.75 403.685C1721.19 403.685 1726.04 403.261 1731.24 402.448C1707.56 426.774 1685.21 452.232 1664.01 478.645L1659.53 484.09L1666.09 482.11C1670 480.908 1672.16 479.458 1675.06 478.009L1683.06 473.447C1688.34 470.336 1693.54 467.118 1698.67 463.865C1708.96 457.324 1719.08 450.5 1729.09 443.569C1749.1 429.638 1768.58 415.035 1787.59 399.76C1825.44 369.175 1861.71 336.292 1893.27 299.06C1898.15 293.226 1902.96 287.25 1907.66 281.168C1912.83 278.729 1918.06 276.43 1923.37 274.309C1943.64 266.212 1964.91 260.413 1986.33 259.777C1997.05 259.352 2007.53 260.555 2018.08 262.817C2028.51 265.08 2038.67 268.404 2047.89 273.319C2066.25 282.512 2080.85 299.696 2085.37 320.169C2084.01 321.972 2082.22 323.811 2080.21 325.084C2077.95 326.569 2075.47 327.629 2072.82 328.124C2070.16 328.549 2067.44 328.655 2064.71 328.16C2061.98 327.735 2059.33 326.816 2056.71 325.755L2052.91 324.235L2053.66 328.124C2054.99 334.878 2055.67 341.737 2055.63 348.561C2055.6 351.991 2055.38 355.386 2054.92 358.745C2054.49 361.609 2053.84 364.543 2052.98 367.16C2050.97 367.301 2048.67 367.16 2046.59 366.594C2044.05 365.958 2041.61 364.862 2039.35 363.483C2037.09 362.033 2035.04 360.3 2033.21 358.32C2031.35 356.34 2029.77 354.148 2028.26 351.85L2025.07 347.006L2024.21 352.663C2023.17 359.558 2021.27 366.347 2018.47 372.711C2017 375.858 2015.35 378.934 2013.45 381.798C2012.16 383.743 2010.69 385.582 2009.14 387.279C2006.67 381.303 2004.98 374.727 2003.94 368.256C2002.79 360.76 2002.51 353.123 2002.58 345.521C2002.65 337.919 2003.48 330.281 2004.52 322.679C2005.05 318.896 2005.66 315.077 2005.77 311.188C2006.13 307.298 2006.24 303.374 2005.63 299.131L2001.39 298.034C1996.48 305.035 1994.08 312.991 1992.86 321.053C1991.92 329.185 1991.06 337.388 1991.57 345.627C1991.89 353.865 1993.04 362.104 1995.37 370.095C1997.81 378.05 2001 385.723 2006.6 392.477L2008.1 394.315L2009.75 392.83C2012.77 390.108 2014.95 387.243 2017.07 384.097C2019.15 380.985 2020.91 377.732 2022.45 374.373C2024.78 369.105 2026.33 363.553 2027.51 357.931C2028.33 358.992 2029.05 360.159 2029.98 361.149C2032.07 363.341 2034.4 365.357 2036.98 367.019C2039.6 368.645 2042.47 369.918 2045.52 370.696C2048.6 371.438 2051.62 371.792 2055.1 371.262L2056.24 371.085L2056.67 369.989C2058.07 366.311 2058.72 362.846 2059.26 359.24C2059.76 355.669 2059.97 352.062 2060.05 348.491C2060.08 342.551 2059.47 336.681 2058.54 330.847C2060.33 331.448 2062.13 331.978 2064.03 332.261C2067.18 332.827 2070.48 332.756 2073.71 332.226C2076.94 331.625 2080.03 330.317 2082.72 328.549C2085.44 326.71 2087.74 324.589 2089.68 321.689L2090 321.265V320.805ZM1687.04 330.988C1690.13 323.492 1696.98 316.421 1704.33 316.421C1705.16 316.421 1705.98 316.491 1706.77 316.704C1709.93 317.411 1712.01 318.79 1713.12 320.911C1714.88 324.235 1714.34 329.397 1711.54 336.221C1709.18 340.959 1705.81 343.93 1701.54 345.026C1696.37 346.369 1690.67 344.743 1687.55 342.657L1687.47 342.621C1685 341.066 1684.82 336.398 1687.04 330.988ZM891.643 332.473C892.324 332.473 892.97 332.509 893.508 332.615C895.984 333.075 896.414 334.312 896.522 334.701C897.096 336.469 897.024 342.162 883.249 356.411C873.384 369.211 853.941 378.687 844.793 377.414C842.928 377.166 841.744 376.459 841.278 375.292C840.704 373.878 840.381 369.388 849.493 358.32C863.052 341.667 882.388 332.473 891.643 332.473ZM1887.5 294.463C1856.4 331.201 1821.14 364.508 1783.76 395.305C1765.07 410.686 1745.84 425.466 1726.11 439.539C1716.24 446.575 1706.27 453.47 1696.12 460.082C1691.06 463.406 1685.93 466.623 1680.77 469.77C1678.94 470.866 1676.96 472.033 1675.03 473.164C1701.9 442.756 1730.74 413.974 1760.55 386.466C1793.19 356.517 1827.88 328.655 1865.12 304.965C1873.72 299.519 1882.51 294.392 1891.45 289.619C1890.12 291.246 1888.83 292.872 1887.5 294.463Z" fill="#C0C0C0" fill-opacity="0.05"/>
</svg>
