<svg width="1439" height="383" viewBox="0 0 1439 383" fill="none" xmlns="http://www.w3.org/2000/svg">
<g filter="url(#filter0_i_605_4438)">
<path fill-rule="evenodd" clip-rule="evenodd" d="M320.66 281.343H364.019C364.019 281.343 359.472 315.301 382.957 321.881C396.621 325.709 404.073 323.555 409.524 321.981C409.64 321.947 409.755 321.914 409.87 321.881C440.264 313.118 431.3 245.201 431.3 245.201C431.3 245.201 296.219 245.201 267.256 234.947C207.947 213.948 216 104.051 216 104.051V1.48603L378.97 1C378.97 1 404.886 1.97681 420.336 11.2565C435.359 20.28 451.734 34.2116 460.206 47.887C460.671 48.637 461.198 49.4339 461.766 50.2935C465.902 56.5469 472.227 66.113 472.666 85.0059C473.164 106.496 473.662 201.244 473.662 201.244H511.041V245.201H473.662C473.662 245.201 477.689 296.787 460.206 321.881C443.675 345.609 426.193 360.017 396.912 361.442C363.673 363.059 336.049 348.43 324.148 317.973C318.905 304.556 320.66 281.343 320.66 281.343ZM262.349 149.964L257.291 36.1653H378.97C378.97 36.1653 405.001 37.7511 416.274 47.887C428 58.43 431.3 85.0059 431.3 85.0059V201.244H316.1C291.679 201.244 262.349 187.083 262.349 149.964Z" fill="#6E46E5"/>
<path d="M316.1 201.244C291.679 201.244 262.349 187.083 262.349 149.964L257.291 36.1653H378.97C378.97 36.1653 405.001 37.7511 416.274 47.887C428 58.43 431.3 85.0059 431.3 85.0059V201.244M316.1 201.244C340.52 201.244 431.3 201.244 431.3 201.244M316.1 201.244H431.3M320.659 281.343H364.019C364.019 281.343 359.472 315.301 382.957 321.881C396.621 325.709 404.073 323.555 409.524 321.981C409.64 321.947 409.755 321.914 409.87 321.881C440.264 313.119 431.3 245.201 431.3 245.201C431.3 245.201 296.219 245.201 267.256 234.947C207.947 213.948 216 104.051 216 104.051V1.48603L378.97 1C378.97 1 404.886 1.97681 420.336 11.2565C435.359 20.28 451.734 34.2116 460.206 47.887C460.671 48.637 461.198 49.4339 461.766 50.2935C465.902 56.5469 472.227 66.113 472.666 85.0059C473.164 106.496 473.662 201.244 473.662 201.244H511.041V245.201H473.662C473.662 245.201 477.689 296.787 460.206 321.881C443.675 345.609 426.193 360.017 396.912 361.442C363.673 363.059 336.049 348.43 324.148 317.973C318.905 304.556 320.659 281.343 320.659 281.343Z" stroke="#6E46E5"/>
<path d="M329.725 121.167C329.988 112.133 336.954 104.827 346.172 104.561C355.665 104.287 363.344 111.864 363.615 121.167C363.894 130.74 355.94 139.031 346.172 138.749C336.671 138.476 329.454 130.478 329.725 121.167Z" fill="#6E46E5"/>
<path d="M201.852 45.1492C201.852 45.1492 174.418 43.348 156.998 45.1492C133.855 47.5422 120.675 50.5595 99.1858 59.313C75.4488 68.982 61.4817 75.6276 43.3671 93.5014C20.7852 115.783 12.0296 133.797 4.49345 164.32C0.581167 180.166 0.00802054 205.835 0.00802054 205.835V375.8C0.00802054 375.8 -0.156485 380.119 1.00454 381.661C2.03784 383.034 4.49345 382.638 4.49345 382.638H145.535C151.278 382.534 152.742 381.088 152.014 375.8V350.892C152.014 350.892 153.509 327.448 189.891 327.448C205.761 327.448 223.781 330.867 231.755 343.077C235.448 348.732 235.742 373.847 235.742 373.847C235.889 379.539 236.731 381.093 239.231 381.661C239.231 381.661 313.489 382.638 358.842 382.638C368.81 382.638 372.298 383.246 372.298 377.754V370.428C372.298 370.428 352.114 368.849 341.399 362.613C331.932 357.104 318.473 343.077 318.473 343.077H269.133C269.133 343.077 264.648 312.976 231.755 296.679C216.673 289.206 206.786 285.509 189.891 285.934C174.497 286.32 165.91 290.175 152.014 296.679C118.622 312.308 118.622 350.892 118.622 350.892H43.3671V205.835C43.3671 205.835 45.6455 179.845 51.341 164.32C57.0589 148.735 61.0556 139.589 72.273 127.201C84.2425 113.983 94.0603 109.297 110.15 101.316C127.338 92.7898 137.955 89.0273 156.998 86.1754C174.314 83.5822 201.852 86.1754 201.852 86.1754V45.1492Z" fill="#6E46E5"/>
</g>
<g filter="url(#filter1_i_605_4438)">
<path fill-rule="evenodd" clip-rule="evenodd" d="M1025.23 215.085V189.702H1095.68V218.99L1216.85 234.611V326.382H1101.31L1091.92 316.619L1082.34 326.382H1048.71V215.085H1025.23ZM1169.88 300.999H1095.68V243.398L1169.88 253.161V300.999Z" fill="#6E46E5"/>
<path fill-rule="evenodd" clip-rule="evenodd" d="M830.028 248.279V222.896H1019.77V274.639L900.475 292.212V300.999H972.801V292.212L1019.77 287.331V326.382H853.51V248.279H830.028ZM972.801 257.066L900.475 267.024V248.279H972.801V257.066Z" fill="#6E46E5"/>
<path fill-rule="evenodd" clip-rule="evenodd" d="M541.077 8.8103V36.5369H569.068V145.491H745.661V94.1378L696.628 101.167V117.764H618.101V8.8103H541.077ZM753.156 42.0041V67.3876H776.638V145.491H823.603V42.0041H753.156ZM776.638 1V28.3361H823.603V1H776.638ZM840.483 42.0041V67.3876H863.965V122.06L909.995 145.491H994.534V120.107H922.204L910.934 114.25V67.3876H956.96V42.0041H910.934V8.8103H863.965V42.0041H840.483ZM979.179 42.0041V67.3876H1002.66V122.06L1048.69 145.491H1133.23V120.107H1060.9L1049.63 114.25V67.3876H1095.65V42.0041H1049.63V8.8103H1002.66V42.0041H979.179ZM1153.86 8.8103V145.491H1224.31V120.107H1200.83V8.8103H1153.86ZM1224.28 42.0041V67.3876H1247.76V145.491H1414.02V106.439L1367.06 111.321V120.107H1294.73V111.321L1414.02 93.7473V42.0041H1224.28ZM1367.06 76.1742L1294.73 86.1326V67.3876H1367.06V76.1742Z" fill="#A2D729"/>
<path d="M539.198 244.703V202.466H604.398L639.329 281.278L668.259 202.466H723.119L752.048 282.644L782.671 202.466H826.796L782.671 326.382H723.119L695.689 249.256L668.259 326.382H608.706L575.618 244.703H539.198Z" fill="#6E46E5"/>
</g>
<path d="M539.198 372.363V334.552H552.19C555.21 334.552 557.676 335.087 559.59 336.16C561.521 337.219 562.943 338.652 563.871 340.461C564.799 342.269 565.263 344.289 565.263 346.518C565.263 348.746 564.799 350.77 563.871 352.589C562.959 354.414 561.542 355.866 559.628 356.949C557.713 358.02 555.256 358.554 552.268 358.554H542.953V354.493H552.115C554.183 354.493 555.84 354.141 557.092 353.44C558.343 352.738 559.255 351.791 559.814 350.595C560.39 349.392 560.676 348.029 560.676 346.518C560.676 345.002 560.39 343.651 559.814 342.455C559.255 341.263 558.339 340.327 557.075 339.648C555.807 338.961 554.133 338.615 552.044 338.615H543.856V372.363H539.198ZM580.65 373.029C578.822 373.029 577.165 372.69 575.673 372.016C574.185 371.325 573 370.332 572.126 369.042C571.247 367.735 570.812 366.164 570.812 364.315C570.812 362.69 571.135 361.37 571.786 360.361C572.436 359.34 573.307 358.541 574.397 357.962C575.486 357.383 576.688 356.953 578.002 356.672C579.328 356.378 580.662 356.143 582 355.969C583.753 355.75 585.175 355.584 586.26 355.473C587.363 355.349 588.167 355.146 588.668 354.861C589.182 354.579 589.435 354.087 589.435 353.384V353.236C589.435 351.416 588.929 350.001 587.918 348.991C586.915 347.981 585.394 347.476 583.351 347.476C581.238 347.476 579.576 347.933 578.375 348.842C577.173 349.752 576.328 350.725 575.843 351.761L571.633 350.283C572.387 348.56 573.385 347.22 574.641 346.258C575.905 345.285 577.281 344.609 578.772 344.227C580.273 343.833 581.748 343.636 583.202 343.636C584.126 343.636 585.191 343.747 586.393 343.97C587.611 344.178 588.776 344.616 589.907 345.281C591.042 345.946 591.991 346.948 592.737 348.289C593.491 349.63 593.868 351.427 593.868 353.681V372.363H589.435V368.525H589.211C588.908 369.141 588.411 369.799 587.707 370.502C587.006 371.201 586.078 371.801 584.91 372.289C583.745 372.785 582.328 373.029 580.65 373.029ZM581.325 369.116C583.078 369.116 584.553 368.777 585.755 368.099C586.973 367.421 587.881 366.548 588.498 365.481C589.124 364.406 589.435 363.281 589.435 362.098V358.111C589.248 358.335 588.834 358.533 588.196 358.719C587.574 358.893 586.845 359.046 586.02 359.182C585.204 359.302 584.412 359.414 583.633 359.513C582.871 359.6 582.249 359.675 581.777 359.733C580.625 359.881 579.547 360.125 578.545 360.456C577.554 360.775 576.754 361.259 576.145 361.916C575.54 362.553 575.242 363.43 575.242 364.534C575.242 366.052 575.81 367.193 576.949 367.971C578.101 368.732 579.56 369.116 581.325 369.116ZM600.155 365.125H604.887C604.982 366.408 605.571 367.379 606.648 368.045C607.742 368.711 609.151 369.042 610.896 369.042C612.669 369.042 614.19 368.682 615.458 367.971C616.722 367.243 617.352 366.073 617.352 364.464C617.352 363.517 617.116 362.69 616.639 361.986C616.163 361.275 615.495 360.721 614.629 360.328C613.763 359.931 612.744 359.733 611.571 359.733H606.611V355.82H611.571C613.332 355.82 614.638 355.427 615.475 354.637C616.324 353.852 616.751 352.868 616.751 351.687C616.751 350.417 616.295 349.403 615.379 348.642C614.468 347.866 613.171 347.476 611.497 347.476C609.802 347.476 608.397 347.851 607.27 348.605C606.143 349.34 605.546 350.294 605.484 351.464H600.83C600.88 349.938 601.352 348.59 602.256 347.42C603.155 346.239 604.381 345.318 605.935 344.653C607.489 343.974 609.267 343.636 611.269 343.636C613.295 343.636 615.056 343.989 616.544 344.691C618.048 345.378 619.204 346.321 620.02 347.513C620.845 348.694 621.259 350.038 621.259 351.538C621.259 353.139 620.8 354.431 619.888 355.415C618.972 356.399 617.828 357.102 616.448 357.52V357.814C617.542 357.888 618.487 358.235 619.287 358.852C620.099 359.451 620.733 360.245 621.181 361.23C621.632 362.206 621.86 363.281 621.86 364.464C621.86 366.184 621.388 367.69 620.451 368.968C619.515 370.237 618.222 371.221 616.581 371.92C614.944 372.611 613.071 372.954 610.97 372.954C608.927 372.954 607.1 372.628 605.484 371.978C603.868 371.312 602.587 370.394 601.638 369.228C600.698 368.045 600.2 366.681 600.155 365.125ZM628.084 383V344.007H632.365V348.512H632.891C633.215 348.018 633.666 347.39 634.242 346.629C634.831 345.853 635.672 345.162 636.758 344.561C637.86 343.944 639.347 343.636 641.225 343.636C643.653 343.636 645.795 344.234 647.652 345.426C649.5 346.622 650.946 348.315 651.986 350.506C653.026 352.697 653.544 355.283 653.544 358.26C653.544 361.259 653.026 363.864 651.986 366.068C650.946 368.26 649.508 369.956 647.668 371.164C645.824 372.359 643.707 372.954 641.303 372.954C639.451 372.954 637.968 372.652 636.853 372.049C635.738 371.437 634.88 370.738 634.28 369.964C633.679 369.178 633.215 368.525 632.891 368.008H632.518V383H628.084ZM632.44 358.186C632.44 360.328 632.759 362.214 633.397 363.852C634.035 365.481 634.967 366.755 636.194 367.673C637.421 368.583 638.921 369.042 640.702 369.042C642.555 369.042 644.1 368.562 645.339 367.599C646.591 366.627 647.527 365.324 648.157 363.686C648.795 362.036 649.11 360.204 649.11 358.186C649.11 356.192 648.804 354.393 648.174 352.794C647.561 351.182 646.628 349.908 645.377 348.972C644.138 348.025 642.58 347.55 640.702 347.55C638.9 347.55 637.383 348 636.157 348.898C634.93 349.786 634.006 351.026 633.376 352.627C632.75 354.216 632.44 356.068 632.44 358.186ZM668.794 373.029C666.966 373.029 665.309 372.69 663.817 372.016C662.325 371.325 661.144 370.332 660.27 369.042C659.391 367.735 658.956 366.164 658.956 364.315C658.956 362.69 659.279 361.37 659.93 360.361C660.576 359.34 661.451 358.541 662.537 357.962C663.626 357.383 664.832 356.953 666.146 356.672C667.472 356.378 668.806 356.143 670.145 355.969C671.898 355.75 673.319 355.584 674.405 355.473C675.507 355.349 676.311 355.146 676.812 354.861C677.322 354.579 677.579 354.087 677.579 353.384V353.236C677.579 351.416 677.073 350.001 676.058 348.991C675.055 347.981 673.538 347.476 671.496 347.476C669.378 347.476 667.721 347.933 666.519 348.842C665.317 349.752 664.472 350.725 663.987 351.761L659.777 350.283C660.531 348.56 661.53 347.22 662.785 346.258C664.045 345.285 665.425 344.609 666.912 344.227C668.417 343.833 669.892 343.636 671.346 343.636C672.27 343.636 673.335 343.747 674.537 343.97C675.751 344.178 676.92 344.616 678.051 345.281C679.187 345.946 680.131 346.948 680.881 348.289C681.636 349.63 682.013 351.427 682.013 353.681V372.363H677.579V368.525H677.355C677.052 369.141 676.555 369.799 675.851 370.502C675.15 371.201 674.218 371.801 673.054 372.289C671.889 372.785 670.468 373.029 668.794 373.029ZM669.469 369.116C671.222 369.116 672.697 368.777 673.899 368.099C675.113 367.421 676.025 366.548 676.642 365.481C677.264 364.406 677.579 363.281 677.579 362.098V358.111C677.392 358.335 676.978 358.533 676.34 358.719C675.714 358.893 674.989 359.046 674.164 359.182C673.348 359.302 672.556 359.414 671.777 359.513C671.015 359.6 670.393 359.675 669.917 359.733C668.765 359.881 667.692 360.125 666.689 360.456C665.698 360.775 664.899 361.259 664.285 361.916C663.684 362.553 663.386 363.43 663.386 364.534C663.386 366.052 663.954 367.193 665.093 367.971C666.245 368.732 667.7 369.116 669.469 369.116ZM711.505 333.372L713.755 336.03C712.88 336.866 711.869 337.453 710.717 337.783C709.565 338.118 708.26 338.318 706.81 338.392C705.355 338.467 703.743 338.541 701.965 338.615C699.964 338.689 698.306 339.169 696.993 340.056C695.675 340.94 694.66 342.221 693.947 343.896C693.234 345.571 692.774 347.624 692.575 350.06H692.953C693.926 348.289 695.281 346.985 697.009 346.146C698.737 345.311 700.59 344.891 702.566 344.891C704.821 344.891 706.847 345.407 708.649 346.443C710.452 347.476 711.878 349.009 712.934 351.041C713.983 353.072 714.509 355.576 714.509 358.554C714.509 361.519 713.97 364.079 712.897 366.234C711.832 368.389 710.336 370.051 708.405 371.222C706.49 372.375 704.24 372.954 701.667 372.954C699.085 372.954 696.827 372.359 694.888 371.164C692.944 369.956 691.44 368.173 690.363 365.808C689.285 363.434 688.747 360.498 688.747 357.003V353.974C688.747 347.662 689.836 342.875 692.012 339.61C694.204 336.35 697.498 334.664 701.891 334.552C703.441 334.504 704.829 334.493 706.039 334.516C707.257 334.541 708.314 334.486 709.213 334.348C710.116 334.214 710.879 333.888 711.505 333.372ZM701.667 369.042C703.403 369.042 704.899 368.612 706.155 367.747C707.419 366.887 708.384 365.676 709.06 364.112C709.739 362.532 710.079 360.684 710.079 358.554C710.079 356.486 709.735 354.724 709.043 353.273C708.372 351.821 707.398 350.714 706.134 349.949C704.87 349.188 703.354 348.805 701.592 348.805C700.3 348.805 699.143 349.021 698.116 349.452C697.088 349.882 696.214 350.517 695.489 351.353C694.763 352.192 694.2 353.213 693.798 354.418C693.412 355.622 693.201 357.003 693.176 358.554C693.176 361.73 693.935 364.274 695.451 366.18C696.964 368.087 699.04 369.042 701.667 369.042ZM733.003 372.954C730.401 372.954 728.117 372.346 726.153 371.126C724.197 369.91 722.668 368.207 721.57 366.015C720.48 363.823 719.933 361.259 719.933 358.335C719.933 355.378 720.48 352.801 721.57 350.595C722.668 348.393 724.197 346.685 726.153 345.463C728.117 344.245 730.401 343.636 733.003 343.636C735.609 343.636 737.884 344.245 739.84 345.463C741.805 346.685 743.334 348.393 744.419 350.595C745.522 352.801 746.073 355.378 746.073 358.335C746.073 361.259 745.522 363.823 744.419 366.015C743.334 368.207 741.805 369.91 739.84 371.126C737.884 372.346 735.609 372.954 733.003 372.954ZM733.003 369.042C734.984 369.042 736.608 368.542 737.884 367.545C739.165 366.548 740.106 365.237 740.723 363.612C741.336 361.986 741.639 360.229 741.639 358.335C741.639 356.436 741.336 354.675 740.723 353.035C740.106 351.397 739.165 350.075 737.884 349.065C736.608 348.055 734.984 347.55 733.003 347.55C731.026 347.55 729.402 348.055 728.122 349.065C726.845 350.075 725.9 351.397 725.287 353.035C724.674 354.675 724.367 356.436 724.367 358.335C724.367 360.229 724.674 361.986 725.287 363.612C725.9 365.237 726.845 366.548 728.122 367.545C729.402 368.542 731.026 369.042 733.003 369.042ZM749.065 348.066V344.007H772.502V348.066H763.038V372.363H758.608V348.066H749.065ZM778.963 372.363V344.007H783.397V356.341H786.326L796.69 344.007H802.4L790.76 357.669L802.549 372.363H796.839L787.379 360.398H783.397V372.363H778.963ZM815.851 373.029C814.024 373.029 812.366 372.69 810.879 372.016C809.387 371.325 808.202 370.332 807.327 369.042C806.453 367.735 806.014 366.164 806.014 364.315C806.014 362.69 806.337 361.37 806.992 360.361C807.642 359.34 808.508 358.541 809.602 357.962C810.688 357.383 811.89 356.953 813.203 356.672C814.529 356.378 815.864 356.143 817.202 355.969C818.955 355.75 820.376 355.584 821.466 355.473C822.569 355.349 823.368 355.146 823.87 354.861C824.384 354.579 824.64 354.087 824.64 353.384V353.236C824.64 351.416 824.135 350.001 823.12 348.991C822.117 347.981 820.596 347.476 818.557 347.476C816.44 347.476 814.782 347.933 813.58 348.842C812.379 349.752 811.533 350.725 811.044 351.761L806.838 350.283C807.593 348.56 808.591 347.22 809.843 346.258C811.107 345.285 812.487 344.609 813.974 344.227C815.478 343.833 816.954 343.636 818.404 343.636C819.332 343.636 820.397 343.747 821.595 343.97C822.813 344.178 823.982 344.616 825.109 345.281C826.248 345.946 827.193 346.948 827.943 348.289C828.697 349.63 829.07 351.427 829.07 353.681V372.363H824.64V368.525H824.413C824.114 369.141 823.613 369.799 822.912 370.502C822.212 371.201 821.28 371.801 820.115 372.289C818.947 372.785 817.53 373.029 815.851 373.029ZM816.527 369.116C818.28 369.116 819.755 368.777 820.957 368.099C822.175 367.421 823.087 366.548 823.7 365.481C824.326 364.406 824.64 363.281 824.64 362.098V358.111C824.45 358.335 824.04 358.533 823.401 358.719C822.776 358.893 822.051 359.046 821.222 359.182C820.41 359.302 819.614 359.414 818.839 359.513C818.072 359.6 817.455 359.675 816.978 359.733C815.831 359.881 814.749 360.125 813.746 360.456C812.76 360.775 811.956 361.259 811.347 361.916C810.746 362.553 810.444 363.43 810.444 364.534C810.444 366.052 811.015 367.193 812.155 367.971C813.307 368.732 814.766 369.116 816.527 369.116ZM856.461 365.94L870.356 344.007H875.465V372.363H871.031V350.432L857.211 372.363H852.031V344.007H856.461V365.94ZM898.451 372.363V344.007H921.135V372.363H916.705V348.066H902.881V372.363H898.451ZM929.227 383V344.007H933.508V348.512H934.034C934.358 348.018 934.809 347.39 935.385 346.629C935.974 345.853 936.811 345.162 937.901 344.561C939.003 343.944 940.495 343.636 942.372 343.636C944.8 343.636 946.938 344.234 948.791 345.426C950.647 346.622 952.089 348.315 953.129 350.506C954.169 352.697 954.687 355.283 954.687 358.26C954.687 361.259 954.169 363.864 953.129 366.068C952.089 368.26 950.651 369.956 948.811 371.164C946.972 372.359 944.85 372.954 942.446 372.954C940.594 372.954 939.111 372.652 937.996 372.049C936.881 371.437 936.023 370.738 935.423 369.964C934.822 369.178 934.358 368.525 934.034 368.008H933.657V383H929.227ZM933.583 358.186C933.583 360.328 933.906 362.214 934.544 363.852C935.182 365.481 936.115 366.755 937.337 367.673C938.564 368.583 940.068 369.042 941.846 369.042C943.698 369.042 945.244 368.562 946.483 367.599C947.734 366.627 948.675 365.324 949.3 363.686C949.939 362.036 950.258 360.204 950.258 358.186C950.258 356.192 949.943 354.393 949.317 352.794C948.704 351.182 947.771 349.908 946.52 348.972C945.281 348.025 943.723 347.55 941.846 347.55C940.043 347.55 938.526 348 937.3 348.898C936.077 349.786 935.145 351.026 934.523 352.627C933.898 354.216 933.583 356.068 933.583 358.186ZM973.165 372.954C970.563 372.954 968.275 372.346 966.311 371.126C964.355 369.91 962.83 368.207 961.728 366.015C960.642 363.823 960.095 361.259 960.095 358.335C960.095 355.378 960.642 352.801 961.728 350.595C962.83 348.393 964.355 346.685 966.311 345.463C968.275 344.245 970.563 343.636 973.165 343.636C975.771 343.636 978.046 344.245 980.002 345.463C981.962 346.685 983.491 348.393 984.581 350.595C985.684 352.801 986.231 355.378 986.231 358.335C986.231 361.259 985.684 363.823 984.581 366.015C983.491 368.207 981.962 369.91 980.002 371.126C978.046 372.346 975.771 372.954 973.165 372.954ZM973.165 369.042C975.142 369.042 976.77 368.542 978.046 367.545C979.323 366.548 980.268 365.237 980.881 363.612C981.494 361.986 981.801 360.229 981.801 358.335C981.801 356.436 981.494 354.675 980.881 353.035C980.268 351.397 979.323 350.075 978.046 349.065C976.77 348.055 975.142 347.55 973.165 347.55C971.184 347.55 969.56 348.055 968.283 349.065C967.003 350.075 966.058 351.397 965.449 353.035C964.832 354.675 964.525 356.436 964.525 358.335C964.525 360.229 964.832 361.986 965.449 363.612C966.058 365.237 967.003 366.548 968.283 367.545C969.56 368.542 971.184 369.042 973.165 369.042ZM989.919 380.49V368.302H992.322C992.91 367.702 993.416 367.044 993.843 366.346C994.27 365.642 994.638 364.815 994.949 363.852C995.277 362.88 995.554 361.697 995.778 360.312C996.002 358.905 996.205 357.214 996.379 355.229L997.357 344.007H1015.68V368.302H1020.11V380.49H1015.68V372.363H994.348V380.49H989.919ZM997.357 368.302H1011.25V348.066H1001.49L1000.73 355.229C1000.42 358.198 1000.03 360.787 999.57 363.004C999.106 365.221 998.368 366.987 997.357 368.302ZM1026 372.363V344.007H1037.78C1040.89 344.007 1043.36 344.694 1045.19 346.072C1047.01 347.454 1047.93 349.273 1047.93 351.538C1047.93 353.261 1047.41 354.6 1046.37 355.547C1045.33 356.482 1044 357.11 1042.37 357.445C1043.43 357.594 1044.46 357.962 1045.46 358.554C1046.48 359.145 1047.32 359.956 1047.98 360.994C1048.65 362.015 1048.98 363.269 1048.98 364.757C1048.98 366.209 1048.6 367.508 1047.85 368.653C1047.1 369.799 1046.02 370.705 1044.62 371.37C1043.22 372.032 1041.54 372.363 1039.59 372.363H1026ZM1030.2 368.376H1039.59C1041.11 368.376 1042.31 368.02 1043.18 367.305C1044.04 366.594 1044.47 365.622 1044.47 364.389C1044.47 362.925 1044.04 361.771 1043.18 360.936C1042.31 360.088 1041.11 359.662 1039.59 359.662H1030.2V368.376ZM1030.2 355.895H1037.78C1038.97 355.895 1040 355.733 1040.85 355.415C1041.7 355.084 1042.35 354.617 1042.8 354.012C1043.26 353.399 1043.49 352.671 1043.49 351.835C1043.49 350.64 1042.98 349.704 1041.97 349.028C1040.96 348.337 1039.56 347.996 1037.78 347.996H1030.2V355.895ZM1060.12 365.94L1074.01 344.007H1079.12V372.363H1074.69V350.432L1060.87 372.363H1055.69V344.007H1060.12V365.94ZM1085.43 372.363L1097.15 357.962L1085.58 344.007H1090.84L1100.46 356.118H1102.86V344.007H1107.29V356.118H1109.62L1119.23 344.007H1124.49L1113 357.962L1124.64 372.363H1119.31L1109.54 360.179H1107.29V372.363H1102.86V360.179H1100.6L1090.76 372.363H1085.43ZM1141.87 372.954C1139.1 372.954 1136.7 372.355 1134.68 371.147C1132.68 369.927 1131.13 368.227 1130.05 366.052C1128.97 363.86 1128.43 361.312 1128.43 358.405C1128.43 355.502 1128.97 352.942 1130.05 350.725C1131.13 348.497 1132.65 346.763 1134.59 345.519C1136.54 344.263 1138.82 343.636 1141.43 343.636C1142.93 343.636 1144.41 343.881 1145.88 344.375C1147.34 344.869 1148.67 345.667 1149.88 346.774C1151.08 347.869 1152.03 349.321 1152.74 351.134C1153.46 352.942 1153.82 355.171 1153.82 357.814V359.662H1131.58V355.895H1149.31C1149.31 354.294 1148.99 352.868 1148.33 351.613C1147.7 350.358 1146.78 349.366 1145.59 348.642C1144.42 347.914 1143.03 347.55 1141.43 347.55C1139.66 347.55 1138.13 347.981 1136.84 348.842C1135.56 349.693 1134.58 350.799 1133.89 352.166C1133.21 353.533 1132.87 354.997 1132.87 356.56V359.071C1132.87 361.213 1133.24 363.029 1133.99 364.518C1134.75 365.994 1135.81 367.119 1137.16 367.896C1138.51 368.657 1140.08 369.042 1141.87 369.042C1143.04 369.042 1144.09 368.881 1145.03 368.562C1145.98 368.227 1146.8 367.735 1147.49 367.082C1148.18 366.42 1148.71 365.593 1149.08 364.609L1153.37 365.791C1152.91 367.222 1152.16 368.475 1151.09 369.555C1150.03 370.63 1148.72 371.466 1147.15 372.065C1145.59 372.661 1143.83 372.954 1141.87 372.954ZM1179.86 356.192V360.254H1163.94V356.192H1179.86ZM1164.99 344.007V372.363H1160.56V344.007H1164.99ZM1183.24 344.007V372.363H1178.81V344.007H1183.24ZM1195.77 365.94L1209.66 344.007H1214.77V372.363H1210.34V350.432L1196.52 372.363H1191.33V344.007H1195.77V365.94ZM1234.97 372.954C1232.19 372.954 1229.8 372.355 1227.78 371.147C1225.78 369.927 1224.24 368.227 1223.14 366.052C1222.07 363.86 1221.53 361.312 1221.53 358.405C1221.53 355.502 1222.07 352.942 1223.14 350.725C1224.24 348.497 1225.75 346.763 1227.69 345.519C1229.64 344.263 1231.92 343.636 1234.53 343.636C1236.03 343.636 1237.51 343.881 1238.97 344.375C1240.44 344.869 1241.77 345.667 1242.97 346.774C1244.17 347.869 1245.14 349.321 1245.85 351.134C1246.56 352.942 1246.92 355.171 1246.92 357.814V359.662H1224.69V355.895H1242.41C1242.41 354.294 1242.09 352.868 1241.43 351.613C1240.8 350.358 1239.88 349.366 1238.7 348.642C1237.51 347.914 1236.13 347.55 1234.53 347.55C1232.76 347.55 1231.23 347.981 1229.94 348.842C1228.67 349.693 1227.69 350.799 1226.99 352.166C1226.31 353.533 1225.96 354.997 1225.96 356.56V359.071C1225.96 361.213 1226.34 363.029 1227.09 364.518C1227.85 365.994 1228.91 367.119 1230.26 367.896C1231.61 368.657 1233.18 369.042 1234.97 369.042C1236.14 369.042 1237.19 368.881 1238.13 368.562C1239.08 368.227 1239.9 367.735 1240.59 367.082C1241.28 366.42 1241.81 365.593 1242.18 364.609L1246.47 365.791C1246.02 367.222 1245.26 368.475 1244.19 369.555C1243.13 370.63 1241.82 371.466 1240.25 372.065C1238.69 372.661 1236.93 372.954 1234.97 372.954ZM1280.25 372.954C1277.54 372.954 1275.21 372.326 1273.26 371.073C1271.31 369.815 1269.81 368.087 1268.76 365.882C1267.7 363.682 1267.18 361.163 1267.18 358.335C1267.18 355.452 1267.72 352.912 1268.79 350.707C1269.88 348.493 1271.39 346.763 1273.33 345.519C1275.29 344.263 1277.57 343.636 1280.17 343.636C1282.2 343.636 1284.03 344.007 1285.65 344.743C1287.28 345.482 1288.61 346.518 1289.66 347.847C1290.69 349.177 1291.34 350.725 1291.59 352.5H1287.15C1286.82 351.208 1286.07 350.06 1284.9 349.065C1283.75 348.055 1282.2 347.55 1280.25 347.55C1278.52 347.55 1277 347.992 1275.7 348.88C1274.41 349.752 1273.4 350.993 1272.68 352.589C1271.97 354.178 1271.61 356.043 1271.61 358.186C1271.61 360.378 1271.96 362.284 1272.66 363.91C1273.38 365.535 1274.37 366.792 1275.67 367.694C1276.96 368.591 1278.49 369.042 1280.25 369.042C1281.4 369.042 1282.44 368.843 1283.38 368.451C1284.32 368.058 1285.12 367.491 1285.77 366.755C1286.42 366.015 1286.88 365.125 1287.15 364.096H1291.59C1291.34 365.767 1290.72 367.272 1289.73 368.616C1288.75 369.948 1287.46 371.006 1285.84 371.792C1284.24 372.57 1282.37 372.954 1280.25 372.954ZM1306.55 373.029C1304.72 373.029 1303.07 372.69 1301.57 372.016C1300.09 371.325 1298.91 370.332 1298.03 369.042C1297.15 367.735 1296.71 366.164 1296.71 364.315C1296.71 362.69 1297.04 361.37 1297.69 360.361C1298.34 359.34 1299.21 358.541 1300.3 357.962C1301.39 357.383 1302.59 356.953 1303.9 356.672C1305.23 356.378 1306.56 356.143 1307.91 355.969C1309.66 355.75 1311.08 355.584 1312.17 355.473C1313.27 355.349 1314.07 355.146 1314.57 354.861C1315.08 354.579 1315.34 354.087 1315.34 353.384V353.236C1315.34 351.416 1314.83 350.001 1313.82 348.991C1312.82 347.981 1311.3 347.476 1309.26 347.476C1307.14 347.476 1305.48 347.933 1304.28 348.842C1303.08 349.752 1302.23 350.725 1301.74 351.761L1297.54 350.283C1298.29 348.56 1299.3 347.22 1300.54 346.258C1301.81 345.285 1303.18 344.609 1304.67 344.227C1306.18 343.833 1307.66 343.636 1309.11 343.636C1310.03 343.636 1311.1 343.747 1312.3 343.97C1313.51 344.178 1314.69 344.616 1315.81 345.281C1316.95 345.946 1317.89 346.948 1318.65 348.289C1319.4 349.63 1319.77 351.427 1319.77 353.681V372.363H1315.34V368.525H1315.12C1314.81 369.141 1314.31 369.799 1313.61 370.502C1312.91 371.201 1311.98 371.801 1310.82 372.289C1309.65 372.785 1308.23 373.029 1306.55 373.029ZM1307.23 369.116C1308.98 369.116 1310.46 368.777 1311.66 368.099C1312.88 367.421 1313.79 366.548 1314.4 365.481C1315.03 364.406 1315.34 363.281 1315.34 362.098V358.111C1315.15 358.335 1314.74 358.533 1314.1 358.719C1313.48 358.893 1312.75 359.046 1311.92 359.182C1311.11 359.302 1310.31 359.414 1309.54 359.513C1308.77 359.6 1308.16 359.675 1307.68 359.733C1306.53 359.881 1305.45 360.125 1304.45 360.456C1303.46 360.775 1302.66 361.259 1302.05 361.916C1301.45 362.553 1301.14 363.43 1301.14 364.534C1301.14 366.052 1301.72 367.193 1302.86 367.971C1304 368.732 1305.47 369.116 1307.23 369.116ZM1332.29 365.94L1346.19 344.007H1351.29V372.363H1346.86V350.432L1333.04 372.363H1327.86V344.007H1332.29V365.94ZM1343.26 334.552H1347.39C1347.39 336.547 1346.68 338.177 1345.28 339.447C1343.88 340.713 1341.98 341.349 1339.58 341.349C1337.21 341.349 1335.33 340.713 1333.93 339.447C1332.53 338.177 1331.84 336.547 1331.84 334.552H1335.97C1335.97 335.514 1336.24 336.357 1336.78 337.081C1337.33 337.809 1338.26 338.173 1339.58 338.173C1340.89 338.173 1341.83 337.809 1342.39 337.081C1342.97 336.357 1343.26 335.514 1343.26 334.552ZM1355.49 348.066V344.007H1378.92V348.066H1369.46V372.363H1365.02V348.066H1355.49ZM1395.6 372.954C1393 372.954 1390.71 372.346 1388.75 371.126C1386.8 369.91 1385.27 368.207 1384.17 366.015C1383.08 363.823 1382.54 361.259 1382.54 358.335C1382.54 355.378 1383.08 352.801 1384.17 350.595C1385.27 348.393 1386.8 346.685 1388.75 345.463C1390.71 344.245 1393 343.636 1395.6 343.636C1398.21 343.636 1400.48 344.245 1402.44 345.463C1404.4 346.685 1405.93 348.393 1407.02 350.595C1408.12 352.801 1408.67 355.378 1408.67 358.335C1408.67 361.259 1408.12 363.823 1407.02 366.015C1405.93 368.207 1404.4 369.91 1402.44 371.126C1400.48 372.346 1398.21 372.954 1395.6 372.954ZM1395.6 369.042C1397.58 369.042 1399.21 368.542 1400.48 367.545C1401.76 366.548 1402.71 365.237 1403.32 363.612C1403.93 361.986 1404.24 360.229 1404.24 358.335C1404.24 356.436 1403.93 354.675 1403.32 353.035C1402.71 351.397 1401.76 350.075 1400.48 349.065C1399.21 348.055 1397.58 347.55 1395.6 347.55C1393.62 347.55 1392 348.055 1390.72 349.065C1389.44 350.075 1388.5 351.397 1387.88 353.035C1387.27 354.675 1386.97 356.436 1386.97 358.335C1386.97 360.229 1387.27 361.986 1387.88 363.612C1388.5 365.237 1389.44 366.548 1390.72 367.545C1392 368.542 1393.62 369.042 1395.6 369.042ZM1415.44 372.363V344.007H1427.22C1430.33 344.007 1432.8 344.694 1434.63 346.072C1436.45 347.454 1437.37 349.273 1437.37 351.538C1437.37 353.261 1436.85 354.6 1435.81 355.547C1434.77 356.482 1433.44 357.11 1431.81 357.445C1432.87 357.594 1433.9 357.962 1434.91 358.554C1435.92 359.145 1436.76 359.956 1437.42 360.994C1438.09 362.015 1438.42 363.269 1438.42 364.757C1438.42 366.209 1438.04 367.508 1437.29 368.653C1436.54 369.799 1435.46 370.705 1434.06 371.37C1432.66 372.032 1430.98 372.363 1429.03 372.363H1415.44ZM1419.64 368.376H1429.03C1430.56 368.376 1431.75 368.02 1432.62 367.305C1433.48 366.594 1433.91 365.622 1433.91 364.389C1433.91 362.925 1433.48 361.771 1432.62 360.936C1431.75 360.088 1430.56 359.662 1429.03 359.662H1419.64V368.376ZM1419.64 355.895H1427.22C1428.42 355.895 1429.44 355.733 1430.29 355.415C1431.14 355.084 1431.79 354.617 1432.24 354.012C1432.7 353.399 1432.94 352.671 1432.94 351.835C1432.94 350.64 1432.43 349.704 1431.41 349.028C1430.4 348.337 1429.01 347.996 1427.22 347.996H1419.64V355.895Z" fill="#FFFCE1"/>
<defs>
<filter id="filter0_i_605_4438" x="0" y="0.5" width="511.541" height="386.191" filterUnits="userSpaceOnUse" color-interpolation-filters="sRGB">
<feFlood flood-opacity="0" result="BackgroundImageFix"/>
<feBlend mode="normal" in="SourceGraphic" in2="BackgroundImageFix" result="shape"/>
<feColorMatrix in="SourceAlpha" type="matrix" values="0 0 0 0 0 0 0 0 0 0 0 0 0 0 0 0 0 0 127 0" result="hardAlpha"/>
<feOffset dy="6"/>
<feGaussianBlur stdDeviation="2"/>
<feComposite in2="hardAlpha" operator="arithmetic" k2="-1" k3="1"/>
<feColorMatrix type="matrix" values="0 0 0 0 0 0 0 0 0 0 0 0 0 0 0 0 0 0 0.25 0"/>
<feBlend mode="normal" in2="shape" result="effect1_innerShadow_605_4438"/>
</filter>
<filter id="filter1_i_605_4438" x="539.198" y="0" width="874.825" height="326.382" filterUnits="userSpaceOnUse" color-interpolation-filters="sRGB">
<feFlood flood-opacity="0" result="BackgroundImageFix"/>
<feBlend mode="normal" in="SourceGraphic" in2="BackgroundImageFix" result="shape"/>
<feColorMatrix in="SourceAlpha" type="matrix" values="0 0 0 0 0 0 0 0 0 0 0 0 0 0 0 0 0 0 127 0" result="hardAlpha"/>
<feOffset dy="-1"/>
<feGaussianBlur stdDeviation="2"/>
<feComposite in2="hardAlpha" operator="arithmetic" k2="-1" k3="1"/>
<feColorMatrix type="matrix" values="0 0 0 0 0 0 0 0 0 0 0 0 0 0 0 0 0 0 0.4 0"/>
<feBlend mode="normal" in2="shape" result="effect1_innerShadow_605_4438"/>
</filter>
</defs>
</svg>
