<svg width="20" height="21" viewBox="0 0 20 21" fill="none" xmlns="http://www.w3.org/2000/svg">
<path d="M18.3332 14.6V17.1C18.3341 17.3321 18.2866 17.5618 18.1936 17.7745C18.1006 17.9871 17.9643 18.178 17.7933 18.3349C17.6222 18.4918 17.4203 18.6113 17.2005 18.6856C16.9806 18.76 16.7477 18.7876 16.5165 18.7667C13.9522 18.4881 11.489 17.6118 9.32486 16.2084C7.31139 14.9289 5.60431 13.2219 4.32486 11.2084C2.91651 9.03438 2.04007 6.5592 1.76653 3.98337C1.7457 3.75293 1.77309 3.52067 1.84695 3.30139C1.9208 3.08211 2.03951 2.88061 2.1955 2.70972C2.3515 2.53883 2.54137 2.4023 2.75302 2.30881C2.96468 2.21532 3.19348 2.16692 3.42486 2.16671H5.92486C6.32928 2.16273 6.72136 2.30594 7.028 2.56965C7.33464 2.83336 7.53493 3.19958 7.59153 3.60004C7.69705 4.4001 7.89274 5.18565 8.17486 5.94171C8.28698 6.23998 8.31125 6.56414 8.24478 6.87577C8.17832 7.18741 8.02392 7.47347 7.79986 7.70004L6.74153 8.75837C7.92783 10.8447 9.65524 12.5721 11.7415 13.7584L12.7999 12.7C13.0264 12.476 13.3125 12.3216 13.6241 12.2551C13.9358 12.1887 14.2599 12.2129 14.5582 12.325C15.3143 12.6072 16.0998 12.8029 16.8999 12.9084C17.3047 12.9655 17.6744 13.1694 17.9386 13.4813C18.2029 13.7932 18.3433 14.1914 18.3332 14.6Z" stroke="#FFFAF8" stroke-width="2" stroke-linecap="round" stroke-linejoin="round"/>
</svg>
