<svg width="21" height="20" viewBox="0 0 21 20" fill="none" xmlns="http://www.w3.org/2000/svg">
<path d="M10.4998 18.3332C15.1022 18.3332 18.8332 14.6022 18.8332 9.99984C18.8332 5.39746 15.1022 1.6665 10.4998 1.6665C5.89746 1.6665 2.1665 5.39746 2.1665 9.99984C2.1665 14.6022 5.89746 18.3332 10.4998 18.3332Z" stroke="#FFFAF8" stroke-width="2" stroke-linecap="round" stroke-linejoin="round"/>
<path d="M8.0752 7.49999C8.27112 6.94304 8.65782 6.47341 9.16682 6.17426C9.67583 5.87512 10.2743 5.76577 10.8562 5.86558C11.4381 5.96539 11.9659 6.26792 12.3461 6.71959C12.7263 7.17126 12.9344 7.74292 12.9335 8.33332C12.9335 9.99999 10.4335 10.8333 10.4335 10.8333" stroke="#FFFAF8" stroke-width="2" stroke-linecap="round" stroke-linejoin="round"/>
<path d="M10.5 14.1665H10.5083" stroke="#FFFAF8" stroke-width="2" stroke-linecap="round" stroke-linejoin="round"/>
</svg>
