<svg width="16" height="14" viewBox="0 0 16 14" fill="none" xmlns="http://www.w3.org/2000/svg">
<path d="M7.00936 0.487005L5.22404 4.10687L1.22961 4.68922C0.51329 4.79311 0.226216 5.67621 0.745683 6.182L3.63556 8.99806L2.95205 12.9761C2.82902 13.6951 3.58635 14.2337 4.22064 13.8975L7.79403 12.0192L11.3674 13.8975C12.0017 14.231 12.759 13.6951 12.636 12.9761L11.9525 8.99806L14.8424 6.182C15.3618 5.67621 15.0748 4.79311 14.3585 4.68922L10.364 4.10687L8.5787 0.487005C8.25882 -0.158228 7.33198 -0.16643 7.00936 0.487005Z" fill="#E4E4E4"/>
<path d="M7.00936 0.487005L5.22404 4.10687L1.22961 4.68922C0.51329 4.79311 0.226216 5.67621 0.745683 6.182L3.63556 8.99806L2.95205 12.9761C2.82902 13.6951 3.58635 14.2337 4.22064 13.8975L7.79403 12.0192L11.3674 13.8975C12.0017 14.231 12.759 13.6951 12.636 12.9761L11.9525 8.99806L14.8424 6.182C15.3618 5.67621 15.0748 4.79311 14.3585 4.68922L10.364 4.10687L8.5787 0.487005C8.25882 -0.158228 7.33198 -0.16643 7.00936 0.487005Z" fill="#E4E4E4"/>
<path d="M7.00936 0.487005L5.22404 4.10687L1.22961 4.68922C0.51329 4.79311 0.226216 5.67621 0.745683 6.182L3.63556 8.99806L2.95205 12.9761C2.82902 13.6951 3.58635 14.2337 4.22064 13.8975L7.79403 12.0192L11.3674 13.8975C12.0017 14.231 12.759 13.6951 12.636 12.9761L11.9525 8.99806L14.8424 6.182C15.3618 5.67621 15.0748 4.79311 14.3585 4.68922L10.364 4.10687L8.5787 0.487005C8.25882 -0.158228 7.33198 -0.16643 7.00936 0.487005Z" fill="#E4E4E4"/>
</svg>
