<svg width="28" height="29" viewBox="0 0 28 29" fill="none" xmlns="http://www.w3.org/2000/svg">
<g clip-path="url(#clip0_243_2084)">
<path d="M14.0092 28.5185C21.7463 28.5185 28.0185 22.2463 28.0185 14.5092C28.0185 6.77215 21.7463 0.5 14.0092 0.5C6.27215 0.5 0 6.77215 0 14.5092C0 22.2463 6.27215 28.5185 14.0092 28.5185Z" fill="url(#paint0_linear_243_2084)"/>
<path d="M9.37061 15.6181L10.9785 19.9983L18.131 10.0551L9.37061 15.6181Z" fill="#C2DAEC"/>
<path d="M11.1634 16.5977L10.9971 20.0353L14.7674 16.8379L11.1634 16.5977Z" fill="#9FCDE2"/>
<path d="M19.8683 8.3917L5.78512 13.7514C5.37852 13.8993 5.39701 14.4722 5.80361 14.6016L9.42605 15.8214L17.7059 10.4801L11.1633 16.5976L16.2643 20.4603C16.8003 20.8669 17.5581 20.5897 17.7244 19.9429L20.4782 8.90919C20.5706 8.55804 20.2194 8.26233 19.8683 8.3917Z" fill="#ECF8FD"/>
</g>
<defs>
<linearGradient id="paint0_linear_243_2084" x1="4.10083" y1="4.60083" x2="23.9014" y2="24.4014" gradientUnits="userSpaceOnUse">
<stop stop-color="#00AFE5"/>
<stop offset="1" stop-color="#0094D4"/>
</linearGradient>
<clipPath id="clip0_243_2084">
<rect width="28" height="28" fill="white" transform="translate(0 0.5)"/>
</clipPath>
</defs>
</svg>
