<svg width="28" height="29" viewBox="0 0 28 29" fill="none" xmlns="http://www.w3.org/2000/svg">
<path d="M14 28.5C21.732 28.5 28 22.232 28 14.5C28 6.76801 21.732 0.5 14 0.5C6.26801 0.5 0 6.76801 0 14.5C0 22.232 6.26801 28.5 14 28.5Z" fill="#23B180"/>
<path d="M22.2752 13.4999C22.1752 9.12488 18.5752 5.62488 14.1252 5.62488C9.7502 5.62488 6.17519 9.04988 6.00019 13.3499C6.00019 13.4749 6.00019 13.5749 6.00019 13.6999C6.00019 15.2249 6.42519 16.6499 7.17519 17.8749L5.7002 22.1999L10.2002 20.7749C11.3752 21.4249 12.7002 21.7749 14.1252 21.7749C18.6252 21.7749 22.2752 18.1499 22.2752 13.6999C22.2752 13.6249 22.2752 13.5499 22.2752 13.4999ZM14.1502 20.4749C12.7502 20.4749 11.4752 20.0499 10.3752 19.3499L7.7502 20.1749L8.60019 17.6499C7.77519 16.5249 7.30019 15.1499 7.30019 13.6749C7.30019 13.4499 7.3002 13.2249 7.3252 13.0249C7.6502 9.57488 10.6002 6.89988 14.1502 6.89988C17.7502 6.89988 20.7002 9.67488 20.9752 13.1749C21.0002 13.3499 21.0002 13.5249 21.0002 13.6999C20.9752 17.4499 17.9252 20.4749 14.1502 20.4749Z" fill="white"/>
<path d="M17.8753 15.3249C17.6753 15.2249 16.7003 14.7499 16.5003 14.6749C16.3253 14.5999 16.1753 14.5749 16.0503 14.7749C15.9253 14.9749 15.5253 15.4249 15.4253 15.5499C15.3003 15.6749 15.2003 15.6999 15.0003 15.5999C14.8003 15.4999 14.1503 15.2999 13.4003 14.6249C12.8003 14.0999 12.4003 13.4499 12.3003 13.2499C12.1753 13.0499 12.3003 12.9499 12.3753 12.8499C12.4753 12.7499 12.5753 12.6249 12.6753 12.4999C12.7003 12.4749 12.7253 12.4249 12.7503 12.3999C12.8003 12.3249 12.8253 12.2499 12.8753 12.1749C12.9503 12.0499 12.9003 11.9249 12.8503 11.8249C12.8003 11.7249 12.4003 10.7499 12.2253 10.3499C12.0503 9.94988 11.9003 10.0249 11.7753 10.0249C11.6503 10.0249 11.5253 9.99988 11.4003 9.99988C11.2753 9.99988 11.0503 10.0499 10.8753 10.2499C10.7003 10.4499 10.1753 10.9249 10.1753 11.8999C10.1753 12.1249 10.2253 12.3499 10.2753 12.5749C10.4753 13.2749 10.9003 13.8499 10.9753 13.9499C11.0753 14.0749 12.3503 16.1499 14.3753 16.9499C16.4003 17.7499 16.4003 17.4749 16.7753 17.4499C17.1503 17.4249 17.9503 16.9749 18.1253 16.4999C18.3003 16.0499 18.3003 15.6499 18.2503 15.5499C18.2003 15.4749 18.0753 15.4249 17.8753 15.3249Z" fill="white"/>
</svg>
