<svg width="44" height="50" fill="none" xmlns="http://www.w3.org/2000/svg">
    <g clip-path="url(#a)">
        <path d="M0 21.586v-1.412h4.912c.07-.797.07-.797-.686-1-1.664-.453-2.895-1.441-3.641-2.995-.262-.555-.393-1.17-.585-1.755v-4.74h1.624V6.485c1.604-.131 3.036.202 4.277 1.19.232.182.403.222.665.09.979-.463 2.008-.574 3.137-.473v2.41h1.594c0 1.382.02 2.744 0 4.096-.03 2.31-1.452 4.327-3.621 5.164-.373.141-.756.242-1.16.363.161 2.845 1.876 4.943 3.308 7.192a60.496 60.496 0 0 1 10.107-4.953c.101-.04.222-.201.232-.322.03-.343.01-.696.01-1.08-.423 0-.786.01-1.15 0-.706-.02-1.422.02-2.107-.11-2.139-.394-3.652-2.724-3.107-4.731.565 0 1.14-.02 1.704 0 1.574.05 3.208-.303 4.63.807V12.86c-2.491-.555-4.216-1.977-4.65-4.479-.292-1.664-.151-3.4-.212-5.144h1.665V-.01h1.513c.978.232 1.947.514 2.733 1.19.262.222.464.242.757.101.958-.454 1.987-.555 3.086-.454v2.41h1.594c0 1.383.02 2.744-.01 4.096-.03 1.664-.696 3.056-1.947 4.166-.827.726-1.805 1.14-2.864 1.341v1.473c.756-.202 1.513-.504 2.29-.585.978-.1 1.976-.03 2.975-.03h1.13c.272 2.895-1.493 4.841-4.328 4.841h-2.067v2.31c.14-.04.262-.06.363-.1 3.369-1.13 6.808-1.957 10.328-2.431.313-.04.505-.162.646-.465.282-.625.625-1.23.908-1.855.222-.495.383-1.02.585-1.544-.242-.06-.404-.1-.565-.151a5.636 5.636 0 0 1-4.206-5.346c-.02-1.281-.01-2.552 0-3.833 0-.09.02-.192.04-.292h1.574V1.614c1.583-.131 2.995.181 4.216 1.14.303.232.514.242.847.09.948-.423 1.957-.534 3.016-.423v2.41h1.604v3.753c0 2.945-1.695 5.084-4.56 5.79a.677.677 0 0 0-.393.353c-.383.928-.736 1.866-1.11 2.804-.05.13-.11.252-.17.413 1.028-.06 2.007-.151 2.975-.161 1.654-.03 2.986 1.16 3.228 2.804.222 1.564-.807 3.097-2.38 3.51-.223.06-.455.091-.707.141-.282 1.443-.565 2.875-.827 4.308-.02.12.05.282.131.383.232.262.495.494.767.766.534-.181 1.09-.373 1.654-.544 1.927-.595 3.783.736 3.803 2.753.01.737.01 1.483 0 2.22-.02 2.047-1.866 3.389-3.823 2.783-.797-.252-1.594-.524-2.39-.796-.162-.05-.324-.101-.545-.162.837 2.532 1.644 4.973 2.44 7.404.142.444.495.998.354 1.311-.162.353-.777.504-1.2.726-1.15.585-2.3 1.15-3.5 1.745-.112-.585-.213-1.13-.314-1.664-.02 0-.05.01-.07.01-.252 1.483-.504 2.966-.746 4.459H8.2c-.656-3.924-1.302-7.818-1.957-11.741-.182.07-.333.13-.484.201a3.454 3.454 0 0 1-2.462.101c-2.642-.847-3.399-4.277-1.26-6.143 1.896-1.654 3.943-3.127 5.92-4.68.152-.121.323-.222.505-.353-.464-.706-.888-1.392-1.352-2.048a.85.85 0 0 0-.545-.302c-.877-.03-1.745.01-2.622-.02-1.301-.04-2.39-.575-3.127-1.655-.373-.474-.555-1.12-.817-1.714Zm27.638 19.598H8.352c.403 2.431.807 4.822 1.21 7.222H32.4c.403-2.4.797-4.801 1.21-7.222h-1.321c-.333 1.997-.676 3.995-1.02 6.022-1.643-.827-3.217-1.614-4.82-2.41.403-1.221.796-2.391 1.19-3.612Zm9.653-21.747c0-.02-.01-.04-.01-.06-1.836.222-3.672.393-5.498.686-8.846 1.422-16.945 4.73-24.248 9.915-1.574 1.12-3.036 2.39-4.489 3.661-.877.757-.857 2.098-.07 2.895.776.787 2.017.777 2.854-.02.262-.252.515-.535.777-.787 7.928-7.494 17.44-11.519 28.192-12.82 1.13-.141 2.28-.161 3.41-.303.817-.1 1.361-.847 1.321-1.644a1.599 1.599 0 0 0-1.533-1.513c-.232-.02-.464-.01-.706-.01ZM22.594 34.678c0-.918-.01-1.795 0-2.663.02-2.078 1.866-3.42 3.853-2.794.545.172 1.08.353 1.614.525 1.564-1.624 2.754-1.866 4.852-1.029.1.04.242.06.323.01.726-.424 1.513-.535 2.38-.474.252-1.281.495-2.532.757-3.863a48.56 48.56 0 0 0-13.85 3.177c-4.427 1.725-8.512 4.035-12.305 7.111h12.376ZM8.08 39.49c.081.02.111.04.142.04 6.556 0 13.113.01 19.669-.01.141 0 .343-.172.393-.313.343-.978.666-1.967.989-2.955.02-.07.02-.142.03-.252-.988.322-1.927.635-2.865.948-.948.312-1.815.161-2.642-.373-.222-.142-.515-.253-.767-.253-4.61-.01-9.21-.01-13.819-.01-.222 0-.434-.01-.655 0-.394.02-.918.585-.858.928.121.747.252 1.493.383 2.25Zm25.005-8.393a41.305 41.305 0 0 0-.474-.554c-.776-.888-2.178-.938-2.995-.101-.817.827-.737 2.098.191 2.885.878.746 1.776 1.482 2.663 2.229.202.171.404.333.615.504 1.11-.928 2.19-1.805 3.248-2.703.928-.787 1.04-2.007.283-2.845-.757-.837-2.098-.887-2.935-.1-.202.191-.374.423-.596.685Zm5.629.152c.131 1.28-.262 2.34-1.22 3.258 1.038.343 1.997.696 2.975.958.716.192 1.442-.383 1.483-1.14.04-.837.05-1.684 0-2.522-.05-.796-.827-1.31-1.594-1.099-.545.161-1.059.353-1.644.545Zm-10.026 3.268c-.676-.646-1.23-1.352-1.18-2.189.06-1.09-.535-1.352-1.362-1.513-.101-.02-.192-.06-.293-.09-.827-.223-1.604.302-1.644 1.15-.03.806-.03 1.613 0 2.42.03.746.706 1.352 1.392 1.18 1.029-.242 2.017-.615 3.087-.958ZM16.956 4.963c0 .907-.05 1.785.01 2.652.12 1.766 1.553 3.34 3.187 3.551 0-.908.07-1.816-.01-2.713-.161-1.755-1.493-3.188-3.187-3.49Zm8.1-.01c-1.584.272-2.916 1.523-3.148 3.056-.161 1.039-.12 2.098-.161 3.167 1.513-.191 2.915-1.503 3.157-3.066.151-1.019.111-2.078.151-3.157Zm9.642 7.827c0-.787.01-1.574 0-2.36-.01-.959-.343-1.806-.958-2.532a3.805 3.805 0 0 0-2.25-1.332c0 .918-.05 1.796.01 2.663.112 1.766 1.534 3.339 3.198 3.56Zm4.882-6.224c-1.613.303-2.915 1.534-3.157 3.067-.161 1.029-.11 2.098-.161 3.157 1.543-.222 2.915-1.513 3.157-3.077.161-1.008.121-2.057.161-3.147ZM1.624 11.418c0 .908-.05 1.775.01 2.643.111 1.765 1.533 3.329 3.177 3.56 0-.917.081-1.845-.02-2.753a3.879 3.879 0 0 0-3.167-3.45Zm4.791 6.274c1.543-.403 2.542-1.26 3.046-2.653.424-1.18.162-2.4.242-3.63-1.593.312-2.884 1.532-3.116 3.066-.172 1.028-.131 2.098-.172 3.217Zm24.672 18.721c-.06.01-.11.02-.171.04-.827 2.502-1.654 5.003-2.492 7.515.555.272 1.06.535 1.594.797.04-.161.08-.282.101-.414.404-2.43.817-4.861 1.2-7.292.04-.202-.151-.434-.232-.646Zm6.658 7.555-2.502-7.535c-.393.162-.474.373-.403.737.272 1.513.514 3.046.766 4.569.172.998.343 1.997.515 3.046.575-.292 1.089-.544 1.624-.817ZM20.022 18.55c-.323-.796-.827-1.351-1.563-1.472-.959-.152-1.937-.131-3.016-.182.464 1.03 1.13 1.564 2.088 1.644.797.06 1.604.01 2.491.01Zm6.395-3.217c-.817 0-1.583-.02-2.35.01-.605.02-1.15.262-1.564.706-.221.242-.383.535-.625.888.928 0 1.705.02 2.471-.01a2.216 2.216 0 0 0 2.068-1.594ZM1.806 21.797C2.31 23.2 3.66 23.694 5.92 23.351c-.293-1.06-.686-1.483-1.614-1.543-.817-.05-1.644-.01-2.501-.01Zm36.1-17.641a3.92 3.92 0 0 0-2.623 1.856c-.453.746-.433.877.182 1.432.575-.535 1.08-1.18 1.735-1.574.635-.383.837-.817.726-1.482-.01-.07-.01-.141-.02-.232ZM23.401 2.502c-1.19.292-2.067.927-2.673 1.936-.413.696-.373.898.303 1.453a6.002 6.002 0 0 1 2.148-1.998c.101-.06.202-.211.212-.332.03-.333.01-.676.01-1.06ZM8.07 8.957c-1.13.262-1.967.847-2.572 1.765-.524.797-.514.888.182 1.644.585-.877 1.321-1.593 2.26-2.077.07-.03.12-.152.13-.243.01-.343 0-.686 0-1.089Zm12.135-6.566c-.525-.243-1.05-.485-1.644-.757 0 .646.03 1.17-.01 1.685-.03.433.16.625.524.696.363-.535.716-1.04 1.13-1.624ZM3.732 10.47c.373-.535.736-1.049 1.14-1.634-.535-.242-1.06-.484-1.644-.746 0 .625.03 1.13-.01 1.624-.03.413.09.665.514.756ZM33.6 5.628c.363-.514.726-1.039 1.13-1.624-.525-.242-1.04-.484-1.645-.766 0 .635.03 1.15-.01 1.654-.03.434.122.666.525.736ZM32.56 39.51h1.039c-.08-.505-.161-.979-.242-1.433h-.555c-.07.444-.151.898-.242 1.433Z" fill="#E8D3D5"/>
    </g>
    <defs>
        <clipPath id="a">
            <path fill="#fff" d="M0 0h43.585v50H0z"/>
        </clipPath>
    </defs>
</svg>
