<svg width="46" height="50" fill="none" xmlns="http://www.w3.org/2000/svg">
    <g clip-path="url(#a)">
        <path d="M45.96 15.72c-.06.211-.121.413-.192.624-.695 2.056-3.164 2.751-4.716 1.25-1.168-1.129-2.196-2.399-3.285-3.608-.13-.15-.262-.302-.503-.594-.04.292-.091.453-.091.625.03 1.632.131 3.254.1 4.877-.03 1.864-1.612 3.154-3.415 2.882-1.905-.283-3.124-2.46-2.328-4.212.413-.918.887-1.794 1.33-2.701-2.156 1.3-4.907 9.401-4.685 13.855.272-.03.544-.08.816-.07 1.058.05 2.106.13 3.164.171.221.01.494-.05.665-.181.705-.545 1.37-1.129 2.066-1.693 1.017-.837 2.378-.766 3.274.15.857.888.847 2.198-.04 3.185-2.509 2.771-5.038 5.542-7.557 8.313-.121.131-.262.262-.413.363-4.112 2.791-8.324 5.421-12.848 7.497-1.24.574-2.51.897-3.89.826-1.138-.06-2.277-.01-3.486-.01 0 .282.01.534 0 .776-.07 1.099-.887 1.935-1.985 1.945-1.985.02-3.96.02-5.945 0A1.985 1.985 0 0 1 .02 47.985C0 42.553 0 37.132.01 31.71c0-1.088.826-1.985 1.924-2.005 1.995-.04 4-.02 5.996 0 .755.01 1.28.433 1.703 1.028.06-.071.12-.111.15-.162.767-1.31 1.946-2.045 3.316-2.62 2.247-.957 4.434-2.065 6.68-3.053 1.22-.534 2.318-.191 2.983.776.696 1.008.605 2.277-.282 3.235-1.773 1.924-3.577 3.829-5.36 5.743-.172.182-.343.363-.605.645.806.08 1.501.161 2.207.212.07.01.191-.161.242-.262 1.36-3.225 3.88-5.099 7.124-6.117.413-.13.534-.302.544-.725.13-4.555 1.179-8.867 3.617-12.767.524-.836 1.139-1.612 1.754-2.469-.696.242-1.35.474-2.006.685-.786.252-1.572.474-2.418.252-1.542-.403-2.56-1.995-2.267-3.607.272-1.492 1.693-2.59 3.255-2.338 1.582.252 3.143.665 4.715 1.008.162.03.333-.01.494-.01-.07-.162-.11-.333-.201-.474-.968-1.35-1.995-2.66-2.913-4.04-.806-1.24-.604-2.852.444-3.78C31.54.485 32.145.283 32.669 0h.907c1.632.443 2.489 1.532 2.66 3.204.14 1.421.312 2.832.483 4.253.02.16.142.302.212.463.121-.1.252-.181.343-.292.1-.11.16-.252.242-.383.816-1.189 1.592-2.408 2.458-3.557.766-1.008 1.844-1.31 3.064-.998a2.997 2.997 0 0 1 2.237 2.57c.16 1.36-.373 2.509-1.572 3.104-1.36.685-2.772 1.27-4.152 1.914-.161.08-.302.222-.443.333.15.1.292.241.453.292 1.451.504 2.922.987 4.373 1.501.806.282 1.36.857 1.703 1.623.141.312.222.665.333.997-.01.222-.01.464-.01.696ZM9.855 45.767c1.119 0 2.157-.06 3.195.01 1.572.12 2.972-.333 4.343-1.018 4.08-2.035 7.89-4.504 11.688-7.013.101-.06.192-.141.262-.232 2.51-2.76 5.019-5.512 7.507-8.293.172-.191.232-.605.162-.867-.162-.584-.806-.654-1.35-.201-2.44 2.066-4.857 4.131-7.306 6.187a2.84 2.84 0 0 1-.947.534c-2.338.776-4.686 1.522-7.034 2.277-.232.07-.494.121-.735.091-1.602-.141-3.205-.302-4.817-.443-.403-.04-.766-.111-.927-.554-.161-.444.09-.726.363-1.018 2.217-2.358 4.433-4.726 6.65-7.094.152-.161.363-.313.414-.494.08-.282.16-.675.02-.877-.151-.231-.534-.383-.827-.413-.272-.02-.584.141-.856.262-1.572.716-3.094 1.552-4.706 2.157-2.056.776-3.688 1.985-4.817 3.869-.15.252-.282.574-.292.867-.02 3.9-.01 7.789-.01 11.688.02.182.02.343.02.575Zm-1.491-5.935v-7.76c0-.725-.11-.836-.857-.836H2.319c-.635 0-.766.131-.766.776v15.67c0 .624.151.765.776.765h5.24c.645 0 .786-.14.786-.806.01-2.6.01-5.2.01-7.81Zm22.46-9.563c-4.15-.584-9.19 1.965-10.338 5.2.09-.01.171-.01.252-.03 2.076-.666 4.152-1.33 6.217-2.006.121-.04.262-.09.353-.181 1.159-.968 2.297-1.945 3.517-2.983ZM43.734 5.895c.02-.837-.353-1.421-.897-1.653-.594-.252-1.29-.14-1.683.403-.917 1.28-1.783 2.61-2.66 3.92-.05.07-.01.202-.01.312.09 0 .191.03.272 0 1.42-.644 2.842-1.28 4.252-1.944.484-.242.716-.686.726-1.038ZM28.376 9.674c-.806-.01-1.22.231-1.471.725-.302.595-.222 1.179.161 1.703.333.453.806.736 1.35.564 1.532-.473 3.054-.997 4.575-1.511.09-.03.151-.151.222-.232-.09-.08-.181-.191-.282-.222-.383-.11-.776-.191-1.17-.282-1.208-.272-2.418-.534-3.385-.745Zm7.124 3.94-.161-.03c-.302.513-.615 1.017-.897 1.54-.514.938-1.028 1.875-1.491 2.842-.313.655-.141 1.28.363 1.794.433.443.957.554 1.521.333.665-.262.867-.837.847-1.502-.04-1.541-.07-3.083-.111-4.615 0-.13-.04-.252-.07-.363Zm3.104-1.22c.01.08 0 .141.02.171 1.169 1.31 2.318 2.65 3.537 3.91.675.695 1.935.232 2.186-.735.202-.776-.16-1.532-.997-1.844-1.461-.535-2.943-1.008-4.414-1.492-.1-.03-.211-.01-.332-.01ZM34.926 7.92c.05-.02.1-.04.161-.06-.04-.413-.06-.816-.11-1.23-.162-1.3-.313-2.6-.515-3.89-.11-.705-.755-1.208-1.41-1.229-.585-.02-1.139.414-1.34 1.028-.162.494-.04.927.251 1.33.645.907 1.29 1.804 1.945 2.7.323.464.675.898 1.018 1.351Zm2.55 2.922c-.02-.816-.656-1.48-1.401-1.48-.736.01-1.32.614-1.31 1.36.01.796.715 1.48 1.491 1.45.695-.03 1.23-.614 1.22-1.33Z" fill="#E8D3D5"/>
    </g>
    <defs>
        <clipPath id="a">
            <path fill="#fff" d="M0 0h45.959v50H0z"/>
        </clipPath>
    </defs>
</svg>
