<svg width="45" height="42" fill="none" xmlns="http://www.w3.org/2000/svg">
    <path d="M8.83 41.13c-.01-.157-.036-.313-.036-.462 0-8.09 0-16.181-.009-24.264 0-.32.097-.57.309-.82.625-.736 1.224-1.494 1.85-2.268.37.243.705.454 1.066.688-.581.712-1.145 1.392-1.683 2.087a.935.935 0 0 0-.203.532c-.008 7.684-.008 15.368-.008 23.052 0 .079.008.157.017.258h22.434v-6.629h1.322v7.372c0 .156.026.305.044.461-8.362-.008-16.733-.008-25.104-.008Z" fill="#A1C982"/>
    <path d="M11.332 6.914a3.58 3.58 0 0 1-.273-2.478c.334-1.368 1.603-2.275 3.34-2.486 1.532-.18 2.907.188 4.21.837.715.36 1.393.774 2.133 1.188V1.129h1.33v2.916c.212-.14.344-.219.468-.297 1.216-.766 2.467-1.454 3.947-1.743a5.92 5.92 0 0 1 3.278.274c1.789.672 2.6 2.47 1.93 4.236-.044.125-.097.243-.159.399 1.78 1 3.401 2.173 4.89 3.541-.317.258-.634.5-.969.766-.405-.336-.828-.735-1.304-1.07A120.917 120.917 0 0 0 30.973 8c-.107-.07-.344-.094-.45-.032-1.674.923-3.428.977-5.181.297-1.049-.406-2-1.016-2.996-1.54-.044-.023-.097-.054-.203-.101v2.994h.485c1.938 0 3.877.008 5.815-.008.282 0 .45.078.608.281 1.569 1.939 3.146 3.862 4.715 5.8a.98.98 0 0 1 .21.571c.01 5.136.01 10.264.01 15.4 0 .117-.018.227-.027.367h-1.295v-.508c0-4.909 0-9.818.009-14.735 0-.32-.097-.57-.309-.82a517.218 517.218 0 0 1-3.973-4.87c-.168-.212-.344-.306-.644-.298-1.735.016-3.462.008-5.198.008h-.45c0 .477-.017.93.018 1.376.009.094.211.21.352.258 1.128.422 1.798 1.164 1.895 2.251.097 1.016-.361 1.845-1.322 2.4-1.013.586-2.08.61-3.12.055-1.021-.54-1.506-1.376-1.427-2.424.08-1.07.723-1.837 1.833-2.235.379-.133.476-.297.45-.618-.027-.336-.01-.672-.01-1.032-.167-.008-.29-.023-.413-.023-1.763 0-3.525.008-5.287-.008-.265 0-.423.07-.582.258-.52.657-1.057 1.305-1.612 1.993-.362-.234-.705-.445-1.075-.68.722-.891 1.418-1.759 2.14-2.603.08-.094.31-.125.468-.125 1.938-.008 3.877-.008 5.815-.008h.52v-3.01c-.51.305-.969.603-1.454.86-1.357.743-2.766 1.322-4.414 1.212-.89-.055-1.745-.234-2.476-.711-.23-.149-.37-.063-.546.039-1.463.797-2.785 1.767-4.018 2.838-.15.125-.274.273-.432.437-.344-.297-.652-.547-.978-.836a25.591 25.591 0 0 1 4.908-3.557Zm1.198-.61c2.097-.969 4.309-1.61 6.705-1.774-.67-.391-1.33-.735-2.026-1.032-.881-.375-1.806-.485-2.784-.352-1.772.227-2.723 1.759-1.895 3.158ZM23.641 4.5c1.163.21 2.326.344 3.437.633 1.128.297 2.203.735 3.295 1.118.608-1.322-.026-2.65-1.471-3.018-2.053-.516-3.684.32-5.26 1.267Zm-2.176 8.95c-.917-.015-1.657.626-1.666 1.43-.008.79.705 1.447 1.595 1.462.908.016 1.666-.633 1.675-1.438.008-.782-.714-1.438-1.604-1.454Zm7.86-6.254c-1.701-.899-5.173-1.641-6.08-1.344 2.106 1.532 4.582 2.095 6.08 1.344Zm-15.826-.007c1.613.774 4.609.078 6.15-1.423-2.202.023-4.185.555-6.15 1.423Z" fill="#A1C982"/>
    <path d="M20.671 30.654c0-.703.01-1.29-.008-1.883 0-.079-.15-.196-.238-.212-2.564-.367-4.089-2.462-3.26-5.174.37-1.212 1.066-2.26 2.264-2.979 1.234-.742 2.652-.727 3.877.016 1.868 1.126 2.908 3.705 2.247 5.62-.476 1.384-1.577 2.19-3.155 2.478-.317.055-.414.157-.396.43.026.493.009.985.009 1.58 2.414-2.158 5.172-2.377 8.247-1.525-1.744 2.994-4.335 4.534-8.238 4.042v1.57h-1.313v-1.563c-3.948.54-6.591-.977-8.354-4.002 1.48-.469 2.952-.602 4.46-.367 1.488.234 2.713.93 3.858 1.97Zm-2.14-7.363c-.098.406-.195.719-.247 1.04-.238 1.477.546 2.65 2.044 2.993.432.102.899.094 1.348.118.652.031.916-.375 1.119-.829.203-.445.106-.875-.317-1.165a4.808 4.808 0 0 0-1.225-.594c-1.005-.312-1.947-.711-2.723-1.563Zm3.99 8.583c1.895.453 4.6-.555 5.57-2.064-1.816-.477-4.635.563-5.57 2.064Zm-2.51.023c-.75-1.43-3.983-2.618-5.552-2.032 1.34 1.626 3.79 2.525 5.552 2.032Zm1.357-8.278c1.912.665 2.194.876 2.846 2.15.502-.946.026-2.58-.617-3.37-.053-.062-.238-.07-.344-.046-.81.187-1.357.672-1.886 1.266Zm-1.296-.602c.767-.594 1.49-1.165 2.203-1.72-.564-.367-1.33-.36-2.08.07-1.04.58-1.057 1.017-.123 1.65ZM18.002 37.424v-1.118h1.278v1.118h-1.278ZM20.645 37.432v-1.118h1.278v1.118h-1.277ZM23.314 36.283H24.575v1.149h-1.26v-1.15Z" fill="#A1C982"/>
</svg>
