<svg width="49" height="50" fill="none" xmlns="http://www.w3.org/2000/svg">
    <g clip-path="url(#a)" fill="#E8D3D5">
        <path d="M0 48.535h3.357C2.704 38.25 2.06 28.033 1.405 17.757h2.06c-.82-3.184-.918-6.329-.127-9.533 2.089 1.66 3.65 3.663 4.977 5.91v-1.29c0-1.143-.01-2.275.01-3.418.01-.352-.058-.577-.458-.557-.079 0-.157-.03-.235-.049-2.684-.606-3.777-2.334-3.152-5 .302-1.27.878-2.404 1.64-3.517.36.156.731.264 1.063.459.44.264.771.176 1.113-.166C8.52.39 8.784.215 9.057 0c.322.254.654.479.947.752.244.225.459.235.742.088.39-.195.8-.352 1.19-.518.05.03.088.04.098.059.38 1.084 1.405 1.377 2.284 1.846.117.068.341.03.468-.04.371-.204.713-.448 1.123-.712.302.283.615.566.907.87.196.204.381.243.645.146.42-.157.859-.284 1.347-.44.888 1.729 1.63 3.477 1.288 5.49-.254 1.474-1.503 2.54-3.23 2.813-.352.058-.703.088-1.123.136-.107 2.403-.508 4.786-.38 7.219.585-1.632 1.014-3.302 1.912-4.845.43.224.83.45 1.181.635-.517 1.426-1.025 2.803-1.561 4.268 1.054 0 1.961.01 2.869-.01.098 0 .254-.136.293-.244.917-2.373 1.21-4.845.917-7.443-.556.713-1.113 1.426-1.698 2.169-.38-.254-.761-.498-1.171-.772a17.84 17.84 0 0 1 3.962-4.405c.869 3.643.693 7.17-.517 10.695h1.874c-.654 10.276-1.298 20.512-1.952 30.768h6.032c0-.156.01-.313 0-.469-.352-5.606-.713-11.203-1.064-16.81-.254-3.995-.508-7.99-.771-11.984-.01-.137-.04-.323-.127-.4-1.337-1.124-1.347-2.58-1.025-4.113.01-.049.03-.098.04-.137.526-1.64.253-1.396 1.932-1.182 1.044.137 2 .557 2.742 1.338.361-.195.722-.36 1.035-.576.117-.078.205-.322.185-.459-.185-1.025-.41-2.032-.615-3.028-.351 0-.624.01-.898 0-1.249-.058-2.205-.644-2.781-1.719-1.025-1.895-1.132-3.897-.303-5.88.693-1.64 2.225-2.168 3.777-1.28 1.982 1.143 3.163 2.882 3.358 5.187.107 1.28-.478 2.256-1.542 2.96-.098.058-.186.127-.264.175.264 1.173.527 2.325.8 3.527.606-.264.752.224.937.634.498 1.065.8 2.169.576 3.38.098.02.186.04.283.049.078.01.156-.01.264-.02.02-.293.03-.566.058-.83.108-.85.488-1.563 1.181-2.051.352-.244.479-.518.479-.918 0-.303.039-.616.058-.909-2.391-1.113-3.084-2.461-2.528-4.962.313-1.396.918-2.647 2.01-3.604 1.26-1.103 2.714-1.006 3.837.254.605.674 1.073 1.7 1.239 2.696-.449.098-.908.205-1.308.293-.283-.615-.498-1.22-.83-1.748-.624-.997-1.395-1.055-2.186-.186-1.063 1.172-1.571 2.569-1.415 4.161.078.742.488 1.3 1.21 1.495a4.57 4.57 0 0 0 1.581.156c.86-.078 1.416-.694 1.591-1.612.059-.303.088-.605.137-.938h1.357c.175 1.7-.713 3.78-3.23 4.083-.01.225-.03.46-.05.733.147-.03.234-.049.322-.069 1.25-.224 1.006-.332 1.533.801.458.977.654 2.003.468 3.136.156.01.283.03.478.039-.136-.996.079-1.885.615-2.676.498-.743 1.006-1.495 1.933-1.905.117-1.084.244-2.227.341-3.38.01-.107-.097-.293-.185-.312-1.972-.586-2.743-2.52-2.274-4.67.293-1.367.859-2.597 1.864-3.584 1.415-1.397 3.172-1.26 4.285.39 1.132 1.671 1.483 3.537.976 5.5-.41 1.573-1.503 2.422-3.163 2.569-.156 1.475-.331 2.95-.468 4.415-.03.332.156.38.478.263a40.274 40.274 0 0 1 2.177-.683c.302-.088.497.01.654.322.507 1.036.868 2.1.751 3.282-.02.176-.02.371-.097.527-.645 1.221-.46 2.57-.586 3.859-.078.771-.108 1.553-.156 2.373l-1.445-.088c.049-.83.088-1.602.137-2.373l.146-2.315H27.123c.615 9.719 1.23 19.427 1.854 29.166h15.197c.488-7.619.966-15.248 1.454-22.934.478.029.927.058 1.454.097-.488 7.648-.966 15.277-1.454 22.944h2.577v1.485H-.01c.01-.498.01-.987.01-1.475Zm20.008-.117c.615-9.748 1.23-19.447 1.854-29.166H2.967c.615 9.738 1.23 19.437 1.854 29.166h15.187ZM13.4 3.34c-.605.928-1.054 1.798-1.24 2.794-.165.918.138 1.65.928 2.12 1.376.82 2.84.957 4.343.41.586-.215 1.045-.606 1.2-1.25.303-1.27-.116-2.423-.595-3.644-.927.567-1.698.528-2.274-.537-.78.908-1.561.87-2.362.107Zm-2.05-1.21c-.819.644-1.61.624-2.293-.362-.683 1.035-1.483.967-2.332.332-.508 1.016-.928 1.973-.967 3.047-.029.83.332 1.446 1.054 1.827.313.166.654.303.996.38.976.235 1.942.235 2.899-.116-.166-1.338.195-2.51.83-3.585.35-.586.224-1.016-.186-1.524Zm35.01 3.457c-.049-1.123-.264-2.159-.879-3.077-.644-.947-1.366-1.025-2.166-.195-1.005 1.055-1.493 2.344-1.503 3.8-.01 1.025.488 1.67 1.376 1.953 1.688.537 2.86-.186 3.123-1.924.03-.196.04-.39.049-.557ZM26.684 5.48c.058.937.302 2.05.673 2.715.38.674.947 1.113 1.738 1.016a4.57 4.57 0 0 0 1.551-.489c.625-.312.898-.898.889-1.611-.02-1.465-1.416-3.536-2.772-4.093-.674-.273-1.21-.137-1.503.528-.254.605-.381 1.28-.576 1.934ZM8.08 17.748c-.732-2.51-2-4.62-3.738-6.476-.068.332-.058.654-.068.967-.04 1.729.136 3.438.624 5.098.05.157.235.391.371.391.908.04 1.816.02 2.811.02Zm4.236-7.482a310.472 310.472 0 0 1 1.737 3.057c.078-1.035.166-2.012.235-2.882-.791-.39-1.61-.605-2.167-1.123-.634-.576-1.19-.693-1.962-.45-.302.099-.38.196-.38.49.01.878.01 1.758.01 2.636v3.634c.663-1.836 1.395-3.624 2.527-5.362Zm.117 2.92c-.663 1.123-1.493 3.75-1.474 4.542h3.006c-.507-1.514-1.005-2.97-1.532-4.542Zm15.528 4.562c.05-.43.069-.82.147-1.192.146-.733.088-.948-.605-1.27-.46-.215-.957-.342-1.464-.518-.235.753-.381 1.427-.137 2.081.127.342.42.742.732.86.39.156.888.039 1.327.039Zm7.623.01c.703 0 1.376-.02 2.06.01.311.009.448-.128.487-.401a3.539 3.539 0 0 0-.341-2.1c-1.66.38-2.382 1.181-2.206 2.49Zm-6.042 0c.664 0 1.347-.02 2.02.01.352.019.46-.157.508-.44.117-.733-.048-1.407-.341-2.061-1.64.341-2.44 1.23-2.187 2.49Zm16.69-2.482c-1.542.313-2.089.87-2.07 2.472.616 0 1.23-.02 1.836.01.39.019.517-.167.556-.499.088-.693-.039-1.348-.322-1.983Zm-3.66 2.462c.137-.586.224-1.114.38-1.622.215-.693.235-.683-.556-1.113-.292.586-.663 1.152-.868 1.768-.244.742.01.996.77.986.098-.01.196-.01.274-.02Z"/>
        <path d="M41.645 30.162h-10.15v-7.277h10.15v7.277Zm-1.464-1.465V24.36H32.96v4.337h7.222ZM17.51 30.162H7.35v-7.277h10.16v7.277Zm-8.706-5.831v4.346h7.232v-4.346H8.804Z"/>
        <path d="M38.532 25.825v1.387h-3.855v-1.387h3.855ZM14.338 27.222h-3.826v-1.406h3.826v1.406Z"/>
    </g>
    <defs>
        <clipPath id="a">
            <path fill="#fff" d="M0 0h48.214v50H0z"/>
        </clipPath>
    </defs>
</svg>
