<svg width="42" height="40" fill="none" xmlns="http://www.w3.org/2000/svg">
    <path d="M28.059 0c.277.195.505.414.367.78-.139.36-.448.4-.799.4-6.927 0-13.855-.009-20.774 0-2.69 0-4.906 1.717-5.477 4.216-.081.367-.122.75-.122 1.124-.008 8.98-.008 17.952 0 26.932 0 2.999 2.445 5.357 5.575 5.365 9.372.008 18.736.008 28.109 0 3.13 0 5.59-2.35 5.59-5.349.008-8.98.008-17.952 0-26.932 0-2.999-2.453-5.341-5.582-5.357a340.337 340.337 0 0 0-3.994 0c-.342 0-.66-.031-.798-.39-.147-.367.09-.586.358-.781h5.216c.073.023.147.062.228.07 3.31.46 5.795 3.155 5.803 6.364.016 9.043.016 18.085 0 27.127-.008 3.53-3.016 6.411-6.7 6.42-9.437.015-18.874.015-28.312 0-3.056 0-5.697-2-6.487-4.834-.09-.313-.155-.625-.228-.937C.023 24.73.023 15.25.023 5.778c.025-.07.066-.14.074-.218C.497 2.944 2.509.812 5.19.187c.286-.07.58-.125.864-.187H28.06Z" fill="#A1C982"/>
    <path d="M20.887 37.638H6.91c-2.11 0-3.863-1.234-4.278-3.163-.204-.929-.13-1.913-.139-2.873 0-.32.277-.5.62-.492.326 0 .562.25.57.593.016.547 0 1.094.008 1.64.008 1.843 1.329 3.116 3.252 3.116h27.873c1.947 0 3.268-1.273 3.268-3.14V6.654c0-1.874-1.32-3.14-3.268-3.14H6.943c-1.923 0-3.252 1.274-3.252 3.117V28.61c0 .601-.187.882-.595.898-.424.008-.627-.281-.627-.906V6.622c0-2.046 1.304-3.678 3.317-4.147A5.324 5.324 0 0 1 6.95 2.35c9.291-.007 18.582-.007 27.873-.007 2.6 0 4.482 1.788 4.482 4.27.008 8.918.008 17.828 0 26.746 0 2.483-1.882 4.271-4.482 4.271-4.646.008-9.291.008-13.936.008Z" fill="#A1C982"/>
    <path d="M11.98 5.208c3.57.016 6.47 2.835 6.462 6.279-.008 3.326-3.015 6.168-6.52 6.16-3.561-.015-6.462-2.834-6.454-6.285.008-3.342 2.999-6.17 6.511-6.154ZM7.627 14.4c2.648-2.311 5.191-4.537 7.815-6.825-.546-.296-1.035-.57-1.532-.812-.081-.039-.26.024-.342.094-2.184 1.898-4.36 3.795-6.528 5.7-.074.07-.139.235-.106.32.204.492.44.969.693 1.523Zm.863.836c.343.218.612.406.905.57.71.39.71.382 1.296-.133.122-.11.244-.21.358-.312 1.907-1.664 3.815-3.327 5.713-4.998.106-.094.237-.304.196-.398-.195-.5-.44-.984-.693-1.523-2.624 2.296-5.167 4.521-7.775 6.794Zm3.758-8.816c-3.016-.219-5.559 2.256-5.51 4.81 1.842-1.6 3.643-3.178 5.51-4.81Zm-.604 10.01c3.212.188 5.567-2.412 5.518-4.817-1.842 1.6-3.651 3.178-5.518 4.818Z" fill="#A1C982"/>
    <path d="M20.275 19.412V7.816c0-.632.196-.905.628-.897.416.007.595.273.595.89v11.596H33.6c.652 0 .921.164.93.57.008.413-.278.6-.938.6H21.506v11.526c0 .172 0 .344-.033.508-.057.297-.268.445-.578.445-.31 0-.522-.148-.579-.445-.032-.164-.032-.336-.032-.508V20.577H8.279c-.18 0-.359 0-.53-.024-.326-.054-.497-.265-.489-.577.008-.313.187-.508.513-.555.147-.023.302-.015.449-.015h11.532c.155.007.31.007.521.007Z" fill="#A1C982"/>
    <path d="M27.049 5.45c.652-.015 1.36.164 2.013.508.211.11.366.125.586.008 2.812-1.421 6.105.265 6.48 3.295.244 1.937-.49 3.545-1.777 4.966-1.166 1.289-2.616 2.218-4.19 2.983-.496.242-1.034.281-1.531.04-1.956-.953-3.741-2.117-4.98-3.913-1.076-1.554-1.467-3.233-.815-5.044.636-1.726 2.266-2.835 4.214-2.843Zm-.106 1.172c-1.345-.016-2.494.796-2.95 2.108-.514 1.468-.131 2.803.741 4.03 1.1 1.538 2.657 2.545 4.352 3.373.171.086.505.047.677-.063.888-.523 1.8-1.023 2.607-1.647 1.353-1.047 2.405-2.32 2.56-4.06.122-1.36-.31-2.546-1.549-3.312-1.198-.734-2.412-.539-3.561.164-.335.203-.612.203-.938-.008a3.525 3.525 0 0 0-1.94-.585ZM30.83 33.96c-2.2-.078-4.181-1.296-5.705-3.264-.954-1.226-1.532-2.6-1.549-4.154-.024-2.968 2.584-5.178 5.665-4.818 3.414.406 6.56 3.334 7.074 6.606.489 3.092-1.793 5.638-5.485 5.63Zm.146-1.14c2.584-.008 4.206-1.593 4.165-3.772-.049-2.96-3.17-6.02-6.26-6.145-2.346-.094-4.058 1.374-4.107 3.56-.032 1.695.758 3.062 1.932 4.248 1.255 1.234 2.73 2.046 4.27 2.109ZM14.54 22.24c1.41.077 2.795.796 3.528 2.373.725 1.57.465 3.085-.758 4.342a86.036 86.036 0 0 1-4.083 3.92c-1.638 1.483-4.213 1.39-5.81-.149-1.574-1.507-1.639-3.959-.082-5.528 1.336-1.351 2.722-2.647 4.115-3.944.742-.703 1.68-1.03 3.09-1.015Zm-7.108 7.855c.05 1 .595 1.905 1.753 2.397 1.173.5 2.306.344 3.243-.515a149.276 149.276 0 0 0 3.977-3.803c1.117-1.11 1.06-2.858-.065-3.944-1.14-1.093-2.983-1.14-4.148-.054-1.329 1.234-2.624 2.49-3.92 3.748-.554.547-.831 1.21-.84 2.17Z" fill="#A1C982"/>
    <path d="M33.21 27.573c.008.577-.18.968-.514 1.296-.359.351-.725.703-1.092 1.054-.09.086-.204.156-.245.258-.065.164-.073.351-.114.53.196-.03.424-.007.579-.109.244-.156.424-.398.644-.593.285-.25.627-.266.88-.04.253.227.253.586-.016.867-.22.227-.449.453-.693.657-.48.405-1.043.57-1.663.39-1.084-.313-1.36-1.609-.537-2.491.39-.414.823-.797 1.23-1.195.106-.101.228-.21.269-.336.04-.117.033-.312-.04-.382-.074-.07-.278-.055-.4-.016-.13.047-.245.164-.35.266-.408.382-.8.78-1.223 1.148-.676.585-1.573.624-2.192.132-.742-.601-.815-1.6-.139-2.319.35-.375.742-.726 1.117-1.085.073-.07.163-.14.228-.227.18-.203.375-.421.098-.68-.253-.233-.481-.062-.677.11-.203.172-.375.383-.587.547-.13.101-.301.203-.456.218-.448.04-.807-.5-.538-.843.4-.5.84-1 1.5-1.218.717-.234 1.426.016 1.858.617.383.539.342 1.32-.163 1.89-.367.413-.79.788-1.19 1.179-.106.101-.26.195-.293.312-.05.172-.017.375-.017.562.196-.008.4.024.579-.031.13-.039.22-.18.326-.281.407-.383.79-.797 1.23-1.14.938-.734 2.193-.422 2.519.601.057.148.073.305.081.352Z" fill="#A1C982"/>
</svg>
