<svg width="57" height="50" fill="none" xmlns="http://www.w3.org/2000/svg">
    <g clip-path="url(#a)" fill="#B3686F">
        <path d="M28.082 0h.44c1.311.186 2.424.703 3.095 1.738.353.537.661.606 1.322.469 2.39-.498 4.483.723 4.78 2.783.1.684-.066 1.397-.11 2.1.055-.01.176-.03.297-.059.937-.215 1.08-.136 1.421.674.232.557.463 1.104.716 1.7.386-.645.694-1.25 1.08-1.807 1.42-2.09 3.249-3.897 5.154-5.635.727-.684 1.52-1.309 2.291-1.963h.44c.607.459.629.742.067 1.24-.154.137-.32.274-.474.41-1.982 1.7-3.855 3.487-5.452 5.479-.308.39-.595.8-.892 1.201.187.01.287-.039.386-.107 2.357-1.621 4.934-2.881 7.82-3.565 1.376-.322 2.797-.469 4.218-.644.231-.03.584.166.75.351.23.274.043.557-.221.772-.132.107-.265.224-.408.332-2.687 2.138-5.121 4.482-7.126 7.148-.66.87-1.233 1.787-1.806 2.617.66.557 1.233 1.036 1.817 1.524.386-.371.793-.781 1.234-1.172 1.85-1.64 3.954-3.008 6.08-4.346.66-.42.925-.39 1.398.186v.293c-.231.205-.451.42-.694.596-1.773 1.26-3.557 2.5-5.32 3.76-.385.273-.704.624-1.145 1.034.397 0 .628-.01.86 0 1.541.088 2.742.674 3.436 1.934.506.928.484 1.914.198 2.9-.044.147 0 .44.099.479 1.366.605 2.192 1.582 2.577 2.871v.879c-.253 1.035-.804 1.904-1.806 2.53-.308.194-.639.36-.98.556.055.185.11.361.165.527.485 1.582-.066 3.145-1.344 4.004-.231.156-.451.43-.517.674a2072.746 2072.746 0 0 0-3.03 11.787c-.275 1.065-.528 2.129-.847 3.174-.067.224-.397.459-.65.537-.166.049-.518-.166-.628-.342-.11-.166-.066-.45-.011-.664.727-2.88 1.476-5.762 2.225-8.652.495-1.934.991-3.858 1.476-5.772-.804-.107-1.575-.205-2.39-.312-.044.078-.122.185-.188.293-1.09 1.806-3.304 2.646-5.33 1.787-.089-.04-.22-.069-.309-.04-1.068.323-2.126.655-3.293 1.016.815.04 1.509.078 2.203.118.87.048 1.134.332.925 1.064-1.047 3.623-2.104 7.236-3.161 10.85-.143.508-.496.752-.903.644-.43-.107-.595-.44-.452-.947.54-1.875 1.08-3.74 1.63-5.615.452-1.573.903-3.135 1.377-4.766-1.046-.058-2.027-.117-3.007-.166-.132-.01-.275.078-.396.146-1.223.782-2.567.919-3.977.547-.495-.136-.705-.039-.958.372-1.586 2.558-5.022 2.89-7.082.712-.341-.351-.595-.771-.881-1.162-1.564.332-2.28.39-3.029.235-1.883-.391-3.084-1.67-3.238-3.389-.011-.166-.088-.42-.22-.478-.595-.274-1.234-.48-1.862-.723-.947 1.23-2.148 2.031-3.899 1.904-1.762-.137-2.809-1.133-3.568-2.412l-1.51.313c.034.146.045.293.089.43 1.035 3.71 2.07 7.411 3.095 11.122.286 1.006.561 2.022.826 3.028.12.468-.088.82-.518.869-.496.058-.738-.196-.837-.596-.022-.107-.066-.225-.1-.332-1.32-4.766-2.654-9.521-3.975-14.287-.077-.283-.232-.42-.551-.518-1.245-.41-2.005-1.21-2.324-2.353-.242-.88-.088-1.739.198-2.608-1.597-.644-2.566-1.69-2.852-3.203v-.39c.209-1.319.936-2.354 2.247-2.998.462-.225.528-.42.396-.86-.837-2.793 1.31-4.97 4.527-4.639.187.02.363.05.639.079-.32-.498-.573-.938-.87-1.338-1.542-2.13-3.48-3.975-5.475-5.762-.495-.45-.98-.918-1.464-1.377V8.4c.583-.48.87-.528 1.343-.088 1.531 1.406 3.095 2.783 4.527 4.257 1.157 1.211 2.137 2.55 3.194 3.848.165-.156.386-.4.661-.586.287-.195.32-.38.198-.664-.506-1.172-.936-2.363-1.487-3.506C6.505 7.744 4.05 4.121.414 1.22.26 1.095.14.929-.004.782V0h.99c.1.068.2.137.298.195 5.133 2.578 9.704 5.762 13.69 9.61.078.078.166.136.254.205.044-.02.077-.04.121-.059-.517-.937-1.002-1.904-1.575-2.812-1.387-2.207-3.205-4.112-5.231-5.87C7.926.733 7.98.4 8.697 0h.33c.121.088.265.176.375.273 2.808 2.403 5.187 5.088 6.774 8.282.165.332.319.674.506 1.074A4.12 4.12 0 0 1 18.4 7.627c.727-.45.738-.43.562-1.22-.54-2.471 1.3-4.376 4.13-4.249.485.02.97.137 1.476.225C25.284 1.045 26.441.234 28.082 0Zm6.047 20.87c.033-.157.066-.284.088-.411.43-2.12 2.225-3.389 4.637-3.271.462.019 1.013.273 1.365.127.364-.147.53-.674.826-.997.199-.215.199-.38.1-.615-.44-1.045-.87-2.1-1.311-3.154-.584-1.416-1.179-2.832-1.773-4.268l-21.07 5.205c1.189 2.598 2.357 5.147 3.535 7.715 1.267-.39 2.467-.283 3.657.069.11-.186.198-.332.286-.47 1.057-1.708 3.051-2.538 4.979-2.03 1.266.332 2.158 1.084 2.753 2.1.187.312.353.38.716.253.364-.127.771-.166 1.212-.254Zm-16.995-3.731a405.953 405.953 0 0 0-1.608-3.506c-.199-.41-.309-.801.154-1.143C12.64 9.121 9.104 6.3 5.117 3.887c2.809 3.408 4.824 7.158 6.223 11.152 2.005-.293 3.448.41 4.417 1.846.32.478.606.556 1.112.351.066-.02.133-.039.265-.097ZM31.21 29.336c.848-.215 1.652-.39 2.434-.615 1.96-.557 3.216-1.69 3.646-3.496.374-1.582-.804-3.018-2.534-3.057-1.839-.04-3.326.654-4.196 2.07-.595.967-.848 2.1-1.223 3.164-.033.088.055.284.133.313.826.293 1.354.85 1.74 1.62Zm-3.8 3.34c-.815-.303-1.443-.762-1.806-1.485-.044-.078-.32-.127-.463-.097-.694.146-1.388.293-2.07.488-1.917.557-3.206 1.65-3.646 3.447-.43 1.778.936 3.262 2.94 3.125 1.664-.107 2.974-.81 3.811-2.09.683-1.035 1.014-2.187 1.234-3.388Zm-8.073-7.647c.165 1.358.99 2.676 2.775 3.37.97.37 2.005.585 3.018.869.275.078.43.01.55-.235.265-.556.728-.976 1.355-1.22.309-.118.353-.284.276-.538-.187-.605-.342-1.23-.562-1.826-.65-1.738-1.938-2.88-4.01-3.222-1.893-.323-3.48.85-3.402 2.802Zm9.945 7.647c.232.752.43 1.494.694 2.207.617 1.64 1.818 2.754 3.767 3.154 2.115.43 3.734-.752 3.602-2.646-.088-1.368-.837-2.451-2.126-3.194-1.212-.693-2.6-1.006-4.053-1.21-.309.82-.958 1.337-1.884 1.689ZM52.61 5.508c-.11 0-.143-.01-.176 0-4.438.84-8.161 2.812-11.366 5.615-.11.098-.166.352-.11.498.407 1.055.858 2.11 1.288 3.164.066.156.132.322.187.45.606-.098 1.146-.167 1.675-.284.198-.039.44-.156.528-.293 1.454-2.51 3.337-4.746 5.474-6.816.815-.791 1.652-1.543 2.5-2.334ZM11.296 23.232c-.176-.537-.352-1.22-.606-1.875-.65-1.709-1.95-2.763-4.009-2.959-1.41-.136-2.5.616-2.764 1.846-.177.81.088 1.543.528 2.236 1.124 1.797 3.15 2.1 4.935 2.48.66-.605 1.222-1.112 1.916-1.728Zm-1.73 3.399c-.759.185-1.475.342-2.169.537-2.104.596-3.392 1.982-3.491 3.71-.066 1.212.76 2.15 2.103 2.354 1.575.235 3.569-.654 4.263-2.03.44-.87.694-1.808 1.013-2.716.033-.097-.044-.312-.132-.341-.738-.313-1.223-.82-1.586-1.514Zm40.28 6.592c1.63.039 2.742-.908 2.687-2.344-.066-1.465-.848-2.608-2.302-3.262-.947-.43-2.026-.635-3.062-.918-.132-.039-.363.108-.495.225-.43.361-.804.781-1.267 1.103-.22.157-.32.284-.242.508.187.596.33 1.201.562 1.777.76 1.797 2.29 2.862 4.119 2.91Zm-4.912-9.844c.87.322 1.398.742 1.762 1.338.066.107.33.195.473.166a22.8 22.8 0 0 0 2.005-.479c1.784-.537 2.94-1.601 3.282-3.271.33-1.572-.87-2.832-2.676-2.754-1.63.078-2.93.762-3.646 2.07-.496.918-.793 1.924-1.2 2.93ZM27.377 7.989c-.154-.489-.33-1.143-.573-1.768-.54-1.426-1.586-2.403-3.271-2.764-1.95-.42-3.569.781-3.216 2.461a4.56 4.56 0 0 0 .958 1.924c1.08 1.28 2.787 1.504 4.263 1.816.638-.566 1.167-1.054 1.839-1.67Zm8.228 12.968c.01.01.022.03.033.04 1.729.478 2.786 1.483 3.062 3.105.021.117.198.273.33.312.782.225 1.575.41 2.18.566l1.95-1.757c-.176-.537-.374-1.24-.628-1.924-.44-1.201-1.3-2.09-2.62-2.598-2.005-.771-4.22.166-4.307 2.256Zm.892-15.293c-.044-.02-.089-.03-.133-.049.034-1.465-1.189-2.45-2.83-2.265-.837.097-1.575.4-2.236.869-1.09.771-1.432 1.885-1.806 2.988-.188.557-.375 1.104.517 1.338.044.01.077.078.133.088.23.049.473.166.682.127a229.56 229.56 0 0 0 4.494-1.104c.154-.039.364-.136.419-.254.275-.566.506-1.152.76-1.738ZM13.213 23.437c.738.264 1.277.694 1.64 1.319.045.088.276.166.386.137a39.75 39.75 0 0 0 2.368-.596c.166-.049.353-.244.386-.4.165-.723.529-1.338 1.08-1.885.076-.078.164-.235.131-.323a316.096 316.096 0 0 0-1.509-3.32c-2.621.42-3.976 1.953-4.482 5.069Zm15.111 2.247c.573-1.612 1.322-2.96 2.853-3.829-.606-1.142-1.443-1.992-2.919-1.972-1.432.02-2.247.869-2.842 1.992 1.575.85 2.324 2.207 2.908 3.809Zm9.351 1.904c-.98 1.387-2.511 2.031-4.295 2.549 1.806.488 3.326 1.162 4.317 2.5 1.355-.45 2.247-1.446 2.27-2.49.01-1.055-.871-2.07-2.292-2.56ZM28.368 34.6c-.55 1.61-1.3 2.959-2.82 3.828.485 1.23 1.653 2.021 2.897 2.002 1.19-.02 2.368-.87 2.765-2.022-1.52-.85-2.27-2.207-2.842-3.808Zm-9.35-6.934c-1.455.488-2.336 1.553-2.27 2.646.066 1.036 1.069 2.08 2.302 2.383.936-1.347 2.456-1.992 4.24-2.52-1.795-.527-3.304-1.152-4.273-2.509Zm-4.164-9.629c-.573-1.191-1.586-1.855-2.72-1.816-1.058.039-2.082.771-2.501 1.836 1.388.761 2.07 1.992 2.621 3.418.53-1.436 1.212-2.637 2.6-3.438Zm38.087 10.03c1.233-.401 2.048-1.348 2.015-2.364-.033-.957-.903-1.904-2.081-2.226-.86 1.22-2.236 1.816-3.79 2.304 1.83.674 2.28.674 3.856 2.285Zm-49.575.058c.639-.508 1.167-1.016 1.795-1.387.65-.38 1.4-.625 2.126-.947-1.531-.42-2.897-1.064-3.81-2.285-1.157.498-2.017 1.172-2.017 2.334 0 1.172.86 1.836 1.906 2.285Zm40.742-6.63c.54-1.427 1.211-2.657 2.588-3.438-.419-1.094-1.487-1.836-2.6-1.836-1.101 0-2.191.761-2.588 1.845 1.355.762 2.06 1.954 2.6 3.428Zm2.72 12.089c-1.432-.781-2.104-2.012-2.632-3.33-.375.674-.64 1.328-1.069 1.885-.418.556-.991 1.025-1.542 1.572.496.898 1.223 1.66 2.523 1.68 1.354.02 2.114-.762 2.72-1.807Zm-34.552-3.408c-.506 1.416-1.222 2.637-2.599 3.437.55 1.006 1.289 1.748 2.577 1.787 1.168.03 1.928-.595 2.49-1.435.165-.254.11-.381-.133-.606a17.073 17.073 0 0 1-1.707-1.875c-.275-.361-.396-.83-.628-1.308ZM30.747 2.89c-.462-.88-1.178-1.602-2.434-1.602-1.255.01-1.971.723-2.478 1.719 1.31.722 1.971 1.875 2.467 3.135.341-.616.584-1.211.98-1.729.386-.518.926-.967 1.465-1.523Zm-17.48 25.293c.463 2.666 1.52 4.277 3.536 4.794-1.013-.85-1.52-1.835-1.465-2.998.067-1.171.76-2.07 1.862-2.87-.75-.167-1.355-.313-1.972-.43-.11-.02-.32.049-.352.127-.32.654-.903 1.074-1.608 1.377Zm6.62-19.873c-.275.136-.517.244-.749.38-1.112.664-1.476 1.866-.87 2.813.154.234.297.303.606.225 1.333-.352 2.676-.664 4.02-.997.198-.048.408-.107.75-.205-1.587-.459-2.887-1.054-3.757-2.216Zm21.555 18.34c-.639.146-1.223.273-1.85.42 2.29 2.284 2.357 3.515.275 5.927 1.013-.42 1.817-.908 2.214-1.728.43-.89.727-1.836 1.057-2.754.044-.108-.044-.342-.154-.391-.705-.313-1.19-.791-1.542-1.475Zm-11.499 3.495c0-.752-.727-1.406-1.586-1.406-.859 0-1.586.635-1.597 1.397-.01.79.716 1.425 1.608 1.416.87-.01 1.575-.645 1.575-1.407Zm14.208-3.066c.771 0 1.443-.605 1.432-1.28-.01-.663-.704-1.279-1.453-1.279-.76 0-1.421.606-1.421 1.29 0 .703.65 1.27 1.442 1.27Zm-30.443-1.26c.011-.674-.672-1.289-1.42-1.299-.739-.01-1.454.616-1.465 1.27-.011.674.66 1.28 1.431 1.28.771.019 1.443-.567 1.454-1.25Zm26.567 8.389c-.551.117-1.08.234-1.587.332.044.498.078.938.122 1.436.76-.215 1.498-.43 2.258-.645-.298-.4-.54-.762-.793-1.123Zm-22.271-8.682c-.276.078-.485.147-.86.254.42.127.662.205.992.313a10.532 10.532 0 0 1-.132-.567Z"/>
        <path d="M23.324 17.383c-.154-.137-.474-.303-.518-.508-.044-.205.165-.488.33-.684.089-.107.331-.127.507-.166l11.08-2.812c.122-.03.243-.068.375-.088.419-.068.738.059.87.42.132.371-.077.644-.462.762-.64.195-1.3.341-1.95.507-3.183.801-6.366 1.612-9.56 2.413-.176.039-.353.078-.672.156Z"/>
    </g>
    <defs>
        <clipPath id="a">
            <path fill="#fff" transform="translate(-.004)" d="M0 0h56.393v50H0z"/>
        </clipPath>
    </defs>
</svg>
