<svg width="57" height="50" fill="none" xmlns="http://www.w3.org/2000/svg">
    <g clip-path="url(#a)" fill="#B3686F">
        <path d="M-.005 20.601c.232-.02.474-.04.772-.069v-9.607h1.642v9.588h17.61V6.18H2.432v3.215H.811V4.671h3.438c-.088-.676-.308-1.323-.231-1.94C4.172 1.504 4.9.553 6.288.22c1.488-.363 2.766.098 3.758 1.107.485.5.838 1.098 1.224 1.628.341-.48.66-1.01 1.058-1.49C13.01.642 13.97.21 15.094.123c2.325-.187 4.055 1.98 3.25 4.019-.054.147-.132.294-.22.51h3.56v15.9h1.51v1.48h-5.742v1.206c0 .353.309.255.518.265 1.95.01 3.89 0 5.841 0 1.356 0 2.722-.02 4.078.02 1.333.048 2.292.666 2.821 1.744.529 1.079.342 2.108-.474 3.04-.463.519-1.08.813-1.785.999-.188.049-.353.196-.53.294-.032.02-.043.05-.065.078-.596.706-1.4 1.353-1.709 2.147-.297.794-.088 1.745-.099 2.628-.01.637.011 1.274 0 1.911-.01.275.1.373.419.373 2.59-.01 5.18 0 7.77-.02.154 0 .396-.167.462-.294.904-1.98 1.786-3.97 2.656-5.96.078-.177.1-.383.1-.569.01-1.049 0-2.088 0-3.166h1.675c-.177 1.725.275 3.45-.573 5.146-1.19 2.383-2.193 4.843-3.274 7.264-.066.147-.12.304-.209.54h2.127c.672-.01 1.499.176 1.995-.089.496-.274.683-1 .98-1.539a477.135 477.135 0 0 0 2.844-5.136c.11-.216.165-.461.187-.697.309-2.51-.495-4.891-1.047-7.293-.242-1.059-.506-2.108-.738-3.166-.066-.314-.22-.432-.584-.422-.551.03-1.102.01-1.72.01v3.843h-1.641v-3.814h-1.885c-.022-.196-.044-.333-.044-.47 0-1.54 0-3.069-.011-4.608 0-.313.066-.46.463-.5 3.13-.362 6.26-.754 9.379-1.137.176-.02.363-.029.584-.049v6.715h-2.888c.485 3.54 2.094 6.853 1.807 10.46 3.759-.402 6.877.569 9.28 3.137 1.664 1.774 2.325 3.853 2.193 6.215h-1.774c-.298 2.01-1.3 3.627-3.13 4.96h4.937v1.432c-.132.01-.275.039-.408.039H-.005v-1.47h7.307c-.022-.079-.022-.118-.044-.128-1.587-1.196-2.568-2.696-2.887-4.539-.022-.108-.254-.255-.397-.264-.485-.03-.97-.01-1.477-.01 0-1.647-.044-3.216.011-4.774.055-1.667.816-3.118 2.171-4.255.694-.588 1.543-1.03 2.359-1.578 0 .078.01.059 0 .04-1.389-2.765-2.778-5.54-4.177-8.304-.055-.108-.265-.225-.408-.235-.827-.01-1.653.01-2.469.02.011-.49.011-.98.011-1.471ZM20.66 39.638c0-1.049.066-2.058-.01-3.058-.21-2.882-2.536-4.853-5.776-4.921-1.741-.04-3.493-.04-5.235.01-2.501.068-4.76 1.597-5.267 3.764-.32 1.353-.232 2.774-.331 4.205h16.62Zm17.887 1.51c-3.141 0-6.25 0-9.346.01-.11 0-.275.147-.32.255-.837 2-2.226 2.862-4.628 2.862-1.565 0-3.119 0-4.684.01-.187 0-.44.03-.551.127-.551.53-1.069 1.089-1.609 1.647h24.19c-1.752-1.303-2.755-2.901-3.052-4.911Zm16.1-1.51c0-.088.012-.157 0-.215-.54-4.02-5.124-6.97-9.576-6.137-.243.049-.518.245-.628.441a456.722 456.722 0 0 0-3.064 5.48c-.066.127-.121.255-.21.441 4.519-.01 8.982-.01 13.479-.01ZM21.52 27.914h.672c1.796 0 3.593.01 5.4 0 .959-.01 1.631-.51 1.741-1.265.133-.921-.606-1.646-1.74-1.656-3.252-.01-6.503 0-9.754 0-.121 0-.243.039-.353.049v2.882H19.9v1.46h-9.721c-.837 0-.837 0-.903.804h.54c1.785 0 3.56-.03 5.345.01 2.149.05 3.934.843 5.334 2.284.264.265.507.334.848.265 2.138-.431 3.516-1.686 4.63-3.363h-4.475c.022-.52.022-.96.022-1.47ZM4.59 22.052c1.08 2.147 2.138 4.225 3.185 6.313.132-.235.154-.441.198-.637.518-2.402 2.723-4.098 5.467-4.196.76-.03 1.531 0 2.314 0v-1.47c-3.714-.01-7.384-.01-11.164-.01Zm48.26 19.096c-.508 0-1.026.01-1.532 0-.309-.01-.441.078-.53.353-.319 1.02-1.024 1.804-2.05 2.323-2.446 1.235-5.499.147-6.391-2.245-.055-.157-.21-.392-.342-.411-.573-.05-1.157-.02-1.741-.02.364 2.882 3.229 5.01 6.535 4.94 3.042-.068 5.874-2.352 6.05-4.94Zm-19.011-2.95h-9.456v-4.941c-.893.343-1.73.656-2.623 1 .849 1.695.474 3.548.595 5.352.077.03.133.059.177.059 3.471.01 6.943.01 10.414 0 .132 0 .33-.128.397-.245.176-.373.309-.765.496-1.226Zm-27.772 2.95c.143 2.157 2.226 4.186 4.739 4.774 2.534.598 5.223-.48 6.039-1.559-.584-.137-1.19-.255-1.763-.44a1.168 1.168 0 0 0-.816 0c-.54.176-1.113.362-1.686.391-2.083.108-3.791-1-4.452-2.784-.055-.137-.21-.343-.331-.353-.573-.049-1.135-.029-1.73-.029Zm8.265.03c.441 1.068 1.356 1.627 2.656 1.637 2.513.01 5.026 0 7.538 0 .243 0 .485-.01.706-.06.959-.195 1.598-.715 1.994-1.578H14.333Zm1.444-16.156c-3.604-.343-5.576.608-6.072 2.843h6.072v-2.843Zm-5.61-20.35c-.374-.962-.738-1.854-1.51-2.53-.517-.451-1.179-.696-1.906-.51-.661.167-.97.667-1.102 1.235-.154.716.496 1.755 1.168 1.785 1.091.058 2.182.02 3.35.02Zm2.205 0c1.19 0 2.27.009 3.339-.01.143 0 .308-.109.43-.197.892-.637 1.014-1.735.275-2.47-.628-.618-1.807-.549-2.59.176-.716.687-1.08 1.54-1.454 2.5ZM37.19 19.835h3.361V16.73c-1.058.127-2.05.235-3.052.372-.11.02-.298.177-.298.265-.01.814-.01 1.627-.01 2.47Zm7.163-3.558c-.484.049-.881.088-1.278.137-.815.108-.804.108-.804.853v2.598c.66 0 1.223.01 1.796-.01.1 0 .286-.167.286-.255v-3.323Zm-.363 24.9c.352 1.039 1.41 1.695 2.634 1.676 1.168-.02 2.215-.716 2.49-1.677H43.99Zm-30.737 1.519c-.21-.47-.396-.912-.606-1.333-.044-.098-.198-.206-.309-.206-.837-.02-1.675-.01-2.523-.01.253 1.265 1.94 2.01 3.438 1.549Z"/>
        <path d="M11.214 7.71c1.4.04 2.425.608 3.02 1.735.121.226.22.353.54.382 1.389.128 2.359.804 2.8 1.98.43 1.157.11 2.197-.882 3.04-.243.206-.32.372-.254.666.265 1.206-.176 2.206-1.278 2.921-1.113.726-2.314.765-3.527.177-.308-.147-.496-.128-.782.01-1.212.568-2.414.53-3.527-.196-1.08-.706-1.532-1.696-1.267-2.882.077-.343-.044-.52-.287-.745-.97-.863-1.29-1.892-.826-3.05.463-1.156 1.41-1.803 2.777-1.93.32-.03.419-.157.54-.383.584-1.098 1.587-1.656 2.954-1.725Zm1.665 3.931v-.912c-.011-.892-.684-1.529-1.62-1.529-.937 0-1.61.608-1.642 1.51-.011.284 0 .578 0 .931-.397-.108-.706-.196-1.014-.274-.96-.255-1.819.127-2.116.93-.276.756.198 1.53 1.102 1.824.32.098.65.196 1.014.304-.22.275-.397.5-.573.725-.596.765-.463 1.638.297 2.118.772.48 1.73.294 2.348-.451.176-.216.352-.441.573-.716.22.275.396.5.573.716.617.745 1.587.931 2.347.45.772-.49.893-1.352.298-2.117-.177-.235-.364-.46-.562-.725.407-.127.738-.216 1.069-.323.87-.295 1.311-1.069 1.036-1.814-.287-.774-1.158-1.167-2.072-.931-.331.078-.662.176-1.058.284ZM9.716 35.04V33.64h4.915v1.402H9.716ZM9.738 36.57h4.882v1.421H9.738V36.57Z"/>
        <path d="M10.476 12.857h1.587v1.401h-1.587v-1.401Z"/>
    </g>
    <defs>
        <clipPath id="a">
            <path fill="#fff" transform="translate(-.004)" d="M0 0h56.393v50H0z"/>
        </clipPath>
    </defs>
</svg>
