<svg width="57" height="50" fill="none" xmlns="http://www.w3.org/2000/svg">
    <g clip-path="url(#a)" fill="#B3686F">
        <path d="M3.52 47.256c.142-1.068.304-2.127.435-3.196.434-3.552.781-7.114 1.303-10.656.456-3.129 2.432-5.39 5.591-6.825.358-.164.5-.318.489-.674-.022-2.696 0-5.391-.022-8.086 0-.231-.109-.501-.25-.694-.803-1.078-.803-2.406.011-3.484.141-.183.228-.434.239-.655.054-1.396-.043-2.801.12-4.178.531-4.563 4.7-8.22 9.814-8.74 5.852-.588 11.118 2.685 12.356 7.778.293 1.222.206 2.512.293 3.773.01.24.01.482 0 .722-.022.578.065 1.088.434 1.627.706 1.04.565 2.108-.163 3.138-.151.212-.26.491-.26.741-.022 2.696 0 5.391-.022 8.087 0 .317.098.481.434.616 1.694.703 2.856 2.599 2.856 2.599s-1.227.712-3.583 7.124c-.977-2.619-2.584-6.864-3.561-9.473-.26-.693-.26-.693-1.13-.578.598 2.475 1.195 4.949 1.803 7.423.185.75.37 1.501.543 2.252.141.587-.12.934-.771 1.06a41.076 41.076 0 0 1-15.71.009c-.717-.135-.934-.472-.782-1.127l2.312-9.588c-.803-.192-.846-.173-1.085.472-.912 2.436-1.78 4.871-2.747 7.287-1.26 3.129-1.433 6.267-.62 9.511.338 1.348.316 2.754.468 4.188h-1.868c0-.26-.01-.51 0-.76.044-1.271-.12-2.523-.412-3.774-.293-1.261-.391-2.56-.587-3.88H6.235l-1.01 8.539H3.488c.032-.193.032-.385.032-.578ZM15.8 12.303c0 .23-.01.404 0 .568.163 1.761.326 3.513.51 5.275.174 1.646 1.043 2.955 2.573 3.889 4.083 2.512 9.696.25 10.065-3.985.185-2.109.445-4.217.597-6.325.152-2.06-1.303-3.735-3.832-4.428-2.009 3.658-5.386 5.237-9.913 5.006Zm16.286.086c0-1.174.12-2.349-.022-3.504-.608-4.765-5.928-8.182-11.205-7.2-5.7 1.068-8.5 5.313-7.72 10.714.283-.039.555-.087.848-.125-.011-.202-.033-.376-.044-.559-.032-.616.293-.933.988-.943.51-.01 1.02.029 1.52-.01.901-.057 1.824-.048 2.682-.26 2.573-.625 4.289-2.108 5.168-4.341.326-.818.728-.963 1.607-.578.695.308 1.4.597 2.074.944 1.802.914 2.91 2.281 3.224 4.11.098.54.076 1.107.109 1.656.282.029.554.067.77.096Zm-12.03 11.88c-.01.115-.033.163-.033.211.011 1.454.142 1.54-1.639 1.887-.163.029-.358.25-.402.404a50.245 50.245 0 0 0-.727 3.004c-.044.221.021.539.184.683.63.597 1.26 1.194 1.987 1.685 1.13.77 2.454 1.059 3.887.886 2.03-.241 3.442-1.329 4.614-2.706.11-.125.12-.365.076-.539-.162-.75-.412-1.501-.52-2.252-.12-.828-.446-1.348-1.488-1.387-.51-.019-.77-.365-.77-.837v-1.059c-1.738.5-3.443.5-5.169.02Zm-6.992 3.253c-.087 0-.141-.01-.196 0-.119.029-.25.058-.358.096-1.9.617-3.387 1.685-4.44 3.225-.695 1.02-1.064 2.128-1.184 3.312-.13 1.174-.282 2.349-.423 3.542H9.72c.521-3.533 2.269-6.748 3.344-10.175Zm19.076-.077c.662 1.771 1.01 3.167 1.596 4.842l1.64-3.292c-1.097-1.03-1.347-1.069-3.236-1.55ZM15.854 35.57c4.55.809 9.023.809 13.561 0-.282-1.165-.554-2.282-.836-3.475-1.672 1.52-3.54 2.541-5.95 2.541-2.4 0-4.267-1.03-5.928-2.541-.304 1.203-.575 2.32-.847 3.475Zm14.842-17.078c-.022.049-.054.087-.054.135-.391 2.031-1.51 3.649-3.464 4.794-.087.048-.184.135-.184.202-.022.386-.011.78-.011 1.204.402-.077.706-.183 1.02-.193.782-.029 1.553 0 2.335-.01.5 0 .847.193.966.617.109.423.37.596.847.548v-7.393c-.521.039-.988.068-1.455.096Zm-17.589-.086v7.393c.478.038.739-.116.847-.52.12-.452.478-.654 1-.645.78.01 1.552-.02 2.333.01.315.01.63.115 1 .183 0-.26-.022-.453 0-.636.064-.462-.131-.731-.576-1.01-1.488-.925-2.432-2.215-2.91-3.764-.098-.308-.163-.617-.239-.915a68.81 68.81 0 0 0-1.455-.096Zm17.709-1.502c.89.106 1.574-.106 1.997-.76.359-.55.326-1.107-.087-1.627-.39-.491-.922-.722-1.628-.645-.098 1.02-.185 2.002-.282 3.032ZM14.16 13.862c-1.206-.02-2.01.684-1.944 1.617.065.953 1.01 1.56 2.226 1.387-.098-.982-.196-1.983-.282-3.004ZM40.873 26.637h.358c.521.317 1.053.645 1.607.981.022-.01.098-.057.185-.105a5.145 5.145 0 0 1 2.605-.655c.315 0 .565.115.695.356.196.356.359.722.521 1.088.066.154.087.327.142.53.608-.54 1.172-1.05 1.748-1.56.477-.424.9-.433 1.357.029.326.337.619.693.934 1.049 1.129-.308 1.965-.337 2.888-.116.347.087.575.27.64.578.065.347.163.693.152 1.03-.021.52-.141 1.05-.217 1.56.358.25.76.5 1.13.789.499.395.499.77.032 1.184l-1.564 1.386c-.065.058-.12.116-.195.193.673.086 1.26.27 1.802.558.272.145.434.356.413.636-.033.365-.033.74-.152 1.078-.174.5-.434.982-.663 1.463.283.346.62.712.913 1.097.303.405.173.8-.294 1.04-.358.193-.727.366-1.085.568a.39.39 0 0 0-.174.212c-.044.298-.228.49-.521.625a50.58 50.58 0 0 1-11.617 3.553c-.337.057-.674.125-1.021.183.033.038.033.057.043.067.348.356.359.76.033 1.03-.326.27-.793.24-1.162-.096-.184-.164-.347-.347-.532-.53-.12.087-.174.125-.228.173-1.552 1.271-3.279 2.33-5.146 3.197-.521.24-.782.211-1.194-.155l-2.802-2.483c-.184-.164-.336-.356-.5-.54v-.365c.815-1.386 1.749-2.696 2.867-3.908.348-.376.706-.732 1.108-1.146-.24-.192-.489-.375-.706-.578-.282-.27-.26-.673.01-.933.272-.26.728-.28 1.054-.049.054.039.108.087.174.126.195-.8.38-1.589.586-2.378.825-3.07 2.052-6.007 3.637-8.837a.86.86 0 0 1 .706-.462.387.387 0 0 0 .239-.154c.195-.28.38-.559.553-.847.163-.183.348-.366.641-.462Zm-1.303 3.629c-.054.096-.098.173-.13.25a36.696 36.696 0 0 0-3.518 10.271c-.032.193.011.309.163.434 1.15 1.01 2.29 2.03 3.442 3.042.054.048.108.086.173.134 2.823-4.206 2.79-9.915-.13-14.131Zm1.813 14.343a49.684 49.684 0 0 0 10.901-3.09c-.12-.067-.195-.115-.282-.144-.912-.366-1.803-.77-2.747-1.069-1.89-.597-3.855-.818-5.863-.722-.13.01-.228.01-.26.173a13.475 13.475 0 0 1-.978 3.273c-.239.52-.51 1.03-.77 1.58Zm12.703-11.763a4.127 4.127 0 0 0-1.585-.607c-.651-.096-1.26-.038-1.78.366-.38.298-.815.308-1.13.038-.315-.279-.282-.654.033-1.02.185-.221.347-.481.402-.741.184-.809-.13-1.521-.652-2.185-.01-.01-.032-.01-.01 0-.837.731-1.694 1.424-2.476 2.175-.77.732-.988 1.646-.727 2.609.586 2.233 3.658 3.042 5.548 1.473.304-.25.597-.52.89-.79l1.487-1.318Zm-19.043 9.443c-.011 0-.033.01-.044.03a20.057 20.057 0 0 0-3.181 3.907c-.076.116-.022.174.065.25.695.617 1.4 1.233 2.085 1.859.12.105.195.115.347.048a22.6 22.6 0 0 0 3.431-2.08c.337-.25.652-.5.977-.75l-3.68-3.264Zm16.253-5.468c-1.737.414-1.987.414-3.605.039-.054-.01-.163 0-.195.038a2.746 2.746 0 0 0-.803 1.435c.282.048.553.077.825.125a19.295 19.295 0 0 1 5.743 1.954c.076.038.206.077.272.048.314-.144.618-.308.933-.472-.749-1-2.084-1.376-3.3-.953a.832.832 0 0 1-.793-.105.625.625 0 0 1-.26-.636c.043-.221.195-.385.412-.5.391-.212.619-.54.771-.973Zm-10-8.52c-.162.251-.304.482-.466.694-.12.164-.12.28 0 .452.695 1.011 1.259 2.07 1.639 3.206.282.838.5 1.685.75 2.551a3.238 3.238 0 0 0 1.563-.703c.043-.038.043-.163.021-.24-.38-.992-.38-1.983.033-2.975.022-.048.022-.087.043-.164-.477.135-.836.337-1.107.674a1.052 1.052 0 0 1-.337.299.811.811 0 0 1-.88-.087.627.627 0 0 1-.162-.818c.174-.318.271-.636.217-.992-.141-.77-.64-1.367-1.313-1.896Zm3.844 9.897c.152-.78.51-1.483 1.053-2.07-.184-.173-.337-.327-.51-.5-.695.52-1.498.818-2.345.962v1.608h1.802Zm8.838-.347c.315-.385.51-.818.564-1.309a3.415 3.415 0 0 0-1.487-.23c-.044 0-.109.047-.12.086-.076.366-.14.722-.206 1.078.402.125.815.25 1.249.375Zm-8.795-9.607c-.564.067-1.053.231-1.476.51.152.385.293.76.423 1.107.391-.057.782-.115 1.162-.183.065-.01.141-.086.152-.134a2.306 2.306 0 0 0-.26-1.3Zm6.374 1.396c.032.424.065.799.086 1.165.446.029.88.058 1.314.077.185-.405.239-.828.196-1.27-.011-.059-.087-.145-.142-.145-.499-.039-.998 0-1.454.173Z"/>
    </g>
    <defs>
        <clipPath id="a">
            <path fill="#fff" transform="translate(-.004)" d="M0 0h56.393v50H0z"/>
        </clipPath>
    </defs>
</svg>
