<svg width="57" height="50" fill="none" xmlns="http://www.w3.org/2000/svg">
    <g clip-path="url(#a)" fill="#B3686F">
        <path d="M56.888 8.667v.45c-.09.147-.179.293-.255.45-.895 1.824-1.764 3.659-2.683 5.471-1.214 2.398-3.872 3.613-6.784 3.118-.41-.067-.563.045-.703.35a460.49 460.49 0 0 1-2.466 5.064c-.05.113-.09.237-.14.35.396-.192.664-.473.97-.732 1.56-1.328 3.259-2.465 5.264-3.22.358-.135.805-.27 1.035.08.14.224.14.618.026.866a26.97 26.97 0 0 1-1.303 2.443c-.422.72-.907 1.43-1.406 2.206.843 0 1.597-.011 2.364 0 1.61.034 2.862 1.08 2.99 2.499.025.315.012.641.012.956-.013 1.486-.843 2.42-2.466 2.826-.179.045-.409.247-.447.405a43.076 43.076 0 0 0-.69 3.084c-.038.225.077.552.256.72.817.766 1.686 1.486 2.517 2.24 1.086.98 1.124 2.274.115 3.163-1.01.89-2.492.845-3.59-.09-.154-.135-.32-.258-.537-.438-.064.213-.09.315-.115.416-.409 1.835-.818 3.68-1.24 5.515-.485 2.06-2.018 3.152-4.42 3.152H14.063c-2.427 0-3.973-1.16-4.433-3.275-.383-1.745-.78-3.478-1.175-5.234a4.79 4.79 0 0 0-.217.09c-1.278.754-2.62.641-3.488-.293-.856-.934-.728-2.116.357-3.073.588-.518 1.163-1.047 1.764-1.542.319-.259.408-.518.319-.89-.281-1.159-.537-2.318-.78-3.477-.063-.316-.204-.45-.587-.53-1.24-.236-2.031-.934-2.3-2.026-.115-.45-.064-.934-.064-1.407.013-1.722 1.252-2.802 3.207-2.802H8.71c-.894-1.565-1.763-3.062-2.58-4.582-.141-.259-.167-.686-.013-.923.243-.382.702-.225 1.086-.079 1.686.63 3.155 1.554 4.51 2.612.562.439 1.098.912 1.648 1.362a114.568 114.568 0 0 0-2.658-5.594c-.064-.124-.409-.237-.587-.203-3.015.462-5.635-.754-6.861-3.22C2.348 13.092 1.441 11.257.572 9.4.444 9.14.47 8.7.649 8.499c.14-.147.664-.136.958-.046.869.27 1.712.62 2.555.923.064-.078.102-.1.115-.135.32-.72.626-1.43.945-2.15.294-.675.537-.765 1.316-.484.844.304 1.674.62 2.568.946.358-.844.677-1.655 1.074-2.443.102-.214.434-.472.664-.484.23-.011.588.237.703.44 1.009 2.025 2.044 4.04 2.95 6.1.972 2.218.052 4.705-2.146 6.09-.153.101-.294.202-.485.315.703 1.418 1.38 2.825 2.133 4.356v-1.35c.026-1.903.218-3.783 1.048-5.573.102-.225.447-.483.715-.506.218-.022.588.236.69.439 1.304 2.679 2.313 5.437 2.632 8.352.077.732.115 1.475.18 2.33.242-.18.408-.281.549-.405.498-.428.983-.89 1.494-1.306 1.431-1.126 3.629-.484 4.038 1.17.038.147.076.282.114.406h2.44c0-.63-.102-1.238.026-1.812.268-1.26-.817-2.274-.74-3.478 0-.057-.09-.124-.141-.18l-2.006-1.835c-.55.326-.971.641-1.457.867-1.584.731-3.347.495-4.395-.552-.574-.585-.625-.912.013-1.452.652-.54 1.418-.968 2.07-1.418h-.23c-2.58-.113-4.357-2.23-3.654-4.413.077-.236.358-.54.626-.608 2.108-.596 4.446.586 4.97 2.477.077.292.115.585.153.754.562-.563 1.137-1.193 1.763-1.779.32-.303.716-.27 1.099-.022.805.506 1.265 1.193 1.367 2.071.14 1.26-.447 2.296-1.29 3.073.6.529 1.175 1.035 1.75 1.53V11.28c-.179-.045-.358-.08-.55-.124-2.478-.63-4.1-2.037-4.663-4.255-.549-2.195.205-4.075 2.121-5.572.971-.754 2.16-1.103 3.386-1.34h1.533c.115.035.23.08.358.102 2.912.473 5.148 2.668 5.276 5.212.14 2.791-1.788 5.155-4.778 5.842-.383.09-.78.146-1.214.225 0 2.341 0 4.671.013 6.99 0 .112.077.259.179.315.562.349 1.137.687 1.725 1.036a5.392 5.392 0 0 1-.103-.44c-.485-2.082 1.188-4.085 3.565-4.21.294-.01.728.147.894.35 1.47 1.778.728 4.232-1.52 5.189-.192.079-.37.157-.498.214.613.101 1.252.157 1.852.326 1.687.495 1.865 1.024.894 2.353-.025.022-.012.067-.025.101.55.462 1.099.923 1.712 1.43.038-.226.076-.372.076-.518.064-1.903.448-3.771 1.086-5.572.486-1.35 1.06-2.68 1.648-4.007.09-.203.448-.428.69-.44.218-.01.499.237.652.417.153.191.217.45.294.676.664 1.823.817 3.703.766 5.605v.563h.115c.677-1.407 1.367-2.803 2.044-4.199-2.925-1.665-3.768-4.637-2.184-7.429.894-1.587 1.61-3.264 2.402-4.896.166-.338.345-.743.817-.63.294.078.6.393.728.664.371.72.665 1.485.997 2.273.882-.326 1.7-.619 2.517-.934.83-.315 1.073-.214 1.38.518.32.743.639 1.486.983 2.251.895-.326 1.712-.596 2.492-.923.575-.18 1.009-.146 1.405.225ZM15.482 35.198c-1.968 1.734-3.833 3.366-5.673 5.02-.115.102-.115.338-.077.507.422 1.947.87 3.895 1.29 5.842.333 1.486 1.304 2.195 3.016 2.195h29.18c1.686 0 2.67-.687 3.002-2.139.498-2.127.971-4.255 1.418-6.393.039-.214-.063-.53-.242-.676a1648.097 1648.097 0 0 0-8.394-7.406 1.22 1.22 0 0 0-.716-.27c-6.209-.012-12.43-.012-18.64-.012-.178 0-.408.023-.523.124-.614.473-1.201.98-1.93 1.576 1.993 0 3.105.777 3.118 2.15.038 2.96.025 5.92 0 8.892-.013.878-.498 1.542-1.406 1.925-1.61.687-3.424-.338-3.436-1.97 0-3.073.013-6.146.013-9.365Zm5.225-4.615h16.57c-1.329-1.16-2.58-2.217-3.782-3.332-.383-.349-.753-.461-1.277-.45-1.725.023-3.45.101-5.174-.022-1.495-.102-2.568.27-3.514 1.294-.805.867-1.814 1.632-2.823 2.51Zm31.697 9.174c-.14-.169-.332-.495-.626-.754-5.226-4.615-10.464-9.23-15.702-13.845-.115-.102-.243-.214-.37-.316-.46-.326-1.06-.292-1.444.057-.37.337-.383.844-.038 1.227.09.1.204.191.306.281 5.264 4.638 10.528 9.286 15.791 13.924.154.135.294.27.473.371.703.372 1.584-.056 1.61-.945Zm-28.222-14.25c-.307-.304-.498-.642-.818-.8-.447-.225-.894-.056-1.265.27a9079.095 9079.095 0 0 1-16.072 14.16c-.549.485-.587 1.036-.127 1.442.46.405 1.047.36 1.622-.136.869-.754 1.712-1.508 2.58-2.262 4.434-3.906 8.88-7.823 13.313-11.74.269-.237.46-.552.767-.934Zm-6.094 1.283h-.805c-3.296 0-6.593.045-9.889-.011-2.057-.034-2.644.506-2.53 2.273.065 1.024.627 1.565 1.777 1.565 1.38.011 2.76.011 4.152 0 .97 0 2.057.214 2.9-.102.843-.303 1.43-1.136 2.12-1.744.716-.608 1.431-1.238 2.275-1.981Zm21.834 0c1.482 1.294 2.81 2.476 4.165 3.647.127.112.37.169.562.169 2.057 0 4.126 0 6.183-.023.907-.011 1.495-.529 1.572-1.328.025-.26.012-.53.012-.788-.012-1.137-.625-1.677-1.929-1.677H39.922ZM6.768 16.547c1.687.799 3.77.551 5.175-.552 1.392-1.092 1.916-2.938 1.226-4.412-.664-1.43-1.354-2.837-2.031-4.244-.051-.113-.128-.203-.243-.405-1.405 3.264-2.76 6.427-4.127 9.613Zm39.58-9.67c-.78 1.61-1.495 3.085-2.197 4.57-.933 1.96.025 4.233 2.197 5.156 1.38.585 2.76.585 4.152-.034l-4.152-9.691ZM24.91 3.074c-1.635 1.7-1.265 4.48.715 5.966 2.134 1.598 5.277 1.384 7.091-.473 1.52-1.565 1.623-4.334.192-5.414.255 1.62-.32 2.949-1.93 3.804-1.405.754-2.9.732-4.28-.067-1.532-.89-2.056-2.184-1.788-3.816ZM16.887 40.14v4.22c0 .744.345 1.115.996 1.126.652.012 1.048-.394 1.048-1.103v-8.442c0-.698-.396-1.126-1.022-1.137-.626-.011-1.022.405-1.022 1.114-.013 1.407 0 2.815 0 4.222Zm.907-14.611c.038-2.95-.741-5.707-1.942-8.397-.677 2.814-.473 5.594.166 8.397h1.776Zm23.7-8.442c-.065.011-.116.011-.18.022-1.098 2.713-1.929 5.47-1.84 8.442.448 0 .805-.022 1.163.012.434.034.613-.079.703-.495.396-1.892.575-3.794.46-5.707-.051-.755-.205-1.509-.307-2.274ZM2.398 10.085c.856 1.711 1.623 3.287 2.427 4.852.154.304.448.552.741.912.6-1.396 1.137-2.668 1.7-3.963-1.623-.596-3.156-1.159-4.868-1.8Zm52.279.08c-1.546.573-3.08 1.136-4.676 1.733.562 1.306 1.111 2.589 1.737 4.018 1.393-1.846 2.019-3.838 2.939-5.752ZM31.145 5.053c.715-1.013.46-2.251-.6-2.994-1.023-.732-2.543-.664-3.501.146-.907.766-1.086 1.981-.41 2.78.563-1.181 1.24-1.643 2.352-1.62 1.034.022 1.724.551 2.159 1.688ZM8.429 35.018l3.552-3.13H7.739c.243 1.093.473 2.162.69 3.13Zm4.6-9.466c-1.47-1.486-2.99-2.713-4.843-3.636.537.98 1.176 1.902 1.738 2.859.37.63.856.9 1.66.788.422-.056.844-.011 1.444-.011Zm31.185 0c.6 0 1.06-.046 1.495.01.792.113 1.252-.18 1.61-.776.575-.968 1.214-1.902 1.827-2.848-1.916.89-3.437 2.128-4.932 3.614Zm-22.536-11.19c.204-1.417-.882-2.566-2.428-2.633-.447-.023-.587.113-.575.507.026 1.384 1.38 2.374 3.003 2.127Zm12.89 1.993c-1.865.405-2.67 1.981-1.737 3.332 1.789-.326 2.606-1.857 1.738-3.332ZM46.055 31.89c.933.822 1.93 1.71 2.9 2.566.166-.776.358-1.654.562-2.566h-3.462ZM5.53 9.905c.78.282 1.482.54 2.223.822.294-.675.562-1.317.856-1.98-.754-.282-1.47-.541-2.223-.823-.294.687-.562 1.306-.856 1.981Zm43.119-1.17c.293.675.575 1.317.856 1.992.766-.281 1.482-.551 2.223-.822-.294-.697-.563-1.317-.856-1.98-.741.27-1.431.517-2.223.81ZM23.9 17.29c-1.112-.72-2.683-.473-3.475.54.996.72 2.504.495 3.475-.54Zm1.622-3.985c-1.213.89-1.456 2.375-.536 3.061 1.111-.911 1.341-2.116.536-3.061Zm6.337 9.826c1.329.687 3.245.26 3.424-.619-1.29-.664-2.81-.405-3.424.62Zm-1.341-.585c.472-1.058-.396-2.397-1.738-2.668-.434 1.058.358 2.285 1.738 2.668Zm.664 1.745c-.217.416-.422.81-.651 1.227h2.005c.064-.293.115-.563.166-.81-.498-.136-.958-.26-1.52-.417ZM28.998 4.604c-.549 0-.894.304-.907.698-.013.405.383.776.843.731.486-.045.78-.281.78-.731-.026-.44-.32-.664-.716-.698Zm.332 19.98c.039.01.09.022.128.033.154-.292.294-.574.473-.9-.243-.079-.396-.124-.6-.192v1.059Z"/>
        <path d="M22.636 40.15c0-1.44-.013-2.892 0-4.333.013-1.306 1.06-2.273 2.44-2.262 1.354.011 2.402.956 2.415 2.228.013 2.904.013 5.809 0 8.724-.013 1.306-1.073 2.229-2.479 2.218-1.38-.023-2.35-.935-2.363-2.24-.026-1.441-.013-2.893-.013-4.334Zm3.45.023c0-1.463.012-2.926 0-4.39-.013-.574-.448-.968-.997-.979-.575-.011-1.022.372-1.035.934-.013 2.95-.013 5.887 0 8.837 0 .551.409.9.984.911.562.012.984-.326 1.047-.866.013-.147.013-.304.013-.45-.012-1.329-.012-2.657-.012-3.997ZM29.79 40.128c0-1.43-.012-2.847 0-4.277.013-1.317 1.022-2.285 2.402-2.285 1.38-.011 2.44.957 2.453 2.262.013 2.893.013 5.775 0 8.668 0 1.317-1.047 2.25-2.453 2.24-1.405 0-2.389-.935-2.402-2.274-.012-1.452 0-2.893 0-4.334Zm1.406.057v4.22c0 .698.357 1.07.983 1.093.652.01 1.06-.383 1.06-1.081.014-2.837.014-5.662 0-8.498 0-.676-.433-1.126-1.06-1.104-.613.023-.983.417-.983 1.092-.013 1.419 0 2.848 0 4.278ZM36.945 40.106c0-1.43-.013-2.848 0-4.278.013-1.305 1.048-2.273 2.428-2.262 1.38.011 2.414.968 2.427 2.285.013 2.87.013 5.74 0 8.61 0 1.352-1.048 2.297-2.479 2.275-1.405-.012-2.363-.946-2.376-2.297-.013-1.452 0-2.892 0-4.333Zm1.405.079v4.22c0 .698.358 1.07.984 1.093.652.01 1.06-.383 1.06-1.081.013-2.837 0-5.662 0-8.498 0-.676-.434-1.115-1.06-1.104-.613.012-.984.428-.984 1.104v4.266Z"/>
    </g>
    <defs>
        <clipPath id="a">
            <path fill="#fff" transform="translate(.496)" d="M0 0h56.393v50H0z"/>
        </clipPath>
    </defs>
</svg>
