<svg width="57" height="50" fill="none" xmlns="http://www.w3.org/2000/svg">
    <g clip-path="url(#a)" fill="#B3686F">
        <path d="M12.695 50c-.01-.195-.044-.39-.044-.577 0-10.113 0-20.226-.01-30.33 0-.4.12-.713.385-1.026.782-.918 1.53-1.866 2.313-2.834.462.303.88.567 1.332.86-.727.89-1.431 1.74-2.103 2.61-.144.185-.254.44-.254.664-.01 9.605-.01 19.21-.01 28.815 0 .098.01.196.021.323h28.043v-8.286h1.652v9.214c0 .196.033.381.055.577C33.622 50 23.159 50 12.695 50Z"/>
        <path d="M15.823 7.23c-.496-1.025-.595-2.051-.341-3.097.418-1.71 2.004-2.843 4.174-3.107 1.916-.225 3.635.234 5.265 1.046.892.449 1.74.967 2.665 1.485V0h1.663v3.645c.265-.176.43-.274.584-.372 1.52-.957 3.084-1.817 4.934-2.179a7.401 7.401 0 0 1 4.098.342c2.235.84 3.249 3.088 2.412 5.296-.055.157-.121.303-.199.499a32.56 32.56 0 0 1 6.113 4.426c-.396.323-.793.626-1.211.958-.507-.42-1.036-.919-1.63-1.339-1.3-.918-2.644-1.808-3.977-2.687-.132-.088-.429-.117-.561-.04-2.093 1.154-4.285 1.222-6.476.372-1.311-.508-2.5-1.27-3.745-1.925-.055-.029-.122-.068-.254-.127v3.743h.606c2.423 0 4.846.01 7.27-.01.352 0 .561.098.76.352 1.96 2.423 3.931 4.827 5.892 7.25.154.195.264.47.264.713.011 6.42.011 12.83.011 19.25 0 .146-.022.283-.033.46h-1.619v-.636c0-6.136 0-12.273.011-18.419 0-.4-.12-.713-.385-1.026a646.261 646.261 0 0 1-4.968-6.087c-.209-.264-.43-.382-.804-.372-2.17.02-4.328.01-6.498.01h-.562c0 .596-.022 1.163.022 1.72.011.117.265.264.44.322 1.41.528 2.248 1.456 2.369 2.814.121 1.27-.452 2.306-1.652 3-1.267.733-2.6.762-3.9.069-1.277-.675-1.883-1.72-1.784-3.03.1-1.338.904-2.296 2.291-2.794.474-.166.595-.372.562-.772-.033-.42-.01-.84-.01-1.29-.21-.01-.364-.03-.519-.03-2.202 0-4.405.01-6.608-.01-.33 0-.529.089-.727.323-.65.821-1.322 1.632-2.016 2.492-.451-.293-.88-.557-1.343-.85.903-1.114 1.773-2.199 2.676-3.254.1-.117.386-.156.584-.156 2.423-.01 4.846-.01 7.27-.01h.65V6.879c-.64.381-1.212.752-1.818 1.075-1.696.928-3.459 1.651-5.518 1.514-1.113-.068-2.181-.293-3.095-.889-.287-.185-.463-.078-.683.05-1.829.996-3.48 2.207-5.023 3.546-.187.156-.341.342-.54.547-.429-.371-.815-.684-1.222-1.045a31.99 31.99 0 0 1 6.135-4.446Zm1.498-.761c2.621-1.212 5.386-2.013 8.382-2.218a22.56 22.56 0 0 0-2.534-1.29c-1.101-.47-2.258-.606-3.48-.44-2.214.283-3.404 2.199-2.368 3.948ZM31.21 4.21c1.454.264 2.907.43 4.295.792 1.41.371 2.754.918 4.12 1.397.76-1.651-.033-3.312-1.84-3.772-2.566-.644-4.604.401-6.575 1.583ZM28.49 15.4c-1.146-.02-2.071.781-2.082 1.788-.012.987.88 1.808 1.993 1.827 1.135.02 2.082-.791 2.093-1.798.01-.977-.892-1.798-2.005-1.817Zm9.824-7.817c-2.126-1.124-6.465-2.052-7.6-1.681 2.633 1.915 5.727 2.619 7.6 1.68Zm-19.782-.01c2.016.967 5.76.098 7.688-1.779-2.753.03-5.231.694-7.688 1.779Z"/>
        <path d="M27.498 36.906c0-.879.011-1.612-.011-2.355 0-.097-.187-.244-.297-.263-3.206-.46-5.111-3.078-4.076-6.469.463-1.514 1.333-2.824 2.831-3.723 1.542-.928 3.315-.909 4.846.02 2.335 1.407 3.635 4.631 2.809 7.025-.595 1.73-1.972 2.736-3.943 3.098-.397.068-.518.195-.496.537.033.616.011 1.231.011 1.974 3.018-2.697 6.466-2.97 10.31-1.905-2.181 3.742-5.42 5.667-10.299 5.051v1.965h-1.641v-1.955c-4.934.674-8.239-1.221-10.441-5.003 1.85-.586 3.69-.752 5.573-.459 1.861.293 3.392 1.163 4.824 2.462Zm-2.677-9.204c-.12.508-.242.899-.308 1.3-.297 1.846.683 3.312 2.555 3.742.54.127 1.124.117 1.686.146.815.04 1.145-.469 1.398-1.035.254-.557.133-1.095-.396-1.456a6.001 6.001 0 0 0-1.531-.743c-1.256-.39-2.434-.89-3.404-1.954Zm4.99 10.729c2.368.567 5.75-.694 6.96-2.58-2.268-.596-5.793.704-6.96 2.58Zm-3.14.029c-.935-1.788-4.977-3.273-6.938-2.54 1.674 2.032 4.736 3.156 6.939 2.54Zm1.697-10.348c2.39.83 2.743 1.095 3.558 2.687.628-1.182.033-3.224-.771-4.211-.066-.078-.298-.088-.43-.059-1.013.235-1.696.84-2.357 1.583Zm-1.619-.752c.958-.743 1.861-1.456 2.754-2.15-.705-.46-1.664-.45-2.6.088-1.3.723-1.322 1.27-.154 2.062ZM24.16 45.368v-1.397h1.598v1.397H24.16ZM27.465 45.378v-1.397h1.597v1.397h-1.597ZM30.802 43.942H32.377v1.436h-1.575v-1.436Z"/>
    </g>
    <defs>
        <clipPath id="a">
            <path fill="#fff" transform="translate(-.004)" d="M0 0h56.393v50H0z"/>
        </clipPath>
    </defs>
</svg>
