<svg width="57" height="50" fill="none" xmlns="http://www.w3.org/2000/svg">
    <g clip-path="url(#a)" fill="#B3686F">
        <path d="M38.377 0c.374.244.683.517.496.976-.188.45-.606.498-1.08.498-9.36 0-18.72-.01-28.07 0-3.633 0-6.629 2.148-7.4 5.273-.11.459-.165.937-.165 1.406-.01 11.228-.01 22.447 0 33.675 0 3.749 3.304 6.698 7.533 6.707 12.664.01 25.316.01 37.98 0 4.229 0 7.554-2.938 7.554-6.688.011-11.228.011-22.447 0-33.675 0-3.749-3.314-6.678-7.543-6.698-1.795-.01-3.6-.01-5.396 0-.462 0-.892-.039-1.079-.488-.198-.459.121-.732.485-.976h7.047c.1.03.199.078.309.088 4.47.576 7.83 3.944 7.84 7.957.022 11.306.022 22.613 0 33.92-.01 4.412-4.074 8.015-9.052 8.025-12.752.02-25.503.02-38.255 0-4.13 0-7.698-2.5-8.766-6.044-.121-.39-.21-.78-.308-1.171C.496 30.922.496 19.069.496 7.225c.033-.088.088-.176.099-.273.54-3.271 3.26-5.937 6.882-6.718C7.863.146 8.26.078 8.645 0h29.732Z"/>
        <path d="M28.686 47.061H9.801c-2.852 0-5.22-1.542-5.781-3.954-.276-1.162-.177-2.392-.188-3.593 0-.4.375-.625.837-.615.44 0 .76.312.771.742.022.683 0 1.367.011 2.05.011 2.304 1.795 3.896 4.394 3.896h37.661c2.632 0 4.416-1.592 4.416-3.925V8.319c0-2.344-1.784-3.925-4.416-3.925H9.845c-2.599 0-4.394 1.591-4.394 3.895v27.485c0 .752-.253 1.104-.804 1.123-.572.01-.848-.351-.848-1.133V8.28c0-2.558 1.762-4.6 4.482-5.185a7.752 7.752 0 0 1 1.575-.156c12.554-.01 25.107-.01 37.661-.01 3.513 0 6.057 2.236 6.057 5.34.01 11.151.01 22.291 0 33.442 0 3.105-2.544 5.34-6.057 5.34-6.277.01-12.554.01-18.83.01Z"/>
        <path d="M16.65 6.512c4.824.02 8.744 3.545 8.733 7.85-.011 4.16-4.075 7.714-8.81 7.704-4.812-.02-8.732-3.544-8.721-7.86.01-4.179 4.052-7.713 8.798-7.694Zm-5.88 11.492c3.579-2.89 7.015-5.672 10.56-8.533-.737-.371-1.398-.713-2.07-1.016-.11-.048-.352.03-.462.118A1989.292 1989.292 0 0 0 9.977 15.7c-.1.088-.187.293-.143.4.275.615.594 1.211.936 1.904Zm1.167 1.045c.463.273.826.508 1.222.713.958.488.958.478 1.751-.166.165-.137.33-.264.485-.39 2.577-2.08 5.154-4.16 7.72-6.25.142-.117.319-.38.264-.497-.265-.625-.595-1.23-.937-1.904-3.545 2.87-6.981 5.653-10.505 8.494Zm5.077-11.023c-4.075-.274-7.51 2.822-7.445 6.014 2.49-2.001 4.923-3.974 7.445-6.014Zm-.815 12.517c4.338.234 7.52-3.017 7.455-6.024a1785.338 1785.338 0 0 0-7.455 6.024Z"/>
        <path d="M27.86 24.273v-14.5c0-.79.265-1.132.849-1.122.561.01.803.341.803 1.113V24.263h16.353c.881 0 1.245.205 1.256.713.01.517-.375.751-1.267.751H29.523V40.14c0 .214 0 .43-.044.634-.077.371-.363.557-.781.557-.419 0-.705-.186-.782-.557-.044-.205-.044-.42-.044-.634V25.727H11.65c-.242 0-.485 0-.716-.029-.44-.068-.672-.332-.66-.722.01-.391.253-.635.693-.694.198-.029.408-.02.606-.02h15.582c.209.01.418.01.704.01Z"/>
        <path d="M37.011 6.815c.881-.02 1.84.205 2.72.635.287.136.496.156.793.01 3.8-1.778 8.248.331 8.755 4.12.33 2.421-.66 4.432-2.4 6.21-1.575 1.61-3.536 2.772-5.66 3.73-.673.302-1.4.35-2.071.048-2.643-1.191-5.055-2.646-6.729-4.892-1.453-1.942-1.982-4.042-1.1-6.307.858-2.158 3.06-3.544 5.692-3.554Zm-.143 1.465c-1.817-.02-3.37.996-3.986 2.636-.694 1.835-.176 3.505 1.002 5.038 1.487 1.923 3.59 3.183 5.88 4.218.232.107.683.058.914-.078 1.2-.654 2.434-1.28 3.524-2.06 1.828-1.309 3.249-2.9 3.458-5.077.165-1.7-.418-3.184-2.092-4.14-1.619-.918-3.26-.674-4.812.205-.452.254-.826.254-1.267-.01a5.042 5.042 0 0 0-2.62-.732ZM42.121 42.462c-2.973-.097-5.649-1.62-7.708-4.08-1.289-1.534-2.07-3.252-2.092-5.195-.033-3.71 3.49-6.473 7.653-6.024 4.614.507 8.865 4.169 9.558 8.26.661 3.866-2.422 7.05-7.41 7.04Zm.198-1.425c3.491-.01 5.683-1.992 5.628-4.716-.066-3.7-4.284-7.528-8.458-7.684-3.171-.117-5.484 1.718-5.55 4.452-.044 2.119 1.024 3.828 2.61 5.312 1.696 1.542 3.69 2.558 5.77 2.636ZM20.108 27.807c1.905.098 3.777.996 4.768 2.968.98 1.963.628 3.857-1.024 5.429a112.98 112.98 0 0 1-5.517 4.901c-2.213 1.855-5.693 1.738-7.852-.185-2.125-1.885-2.213-4.95-.11-6.913 1.806-1.69 3.678-3.31 5.561-4.93 1.002-.88 2.269-1.29 4.174-1.27Zm-9.603 9.822c.067 1.25.804 2.383 2.368 2.998 1.586.625 3.117.43 4.383-.645a195.887 195.887 0 0 0 5.374-4.755c1.508-1.386 1.431-3.573-.088-4.93-1.542-1.367-4.03-1.426-5.606-.069a325.82 325.82 0 0 0-5.296 4.687c-.75.684-1.123 1.513-1.135 2.714Z"/>
        <path d="M45.337 34.476c.01.722-.243 1.21-.694 1.62-.485.44-.98.88-1.476 1.319-.12.107-.275.195-.33.322-.088.205-.1.44-.154.664.264-.04.572-.01.782-.137.33-.195.572-.498.87-.742.385-.313.847-.332 1.189-.049.341.283.341.732-.022 1.084a11.8 11.8 0 0 1-.936.82c-.65.508-1.41.713-2.247.488-1.464-.39-1.839-2.011-.727-3.114.53-.518 1.113-.996 1.663-1.494.143-.127.309-.264.364-.42.055-.147.044-.39-.055-.479-.1-.087-.375-.068-.54-.019-.176.059-.33.205-.473.332-.551.478-1.08.976-1.652 1.435-.914.733-2.126.781-2.962.166-1.003-.752-1.102-2.001-.188-2.9.474-.468 1.002-.908 1.509-1.357.1-.088.22-.175.308-.283.243-.254.507-.527.133-.85-.342-.292-.65-.078-.914.137-.276.215-.507.479-.793.684-.177.127-.408.254-.617.273-.606.049-1.09-.625-.727-1.054.54-.625 1.134-1.25 2.026-1.523.97-.293 1.927.02 2.511.77.518.675.463 1.651-.22 2.364-.496.517-1.068.986-1.608 1.474-.143.127-.352.244-.396.39-.066.215-.022.47-.022.704.264-.01.54.029.782-.04.176-.048.297-.224.44-.351.55-.478 1.068-.996 1.663-1.425 1.266-.918 2.962-.528 3.403.751.077.186.099.381.11.44Z"/>
    </g>
    <defs>
        <clipPath id="a">
            <path fill="#fff" transform="translate(.496)" d="M0 0h56.393v50H0z"/>
        </clipPath>
    </defs>
</svg>
