<svg width="41" height="40" fill="none" xmlns="http://www.w3.org/2000/svg">
    <g clip-path="url(#a)">
        <path d="M40.276 20.013c0 10.777-8.736 19.513-19.513 19.513-10.777 0-19.513-8.736-19.513-19.513C1.25 9.236 9.986.5 20.763.5 31.54.5 40.276 9.236 40.276 20.013Z" stroke="#00A9E1"/>
        <path d="m14.136 21.597 2.297 6.258L26.65 13.65l-12.515 7.947Z" fill="#00AFE5" fill-opacity=".69"/>
        <path d="m16.698 22.997-.238 4.91 5.386-4.567-5.148-.343Z" fill="#00AFE5" fill-opacity=".69"/>
        <path d="M29.133 11.274 9.014 18.93c-.58.21-.554 1.03.027 1.214l5.175 1.743 11.828-7.63-9.346 8.739 7.287 5.518c.765.58 1.848.185 2.086-.74l3.934-15.762c.132-.502-.37-.924-.872-.74Z" fill="#00AFE5" fill-opacity=".69"/>
    </g>
    <defs>
        <clipPath id="a">
            <path fill="#fff" transform="translate(.75)" d="M0 0h40v40H0z"/>
        </clipPath>
    </defs>
</svg>
