<svg width="15" height="14" fill="none" xmlns="http://www.w3.org/2000/svg">
    <path d="m6.636.487-1.785 3.62-3.994.582a.875.875 0 0 0-.484 1.493l2.89 2.816-.684 3.978a.874.874 0 0 0 1.269.921L7.42 12.02l3.573 1.879c.635.333 1.392-.203 1.269-.922l-.684-3.978 2.89-2.816a.875.875 0 0 0-.484-1.493l-3.994-.582L8.206.487a.876.876 0 0 0-1.57 0Z" fill="#F7B249" fill-opacity=".2"/>
    <path d="m6.636.487-1.785 3.62-3.994.582a.875.875 0 0 0-.484 1.493l2.89 2.816-.684 3.978a.874.874 0 0 0 1.269.921L7.42 12.02l3.573 1.879c.635.333 1.392-.203 1.269-.922l-.684-3.978 2.89-2.816a.875.875 0 0 0-.484-1.493l-3.994-.582L8.206.487a.876.876 0 0 0-1.57 0Z" fill="#F7B249" fill-opacity=".2"/>
    <path d="m6.636.487-1.785 3.62-3.994.582a.875.875 0 0 0-.484 1.493l2.89 2.816-.684 3.978a.874.874 0 0 0 1.269.921L7.42 12.02l3.573 1.879c.635.333 1.392-.203 1.269-.922l-.684-3.978 2.89-2.816a.875.875 0 0 0-.484-1.493l-3.994-.582L8.206.487a.876.876 0 0 0-1.57 0Z" fill="#F7B249" fill-opacity=".2"/>
</svg>
