<svg width="24" height="23" fill="none" xmlns="http://www.w3.org/2000/svg">
    <path d="M23.556 10.928C23.417 4.857 18.422 0 12.247 0 6.177 0 1.215 4.753.972 10.72v.485c0 2.116.59 4.094 1.63 5.793L.557 23l6.245-1.977a11.15 11.15 0 0 0 5.446 1.387c6.244 0 11.31-5.03 11.31-11.205v-.277Zm-11.274 9.678c-1.943 0-3.712-.59-5.239-1.56L3.401 20.19l1.18-3.504a9.291 9.291 0 0 1-1.805-5.516c0-.312 0-.624.035-.902.451-4.787 4.545-8.499 9.47-8.499 4.996 0 9.09 3.85 9.471 8.708.035.242.035.485.035.728-.035 5.204-4.267 9.401-9.505 9.401Z" fill="#fff" fill-opacity=".5"/>
    <path d="M17.45 13.46c-.277-.139-1.63-.798-1.907-.902-.243-.104-.451-.139-.624.139-.174.277-.73.902-.868 1.075-.173.174-.312.208-.59.07-.277-.14-1.18-.417-2.22-1.353-.832-.729-1.387-1.63-1.526-1.908-.174-.278 0-.417.104-.555.139-.14.277-.313.416-.486.035-.035.07-.104.104-.139.07-.104.104-.208.174-.312.104-.174.034-.347-.035-.486-.07-.139-.624-1.491-.867-2.047-.243-.555-.451-.45-.625-.45-.173 0-.347-.035-.52-.035a.999.999 0 0 0-.729.347c-.242.277-.97.936-.97 2.29 0 .312.068.624.138.936.277.971.867 1.77.971 1.908.139.173 1.908 3.053 4.718 4.163 2.81 1.11 2.81.728 3.33.694.52-.035 1.631-.66 1.874-1.319.243-.624.243-1.18.173-1.318-.07-.104-.243-.173-.52-.312Z" fill="#fff" fill-opacity=".5"/>
</svg>
