<svg width="25" height="24" fill="none" xmlns="http://www.w3.org/2000/svg">
    <g clip-path="url(#a)">
        <path d="M21.459 4.61a5.557 5.557 0 0 0-1.802-1.193 5.6 5.6 0 0 0-6.054 1.193l-1.07 1.06-1.07-1.06a5.583 5.583 0 0 0-3.928-1.611c-1.473 0-2.886.58-3.928 1.611A5.475 5.475 0 0 0 1.98 8.5c0 1.459.585 2.858 1.627 3.89l1.07 1.06 7.856 7.78 7.856-7.78 1.07-1.06a5.496 5.496 0 0 0 1.204-1.785 5.453 5.453 0 0 0 0-4.21A5.495 5.495 0 0 0 21.46 4.61Z" stroke="silver" stroke-width="2" stroke-linecap="round" stroke-linejoin="round"/>
    </g>
    <defs>
        <clipPath id="a">
            <rect x=".416" width="24.234" height="24" rx="10" fill="#fff"/>
        </clipPath>
    </defs>
</svg>
