<svg width="25" height="24" fill="none" xmlns="http://www.w3.org/2000/svg">
    <path d="m6.475 2-3.03 4v14c0 .53.213 1.04.592 1.414A2.03 2.03 0 0 0 5.465 22H19.6c.536 0 1.05-.21 1.428-.586A1.99 1.99 0 0 0 21.62 20V6l-3.029-4H6.475ZM3.445 6H21.62" stroke="silver" stroke-width="2" stroke-linecap="round" stroke-linejoin="round"/>
    <path d="M16.572 10a3.98 3.98 0 0 1-1.183 2.828A4.059 4.059 0 0 1 12.533 14a4.059 4.059 0 0 1-2.856-1.172A3.98 3.98 0 0 1 8.494 10" stroke="silver" stroke-width="2" stroke-linecap="round" stroke-linejoin="round"/>
</svg>
