<svg width="21" height="14" fill="none" xmlns="http://www.w3.org/2000/svg">
    <path d="M19.035 6.08h-.428v-2c0-.071-.107-.25-.143-.25-.5-.035-1 0-1.536 0v2.322h-2.321v.393c0 .428.036.821.071 1.25.393 0 .822.035 1.215.035h1.071v2.25h1.679V7.795h2.285V6.08h-1.893ZM12.5 5.866c-1.429.036-2.857 0-4.322 0H6.964c-.071 0-.214.107-.214.143v2.535h3.5c-.036.179-.072.286-.107.429-.536 1.607-2.179 2.393-3.965 2.107C3.964 10.723 2.607 8.687 3 6.473c.071-.321.143-.607.286-.893C4 3.973 5.82 3.01 7.57 3.402c.643.142 1.179.464 1.643.857.643-.643 1.25-1.286 1.929-1.929a.783.783 0 0 0-.179-.107C9.428.902 7.643.437 5.643.759 2.786 1.223.714 3.473.25 6.116c-.214 1.143-.107 2.321.357 3.5a6.68 6.68 0 0 0 6.929 4.178c1.464-.178 2.785-.678 3.821-1.785 1.5-1.607 1.893-3.572 1.679-5.679-.072-.393-.215-.464-.536-.464Z" fill="#fff"/>
</svg>
