<svg width="27" height="17" fill="none" xmlns="http://www.w3.org/2000/svg">
    <path d="M26.036 2.009c-.322-.286-1.572-.25-2.822-.25s-2.535 0-2.821.143c-.286.107-.893 1.571-1.679 3.071-.892 1.715-2 3.322-2.678 3.322-.893 0-.679-2.822-.643-4.857.036-1.358-.179-1.786-.393-1.93-.464-.32-1.786-.642-1.786-.642S9.286.58 8.75 2.26c.75.107 2.036-.143 1.536 5.107-.036.25-.607 2.429-2.429-.5-.464-.714-2.214-5.107-2.821-5.107C3 1.688 1 1.616.286 2.009c-.643.357.893 3.393 3.464 7.429 2.107 3.285 4.322 5.892 8.179 6.535.714.072 2.607.143 3.214-.143.393-.214-.072-3.071 1.286-3.321.607-.107 2.964 2.964 3.857 3.321.535.215 1.714.286 2.928.25 1.322-.035 2.786.108 2.929-.785.321-1.965-3.964-4.536-4.107-5.75-.107-.857 1.571-2.5 2.428-3.715 1.108-1.464 2.25-3.25 1.572-3.821Z" fill="#fff"/>
</svg>
