<svg width="23" height="23" fill="none" xmlns="http://www.w3.org/2000/svg">
    <path d="M18.56 0H4.44A4.449 4.449 0 0 0 0 4.44V18.56A4.449 4.449 0 0 0 4.44 23h14.12A4.449 4.449 0 0 0 23 18.56V4.475C23 2.012 20.988 0 18.56 0Zm1.283 2.671h.52v3.92h-3.885V2.706l3.365-.035ZM8.187 9.158c.729-1.006 1.943-1.7 3.296-1.7 1.353 0 2.532.66 3.295 1.7.104.14.174.243.243.382.347.59.52 1.249.52 1.977a4.064 4.064 0 0 1-4.058 4.06 4.064 4.064 0 0 1-4.06-4.06c0-.728.209-1.387.521-1.977.104-.139.174-.243.243-.382Zm12.558 9.436a2.236 2.236 0 0 1-2.22 2.22H4.44a2.236 2.236 0 0 1-2.22-2.22V9.193h3.435c-.07.208-.174.416-.209.66-.138.554-.242 1.11-.242 1.699 0 3.47 2.81 6.28 6.279 6.28a6.277 6.277 0 0 0 6.279-6.28c0-.59-.07-1.18-.243-1.7-.07-.208-.139-.45-.208-.659h3.434v9.401Z" fill="#fff" fill-opacity=".5"/>
</svg>
