<svg width="41" height="40" fill="none" xmlns="http://www.w3.org/2000/svg">
    <path d="M40.25 20c0 10.77-8.73 19.5-19.5 19.5S1.25 30.77 1.25 20 9.98.5 20.75.5s19.5 8.73 19.5 19.5Z" stroke="#23B180"/>
    <path d="M40.25 20c0 10.77-8.73 19.5-19.5 19.5S1.25 30.77 1.25 20 9.98.5 20.75.5s19.5 8.73 19.5 19.5Z" stroke="#23B180"/>
    <path d="M32.57 18.571c-.143-6.25-5.285-11.25-11.643-11.25-6.25 0-11.357 4.893-11.607 11.036v.5c0 2.179.607 4.214 1.679 5.964L8.892 31l6.428-2.036a11.478 11.478 0 0 0 5.607 1.429c6.429 0 11.643-5.179 11.643-11.536v-.286Z" fill="#23B180"/>
    <path d="M26.284 21.178c-.285-.142-1.678-.821-1.964-.928-.25-.107-.464-.143-.643.143-.178.285-.75.928-.893 1.107-.178.178-.321.214-.607.071-.286-.143-1.214-.428-2.286-1.393-.857-.75-1.428-1.678-1.571-1.964-.179-.286 0-.428.107-.571.143-.143.286-.322.429-.5.035-.036.071-.107.107-.143.071-.107.107-.214.178-.322.108-.178.036-.357-.035-.5-.072-.142-.643-1.535-.893-2.107-.25-.571-.465-.464-.643-.464-.179 0-.357-.036-.536-.036-.178 0-.5.072-.75.357-.25.286-1 .965-1 2.358 0 .321.072.642.143.964.286 1 .893 1.821 1 1.964.143.179 1.964 3.143 4.857 4.286 2.893 1.143 2.893.75 3.429.714.535-.036 1.678-.678 1.928-1.357.25-.643.25-1.214.179-1.357-.072-.107-.25-.179-.536-.322Z" fill="#fff"/>
</svg>
