<svg width="206" height="68" fill="none" xmlns="http://www.w3.org/2000/svg">
    <g filter="url(#a)" fill="#4531C6">
        <path fill-rule="evenodd" clip-rule="evenodd" d="M29.91 0v23.455c0 6.81 4.336 8.667 9.012 8.667h20.974v7.498c0 5.433-4.47 6.878-7.977 4.058-1.47-1.182-1.444-5.365-1.444-5.365h-5.158s-.142 4.028 1.1 6.74c.752 1.643 3.572 4.678 9.353 4.678 5.157 0 8.866-3.027 8.866-8.392v-9.217h5.708v-4.746h-5.708V9.699C64.636 6.74 61.133 0 54.046 0H29.91Zm4.68 21.185V4.333h17.879c6.67 0 7.427 4.127 7.427 8.46v14.583H42.29c-5.638 0-7.701-.482-7.701-6.19Z"/>
        <path d="M51.231 12.794c-1.233.055-2.147 1.036-2.2 2.27-.057 1.292.908 2.418 2.2 2.476 1.347.06 2.465-1.129 2.407-2.476-.056-1.291-1.116-2.328-2.407-2.27ZM0 24.212c0-7.91 9.142-18.09 18.36-18.09h9.284v5.021h-7.908c-5.85 0-14.647 5.789-14.647 13.069V48.08h11.484c0-5.021 4.813-8.46 10.108-8.46 5.845 0 9.903 4.402 10.247 8.46h9.146s2.063 2.751 5.157 2.751v1.238c-.008.262-.088.331-.344.344h-17.81c-.42-.09-.55-.235-.55-.688 0 0 0-3.301-.276-4.058-.65-1.788-2.75-2.751-5.57-2.82-2.819-.069-5.363 1.376-5.639 2.82-.275 1.445-.206 4.058-.206 4.058-.01.535-.08.663-.275.688l-19.805.138c-.568.003-.75-.119-.756-.62v-27.72Z"/>
    </g>
    <g filter="url(#b)">
        <path d="M73.571 32.117v-4.741H86.28l6.859 16.85 6.182-16.85h9.459l6.387 17.103 6.751-17.103h8.934l-9.701 25.175h-11.638l-5.36-14.234-5.36 14.234H87.155l-8.146-20.434h-5.438Zm56.835 6.02v-4.685h37.08v9.55l-23.313 3.243v1.621h14.134v-1.621l9.179-.901v7.207h-32.491V38.137h-4.589Zm13.767 3.46 14.134-1.839v-1.621h-14.134v3.46Zm24.379-9.586v-4.685h13.768v5.405l23.679 2.883v16.937h-22.578l-1.836-1.802-1.872 1.802h-6.572V32.01h-4.589Zm13.768 15.855h14.501v-8.828l-14.501-1.802v10.63Z" fill="#4531C6"/>
    </g>
    <g filter="url(#c)">
        <path d="M73.571 5.17V1.136h11.685v15.85h11.912v-2.414l7.439-1.022v7.47h-26.79V5.17h-4.246Zm32.173 4.488V5.965h10.687V21.02h-7.124V9.658h-3.563Zm3.563-5.681V0h7.124v3.977h-7.124Zm9.685 5.681V5.965h3.562V1.136h7.125v4.83h6.982v3.692h-6.982v6.817l1.71.853h10.972v3.692h-12.824l-6.983-3.408V9.658h-3.562Zm21.041 0V5.965h3.562V1.136h7.125v4.83h6.982v3.692h-6.982v6.817l1.71.853h10.972v3.692h-12.825l-6.982-3.408V9.658h-3.562Zm26.499 11.362V1.136h7.125v16.192h3.563v3.692h-10.688Zm10.683-11.362V5.965h28.784v7.528l-18.097 2.556v1.279h10.973v-1.279l7.124-.71v5.681h-25.222V9.658h-3.562Zm10.687 2.727 10.973-1.449V9.658h-10.973v2.727Z" fill="#A2D729"/>
    </g>
    <path d="M1.057 64.55v-8.726h2.949c.684 0 1.244.123 1.679.37.437.245.761.576.971.993.21.418.316.884.316 1.398 0 .514-.106.981-.316 1.402-.207.42-.528.756-.963 1.006-.434.247-.991.37-1.67.37H1.909v-.937h2.08c.468 0 .845-.081 1.129-.243.284-.162.49-.38.618-.656a2.19 2.19 0 0 0 .196-.942c0-.35-.066-.662-.196-.938A1.398 1.398 0 0 0 5.114 57c-.287-.16-.668-.239-1.142-.239H2.114v7.79H1.057Zm9.407.154c-.415 0-.791-.078-1.13-.234a1.938 1.938 0 0 1-.805-.686c-.199-.301-.298-.665-.298-1.091 0-.375.074-.679.221-.912.148-.236.346-.42.593-.554.247-.133.52-.233.818-.298.301-.068.604-.122.908-.162.397-.051.72-.09.967-.115.25-.029.432-.075.545-.14.117-.066.175-.18.175-.342v-.034c0-.42-.115-.747-.345-.98-.227-.233-.572-.35-1.036-.35-.48 0-.856.106-1.129.316-.273.21-.464.435-.575.673l-.955-.34c.17-.398.398-.708.682-.93.287-.224.6-.38.938-.468.34-.091.676-.137 1.005-.137.21 0 .452.026.725.077.275.048.54.15.797.303.258.153.473.384.643.694.17.31.256.724.256 1.244v4.313h-1.006v-.887h-.051a1.772 1.772 0 0 1-.34.457c-.16.161-.372.3-.636.413-.264.113-.586.17-.967.17Zm.153-.903c.398 0 .733-.078 1.006-.235a1.595 1.595 0 0 0 .835-1.384v-.92c-.043.05-.136.097-.281.14-.142.04-.307.075-.495.106a22.303 22.303 0 0 1-.963.128c-.26.034-.505.09-.732.166a1.264 1.264 0 0 0-.546.337c-.136.148-.204.35-.204.605 0 .35.129.614.387.793.262.176.593.264.993.264Zm4.273-.92h1.074c.023.295.156.52.4.673.248.153.569.23.964.23.403 0 .748-.082 1.035-.247.287-.168.43-.438.43-.81 0-.219-.053-.41-.161-.571a1.065 1.065 0 0 0-.456-.383 1.638 1.638 0 0 0-.695-.137h-1.125v-.903h1.125c.4 0 .696-.091.886-.273a.897.897 0 0 0 .29-.682.876.876 0 0 0-.31-.703c-.208-.179-.502-.268-.883-.268-.383 0-.703.086-.959.26-.255.17-.39.39-.404.66h-1.057c.011-.352.119-.663.323-.933.205-.273.483-.486.836-.64a2.957 2.957 0 0 1 1.21-.234c.46 0 .86.081 1.197.243.341.16.604.377.789.652a1.6 1.6 0 0 1 .281.93c0 .368-.104.667-.311.894-.207.227-.467.39-.78.486v.068c.247.017.462.096.644.239.184.139.328.322.43.55.102.224.153.472.153.745 0 .398-.106.744-.32 1.04-.212.292-.505.52-.877.682-.372.159-.797.238-1.274.238-.463 0-.878-.075-1.244-.226a2.158 2.158 0 0 1-.874-.634 1.578 1.578 0 0 1-.337-.947Zm6.339 4.124v-9h.972v1.04h.119c.074-.113.176-.258.307-.434.133-.18.324-.338.57-.478.25-.142.589-.213 1.015-.213.551 0 1.037.138 1.457.414.42.275.749.666.985 1.171.236.506.354 1.103.354 1.79 0 .693-.118 1.294-.354 1.803-.236.505-.563.898-.98 1.176-.418.275-.9.413-1.445.413-.42 0-.757-.07-1.01-.209a1.873 1.873 0 0 1-.584-.481 6.413 6.413 0 0 1-.315-.452h-.085v3.46h-1.006Zm.989-5.727c0 .495.072.93.217 1.308.145.375.357.67.635.883.278.21.62.315 1.023.315.42 0 .771-.11 1.052-.332.284-.225.497-.526.64-.904.144-.38.217-.804.217-1.27 0-.46-.071-.875-.213-1.244a1.922 1.922 0 0 0-.635-.882c-.282-.219-.635-.328-1.061-.328-.41 0-.753.103-1.032.31a1.867 1.867 0 0 0-.63.861c-.142.367-.213.794-.213 1.283Zm8.25 3.426a2.66 2.66 0 0 1-1.13-.234 1.938 1.938 0 0 1-.805-.686c-.199-.301-.298-.665-.298-1.091 0-.375.074-.679.221-.912.148-.236.346-.42.593-.554.247-.133.52-.233.818-.298a10 10 0 0 1 .907-.162c.398-.051.72-.09.968-.115.25-.029.432-.075.545-.14.117-.066.175-.18.175-.342v-.034c0-.42-.115-.747-.345-.98-.227-.233-.573-.35-1.036-.35-.48 0-.856.106-1.129.316-.273.21-.464.435-.575.673l-.955-.34c.17-.398.398-.708.682-.93.287-.224.6-.38.938-.468.34-.091.676-.137 1.005-.137.21 0 .452.026.725.077.275.048.54.15.797.303.258.153.472.384.643.694.17.31.256.724.256 1.244v4.313h-1.006v-.887h-.051a1.772 1.772 0 0 1-.341.457c-.16.161-.37.3-.635.413-.264.113-.587.17-.967.17Zm.153-.903c.398 0 .733-.078 1.006-.235a1.595 1.595 0 0 0 .835-1.384v-.92c-.043.05-.136.097-.281.14-.142.04-.307.075-.495.106a22.303 22.303 0 0 1-.963.128c-.261.034-.505.09-.733.166a1.264 1.264 0 0 0-.545.337c-.136.148-.205.35-.205.605 0 .35.13.614.388.793.262.176.593.264.993.264Zm9.54-8.25.512.613a1.641 1.641 0 0 1-.69.405 3.864 3.864 0 0 1-.887.141c-.33.017-.696.034-1.1.051-.454.017-.83.128-1.129.332-.298.205-.528.5-.69.887-.162.386-.266.86-.311 1.423h.085c.222-.409.528-.71.92-.903.392-.193.813-.29 1.262-.29.511 0 .971.12 1.38.358.41.239.733.592.972 1.061s.358 1.047.358 1.734c0 .685-.122 1.276-.366 1.773-.242.497-.581.88-1.019 1.15-.435.268-.944.401-1.53.401-.585 0-1.098-.138-1.538-.413-.44-.279-.783-.69-1.027-1.236-.244-.548-.367-1.226-.367-2.033v-.698c0-1.458.248-2.563.742-3.316.497-.753 1.244-1.142 2.241-1.167.353-.012.667-.015.942-.009.276.006.516-.007.72-.038.205-.032.378-.107.52-.226Zm-2.233 8.233c.395 0 .735-.1 1.019-.298.287-.2.507-.48.66-.84.154-.364.23-.791.23-1.283 0-.477-.078-.883-.234-1.218a1.703 1.703 0 0 0-.66-.767c-.287-.176-.631-.265-1.032-.265-.292 0-.555.05-.788.15-.233.099-.432.245-.597.439a2.06 2.06 0 0 0-.383.707 3.34 3.34 0 0 0-.14.954c0 .733.171 1.32.515 1.76.343.44.814.66 1.41.66Zm7.113.903c-.591 0-1.11-.14-1.556-.422a2.866 2.866 0 0 1-1.04-1.18c-.247-.506-.37-1.097-.37-1.773 0-.682.123-1.277.37-1.785a2.86 2.86 0 0 1 1.04-1.185c.446-.281.965-.422 1.556-.422.59 0 1.107.14 1.55.422.447.281.793.676 1.04 1.185.25.508.375 1.103.375 1.785 0 .676-.125 1.267-.375 1.773-.247.506-.593.9-1.04 1.18-.443.282-.96.422-1.55.422Zm0-.903c.448 0 .818-.115 1.107-.345.29-.23.505-.533.644-.908.14-.375.209-.781.209-1.219 0-.437-.07-.845-.21-1.223a2.06 2.06 0 0 0-.643-.916c-.29-.233-.659-.35-1.108-.35-.448 0-.818.117-1.108.35-.29.233-.504.538-.643.916a3.51 3.51 0 0 0-.209 1.223c0 .438.07.844.21 1.219.138.375.353.678.642.908.29.23.66.345 1.108.345Zm3.645-4.841v-.938h5.318v.938h-2.148v5.608h-1.005v-5.608h-2.165Zm6.785 5.608v-6.546h1.006v2.847h.665l2.352-2.847h1.295l-2.642 3.154 2.677 3.392h-1.296l-2.148-2.762h-.903v2.762H55.47Zm8.372.153a2.66 2.66 0 0 1-1.13-.234 1.938 1.938 0 0 1-.805-.686c-.199-.301-.298-.665-.298-1.091 0-.375.074-.679.221-.912.148-.236.345-.42.593-.554.247-.133.52-.233.818-.298a10 10 0 0 1 .908-.162c.397-.051.72-.09.967-.115.25-.029.432-.075.545-.14.117-.066.175-.18.175-.342v-.034c0-.42-.115-.747-.345-.98-.227-.233-.573-.35-1.036-.35-.48 0-.856.106-1.129.316-.273.21-.464.435-.575.673l-.955-.34c.17-.398.398-.708.682-.93.287-.224.6-.38.938-.468.34-.091.676-.137 1.005-.137.21 0 .452.026.725.077.275.048.54.15.796.303.26.153.474.384.644.694.17.31.256.724.256 1.244v4.313h-1.006v-.887h-.051a1.772 1.772 0 0 1-.341.457c-.16.161-.37.3-.635.413-.264.113-.587.17-.967.17Zm.153-.903c.398 0 .733-.078 1.006-.235a1.595 1.595 0 0 0 .835-1.384v-.92c-.043.05-.136.097-.281.14-.142.04-.307.075-.495.106a22.303 22.303 0 0 1-.963.128c-.261.034-.505.09-.733.166a1.264 1.264 0 0 0-.545.337c-.136.148-.205.35-.205.605 0 .35.13.614.388.793.262.176.593.264.993.264Zm9.063-.733 3.153-5.063h1.16v6.546h-1.006v-5.063l-3.137 5.063h-1.176v-6.546h1.006v5.063Zm9.53 1.483v-6.546h5.147v6.546h-1.005v-5.608h-3.137v5.608h-1.006Zm6.984 2.454v-9h.971v1.04h.12c.074-.113.176-.258.306-.434.134-.18.324-.338.572-.478.25-.142.588-.213 1.014-.213.55 0 1.037.138 1.457.414.42.275.749.666.984 1.171.236.506.354 1.103.354 1.79 0 .693-.118 1.294-.353 1.803-.236.505-.563.898-.98 1.176-.418.275-.9.413-1.445.413-.42 0-.757-.07-1.01-.209a1.873 1.873 0 0 1-.584-.481 6.482 6.482 0 0 1-.315-.452h-.085v3.46h-1.006Zm.988-5.727c0 .495.073.93.218 1.308.145.375.356.67.635.883.278.21.619.315 1.022.315.42 0 .772-.11 1.053-.332.284-.225.497-.526.64-.904.144-.38.216-.804.216-1.27 0-.46-.07-.875-.213-1.244a1.923 1.923 0 0 0-.635-.882c-.28-.219-.634-.328-1.06-.328-.41 0-.753.103-1.032.31a1.867 1.867 0 0 0-.63.861c-.143.367-.214.794-.214 1.283Zm8.983 3.41c-.59 0-1.109-.141-1.555-.423a2.866 2.866 0 0 1-1.04-1.18c-.247-.506-.37-1.097-.37-1.773 0-.682.123-1.277.37-1.785a2.86 2.86 0 0 1 1.04-1.185c.446-.281.965-.422 1.555-.422.591 0 1.108.14 1.552.422.446.281.792.676 1.039 1.185.25.508.375 1.103.375 1.785 0 .676-.125 1.267-.375 1.773-.247.506-.593.9-1.039 1.18-.444.282-.961.422-1.552.422Zm0-.904c.45 0 .819-.115 1.108-.345.29-.23.505-.533.644-.908a3.48 3.48 0 0 0 .209-1.219c0-.437-.07-.845-.209-1.223a2.058 2.058 0 0 0-.644-.916c-.289-.233-.659-.35-1.108-.35-.448 0-.818.117-1.108.35-.29.233-.504.538-.643.916a3.51 3.51 0 0 0-.209 1.223c0 .438.07.844.209 1.219.14.375.354.678.643.908.29.23.66.345 1.108.345Zm3.803 2.642v-2.813h.545c.134-.139.249-.29.345-.451.097-.162.181-.354.252-.576.074-.224.136-.497.187-.818.051-.324.097-.714.136-1.172l.222-2.59h4.159v5.607h1.006v2.813h-1.006V64.55h-4.841v1.875h-1.005Zm1.687-2.813h3.154v-4.67h-2.216l-.171 1.653a18.546 18.546 0 0 1-.264 1.794c-.105.512-.273.92-.503 1.223Zm6.5.938v-6.546h2.676c.704 0 1.264.16 1.679.478.415.318.622.738.622 1.261 0 .398-.118.706-.354.925-.235.216-.538.362-.907.439.241.034.475.119.703.255.23.137.42.324.571.563.15.236.226.526.226.87 0 .334-.086.634-.256.898a1.75 1.75 0 0 1-.733.627c-.318.153-.699.23-1.142.23h-3.085Zm.954-.92h2.131c.347 0 .618-.083.814-.248.196-.165.294-.389.294-.673 0-.338-.098-.604-.294-.797-.196-.196-.467-.294-.814-.294h-2.131v2.011Zm0-2.881h1.722c.27 0 .501-.037.694-.111a.984.984 0 0 0 .444-.324.822.822 0 0 0 .157-.503.742.742 0 0 0-.345-.648c-.23-.159-.547-.238-.95-.238h-1.722v1.824Zm6.79 2.318 3.153-5.063h1.159v6.546h-1.005v-5.063l-3.137 5.063h-1.176v-6.546h1.006v5.063Zm5.745 1.483 2.659-3.324-2.625-3.222h1.193l2.182 2.796h.546v-2.796h1.005v2.796h.529l2.182-2.796h1.193l-2.608 3.222 2.642 3.324h-1.21l-2.216-2.813h-.512v2.813h-1.005v-2.813h-.512l-2.233 2.813h-1.21Zm12.81.136c-.631 0-1.175-.139-1.632-.417a2.8 2.8 0 0 1-1.053-1.176c-.244-.506-.366-1.094-.366-1.765 0-.67.122-1.261.366-1.772a2.892 2.892 0 0 1 1.031-1.202c.444-.29.961-.435 1.551-.435a3.1 3.1 0 0 1 1.01.17 2.5 2.5 0 0 1 .908.555c.273.252.49.588.652 1.005.162.418.243.932.243 1.543v.426h-5.045v-.87h4.022c0-.369-.074-.698-.221-.988a1.672 1.672 0 0 0-.623-.686 1.74 1.74 0 0 0-.946-.251c-.4 0-.747.1-1.039.298-.29.196-.513.452-.669.767a2.244 2.244 0 0 0-.235 1.014v.58c0 .494.086.913.256 1.257.173.34.413.6.72.78a2.11 2.11 0 0 0 1.07.264c.264 0 .503-.037.716-.11a1.53 1.53 0 0 0 .558-.342 1.55 1.55 0 0 0 .362-.57l.972.272c-.103.33-.274.62-.516.87-.241.246-.54.44-.895.579a3.316 3.316 0 0 1-1.197.204Zm8.62-3.87v.938h-3.613v-.937h3.613Zm-3.375-2.812v6.546h-1.005v-6.546h1.005Zm4.143 0v6.546h-1.006v-6.546h1.006Zm2.842 5.063 3.153-5.063h1.159v6.546h-1.005v-5.063l-3.137 5.063h-1.176v-6.546h1.006v5.063Zm8.899 1.62c-.631 0-1.175-.14-1.632-.418a2.8 2.8 0 0 1-1.053-1.176c-.244-.506-.366-1.094-.366-1.765 0-.67.122-1.261.366-1.772a2.892 2.892 0 0 1 1.031-1.202c.443-.29.96-.435 1.551-.435a3.1 3.1 0 0 1 1.01.17 2.5 2.5 0 0 1 .908.555c.273.252.49.588.652 1.005.162.418.243.932.243 1.543v.426h-5.046v-.87h4.023c0-.369-.074-.698-.221-.988a1.672 1.672 0 0 0-.623-.686 1.74 1.74 0 0 0-.946-.251c-.4 0-.747.1-1.039.298-.29.196-.513.452-.669.767a2.244 2.244 0 0 0-.235 1.014v.58c0 .494.085.913.256 1.257.173.34.413.6.72.78a2.11 2.11 0 0 0 1.07.264c.264 0 .502-.037.716-.11.215-.078.402-.191.558-.342a1.55 1.55 0 0 0 .362-.57l.972.272c-.103.33-.275.62-.516.87-.241.246-.54.44-.895.579a3.316 3.316 0 0 1-1.197.204Zm10.274 0c-.614 0-1.142-.146-1.585-.435a2.823 2.823 0 0 1-1.023-1.198c-.239-.508-.358-1.09-.358-1.743 0-.664.122-1.251.366-1.76a2.9 2.9 0 0 1 1.032-1.197c.443-.29.96-.435 1.551-.435.46 0 .875.085 1.244.256.369.17.672.409.908.716s.382.665.439 1.074h-1.006a1.562 1.562 0 0 0-.511-.793c-.262-.233-.614-.35-1.057-.35-.392 0-.736.103-1.031.307a2 2 0 0 0-.687.857c-.161.366-.242.797-.242 1.291 0 .506.079.946.238 1.321.162.375.389.666.682.874.295.207.642.31 1.04.31.261 0 .498-.045.711-.136.214-.09.394-.221.542-.392.147-.17.252-.375.315-.613h1.006a2.336 2.336 0 0 1-.422 1.044 2.363 2.363 0 0 1-.882.733c-.364.179-.787.268-1.27.268Zm5.97.016c-.415 0-.791-.078-1.129-.234a1.94 1.94 0 0 1-.806-.686c-.199-.301-.298-.665-.298-1.091 0-.375.074-.679.222-.912a1.56 1.56 0 0 1 .592-.554c.247-.133.52-.233.818-.298.301-.068.604-.122.908-.162.398-.051.72-.09.967-.115.25-.029.432-.075.546-.14.116-.066.174-.18.174-.342v-.034c0-.42-.115-.747-.345-.98-.227-.233-.572-.35-1.035-.35-.481 0-.857.106-1.13.316-.272.21-.464.435-.575.673l-.954-.34c.17-.398.397-.708.681-.93.287-.224.6-.38.938-.468.341-.091.676-.137 1.006-.137.21 0 .451.026.724.077.276.048.541.15.797.303.258.153.473.384.643.694.171.31.256.724.256 1.244v4.313H177.2v-.887h-.051a1.768 1.768 0 0 1-.341.457c-.159.161-.37.3-.635.413-.264.113-.586.17-.967.17Zm.153-.903c.398 0 .733-.078 1.006-.235a1.59 1.59 0 0 0 .835-1.384v-.92c-.042.05-.136.097-.281.14-.142.04-.307.075-.494.106a22.717 22.717 0 0 1-.963.128c-.262.034-.506.09-.733.166a1.261 1.261 0 0 0-.546.337c-.136.148-.204.35-.204.605 0 .35.129.614.387.793.262.176.593.264.993.264Zm5.688-.733 3.154-5.063h1.159v6.546h-1.006v-5.063l-3.136 5.063h-1.176v-6.546h1.005v5.063Zm2.489-7.244h.937c0 .46-.159.836-.477 1.129-.318.292-.75.439-1.295.439-.537 0-.965-.147-1.283-.44-.315-.292-.473-.668-.473-1.128h.937c0 .221.062.416.184.583.125.168.336.252.635.252.298 0 .511-.084.639-.252a.92.92 0 0 0 .196-.583Zm2.775 3.119v-.938h5.318v.938h-2.147v5.608h-1.006v-5.608h-2.165Zm9.104 5.744c-.59 0-1.109-.14-1.555-.422a2.868 2.868 0 0 1-1.04-1.18c-.247-.506-.37-1.097-.37-1.773 0-.682.123-1.277.37-1.785.25-.509.597-.904 1.04-1.185.446-.281.965-.422 1.555-.422.591 0 1.108.14 1.552.422.446.281.792.676 1.039 1.185.25.508.375 1.103.375 1.785 0 .676-.125 1.267-.375 1.773-.247.506-.593.9-1.039 1.18-.444.282-.961.422-1.552.422Zm0-.903c.449 0 .819-.115 1.108-.345.29-.23.505-.533.644-.908a3.48 3.48 0 0 0 .209-1.219c0-.437-.07-.845-.209-1.223a2.058 2.058 0 0 0-.644-.916c-.289-.233-.659-.35-1.108-.35-.448 0-.818.117-1.107.35-.29.233-.505.538-.644.916a3.515 3.515 0 0 0-.209 1.223c0 .438.07.844.209 1.219.139.375.354.678.644.908.289.23.659.345 1.107.345Zm4.502.767v-6.546h2.676c.704 0 1.264.16 1.679.478.414.318.622.738.622 1.261 0 .398-.118.706-.354.925-.236.216-.538.362-.908.439.242.034.476.119.704.255.23.137.42.324.571.563.15.236.225.526.225.87 0 .334-.085.634-.255.898a1.756 1.756 0 0 1-.733.627c-.318.153-.699.23-1.142.23h-3.085Zm.954-.92h2.131c.346 0 .618-.083.814-.248.196-.165.294-.389.294-.673 0-.338-.098-.604-.294-.797-.196-.196-.468-.294-.814-.294h-2.131v2.011Zm0-2.881h1.722c.27 0 .501-.037.694-.111a.981.981 0 0 0 .443-.324.817.817 0 0 0 .158-.503.742.742 0 0 0-.345-.648c-.23-.159-.547-.238-.95-.238h-1.722v1.824Z" fill="#FFFCE1"/>
    <defs>
        <filter id="a" x="0" y="0" width="72.344" height="58.551" filterUnits="userSpaceOnUse" color-interpolation-filters="sRGB">
            <feFlood flood-opacity="0" result="BackgroundImageFix"/>
            <feBlend in="SourceGraphic" in2="BackgroundImageFix" result="shape"/>
            <feColorMatrix in="SourceAlpha" values="0 0 0 0 0 0 0 0 0 0 0 0 0 0 0 0 0 0 127 0" result="hardAlpha"/>
            <feOffset dx="2" dy="6"/>
            <feGaussianBlur stdDeviation="5"/>
            <feComposite in2="hardAlpha" operator="arithmetic" k2="-1" k3="1"/>
            <feColorMatrix values="0 0 0 0 0 0 0 0 0 0 0 0 0 0 0 0 0 0 0.15 0"/>
            <feBlend in2="shape" result="effect1_innerShadow_741_1398"/>
        </filter>
        <filter id="b" x="73.571" y="27.326" width="134.428" height="31.224" filterUnits="userSpaceOnUse" color-interpolation-filters="sRGB">
            <feFlood flood-opacity="0" result="BackgroundImageFix"/>
            <feBlend in="SourceGraphic" in2="BackgroundImageFix" result="shape"/>
            <feColorMatrix in="SourceAlpha" values="0 0 0 0 0 0 0 0 0 0 0 0 0 0 0 0 0 0 127 0" result="hardAlpha"/>
            <feOffset dx="2" dy="6"/>
            <feGaussianBlur stdDeviation="5"/>
            <feComposite in2="hardAlpha" operator="arithmetic" k2="-1" k3="1"/>
            <feColorMatrix values="0 0 0 0 0 0 0 0 0 0 0 0 0 0 0 0 0 0 0.15 0"/>
            <feBlend in2="shape" result="effect1_innerShadow_741_1398"/>
        </filter>
        <filter id="c" x="73.571" y="0" width="134.428" height="27.02" filterUnits="userSpaceOnUse" color-interpolation-filters="sRGB">
            <feFlood flood-opacity="0" result="BackgroundImageFix"/>
            <feBlend in="SourceGraphic" in2="BackgroundImageFix" result="shape"/>
            <feColorMatrix in="SourceAlpha" values="0 0 0 0 0 0 0 0 0 0 0 0 0 0 0 0 0 0 127 0" result="hardAlpha"/>
            <feOffset dx="2" dy="6"/>
            <feGaussianBlur stdDeviation="5"/>
            <feComposite in2="hardAlpha" operator="arithmetic" k2="-1" k3="1"/>
            <feColorMatrix values="0 0 0 0 0 0 0 0 0 0 0 0 0 0 0 0 0 0 0.15 0"/>
            <feBlend in2="shape" result="effect1_innerShadow_741_1398"/>
        </filter>
    </defs>
</svg>
