<svg width="1920" height="485" fill="none" xmlns="http://www.w3.org/2000/svg">
    <path d="M1042.74 121.631c-7.36-4.667-15.96-8.273-25.58-10.713-5.7-1.414-11.59-2.617-17.576-3.501 4.416-1.273 8.356-2.828 11.876-4.632 6.53-3.359 11.84-7.248 15.75-11.562 3.98-4.349 6.81-9.264 8.43-14.567 1.61-5.198 2.4-10.643 2.4-16.16 0-18.492-8.14-32.246-24.25-40.909-15.677-8.415-36.77-12.694-62.706-12.694h-78.74v6.012l1.722.318c4.304.813 8.502 3.359 12.447 7.566 3.946 4.243 5.884 8.486 5.884 13.012v172.302c0 4.49-1.973 8.945-5.884 13.259-3.192 3.536-6.528 5.728-9.936 6.753v-3.889h-31.425c-.645 0-1.793-.141-3.515-.424-1.65-.248-3.444-.849-5.273-1.804-1.758-.884-3.301-2.227-4.664-4.03-1.255-1.698-1.901-3.961-1.901-6.754V30.69c0-2.829.789-5.269 2.404-7.426 1.721-2.333 3.587-4.172 5.596-5.657 2.188-1.874 4.878-3.394 8.035-4.49l1.399-.495V6.858H787.47v5.764l1.399.495c3.156 1.096 5.847 2.616 8.322 4.667 2.116 1.308 3.982 3.147 5.524 5.41 1.507 2.192 2.224 4.632 2.224 7.496v191.536H665.79V30.69c0-2.829.789-5.269 2.403-7.426 1.722-2.333 3.588-4.207 5.597-5.657 2.188-1.874 4.878-3.394 8.035-4.49l1.399-.495V6.858H623.46v5.764l1.399.495c3.157 1.096 5.848 2.616 8.323 4.667 2.152 1.308 4.018 3.147 5.56 5.41 1.507 2.192 2.224 4.632 2.224 7.496v178.524c0 2.899-.646 5.375-2.009 7.567-1.399 2.298-3.049 4.207-4.914 5.657-1.901 1.485-3.695 2.581-5.381 3.253-2.332.919-3.013.955-3.085.955h-2.117v6.364h221.657c5.596 0 9.9 1.662 13.093 5.092 3.372 3.606 5.919 7.708 7.533 12.163 1.65 4.561 2.727 9.052 3.229 13.295.61 5.374.753 7.425.753 8.203v2.086h6.78V233.01h86.847c9.937 0 20.914-.671 32.644-2.015 11.804-1.344 23.064-4.314 33.504-8.84 10.55-4.561 19.48-11.244 26.51-19.906 7.14-8.769 10.76-20.65 10.76-35.288 0-10.678-2.15-19.836-6.45-27.226-4.2-7.178-10.12-13.33-17.58-18.104Zm-125.52-6.152h28.698c13.273.283 26.008 1.096 37.882 2.44 11.73 1.308 22.1 3.712 30.81 7.178 8.51 3.394 15.29 8.379 20.16 14.85 4.85 6.4 7.29 15.275 7.29 26.307 0 12.552-2.55 22.594-7.61 29.913-5.09 7.354-11.55 13.047-19.26 16.866-7.82 3.889-16.431 6.435-25.543 7.567-9.291 1.166-18.08 1.767-26.223 1.767H917.22V115.479Zm40.034-10.82H917.22V17.784h29.775c24.429 0 41.827 3.677 51.692 10.926 9.793 7.213 14.563 17.608 14.563 31.858 0 14.39-4.34 25.175-12.88 32.14-8.642 7.072-23.207 11.103-43.116 11.951ZM1274.98 181.776a261.93 261.93 0 0 1-16.83 17.396 103.245 103.245 0 0 1-18.65 13.932c-6.67 3.889-14.1 6.965-22.1 9.122-8 2.157-17.15 3.253-27.19 3.253-14.67 0-27.66-2.829-38.63-8.415-10.98-5.587-20.16-13.26-27.3-22.7-7.18-9.512-12.59-20.685-16.11-33.273-3.52-12.623-5.31-26.094-5.31-40.096 0-7.178.61-14.497 1.87-21.887h152.35c7.1 0 12.26-.46 15.74-1.414 3.74-1.026 6.39-2.652 7.9-4.844 1.47-2.157 2.08-4.809 1.9-7.956-.18-2.758-.61-6.117-1.29-9.936-1.4-9.405-4.6-18.457-9.51-26.943s-11.41-15.982-19.26-22.346c-7.86-6.33-17.22-11.456-27.88-15.24-10.65-3.748-22.38-5.657-34.9-5.657-15.32 0-29.85 2.9-43.26 8.592-13.38 5.728-25.29 13.79-35.37 24.009-10.08 10.218-18.19 22.629-24.11 36.878-5.92 14.214-8.9 29.949-8.9 46.744 0 17.043 2.66 32.813 7.86 46.885 5.2 14.108 12.7 26.519 22.28 36.879 9.61 10.395 21.52 18.563 35.44 24.291 13.92 5.693 29.59 8.592 46.56 8.592 11.8 0 22.39-1.449 31.5-4.313 9.04-2.829 17.36-6.648 24.68-11.351 7.32-4.667 13.92-10.077 19.69-16.088a222.11 222.11 0 0 0 15.82-18.386l1.19-1.556-6.68-5.763-1.5 1.591Zm-17.01-93.558h-151.06c.33-1.273.65-2.546 1.01-3.819 3.33-12.305 8.5-23.584 15.39-33.555 6.81-9.936 15.49-18.174 25.83-24.503 10.26-6.259 22.67-9.441 36.94-9.441 12.67 0 23.68 2.157 32.76 6.47 9.11 4.279 16.64 9.936 22.42 16.76 5.77 6.86 10.04 14.745 12.7 23.478 2.47 8.133 3.83 16.407 4.01 24.61ZM1293.99 6.964v51.694h6.78v-2.086c0-.742.14-2.793.75-8.203.5-4.279 1.58-8.769 3.23-13.295 1.62-4.455 4.16-8.557 7.53-12.163 3.23-3.43 7.5-5.092 13.1-5.092h68.84v191.537c0 2.864-.72 5.303-2.23 7.496-1.54 2.262-3.4 4.066-5.81 5.586-2.19 1.874-4.88 3.395-8.03 4.491l-1.4.495v5.763h59.76v-5.763l-1.4-.495c-3.16-1.096-5.85-2.581-8.18-4.597-1.9-1.344-3.73-3.218-5.45-5.551-1.61-2.157-2.4-4.597-2.4-7.425V17.819h68.84c5.59 0 9.9 1.662 13.09 5.092 3.37 3.606 5.92 7.708 7.53 12.163 1.65 4.597 2.76 9.052 3.23 13.295.61 5.41.75 7.46.75 8.203v2.086h6.78V6.964h-225.31Z" fill="silver" fill-opacity=".05"/>
    <path d="M640.858 360.018c-.681-1.556-2.654-2.016-10.152.636-113.428 52.79-381.791 167.281-423.546 89.846-17.901-32.99 28.447-105.722 59.979-134.892 64.176 4.702 137.355-13.684 165.982-21.852 50.508-17.361 220.257-83.729 284.54-209.781 4.162-11.774 3.731-22.806-1.147-30.974-4.054-6.753-10.942-11.173-20.017-12.73-144.71-18.315-345.381 155.931-452.604 261.971-18.115-5.127-35.442-11.315-52.194-17.255-53.952-19.199-104.927-37.338-167.812-15.275-37.45 15.947-61.629 34.758-78.56 61.17-1.184 2.369-2.01 4.385-.539 5.446 1.507 1.06 3.229-.283 6.816-3.925 22.851-36.879 66.938-60.781 120.962-65.519 46.132-3.006 90.148 14.037 128.962 29.135 12.699 4.95 24.752 9.617 36.303 13.401l-8.681 8.203c-36.267 37.126-68.911 95.362-41.72 137.403 13.38 21.038 39.854 29.524 74.113 29.524 99.797 0 265.671-71.99 366.76-115.87l7.856-3.429c3.982-2.016 5.417-3.607 4.699-5.233Zm-358.474-50.527-9.147-.425c13.416-15.416 60.122-57.987 80.677-76.727 4.951-4.526 8.574-7.815 10.152-9.3C424.834 166.006 500.023 114.1 570.333 80.651c63.889-30.408 115.725-41.617 135.239-29.312 8.789 5.551 10.655 15.805 5.632 30.302-27.514 57.74-91.977 116.824-176.779 162.048-85.126 45.435-176.995 69.408-252.041 65.802Z" fill="silver" fill-opacity=".05"/>
    <path d="M2090 320.805c-.29-23.619-15.71-45.329-36.2-57.351-10.22-6.082-21.45-10.219-32.85-12.729-11.3-2.723-23.32-3.819-34.98-3.288-22.35.848-43.8 6.682-64.03 14.673 19.05-27.226 35.01-56.715 43.55-89.35 6.27-23.797 7.74-49.573 1.57-74.217-5.99-24.751-19.94-47.098-37.16-65.52l-.21-.212-.4-.353c-22.63-19.483-52.44-30.302-81.9-32-29.59-2.121-58.76 3.324-86.13 12.164-54.92 17.785-104.06 48.476-146.71 85.673-21.28 18.705-40.97 39.354-57.11 62.938-7.93 11.845-15.14 24.397-19.77 38.293-2.3 6.93-3.91 14.249-4.12 21.887-.29 7.567 1.22 15.628 4.98 22.558 3.59 6.789 9.04 12.977 15.79 17.043 6.7 4.137 14.31 6.223 21.73 7.107 14.96 1.733 29.42-.778 43.27-4.243 27.65-7.425 53.41-19.129 78.16-32.848l1.94-.954-.18-2.794c-.82-14.072.18-28.039 5.27-40.308 4.92-12.376 13.89-22.559 24.76-30.621 10.9-8.097 23.85-13.683 37.12-18.527 12.88-4.491 26.37-8.204 40.07-11.315 3.66 10.431 3.88 21.604-1.5 30.868-5.28 9.9-14.5 17.573-24.29 24.079-9.86 6.577-20.84 11.633-31.96 16.371-11.19 4.561-22.71 8.698-34.33 12.057l.93 4.208c24.43-4.632 48.29-12.623 69.77-26.024 10.55-6.789 20.56-15.593 26.55-27.438 2.87-5.94 4.23-12.694 3.8-19.271-.5-6.576-2.62-12.799-5.63-18.351l-.75-1.379-1.33.142c-15.17-1.344-30.35.141-45.16 3.854-14.78 3.748-29.28 9.971-41.94 19.376-12.59 9.335-23.28 22.453-27.87 37.728-4.92 14.214-4.41 29.276-1.44 43.102-23.39 12.729-48.35 23.584-74.15 29.842-13.27 3.112-27.01 5.056-39.99 3.288-12.95-1.555-24.5-8.273-29.6-19.624-5.45-10.748-3.41-24.079 1.04-36.171 4.52-12.234 11.62-23.796 19.48-34.687 16.07-21.745 35.66-41.086 56.61-58.624 21.05-17.467 43.73-33.166 67.58-46.567 23.78-13.507 48.64-25.281 74.58-33.378 25.86-8.133 52.8-12.941 79.28-11.668 26.36 1.131 51.91 10.041 71.92 26.518 16.11 16.371 29.2 35.57 36.16 57.246 7.14 21.816 7.36 45.753 2.19 68.666-8.36 35.252-26.44 67.64-48.21 97.306-17.29 7.849-33.79 17.113-49.61 27.261-38.03 24.468-72.14 53.851-104.54 84.648-5.7 5.481-11.26 11.103-16.82 16.725-1.79 0-4.09.07-7.1.176-12.59.46-20.41-1.626-23.32-6.223-2.55-3.96-1.61-10.148 2.76-18.457 4.81-9.158 14.28-19.765 23.46-29.984 2.94-3.253 5.81-6.47 8.43-9.511.72-.707.83-1.768.33-2.793-1.12-2.369-5.92-5.622-12.7-5.127l-.51.035-7.71 6.435c.61-7.567-1.97-13.931-7.42-18.174-7.93-6.152-21.28-7.001-31.72-1.98-8.71 4.172-13.73 11.668-13.73 20.508 0 4.49 1.97 8.592 5.7 11.809 5.52 4.774 14.42 7.284 24.39 7.214-23.85 15.098-69.98 39.247-83.36 30.655-3.16-2.015-4.31-6.081-3.41-12.022 13.74-3.217 15.53-8.733 15.67-10.996.18-2.829-1.79-5.375-4.95-6.435-3.94-1.344-10.29-.46-15.17 6.435l-.22.46c-.43 1.449-.53 2.652-.86 4.03-19.22 7.072-53.99 18.069-92.3 4.208 1.29-8.769-3.15-11.774-6.02-12.764-6.57-2.334-16.07 1.591-18.62 6.294-1.47 2.687-.79 5.374 1.86 7.425 1.04 1.202 3.27 1.237 6.86 1.308 2.04.035 7.42.141 7.74 1.167.08.283.36 2.97-14.85 13.259-9.79 5.94-18.87 5.552-23.14-.99-6.88-10.607-.07-36.313 36.52-60.321l1.62-1.061-1.33-1.344c-.79-.813-7.93-7.708-13.38-5.657l-.36.177c-26.72 18.74-37.13 34.439-40.75 45.648-1.15.035-2.33.176-3.3.495l-17.33 6.47c-54.77 20.543-82.25 30.833-100.33 25.175-3.59-1.131-5.67-2.652-6.14-4.526-1.22-4.738 6.6-12.658 14.14-20.331 10.69-10.89 21.77-22.134 16.25-31.362-8.04-13.26-28.41-13.366-59.01-.354-.47-1.344-1.62-2.864-3.98-4.491-10.84-7.425-41.83-12.304-66.94 3.147.14-1.273.39-2.545.57-3.606.22-1.273.4-2.263.4-2.723v-1.662l-11.41.814.03 1.485c.33 12.128-7.39 22.417-15.67 31.15-.68.036-1.29.036-2.12.106-2.12.107-8.82 1.804-21.49 4.986-37.05 9.405-123.83 31.398-133.66 15.098-2.72-4.49 1.22-12.552 11.37-23.301 23.54-24.892 49.51-39.884 53.88-36.525.29.212 2.66 2.545-5.52 15.274l-1.08 1.662 6.5 2.157.68-.884c8.5-10.961 10.01-18.952 4.48-23.796-10.62-9.441-27.55-8.097-46.49 3.607-16.39 10.147-32.25 27.296-38.2 42.677-28.521 12.8-116.05 37.834-127.672 20.402-3.623-5.41-.825-18.104 32.967-48.017 1.363-1.379 1.829-3.041 1.363-4.738-.969-3.465-5.919-6.612-13.201-8.45l-.897-.213-11.515 11.563c-31.64-15.169-58.006-2.087-71.028 13.895-3.982 4.88-6.744 10.007-8.286 14.922-1.363.212-2.798.601-3.875.919-31.567 10.289-155.399 37.162-161.211 25.988-2.833-5.374 21.129-29.029 34.008-41.722 11.048-10.891 16.86-16.725 17.541-19.235.538-1.627-.036-3.253-1.614-4.314-2.439-1.662-7.569-1.91-10.116.141-12.089 7.602-22.062 9.795-29.595 6.542-9.219-3.961-12.161-15.028-12.986-19.589l-.251-1.45-12.376 1.45-.323.884c-2.618 7.001-1.112 13.648 4.233 18.775 8.789 8.416 25.362 10.502 39.424 4.915 1.327-.601 2.655-1.237 3.91-1.803.359-.177.753-.354 1.148-.531-3.515 2.935-9.076 7.355-16.681 13.189-2.511 2.016-6.134 4.597-10.331 7.531-16.394 11.563-36.769 25.954-30.994 34.899 3.695 6.718 15.784 9.229 31.963 9.229 49.217 0 135.921-23.408 137.069-23.726 10.151-2.899 16.214-4.915 19.873-6.4-.538 5.057.395 9.582 3.121 12.906 4.269 5.162 16.035 11.386 47.172-3.889 1.04 5.48 4.377 9.759 9.937 12.729 6.851 3.712 16.716 5.233 28.088 5.233 36.124 0 87.745-15.346 109.125-25.246-.68 3.748-.68 7.284.29 10.431 1.93 6.506 8.46 14.178 28.66 14.178h.61c33.5-.495 97.57-15.557 128.35-22.806 2.94-.707 5.56-1.308 7.93-1.838-2.87 2.828-5.56 5.515-7.71 8.026-1.73 2.051-1.55 3.783-1.12 4.844.9 2.157 3.81 3.642 7.93 4.066 5.38.566 12.56-.848 15.57-5.233 40.93-54.911 65.65-51.269 76.77-44.198.18.142.25.248.25.425.32 3.182-8.79 12.163-16.79 20.083-8 7.92-16.25 16.088-20.77 23.124l-.22.637c-.21 1.697.61 3.253 2.37 4.314 3.88 2.404 12.7 2.475 18.48-1.273 16.1-16.654 24.57-26.979 30.16-33.838l2.62-3.182c4.92-5.729 23.21-13.012 35.23-12.765 3.05.071 7.1.743 9 3.253.97 1.414-7.49 8.946-12.05 12.977-10.47 9.334-23.53 20.896-23.89 31.292 0 8.733 8.65 14.603 26.44 17.962 2.83.495 5.67.778 8.64.778 14.89 0 32.47-6.259 62.49-16.937 12.99-4.632 27.73-9.865 45.67-15.84-.54 3.889-.29 6.93.18 9.051 1.83 8.769 8.68 15.204 18.29 17.184 1.94.389 4.06.637 6.32.637 11.3 0 26.11-5.516 38.17-21.498 36.73 14.78 74.72 3.819 93.62-3.041-.79 8.027 1.11 13.825 5.89 17.114 16.39 11.35 60.08-10.573 85.66-27.014-9.72 13.436-12.48 25.175-7.71 33.661 4.27 7.567 14.2 11.562 28.16 11.562 4.44 0 9.29-.424 14.49-1.237-23.68 24.326-46.03 49.784-67.23 76.197l-4.48 5.445 6.56-1.98c3.91-1.202 6.07-2.652 8.97-4.101l8-4.562c5.28-3.111 10.48-6.329 15.61-9.582 10.29-6.541 20.41-13.365 30.42-20.296a1063.165 1063.165 0 0 0 58.5-43.809c37.85-30.585 74.12-63.468 105.68-100.7 4.88-5.834 9.69-11.81 14.39-17.892 5.17-2.439 10.4-4.738 15.71-6.859 20.27-8.097 41.54-13.896 62.96-14.532 10.72-.425 21.2.778 31.75 3.04 10.43 2.263 20.59 5.587 29.81 10.502 18.36 9.193 32.96 26.377 37.48 46.85-1.36 1.803-3.15 3.642-5.16 4.915-2.26 1.485-4.74 2.545-7.39 3.04-2.66.425-5.38.531-8.11.036-2.73-.425-5.38-1.344-8-2.405l-3.8-1.52.75 3.889c1.33 6.754 2.01 13.613 1.97 20.437-.03 3.43-.25 6.825-.71 10.184-.43 2.864-1.08 5.798-1.94 8.415-2.01.141-4.31 0-6.39-.566-2.54-.636-4.98-1.732-7.24-3.111a31.565 31.565 0 0 1-6.14-5.163c-1.86-1.98-3.44-4.172-4.95-6.47l-3.19-4.844-.86 5.657c-1.04 6.895-2.94 13.684-5.74 20.048-1.47 3.147-3.12 6.223-5.02 9.087a45.375 45.375 0 0 1-4.31 5.481c-2.47-5.976-4.16-12.552-5.2-19.023-1.15-7.496-1.43-15.133-1.36-22.735.07-7.602.9-15.24 1.94-22.842.53-3.783 1.14-7.602 1.25-11.491.36-3.89.47-7.814-.14-12.058l-4.24-1.096c-4.91 7.001-7.31 14.957-8.53 23.019-.94 8.132-1.8 16.335-1.29 24.574.32 8.238 1.47 16.477 3.8 24.468 2.44 7.955 5.63 15.628 11.23 22.382l1.5 1.838 1.65-1.485c3.02-2.722 5.2-5.587 7.32-8.733 2.08-3.112 3.84-6.365 5.38-9.724 2.33-5.268 3.88-10.82 5.06-16.442.82 1.061 1.54 2.228 2.47 3.218 2.09 2.192 4.42 4.208 7 5.87 2.62 1.626 5.49 2.899 8.54 3.677 3.08.742 6.1 1.096 9.58.566l1.14-.177.43-1.096c1.4-3.678 2.05-7.143 2.59-10.749.5-3.571.71-7.178.79-10.749.03-5.94-.58-11.81-1.51-17.644 1.79.601 3.59 1.131 5.49 1.414 3.15.566 6.45.495 9.68-.035 3.23-.601 6.32-1.909 9.01-3.677 2.72-1.839 5.02-3.96 6.96-6.86l.32-.424v-.46Zm-402.96 10.183c3.09-7.496 9.94-14.567 17.29-14.567.83 0 1.65.07 2.44.283 3.16.707 5.24 2.086 6.35 4.207 1.76 3.324 1.22 8.486-1.58 15.31-2.36 4.738-5.73 7.709-10 8.805-5.17 1.343-10.87-.283-13.99-2.369l-.08-.036c-2.47-1.555-2.65-6.223-.43-11.633Zm-795.397 1.485c.681 0 1.327.036 1.865.142 2.476.46 2.906 1.697 3.014 2.086.574 1.768.502 7.461-13.273 21.71-9.865 12.8-29.308 22.276-38.456 21.003-1.865-.248-3.049-.955-3.515-2.122-.574-1.414-.897-5.904 8.215-16.972 13.559-16.653 32.895-25.847 42.15-25.847Zm995.857-38.01c-31.1 36.738-66.36 70.045-103.74 100.842-18.69 15.381-37.92 30.161-57.65 44.234-9.87 7.036-19.84 13.931-29.99 20.543a540.912 540.912 0 0 1-15.35 9.688 713.553 713.553 0 0 1-5.74 3.394c26.87-30.408 55.71-59.19 85.52-86.698 32.64-29.949 67.33-57.811 104.57-81.501a411.47 411.47 0 0 1 26.33-15.346c-1.33 1.627-2.62 3.253-3.95 4.844Z" fill="silver" fill-opacity=".05"/>
    <path d="M2090 320.805c-.29-23.619-15.71-45.329-36.2-57.351-10.22-6.082-21.45-10.219-32.85-12.729-11.3-2.723-23.32-3.819-34.98-3.288-22.35.848-43.8 6.682-64.03 14.673 19.05-27.226 35.01-56.715 43.55-89.35 6.27-23.797 7.74-49.573 1.57-74.217-5.99-24.751-19.94-47.098-37.16-65.52l-.21-.212-.4-.353c-22.63-19.483-52.44-30.302-81.9-32-29.59-2.121-58.76 3.324-86.13 12.164-54.92 17.785-104.06 48.476-146.71 85.673-21.28 18.705-40.97 39.354-57.11 62.938-7.93 11.845-15.14 24.397-19.77 38.293-2.3 6.93-3.91 14.249-4.12 21.887-.29 7.567 1.22 15.628 4.98 22.558 3.59 6.789 9.04 12.977 15.79 17.043 6.7 4.137 14.31 6.223 21.73 7.107 14.96 1.733 29.42-.778 43.27-4.243 27.65-7.425 53.41-19.129 78.16-32.848l1.94-.954-.18-2.794c-.82-14.072.18-28.039 5.27-40.308 4.92-12.376 13.89-22.559 24.76-30.621 10.9-8.097 23.85-13.683 37.12-18.527 12.88-4.491 26.37-8.204 40.07-11.315 3.66 10.431 3.88 21.604-1.5 30.868-5.28 9.9-14.5 17.573-24.29 24.079-9.86 6.577-20.84 11.633-31.96 16.371-11.19 4.561-22.71 8.698-34.33 12.057l.93 4.208c24.43-4.632 48.29-12.623 69.77-26.024 10.55-6.789 20.56-15.593 26.55-27.438 2.87-5.94 4.23-12.694 3.8-19.271-.5-6.576-2.62-12.799-5.63-18.351l-.75-1.379-1.33.142c-15.17-1.344-30.35.141-45.16 3.854-14.78 3.748-29.28 9.971-41.94 19.376-12.59 9.335-23.28 22.453-27.87 37.728-4.92 14.214-4.41 29.276-1.44 43.102-23.39 12.729-48.35 23.584-74.15 29.842-13.27 3.112-27.01 5.056-39.99 3.288-12.95-1.555-24.5-8.273-29.6-19.624-5.45-10.748-3.41-24.079 1.04-36.171 4.52-12.234 11.62-23.796 19.48-34.687 16.07-21.745 35.66-41.086 56.61-58.624 21.05-17.467 43.73-33.166 67.58-46.567 23.78-13.507 48.64-25.281 74.58-33.378 25.86-8.133 52.8-12.941 79.28-11.668 26.36 1.131 51.91 10.041 71.92 26.518 16.11 16.371 29.2 35.57 36.16 57.246 7.14 21.816 7.36 45.753 2.19 68.666-8.36 35.252-26.44 67.64-48.21 97.306-17.29 7.849-33.79 17.113-49.61 27.261-38.03 24.468-72.14 53.851-104.54 84.648-5.7 5.481-11.26 11.103-16.82 16.725-1.79 0-4.09.07-7.1.176-12.59.46-20.41-1.626-23.32-6.223-2.55-3.96-1.61-10.148 2.76-18.457 4.81-9.158 14.28-19.765 23.46-29.984 2.94-3.253 5.81-6.47 8.43-9.511.72-.707.83-1.768.33-2.793-1.12-2.369-5.92-5.622-12.7-5.127l-.51.035-7.71 6.435c.61-7.567-1.97-13.931-7.42-18.174-7.93-6.152-21.28-7.001-31.72-1.98-8.71 4.172-13.73 11.668-13.73 20.508 0 4.49 1.97 8.592 5.7 11.809 5.52 4.774 14.42 7.284 24.39 7.214-23.85 15.098-69.98 39.247-83.36 30.655-3.16-2.015-4.31-6.081-3.41-12.022 13.74-3.217 15.53-8.733 15.67-10.996.18-2.829-1.79-5.375-4.95-6.435-3.94-1.344-10.29-.46-15.17 6.435l-.22.46c-.43 1.449-.53 2.652-.86 4.03-19.22 7.072-53.99 18.069-92.3 4.208 1.29-8.769-3.15-11.774-6.02-12.764-6.57-2.334-16.07 1.591-18.62 6.294-1.47 2.687-.79 5.374 1.86 7.425 1.04 1.202 3.27 1.237 6.86 1.308 2.04.035 7.42.141 7.74 1.167.08.283.36 2.97-14.85 13.259-9.79 5.94-18.87 5.552-23.14-.99-6.88-10.607-.07-36.313 36.52-60.321l1.62-1.061-1.33-1.344c-.79-.813-7.93-7.708-13.38-5.657l-.36.177c-26.72 18.74-37.13 34.439-40.75 45.648-1.15.035-2.33.176-3.3.495l-17.33 6.47c-54.77 20.543-82.25 30.833-100.33 25.175-3.59-1.131-5.67-2.652-6.14-4.526-1.22-4.738 6.6-12.658 14.14-20.331 10.69-10.89 21.77-22.134 16.25-31.362-8.04-13.26-28.41-13.366-59.01-.354-.47-1.344-1.62-2.864-3.98-4.491-10.84-7.425-41.83-12.304-66.94 3.147.14-1.273.39-2.545.57-3.606.22-1.273.4-2.263.4-2.723v-1.662l-11.41.814.03 1.485c.33 12.128-7.39 22.417-15.67 31.15-.68.036-1.29.036-2.12.106-2.12.107-8.82 1.804-21.49 4.986-37.05 9.405-123.83 31.398-133.66 15.098-2.72-4.49 1.22-12.552 11.37-23.301 23.54-24.892 49.51-39.884 53.88-36.525.29.212 2.66 2.545-5.52 15.274l-1.08 1.662 6.5 2.157.68-.884c8.5-10.961 10.01-18.952 4.48-23.796-10.62-9.441-27.55-8.097-46.49 3.607-16.39 10.147-32.25 27.296-38.2 42.677-28.521 12.8-116.05 37.834-127.672 20.402-3.623-5.41-.825-18.104 32.967-48.017 1.363-1.379 1.829-3.041 1.363-4.738-.969-3.465-5.919-6.612-13.201-8.45l-.897-.213-11.515 11.563c-31.64-15.169-58.006-2.087-71.028 13.895-3.982 4.88-6.744 10.007-8.286 14.922-1.363.212-2.798.601-3.875.919-31.567 10.289-155.399 37.162-161.211 25.988-2.833-5.374 21.129-29.029 34.008-41.722 11.048-10.891 16.86-16.725 17.541-19.235.538-1.627-.036-3.253-1.614-4.314-2.439-1.662-7.569-1.91-10.116.141-12.089 7.602-22.062 9.795-29.595 6.542-9.219-3.961-12.161-15.028-12.986-19.589l-.251-1.45-12.376 1.45-.323.884c-2.618 7.001-1.112 13.648 4.233 18.775 8.789 8.416 25.362 10.502 39.424 4.915 1.327-.601 2.655-1.237 3.91-1.803.359-.177.753-.354 1.148-.531-3.515 2.935-9.076 7.355-16.681 13.189-2.511 2.016-6.134 4.597-10.331 7.531-16.394 11.563-36.769 25.954-30.994 34.899 3.695 6.718 15.784 9.229 31.963 9.229 49.217 0 135.921-23.408 137.069-23.726 10.151-2.899 16.214-4.915 19.873-6.4-.538 5.057.395 9.582 3.121 12.906 4.269 5.162 16.035 11.386 47.172-3.889 1.04 5.48 4.377 9.759 9.937 12.729 6.851 3.712 16.716 5.233 28.088 5.233 36.124 0 87.745-15.346 109.125-25.246-.68 3.748-.68 7.284.29 10.431 1.93 6.506 8.46 14.178 28.66 14.178h.61c33.5-.495 97.57-15.557 128.35-22.806 2.94-.707 5.56-1.308 7.93-1.838-2.87 2.828-5.56 5.515-7.71 8.026-1.73 2.051-1.55 3.783-1.12 4.844.9 2.157 3.81 3.642 7.93 4.066 5.38.566 12.56-.848 15.57-5.233 40.93-54.911 65.65-51.269 76.77-44.198.18.142.25.248.25.425.32 3.182-8.79 12.163-16.79 20.083-8 7.92-16.25 16.088-20.77 23.124l-.22.637c-.21 1.697.61 3.253 2.37 4.314 3.88 2.404 12.7 2.475 18.48-1.273 16.1-16.654 24.57-26.979 30.16-33.838l2.62-3.182c4.92-5.729 23.21-13.012 35.23-12.765 3.05.071 7.1.743 9 3.253.97 1.414-7.49 8.946-12.05 12.977-10.47 9.334-23.53 20.896-23.89 31.292 0 8.733 8.65 14.603 26.44 17.962 2.83.495 5.67.778 8.64.778 14.89 0 32.47-6.259 62.49-16.937 12.99-4.632 27.73-9.865 45.67-15.84-.54 3.889-.29 6.93.18 9.051 1.83 8.769 8.68 15.204 18.29 17.184 1.94.389 4.06.637 6.32.637 11.3 0 26.11-5.516 38.17-21.498 36.73 14.78 74.72 3.819 93.62-3.041-.79 8.027 1.11 13.825 5.89 17.114 16.39 11.35 60.08-10.573 85.66-27.014-9.72 13.436-12.48 25.175-7.71 33.661 4.27 7.567 14.2 11.562 28.16 11.562 4.44 0 9.29-.424 14.49-1.237-23.68 24.326-46.03 49.784-67.23 76.197l-4.48 5.445 6.56-1.98c3.91-1.202 6.07-2.652 8.97-4.101l8-4.562c5.28-3.111 10.48-6.329 15.61-9.582 10.29-6.541 20.41-13.365 30.42-20.296a1063.165 1063.165 0 0 0 58.5-43.809c37.85-30.585 74.12-63.468 105.68-100.7 4.88-5.834 9.69-11.81 14.39-17.892 5.17-2.439 10.4-4.738 15.71-6.859 20.27-8.097 41.54-13.896 62.96-14.532 10.72-.425 21.2.778 31.75 3.04 10.43 2.263 20.59 5.587 29.81 10.502 18.36 9.193 32.96 26.377 37.48 46.85-1.36 1.803-3.15 3.642-5.16 4.915-2.26 1.485-4.74 2.545-7.39 3.04-2.66.425-5.38.531-8.11.036-2.73-.425-5.38-1.344-8-2.405l-3.8-1.52.75 3.889c1.33 6.754 2.01 13.613 1.97 20.437-.03 3.43-.25 6.825-.71 10.184-.43 2.864-1.08 5.798-1.94 8.415-2.01.141-4.31 0-6.39-.566-2.54-.636-4.98-1.732-7.24-3.111a31.565 31.565 0 0 1-6.14-5.163c-1.86-1.98-3.44-4.172-4.95-6.47l-3.19-4.844-.86 5.657c-1.04 6.895-2.94 13.684-5.74 20.048-1.47 3.147-3.12 6.223-5.02 9.087a45.375 45.375 0 0 1-4.31 5.481c-2.47-5.976-4.16-12.552-5.2-19.023-1.15-7.496-1.43-15.133-1.36-22.735.07-7.602.9-15.24 1.94-22.842.53-3.783 1.14-7.602 1.25-11.491.36-3.89.47-7.814-.14-12.058l-4.24-1.096c-4.91 7.001-7.31 14.957-8.53 23.019-.94 8.132-1.8 16.335-1.29 24.574.32 8.238 1.47 16.477 3.8 24.468 2.44 7.955 5.63 15.628 11.23 22.382l1.5 1.838 1.65-1.485c3.02-2.722 5.2-5.587 7.32-8.733 2.08-3.112 3.84-6.365 5.38-9.724 2.33-5.268 3.88-10.82 5.06-16.442.82 1.061 1.54 2.228 2.47 3.218 2.09 2.192 4.42 4.208 7 5.87 2.62 1.626 5.49 2.899 8.54 3.677 3.08.742 6.1 1.096 9.58.566l1.14-.177.43-1.096c1.4-3.678 2.05-7.143 2.59-10.749.5-3.571.71-7.178.79-10.749.03-5.94-.58-11.81-1.51-17.644 1.79.601 3.59 1.131 5.49 1.414 3.15.566 6.45.495 9.68-.035 3.23-.601 6.32-1.909 9.01-3.677 2.72-1.839 5.02-3.96 6.96-6.86l.32-.424v-.46Zm-402.96 10.183c3.09-7.496 9.94-14.567 17.29-14.567.83 0 1.65.07 2.44.283 3.16.707 5.24 2.086 6.35 4.207 1.76 3.324 1.22 8.486-1.58 15.31-2.36 4.738-5.73 7.709-10 8.805-5.17 1.343-10.87-.283-13.99-2.369l-.08-.036c-2.47-1.555-2.65-6.223-.43-11.633Zm-795.397 1.485c.681 0 1.327.036 1.865.142 2.476.46 2.906 1.697 3.014 2.086.574 1.768.502 7.461-13.273 21.71-9.865 12.8-29.308 22.276-38.456 21.003-1.865-.248-3.049-.955-3.515-2.122-.574-1.414-.897-5.904 8.215-16.972 13.559-16.653 32.895-25.847 42.15-25.847Zm995.857-38.01c-31.1 36.738-66.36 70.045-103.74 100.842-18.69 15.381-37.92 30.161-57.65 44.234-9.87 7.036-19.84 13.931-29.99 20.543a540.912 540.912 0 0 1-15.35 9.688 713.553 713.553 0 0 1-5.74 3.394c26.87-30.408 55.71-59.19 85.52-86.698 32.64-29.949 67.33-57.811 104.57-81.501a411.47 411.47 0 0 1 26.33-15.346c-1.33 1.627-2.62 3.253-3.95 4.844Z" fill="silver" fill-opacity=".05"/>
    <path d="M2090 320.805c-.29-23.619-15.71-45.329-36.2-57.351-10.22-6.082-21.45-10.219-32.85-12.729-11.3-2.723-23.32-3.819-34.98-3.288-22.35.848-43.8 6.682-64.03 14.673 19.05-27.226 35.01-56.715 43.55-89.35 6.27-23.797 7.74-49.573 1.57-74.217-5.99-24.751-19.94-47.098-37.16-65.52l-.21-.212-.4-.353c-22.63-19.483-52.44-30.302-81.9-32-29.59-2.121-58.76 3.324-86.13 12.164-54.92 17.785-104.06 48.476-146.71 85.673-21.28 18.705-40.97 39.354-57.11 62.938-7.93 11.845-15.14 24.397-19.77 38.293-2.3 6.93-3.91 14.249-4.12 21.887-.29 7.567 1.22 15.628 4.98 22.558 3.59 6.789 9.04 12.977 15.79 17.043 6.7 4.137 14.31 6.223 21.73 7.107 14.96 1.733 29.42-.778 43.27-4.243 27.65-7.425 53.41-19.129 78.16-32.848l1.94-.954-.18-2.794c-.82-14.072.18-28.039 5.27-40.308 4.92-12.376 13.89-22.559 24.76-30.621 10.9-8.097 23.85-13.683 37.12-18.527 12.88-4.491 26.37-8.204 40.07-11.315 3.66 10.431 3.88 21.604-1.5 30.868-5.28 9.9-14.5 17.573-24.29 24.079-9.86 6.577-20.84 11.633-31.96 16.371-11.19 4.561-22.71 8.698-34.33 12.057l.93 4.208c24.43-4.632 48.29-12.623 69.77-26.024 10.55-6.789 20.56-15.593 26.55-27.438 2.87-5.94 4.23-12.694 3.8-19.271-.5-6.576-2.62-12.799-5.63-18.351l-.75-1.379-1.33.142c-15.17-1.344-30.35.141-45.16 3.854-14.78 3.748-29.28 9.971-41.94 19.376-12.59 9.335-23.28 22.453-27.87 37.728-4.92 14.214-4.41 29.276-1.44 43.102-23.39 12.729-48.35 23.584-74.15 29.842-13.27 3.112-27.01 5.056-39.99 3.288-12.95-1.555-24.5-8.273-29.6-19.624-5.45-10.748-3.41-24.079 1.04-36.171 4.52-12.234 11.62-23.796 19.48-34.687 16.07-21.745 35.66-41.086 56.61-58.624 21.05-17.467 43.73-33.166 67.58-46.567 23.78-13.507 48.64-25.281 74.58-33.378 25.86-8.133 52.8-12.941 79.28-11.668 26.36 1.131 51.91 10.041 71.92 26.518 16.11 16.371 29.2 35.57 36.16 57.246 7.14 21.816 7.36 45.753 2.19 68.666-8.36 35.252-26.44 67.64-48.21 97.306-17.29 7.849-33.79 17.113-49.61 27.261-38.03 24.468-72.14 53.851-104.54 84.648-5.7 5.481-11.26 11.103-16.82 16.725-1.79 0-4.09.07-7.1.176-12.59.46-20.41-1.626-23.32-6.223-2.55-3.96-1.61-10.148 2.76-18.457 4.81-9.158 14.28-19.765 23.46-29.984 2.94-3.253 5.81-6.47 8.43-9.511.72-.707.83-1.768.33-2.793-1.12-2.369-5.92-5.622-12.7-5.127l-.51.035-7.71 6.435c.61-7.567-1.97-13.931-7.42-18.174-7.93-6.152-21.28-7.001-31.72-1.98-8.71 4.172-13.73 11.668-13.73 20.508 0 4.49 1.97 8.592 5.7 11.809 5.52 4.774 14.42 7.284 24.39 7.214-23.85 15.098-69.98 39.247-83.36 30.655-3.16-2.015-4.31-6.081-3.41-12.022 13.74-3.217 15.53-8.733 15.67-10.996.18-2.829-1.79-5.375-4.95-6.435-3.94-1.344-10.29-.46-15.17 6.435l-.22.46c-.43 1.449-.53 2.652-.86 4.03-19.22 7.072-53.99 18.069-92.3 4.208 1.29-8.769-3.15-11.774-6.02-12.764-6.57-2.334-16.07 1.591-18.62 6.294-1.47 2.687-.79 5.374 1.86 7.425 1.04 1.202 3.27 1.237 6.86 1.308 2.04.035 7.42.141 7.74 1.167.08.283.36 2.97-14.85 13.259-9.79 5.94-18.87 5.552-23.14-.99-6.88-10.607-.07-36.313 36.52-60.321l1.62-1.061-1.33-1.343c-.79-.814-7.93-7.709-13.38-5.658l-.36.177c-26.72 18.74-37.13 34.439-40.75 45.648-1.15.035-2.33.176-3.3.495l-17.33 6.47c-54.77 20.543-82.25 30.833-100.33 25.175-3.59-1.131-5.67-2.652-6.14-4.526-1.22-4.738 6.6-12.658 14.14-20.331 10.69-10.89 21.77-22.134 16.25-31.362-8.04-13.26-28.41-13.366-59.01-.354-.47-1.344-1.62-2.864-3.98-4.491-10.84-7.425-41.83-12.304-66.94 3.147.14-1.273.39-2.545.57-3.606.22-1.273.4-2.263.4-2.723v-1.662l-11.41.814.03 1.485c.33 12.128-7.39 22.417-15.67 31.15-.68.036-1.29.036-2.12.107-2.12.106-8.82 1.803-21.49 4.985-37.05 9.405-123.83 31.398-133.66 15.098-2.72-4.49 1.22-12.552 11.37-23.301 23.54-24.892 49.51-39.884 53.88-36.525.29.212 2.66 2.545-5.52 15.274l-1.08 1.662 6.5 2.157.68-.884c8.5-10.961 10.01-18.952 4.48-23.796-10.62-9.441-27.55-8.097-46.49 3.607-16.39 10.147-32.25 27.296-38.2 42.677-28.521 12.8-116.05 37.834-127.672 20.402-3.623-5.41-.825-18.104 32.967-48.017 1.363-1.379 1.829-3.041 1.363-4.738-.969-3.465-5.919-6.612-13.201-8.45l-.897-.213-11.515 11.563c-31.64-15.169-58.006-2.087-71.028 13.895-3.982 4.88-6.744 10.007-8.286 14.922-1.363.212-2.798.601-3.875.919-31.567 10.289-155.399 37.162-161.211 25.988-2.833-5.374 21.129-29.029 34.008-41.722 11.048-10.891 16.86-16.725 17.541-19.235.538-1.627-.036-3.253-1.614-4.314-2.439-1.662-7.569-1.909-10.116.141-12.089 7.602-22.062 9.795-29.595 6.542-9.219-3.961-12.161-15.028-12.986-19.589l-.251-1.45-12.376 1.45-.323.884c-2.618 7.001-1.112 13.648 4.233 18.775 8.789 8.416 25.362 10.502 39.424 4.915 1.327-.601 2.655-1.237 3.91-1.803.359-.177.753-.354 1.148-.531-3.515 2.935-9.076 7.355-16.681 13.189-2.511 2.016-6.134 4.597-10.331 7.531-16.394 11.563-36.769 25.954-30.994 34.899 3.695 6.718 15.784 9.229 31.963 9.229 49.217 0 135.921-23.407 137.069-23.726 10.151-2.899 16.214-4.915 19.873-6.4-.538 5.057.395 9.583 3.121 12.906 4.269 5.163 16.035 11.386 47.172-3.889 1.04 5.48 4.377 9.759 9.937 12.729 6.851 3.712 16.716 5.233 28.088 5.233 36.124 0 87.745-15.346 109.125-25.246-.68 3.748-.68 7.284.29 10.431 1.93 6.506 8.46 14.178 28.66 14.178h.61c33.5-.495 97.57-15.557 128.35-22.806 2.94-.707 5.56-1.308 7.93-1.838-2.87 2.828-5.56 5.516-7.71 8.026-1.73 2.051-1.55 3.783-1.12 4.844.9 2.157 3.81 3.642 7.93 4.066 5.38.566 12.56-.848 15.57-5.233 40.93-54.911 65.65-51.269 76.77-44.198.18.142.25.248.25.425.32 3.182-8.79 12.163-16.79 20.083-8 7.92-16.25 16.088-20.77 23.124l-.22.637c-.21 1.697.61 3.253 2.37 4.314 3.88 2.404 12.7 2.475 18.48-1.273 16.1-16.654 24.57-26.979 30.16-33.838l2.62-3.182c4.92-5.729 23.21-13.012 35.23-12.765 3.05.071 7.1.743 9 3.253.97 1.414-7.49 8.946-12.05 12.977-10.47 9.334-23.53 20.896-23.89 31.292 0 8.733 8.65 14.603 26.44 17.962 2.83.495 5.67.778 8.64.778 14.89 0 32.47-6.259 62.49-16.937 12.99-4.632 27.73-9.865 45.67-15.84-.54 3.889-.29 6.93.18 9.051 1.83 8.769 8.68 15.204 18.29 17.184 1.94.389 4.06.637 6.32.637 11.3 0 26.11-5.516 38.17-21.498 36.73 14.78 74.72 3.819 93.62-3.041-.79 8.027 1.11 13.825 5.89 17.114 16.39 11.35 60.08-10.572 85.66-27.014-9.72 13.436-12.48 25.175-7.71 33.661 4.27 7.567 14.2 11.562 28.16 11.562 4.44 0 9.29-.424 14.49-1.237-23.68 24.326-46.03 49.784-67.23 76.197l-4.48 5.445 6.56-1.98c3.91-1.202 6.07-2.652 8.97-4.101l8-4.562c5.28-3.111 10.48-6.329 15.61-9.582 10.29-6.541 20.41-13.365 30.42-20.296a1063.165 1063.165 0 0 0 58.5-43.809c37.85-30.585 74.12-63.468 105.68-100.7 4.88-5.834 9.69-11.81 14.39-17.892 5.17-2.439 10.4-4.738 15.71-6.859 20.27-8.097 41.54-13.896 62.96-14.532 10.72-.425 21.2.778 31.75 3.04 10.43 2.263 20.59 5.587 29.81 10.502 18.36 9.193 32.96 26.377 37.48 46.85-1.36 1.803-3.15 3.642-5.16 4.915-2.26 1.485-4.74 2.545-7.39 3.04-2.66.425-5.38.531-8.11.036-2.73-.425-5.38-1.344-8-2.405l-3.8-1.52.75 3.889c1.33 6.754 2.01 13.613 1.97 20.437-.03 3.43-.25 6.825-.71 10.184-.43 2.864-1.08 5.798-1.94 8.415-2.01.141-4.31 0-6.39-.566-2.54-.636-4.98-1.732-7.24-3.111a31.565 31.565 0 0 1-6.14-5.163c-1.86-1.98-3.44-4.172-4.95-6.47l-3.19-4.844-.86 5.657c-1.04 6.895-2.94 13.684-5.74 20.048-1.47 3.147-3.12 6.223-5.02 9.087a45.375 45.375 0 0 1-4.31 5.481c-2.47-5.976-4.16-12.552-5.2-19.023-1.15-7.496-1.43-15.133-1.36-22.735.07-7.602.9-15.24 1.94-22.842.53-3.783 1.14-7.602 1.25-11.491.36-3.89.47-7.814-.14-12.057l-4.24-1.097c-4.91 7.001-7.31 14.957-8.53 23.019-.94 8.132-1.8 16.335-1.29 24.574.32 8.238 1.47 16.477 3.8 24.468 2.44 7.955 5.63 15.628 11.23 22.382l1.5 1.838 1.65-1.485c3.02-2.722 5.2-5.587 7.32-8.733 2.08-3.112 3.84-6.365 5.38-9.724 2.33-5.268 3.88-10.82 5.06-16.442.82 1.061 1.54 2.228 2.47 3.218 2.09 2.192 4.42 4.208 7 5.87 2.62 1.626 5.49 2.899 8.54 3.677 3.08.742 6.1 1.096 9.58.566l1.14-.177.43-1.096c1.4-3.678 2.05-7.143 2.59-10.749.5-3.571.71-7.178.79-10.749.03-5.94-.58-11.81-1.51-17.644 1.79.601 3.59 1.131 5.49 1.414 3.15.566 6.45.495 9.68-.035 3.23-.601 6.32-1.909 9.01-3.677 2.72-1.839 5.02-3.96 6.96-6.86l.32-.424v-.46Zm-402.96 10.183c3.09-7.496 9.94-14.567 17.29-14.567.83 0 1.65.07 2.44.283 3.16.707 5.24 2.086 6.35 4.207 1.76 3.324 1.22 8.486-1.58 15.31-2.36 4.738-5.73 7.709-10 8.805-5.17 1.343-10.87-.283-13.99-2.369l-.08-.036c-2.47-1.555-2.65-6.223-.43-11.633Zm-795.397 1.485c.681 0 1.327.036 1.865.142 2.476.46 2.906 1.697 3.014 2.086.574 1.768.502 7.461-13.273 21.71-9.865 12.8-29.308 22.276-38.456 21.003-1.865-.248-3.049-.955-3.515-2.122-.574-1.414-.897-5.904 8.215-16.972 13.559-16.653 32.895-25.847 42.15-25.847Zm995.857-38.01c-31.1 36.738-66.36 70.045-103.74 100.842-18.69 15.381-37.92 30.161-57.65 44.234-9.87 7.036-19.84 13.931-29.99 20.543a540.912 540.912 0 0 1-15.35 9.688 713.553 713.553 0 0 1-5.74 3.394c26.87-30.408 55.71-59.19 85.52-86.698 32.64-29.949 67.33-57.811 104.57-81.501a411.47 411.47 0 0 1 26.33-15.346c-1.33 1.627-2.62 3.253-3.95 4.844Z" fill="silver" fill-opacity=".05"/>
</svg>
