<svg width="1439" height="383" fill="none" xmlns="http://www.w3.org/2000/svg">
    <g filter="url(#a)">
        <path fill-rule="evenodd" clip-rule="evenodd" d="M320.66 281.343h43.359s-4.547 33.958 18.938 40.538c13.664 3.828 21.116 1.674 26.567.1l.346-.1c30.394-8.763 21.43-76.68 21.43-76.68s-135.081 0-164.044-10.254C207.947 213.948 216 104.051 216 104.051V1.486L378.97 1s25.916.977 41.366 10.257c15.023 9.023 31.398 22.955 39.87 36.63.465.75.992 1.547 1.56 2.407 4.136 6.253 10.461 15.819 10.9 34.712.498 21.49.996 116.238.996 116.238h37.379v43.957h-37.379s4.027 51.586-13.456 76.68c-16.531 23.728-34.013 38.136-63.294 39.561-33.239 1.617-60.863-13.012-72.764-43.469-5.243-13.417-3.488-36.63-3.488-36.63Zm-58.311-131.379-5.058-113.799H378.97s26.031 1.586 37.304 11.722C428 58.43 431.3 85.006 431.3 85.006v116.238H316.1c-24.421 0-53.751-14.161-53.751-51.28Z" fill="#6E46E5"/>
        <path d="M316.1 201.244c-24.421 0-53.751-14.161-53.751-51.28l-5.058-113.799H378.97s26.031 1.586 37.304 11.722C428 58.43 431.3 85.006 431.3 85.006v116.238m-115.2 0h115.2m-115.2 0h115.2m-110.641 80.099h43.36s-4.547 33.958 18.938 40.538c13.664 3.828 21.116 1.674 26.567.1l.346-.1c30.394-8.762 21.43-76.68 21.43-76.68s-135.081 0-164.044-10.254C207.947 213.948 216 104.051 216 104.051V1.486L378.97 1s25.916.977 41.366 10.257c15.023 9.023 31.398 22.955 39.87 36.63.465.75.992 1.547 1.56 2.407 4.136 6.253 10.461 15.819 10.9 34.712.498 21.49.996 116.238.996 116.238h37.379v43.957h-37.379s4.027 51.586-13.456 76.68c-16.531 23.728-34.013 38.136-63.294 39.561-33.239 1.617-60.863-13.012-72.764-43.469-5.243-13.417-3.489-36.63-3.489-36.63Z" stroke="#6E46E5"/>
        <path d="M329.725 121.167c.263-9.034 7.229-16.34 16.447-16.606 9.493-.274 17.172 7.303 17.443 16.606.279 9.573-7.675 17.864-17.443 17.582-9.501-.273-16.718-8.271-16.447-17.582ZM201.852 45.15s-27.434-1.802-44.854 0c-23.143 2.392-36.323 5.41-57.812 14.163-23.737 9.669-37.704 16.315-55.819 34.188-22.582 22.282-31.337 40.296-38.874 70.819C.581 180.166.008 205.835.008 205.835V375.8s-.164 4.319.997 5.861c1.033 1.373 3.488.977 3.488.977h141.042c5.743-.104 7.207-1.55 6.479-6.838v-24.908s1.495-23.444 37.877-23.444c15.87 0 33.89 3.419 41.864 15.629 3.693 5.655 3.987 30.77 3.987 30.77.147 5.692.989 7.246 3.489 7.814 0 0 74.258.977 119.611.977 9.968 0 13.456.608 13.456-4.884v-7.326s-20.184-1.579-30.899-7.815c-9.467-5.509-22.926-19.536-22.926-19.536h-49.34s-4.485-30.101-37.378-46.398c-15.082-7.473-24.969-11.17-41.864-10.745-15.394.386-23.981 4.241-37.877 10.745-33.392 15.629-33.392 54.213-33.392 54.213H43.367V205.835s2.279-25.99 7.974-41.515c5.718-15.585 9.715-24.731 20.932-37.119 11.97-13.218 21.787-17.904 37.877-25.885 17.188-8.526 27.805-12.289 46.848-15.14 17.316-2.594 44.854 0 44.854 0V45.148Z" fill="#6E46E5"/>
    </g>
    <g filter="url(#b)">
        <path fill-rule="evenodd" clip-rule="evenodd" d="M1025.23 215.085v-25.383h70.45v29.288l121.17 15.621v91.771h-115.54l-9.39-9.763-9.58 9.763h-33.63V215.085h-23.48Zm144.65 85.914h-74.2v-57.601l74.2 9.763v47.838ZM830.028 248.279v-25.383h189.742v51.743l-119.295 17.573v8.787h72.326v-8.787l46.969-4.881v39.051H853.51v-78.103h-23.482Zm142.773 8.787-72.326 9.958v-18.745h72.326v8.787Z" fill="#6E46E5"/>
        <path fill-rule="evenodd" clip-rule="evenodd" d="M541.077 8.81v27.727h27.991V145.49h176.593V94.138l-49.033 7.029v16.597h-78.527V8.81h-77.024Zm212.079 33.194v25.384h23.482v78.103h46.965V42.004h-70.447ZM776.638 1v27.336h46.965V1h-46.965Zm63.845 41.004v25.384h23.482v54.672l46.03 23.431h84.539v-25.384h-72.33l-11.27-5.857V67.388h46.026V42.004h-46.026V8.81h-46.969v33.194h-23.482Zm138.696 0v25.384h23.481v54.672l46.03 23.431h84.54v-25.384h-72.33l-11.27-5.857V67.388h46.02V42.004h-46.02V8.81h-46.97v33.194h-23.481ZM1153.86 8.81v136.681h70.45v-25.384h-23.48V8.81h-46.97Zm70.42 33.194v25.384h23.48v78.103h166.26v-39.052l-46.96 4.882v8.786h-72.33v-8.786l119.29-17.574V42.004h-189.74Zm142.78 34.17-72.33 9.959V67.388h72.33v8.786Z" fill="#A2D729"/>
        <path d="M539.198 244.703v-42.237h65.2l34.931 78.812 28.93-78.812h54.86l28.929 80.178 30.623-80.178h44.125l-44.125 123.916h-59.552l-27.43-77.126-27.43 77.126h-59.553l-33.088-81.679h-36.42Z" fill="#6E46E5"/>
    </g>
    <path d="M539.198 372.363v-37.811h12.992c3.02 0 5.486.535 7.4 1.608 1.931 1.059 3.353 2.492 4.281 4.301.928 1.808 1.392 3.828 1.392 6.057 0 2.228-.464 4.252-1.392 6.071-.912 1.825-2.329 3.277-4.243 4.36-1.915 1.071-4.372 1.605-7.36 1.605h-9.315v-4.061h9.162c2.068 0 3.725-.352 4.977-1.053 1.251-.702 2.163-1.649 2.722-2.845.576-1.203.862-2.566.862-4.077 0-1.516-.286-2.867-.862-4.063-.559-1.192-1.475-2.128-2.739-2.807-1.268-.687-2.942-1.033-5.031-1.033h-8.188v33.748h-4.658Zm41.452.666c-1.828 0-3.485-.339-4.977-1.013-1.488-.691-2.673-1.684-3.547-2.974-.879-1.307-1.314-2.878-1.314-4.727 0-1.625.323-2.945.974-3.954a6.842 6.842 0 0 1 2.611-2.399 13.772 13.772 0 0 1 3.605-1.29 45.694 45.694 0 0 1 3.998-.703c1.753-.219 3.175-.385 4.26-.496 1.103-.124 1.907-.327 2.408-.612.514-.282.767-.774.767-1.477v-.148c0-1.82-.506-3.235-1.517-4.245-1.003-1.01-2.524-1.515-4.567-1.515-2.113 0-3.775.457-4.976 1.366-1.202.91-2.047 1.883-2.532 2.919l-4.21-1.478c.754-1.723 1.752-3.063 3.008-4.025a11.32 11.32 0 0 1 4.131-2.031 17.391 17.391 0 0 1 4.43-.591c.924 0 1.989.111 3.191.334 1.218.208 2.383.646 3.514 1.311 1.135.665 2.084 1.667 2.83 3.008.754 1.341 1.131 3.138 1.131 5.392v18.682h-4.433v-3.838h-.224c-.303.616-.8 1.274-1.504 1.977-.701.699-1.629 1.299-2.797 1.787-1.165.496-2.582.74-4.26.74Zm.675-3.913c1.753 0 3.228-.339 4.43-1.017 1.218-.678 2.126-1.551 2.743-2.618.626-1.075.937-2.2.937-3.383v-3.987c-.187.224-.601.422-1.239.608-.622.174-1.351.327-2.176.463-.816.12-1.608.232-2.387.331-.762.087-1.384.162-1.856.22a17.33 17.33 0 0 0-3.232.723c-.991.319-1.791.803-2.4 1.46-.605.637-.903 1.514-.903 2.618 0 1.518.568 2.659 1.707 3.437 1.152.761 2.611 1.145 4.376 1.145Zm18.83-3.991h4.732c.095 1.283.684 2.254 1.761 2.92 1.094.666 2.503.997 4.248.997 1.773 0 3.294-.36 4.562-1.071 1.264-.728 1.894-1.898 1.894-3.507 0-.947-.236-1.774-.713-2.478-.476-.711-1.144-1.265-2.01-1.658-.866-.397-1.885-.595-3.058-.595h-4.96v-3.913h4.96c1.761 0 3.067-.393 3.904-1.183.849-.785 1.276-1.769 1.276-2.95 0-1.27-.456-2.284-1.372-3.045-.911-.776-2.208-1.166-3.882-1.166-1.695 0-3.1.375-4.227 1.129-1.127.735-1.724 1.689-1.786 2.859h-4.654c.05-1.526.522-2.874 1.426-4.044.899-1.181 2.125-2.102 3.679-2.767 1.554-.679 3.332-1.017 5.334-1.017 2.026 0 3.787.353 5.275 1.055 1.504.687 2.66 1.63 3.476 2.822.825 1.181 1.239 2.525 1.239 4.025 0 1.601-.459 2.893-1.371 3.877-.916.984-2.06 1.687-3.44 2.105v.294c1.094.074 2.039.421 2.839 1.038.812.599 1.446 1.393 1.894 2.378.451.976.679 2.051.679 3.234 0 1.72-.472 3.226-1.409 4.504-.936 1.269-2.229 2.253-3.87 2.952-1.637.691-3.51 1.034-5.611 1.034-2.043 0-3.87-.326-5.486-.976-1.616-.666-2.897-1.584-3.846-2.75-.94-1.183-1.438-2.547-1.483-4.103ZM628.084 383v-38.993h4.281v4.505h.526c.324-.494.775-1.122 1.351-1.883.589-.776 1.43-1.467 2.516-2.068 1.102-.617 2.589-.925 4.467-.925 2.428 0 4.57.598 6.427 1.79 1.848 1.196 3.294 2.889 4.334 5.08 1.04 2.191 1.558 4.777 1.558 7.754 0 2.999-.518 5.604-1.558 7.808-1.04 2.192-2.478 3.888-4.318 5.096-1.844 1.195-3.961 1.79-6.365 1.79-1.852 0-3.335-.302-4.45-.905-1.115-.612-1.973-1.311-2.573-2.085a26.995 26.995 0 0 1-1.389-1.956h-.373V383h-4.434Zm4.356-24.814c0 2.142.319 4.028.957 5.666.638 1.629 1.57 2.903 2.797 3.821 1.227.91 2.727 1.369 4.508 1.369 1.853 0 3.398-.48 4.637-1.443 1.252-.972 2.188-2.275 2.818-3.913.638-1.65.953-3.482.953-5.5 0-1.994-.306-3.793-.936-5.392-.613-1.612-1.546-2.886-2.797-3.822-1.239-.947-2.797-1.422-4.675-1.422-1.802 0-3.319.45-4.545 1.348-1.227.888-2.151 2.128-2.781 3.729-.626 1.589-.936 3.441-.936 5.559Zm36.354 14.843c-1.828 0-3.485-.339-4.977-1.013-1.492-.691-2.673-1.684-3.547-2.974-.879-1.307-1.314-2.878-1.314-4.727 0-1.625.323-2.945.974-3.954a6.83 6.83 0 0 1 2.607-2.399 13.8 13.8 0 0 1 3.609-1.29 45.65 45.65 0 0 1 3.999-.703 200.62 200.62 0 0 1 4.26-.496c1.102-.124 1.906-.327 2.407-.612.51-.282.767-.774.767-1.477v-.148c0-1.82-.506-3.235-1.521-4.245-1.003-1.01-2.52-1.515-4.562-1.515-2.118 0-3.775.457-4.977 1.366-1.202.91-2.047 1.883-2.532 2.919l-4.21-1.478c.754-1.723 1.753-3.063 3.008-4.025a11.303 11.303 0 0 1 4.127-2.031 17.445 17.445 0 0 1 4.434-.591c.924 0 1.989.111 3.191.334 1.214.208 2.383.646 3.514 1.311 1.136.665 2.08 1.667 2.83 3.008.755 1.341 1.132 3.138 1.132 5.392v18.682h-4.434v-3.838h-.224c-.303.616-.8 1.274-1.504 1.977-.701.699-1.633 1.299-2.797 1.787-1.165.496-2.586.74-4.26.74Zm.675-3.913c1.753 0 3.228-.339 4.43-1.017 1.214-.678 2.126-1.551 2.743-2.618.622-1.075.937-2.2.937-3.383v-3.987c-.187.224-.601.422-1.239.608-.626.174-1.351.327-2.176.463-.816.12-1.608.232-2.387.331-.762.087-1.384.162-1.86.22a17.305 17.305 0 0 0-3.228.723c-.991.319-1.79.803-2.404 1.46-.601.637-.899 1.514-.899 2.618 0 1.518.568 2.659 1.707 3.437 1.152.761 2.607 1.145 4.376 1.145Zm42.036-35.744 2.25 2.658a7.219 7.219 0 0 1-3.038 1.753c-1.152.335-2.457.535-3.907.609-1.455.075-3.067.149-4.845.223-2.001.074-3.659.554-4.972 1.441-1.318.884-2.333 2.165-3.046 3.84-.713 1.675-1.173 3.728-1.372 6.164h.378c.973-1.771 2.328-3.075 4.056-3.914a12.61 12.61 0 0 1 5.557-1.255c2.255 0 4.281.516 6.083 1.552 1.803 1.033 3.229 2.566 4.285 4.598 1.049 2.031 1.575 4.535 1.575 7.513 0 2.965-.539 5.525-1.612 7.68-1.065 2.155-2.561 3.817-4.492 4.988-1.915 1.153-4.165 1.732-6.738 1.732-2.582 0-4.84-.595-6.779-1.79-1.944-1.208-3.448-2.991-4.525-5.356-1.078-2.374-1.616-5.31-1.616-8.805v-3.029c0-6.312 1.089-11.099 3.265-14.364 2.192-3.26 5.486-4.946 9.879-5.058a83.984 83.984 0 0 1 4.148-.036c1.218.025 2.275-.03 3.174-.168.903-.134 1.666-.46 2.292-.976Zm-9.838 35.67c1.736 0 3.232-.43 4.488-1.295 1.264-.86 2.229-2.071 2.905-3.635.679-1.58 1.019-3.428 1.019-5.558 0-2.068-.344-3.83-1.036-5.281-.671-1.452-1.645-2.559-2.909-3.324-1.264-.761-2.78-1.144-4.542-1.144-1.292 0-2.449.216-3.476.647a7.014 7.014 0 0 0-2.627 1.901c-.726.839-1.289 1.86-1.691 3.065-.386 1.204-.597 2.585-.622 4.136 0 3.176.759 5.72 2.275 7.626 1.513 1.907 3.589 2.862 6.216 2.862Zm31.336 3.912c-2.602 0-4.886-.608-6.85-1.828-1.956-1.216-3.485-2.919-4.583-5.111-1.09-2.192-1.637-4.756-1.637-7.68 0-2.957.547-5.534 1.637-7.74 1.098-2.202 2.627-3.91 4.583-5.132 1.964-1.218 4.248-1.827 6.85-1.827 2.606 0 4.881.609 6.837 1.827 1.965 1.222 3.494 2.93 4.579 5.132 1.103 2.206 1.654 4.783 1.654 7.74 0 2.924-.551 5.488-1.654 7.68-1.085 2.192-2.614 3.895-4.579 5.111-1.956 1.22-4.231 1.828-6.837 1.828Zm0-3.912c1.981 0 3.605-.5 4.881-1.497 1.281-.997 2.222-2.308 2.839-3.933.613-1.626.916-3.383.916-5.277 0-1.899-.303-3.66-.916-5.3-.617-1.638-1.558-2.96-2.839-3.97-1.276-1.01-2.9-1.515-4.881-1.515-1.977 0-3.601.505-4.881 1.515-1.277 1.01-2.222 2.332-2.835 3.97-.613 1.64-.92 3.401-.92 5.3 0 1.894.307 3.651.92 5.277.613 1.625 1.558 2.936 2.835 3.933 1.28.997 2.904 1.497 4.881 1.497Zm16.062-20.976v-4.059h23.437v4.059h-9.464v24.297h-4.43v-24.297h-9.543Zm29.898 24.297v-28.356h4.434v12.334h2.929l10.364-12.334h5.71l-11.64 13.662 11.789 14.694h-5.71l-9.46-11.965h-3.982v11.965h-4.434Zm36.888.666c-1.827 0-3.485-.339-4.972-1.013-1.492-.691-2.677-1.684-3.552-2.974-.874-1.307-1.313-2.878-1.313-4.727 0-1.625.323-2.945.978-3.954a6.81 6.81 0 0 1 2.61-2.399 13.718 13.718 0 0 1 3.601-1.29 45.716 45.716 0 0 1 3.999-.703c1.753-.219 3.174-.385 4.264-.496 1.103-.124 1.902-.327 2.404-.612.514-.282.77-.774.77-1.477v-.148c0-1.82-.505-3.235-1.52-4.245-1.003-1.01-2.524-1.515-4.563-1.515-2.117 0-3.775.457-4.977 1.366-1.201.91-2.047 1.883-2.536 2.919l-4.206-1.478c.755-1.723 1.753-3.063 3.005-4.025a11.35 11.35 0 0 1 4.131-2.031 17.432 17.432 0 0 1 4.43-.591c.928 0 1.993.111 3.191.334 1.218.208 2.387.646 3.514 1.311 1.139.665 2.084 1.667 2.834 3.008.754 1.341 1.127 3.138 1.127 5.392v18.682h-4.43v-3.838h-.227c-.299.616-.8 1.274-1.501 1.977-.7.699-1.632 1.299-2.797 1.787-1.168.496-2.585.74-4.264.74Zm.676-3.913c1.753 0 3.228-.339 4.43-1.017 1.218-.678 2.13-1.551 2.743-2.618.626-1.075.94-2.2.94-3.383v-3.987c-.19.224-.6.422-1.239.608-.625.174-1.35.327-2.179.463a122.8 122.8 0 0 1-2.383.331c-.767.087-1.384.162-1.861.22a17.439 17.439 0 0 0-3.232.723c-.986.319-1.79.803-2.399 1.46-.601.637-.903 1.514-.903 2.618 0 1.518.571 2.659 1.711 3.437 1.152.761 2.611 1.145 4.372 1.145Zm39.934-3.176 13.895-21.933h5.109v28.356h-4.434v-21.931l-13.82 21.931h-5.18v-28.356h4.43v21.933Zm41.99 6.423v-28.356h22.684v28.356h-4.43v-24.297h-13.824v24.297h-4.43ZM929.227 383v-38.993h4.281v4.505h.526c.324-.494.775-1.122 1.351-1.883.589-.776 1.426-1.467 2.516-2.068 1.102-.617 2.594-.925 4.471-.925 2.428 0 4.566.598 6.419 1.79 1.856 1.196 3.298 2.889 4.338 5.08 1.04 2.191 1.558 4.777 1.558 7.754 0 2.999-.518 5.604-1.558 7.808-1.04 2.192-2.478 3.888-4.318 5.096-1.839 1.195-3.961 1.79-6.365 1.79-1.852 0-3.335-.302-4.45-.905-1.115-.612-1.973-1.311-2.573-2.085a26.995 26.995 0 0 1-1.389-1.956h-.377V383h-4.43Zm4.356-24.814c0 2.142.323 4.028.961 5.666.638 1.629 1.571 2.903 2.793 3.821 1.227.91 2.731 1.369 4.509 1.369 1.852 0 3.398-.48 4.637-1.443 1.251-.972 2.192-2.275 2.817-3.913.639-1.65.958-3.482.958-5.5 0-1.994-.315-3.793-.941-5.392-.613-1.612-1.546-2.886-2.797-3.822-1.239-.947-2.797-1.422-4.674-1.422-1.803 0-3.32.45-4.546 1.348-1.223.888-2.155 2.128-2.777 3.729-.625 1.589-.94 3.441-.94 5.559Zm39.582 14.768c-2.602 0-4.89-.608-6.854-1.828-1.956-1.216-3.481-2.919-4.583-5.111-1.086-2.192-1.633-4.756-1.633-7.68 0-2.957.547-5.534 1.633-7.74 1.102-2.202 2.627-3.91 4.583-5.132 1.964-1.218 4.252-1.827 6.854-1.827 2.606 0 4.881.609 6.837 1.827 1.96 1.222 3.489 2.93 4.579 5.132 1.103 2.206 1.65 4.783 1.65 7.74 0 2.924-.547 5.488-1.65 7.68-1.09 2.192-2.619 3.895-4.579 5.111-1.956 1.22-4.231 1.828-6.837 1.828Zm0-3.912c1.977 0 3.605-.5 4.881-1.497 1.277-.997 2.222-2.308 2.835-3.933.613-1.626.92-3.383.92-5.277 0-1.899-.307-3.66-.92-5.3-.613-1.638-1.558-2.96-2.835-3.97-1.276-1.01-2.904-1.515-4.881-1.515-1.981 0-3.605.505-4.882 1.515-1.28 1.01-2.225 2.332-2.834 3.97-.617 1.64-.924 3.401-.924 5.3 0 1.894.307 3.651.924 5.277.609 1.625 1.554 2.936 2.834 3.933 1.277.997 2.901 1.497 4.882 1.497Zm16.754 11.448v-12.188h2.403c.588-.6 1.094-1.258 1.521-1.956.427-.704.795-1.531 1.106-2.494.328-.972.605-2.155.829-3.54.224-1.407.427-3.098.601-5.083l.978-11.222h18.323v24.295h4.43v12.188h-4.43v-8.127h-21.332v8.127h-4.429Zm7.438-12.188h13.893v-20.236h-9.76l-.76 7.163c-.31 2.969-.7 5.558-1.16 7.775-.464 2.217-1.202 3.983-2.213 5.298Zm28.643 4.061v-28.356h11.78c3.11 0 5.58.687 7.41 2.065 1.82 1.382 2.74 3.201 2.74 5.466 0 1.723-.52 3.062-1.56 4.009-1.04.935-2.37 1.563-4 1.898 1.06.149 2.09.517 3.09 1.109a7.282 7.282 0 0 1 2.52 2.44c.67 1.021 1 2.275 1 3.763 0 1.452-.38 2.751-1.13 3.896-.75 1.146-1.83 2.052-3.23 2.717-1.4.662-3.08.993-5.03.993H1026Zm4.2-3.987h9.39c1.52 0 2.72-.356 3.59-1.071.86-.711 1.29-1.683 1.29-2.916 0-1.464-.43-2.618-1.29-3.453-.87-.848-2.07-1.274-3.59-1.274h-9.39v8.714Zm0-12.481h7.58c1.19 0 2.22-.162 3.07-.48.85-.331 1.5-.798 1.95-1.403.46-.613.69-1.341.69-2.177 0-1.195-.51-2.131-1.52-2.807-1.01-.691-2.41-1.032-4.19-1.032h-7.58v7.899Zm29.92 10.045 13.89-21.933h5.11v28.356h-4.43v-21.931l-13.82 21.931h-5.18v-28.356h4.43v21.933Zm25.31 6.423 11.72-14.401-11.57-13.955h5.26l9.62 12.111h2.4v-12.111h4.43v12.111h2.33l9.61-12.111h5.26L1113 357.962l11.64 14.401h-5.33l-9.77-12.184h-2.25v12.184h-4.43v-12.184h-2.26l-9.84 12.184h-5.33Zm56.44.591c-2.77 0-5.17-.599-7.19-1.807-2-1.22-3.55-2.92-4.63-5.095-1.08-2.192-1.62-4.74-1.62-7.647 0-2.903.54-5.463 1.62-7.68 1.08-2.228 2.6-3.962 4.54-5.206 1.95-1.256 4.23-1.883 6.84-1.883 1.5 0 2.98.245 4.45.739 1.46.494 2.79 1.292 4 2.399 1.2 1.095 2.15 2.547 2.86 4.36.72 1.808 1.08 4.037 1.08 6.68v1.848h-22.24v-3.767h17.73c0-1.601-.32-3.027-.98-4.282a7.2 7.2 0 0 0-2.74-2.971c-1.17-.728-2.56-1.092-4.16-1.092-1.77 0-3.3.431-4.59 1.292a8.547 8.547 0 0 0-2.95 3.324 9.73 9.73 0 0 0-1.02 4.394v2.511c0 2.142.37 3.958 1.12 5.447.76 1.476 1.82 2.601 3.17 3.378 1.35.761 2.92 1.146 4.71 1.146 1.17 0 2.22-.161 3.16-.48a6.833 6.833 0 0 0 2.46-1.48c.69-.662 1.22-1.489 1.59-2.473l4.29 1.182a9.307 9.307 0 0 1-2.28 3.764c-1.06 1.075-2.37 1.911-3.94 2.51-1.56.596-3.32.889-5.28.889Zm37.99-16.762v4.062h-15.92v-4.062h15.92Zm-14.87-12.185v28.356h-4.43v-28.356h4.43Zm18.25 0v28.356h-4.43v-28.356h4.43Zm12.53 21.933 13.89-21.933h5.11v28.356h-4.43v-21.931l-13.82 21.931h-5.19v-28.356h4.44v21.933Zm39.2 7.014c-2.78 0-5.17-.599-7.19-1.807-2-1.22-3.54-2.92-4.64-5.095-1.07-2.192-1.61-4.74-1.61-7.647 0-2.903.54-5.463 1.61-7.68 1.1-2.228 2.61-3.962 4.55-5.206 1.95-1.256 4.23-1.883 6.84-1.883 1.5 0 2.98.245 4.44.739 1.47.494 2.8 1.292 4 2.399 1.2 1.095 2.17 2.547 2.88 4.36.71 1.808 1.07 4.037 1.07 6.68v1.848h-22.23v-3.767h17.72c0-1.601-.32-3.027-.98-4.282a7.244 7.244 0 0 0-2.73-2.971c-1.19-.728-2.57-1.092-4.17-1.092-1.77 0-3.3.431-4.59 1.292a8.708 8.708 0 0 0-2.95 3.324 9.738 9.738 0 0 0-1.03 4.394v2.511c0 2.142.38 3.958 1.13 5.447.76 1.476 1.82 2.601 3.17 3.378 1.35.761 2.92 1.146 4.71 1.146 1.17 0 2.22-.161 3.16-.48a6.833 6.833 0 0 0 2.46-1.48c.69-.662 1.22-1.489 1.59-2.473l4.29 1.182a9.198 9.198 0 0 1-2.28 3.764c-1.06 1.075-2.37 1.911-3.94 2.51-1.56.596-3.32.889-5.28.889Zm45.28 0c-2.71 0-5.04-.628-6.99-1.881-1.95-1.258-3.45-2.986-4.5-5.191-1.06-2.2-1.58-4.719-1.58-7.547 0-2.883.54-5.423 1.61-7.628 1.09-2.214 2.6-3.944 4.54-5.188 1.96-1.256 4.24-1.883 6.84-1.883 2.03 0 3.86.371 5.48 1.107 1.63.739 2.96 1.775 4.01 3.104 1.03 1.33 1.68 2.878 1.93 4.653h-4.44c-.33-1.292-1.08-2.44-2.25-3.435-1.15-1.01-2.7-1.515-4.65-1.515-1.73 0-3.25.442-4.55 1.33-1.29.872-2.3 2.113-3.02 3.709-.71 1.589-1.07 3.454-1.07 5.597 0 2.192.35 4.098 1.05 5.724.72 1.625 1.71 2.882 3.01 3.784 1.29.897 2.82 1.348 4.58 1.348 1.15 0 2.19-.199 3.13-.591a6.48 6.48 0 0 0 2.39-1.696c.65-.74 1.11-1.63 1.38-2.659h4.44a9.998 9.998 0 0 1-1.86 4.52c-.98 1.332-2.27 2.39-3.89 3.176-1.6.778-3.47 1.162-5.59 1.162Zm26.3.075c-1.83 0-3.48-.339-4.98-1.013-1.48-.691-2.66-1.684-3.54-2.974-.88-1.307-1.32-2.878-1.32-4.727 0-1.625.33-2.945.98-3.954a6.839 6.839 0 0 1 2.61-2.399 13.802 13.802 0 0 1 3.6-1.29c1.33-.294 2.66-.529 4.01-.703 1.75-.219 3.17-.385 4.26-.496 1.1-.124 1.9-.327 2.4-.612.51-.282.77-.774.77-1.477v-.148c0-1.82-.51-3.235-1.52-4.245-1-1.01-2.52-1.515-4.56-1.515-2.12 0-3.78.457-4.98 1.366-1.2.91-2.05 1.883-2.54 2.919l-4.2-1.478c.75-1.723 1.76-3.063 3-4.025 1.27-.973 2.64-1.649 4.13-2.031 1.51-.394 2.99-.591 4.44-.591.92 0 1.99.111 3.19.334 1.21.208 2.39.646 3.51 1.311 1.14.665 2.08 1.667 2.84 3.008.75 1.341 1.12 3.138 1.12 5.392v18.682h-4.43v-3.838h-.22c-.31.616-.81 1.274-1.51 1.977-.7.699-1.63 1.299-2.79 1.787-1.17.496-2.59.74-4.27.74Zm.68-3.913c1.75 0 3.23-.339 4.43-1.017 1.22-.678 2.13-1.551 2.74-2.618.63-1.075.94-2.2.94-3.383v-3.987c-.19.224-.6.422-1.24.608-.62.174-1.35.327-2.18.463-.81.12-1.61.232-2.38.331-.77.087-1.38.162-1.86.22-1.15.148-2.23.392-3.23.723-.99.319-1.79.803-2.4 1.46-.6.637-.91 1.514-.91 2.618 0 1.518.58 2.659 1.72 3.437 1.14.761 2.61 1.145 4.37 1.145Zm25.06-3.176 13.9-21.933h5.1v28.356h-4.43v-21.931l-13.82 21.931h-5.18v-28.356h4.43v21.933Zm10.97-31.388h4.13c0 1.995-.71 3.625-2.11 4.895-1.4 1.266-3.3 1.902-5.7 1.902-2.37 0-4.25-.636-5.65-1.902-1.4-1.27-2.09-2.9-2.09-4.895h4.13c0 .962.27 1.805.81 2.529.55.728 1.48 1.092 2.8 1.092 1.31 0 2.25-.364 2.81-1.092.58-.724.87-1.567.87-2.529Zm12.23 13.514v-4.059h23.43v4.059h-9.46v24.297h-4.44v-24.297h-9.53Zm40.11 24.888c-2.6 0-4.89-.608-6.85-1.828-1.95-1.216-3.48-2.919-4.58-5.111-1.09-2.192-1.63-4.756-1.63-7.68 0-2.957.54-5.534 1.63-7.74 1.1-2.202 2.63-3.91 4.58-5.132 1.96-1.218 4.25-1.827 6.85-1.827 2.61 0 4.88.609 6.84 1.827 1.96 1.222 3.49 2.93 4.58 5.132 1.1 2.206 1.65 4.783 1.65 7.74 0 2.924-.55 5.488-1.65 7.68-1.09 2.192-2.62 3.895-4.58 5.111-1.96 1.22-4.23 1.828-6.84 1.828Zm0-3.912c1.98 0 3.61-.5 4.88-1.497 1.28-.997 2.23-2.308 2.84-3.933.61-1.626.92-3.383.92-5.277 0-1.899-.31-3.66-.92-5.3-.61-1.638-1.56-2.96-2.84-3.97-1.27-1.01-2.9-1.515-4.88-1.515s-3.6.505-4.88 1.515c-1.28 1.01-2.22 2.332-2.84 3.97-.61 1.64-.91 3.401-.91 5.3 0 1.894.3 3.651.91 5.277.62 1.625 1.56 2.936 2.84 3.933 1.28.997 2.9 1.497 4.88 1.497Zm19.84 3.321v-28.356h11.78c3.11 0 5.58.687 7.41 2.065 1.82 1.382 2.74 3.201 2.74 5.466 0 1.723-.52 3.062-1.56 4.009-1.04.935-2.37 1.563-4 1.898 1.06.149 2.09.517 3.1 1.109a7.34 7.34 0 0 1 2.51 2.44c.67 1.021 1 2.275 1 3.763 0 1.452-.38 2.751-1.13 3.896-.75 1.146-1.83 2.052-3.23 2.717-1.4.662-3.08.993-5.03.993h-13.59Zm4.2-3.987h9.39c1.53 0 2.72-.356 3.59-1.071.86-.711 1.29-1.683 1.29-2.916 0-1.464-.43-2.618-1.29-3.453-.87-.848-2.06-1.274-3.59-1.274h-9.39v8.714Zm0-12.481h7.58c1.2 0 2.22-.162 3.07-.48.85-.331 1.5-.798 1.95-1.403.46-.613.7-1.341.7-2.177 0-1.195-.51-2.131-1.53-2.807-1.01-.691-2.4-1.032-4.19-1.032h-7.58v7.899Z" fill="#FFFCE1"/>
    <defs>
        <filter id="a" x="0" y=".5" width="511.541" height="386.191" filterUnits="userSpaceOnUse" color-interpolation-filters="sRGB">
            <feFlood flood-opacity="0" result="BackgroundImageFix"/>
            <feBlend in="SourceGraphic" in2="BackgroundImageFix" result="shape"/>
            <feColorMatrix in="SourceAlpha" values="0 0 0 0 0 0 0 0 0 0 0 0 0 0 0 0 0 0 127 0" result="hardAlpha"/>
            <feOffset dy="6"/>
            <feGaussianBlur stdDeviation="2"/>
            <feComposite in2="hardAlpha" operator="arithmetic" k2="-1" k3="1"/>
            <feColorMatrix values="0 0 0 0 0 0 0 0 0 0 0 0 0 0 0 0 0 0 0.25 0"/>
            <feBlend in2="shape" result="effect1_innerShadow_605_4438"/>
        </filter>
        <filter id="b" x="539.198" y="0" width="874.825" height="326.382" filterUnits="userSpaceOnUse" color-interpolation-filters="sRGB">
            <feFlood flood-opacity="0" result="BackgroundImageFix"/>
            <feBlend in="SourceGraphic" in2="BackgroundImageFix" result="shape"/>
            <feColorMatrix in="SourceAlpha" values="0 0 0 0 0 0 0 0 0 0 0 0 0 0 0 0 0 0 127 0" result="hardAlpha"/>
            <feOffset dy="-1"/>
            <feGaussianBlur stdDeviation="2"/>
            <feComposite in2="hardAlpha" operator="arithmetic" k2="-1" k3="1"/>
            <feColorMatrix values="0 0 0 0 0 0 0 0 0 0 0 0 0 0 0 0 0 0 0.4 0"/>
            <feBlend in2="shape" result="effect1_innerShadow_605_4438"/>
        </filter>
    </defs>
</svg>
