<svg width="271" height="61" fill="none" xmlns="http://www.w3.org/2000/svg">
    <g clip-path="url(#a)">
        <path d="M138.924 15.183c-.926-.588-2.01-1.042-3.221-1.349a23.408 23.408 0 0 0-2.213-.44 8.317 8.317 0 0 0 1.495-.584c.822-.423 1.491-.913 1.983-1.456a4.763 4.763 0 0 0 1.061-1.834c.204-.655.303-1.34.303-2.035 0-2.329-1.025-4.061-3.053-5.152-1.974-1.06-4.63-1.598-7.895-1.598h-9.915v.757l.217.04c.542.102 1.071.423 1.568.953.496.534.74 1.068.74 1.638V25.82c0 .566-.248 1.127-.74 1.67-.402.445-.823.721-1.252.85v-.49h-3.956c-.081 0-.226-.017-.443-.053a2.147 2.147 0 0 1-.664-.227 1.698 1.698 0 0 1-.587-.507c-.158-.214-.239-.5-.239-.85V3.73c0-.356.099-.663.302-.935.217-.294.452-.525.705-.712a3.101 3.101 0 0 1 1.012-.566l.176-.062V.73h-7.525v.726l.176.062c.398.138.736.33 1.048.588.267.165.501.396.696.681.189.276.28.584.28.944v24.12h-17.52V3.73c0-.356.099-.663.302-.935.217-.294.452-.53.705-.712a3.111 3.111 0 0 1 1.011-.566l.177-.062V.73h-7.525v.726l.176.062c.397.138.736.33 1.048.588.27.165.506.396.7.681.19.276.28.584.28.944v22.481c0 .365-.081.677-.253.953-.176.29-.384.53-.619.713-.24.186-.465.325-.677.41-.294.115-.38.12-.389.12h-.266v.8h27.908c.705 0 1.247.21 1.649.642.424.454.745.97.948 1.532.208.574.344 1.14.407 1.674.077.677.095.935.095 1.033v.263h.853v-5.143h10.935a36.44 36.44 0 0 0 4.11-.254 14.79 14.79 0 0 0 4.219-1.113 8.68 8.68 0 0 0 3.338-2.507c.899-1.104 1.355-2.6 1.355-4.444 0-1.344-.271-2.497-.813-3.428a6.756 6.756 0 0 0-2.213-2.28Zm-15.804-.774h3.613c1.671.035 3.275.137 4.77.307 1.477.164 2.782.467 3.88.904 1.07.427 1.924 1.055 2.538 1.87.61.806.917 1.923.917 3.312 0 1.581-.321 2.846-.958 3.767-.641.926-1.454 1.643-2.425 2.124-.985.49-2.069.81-3.216.953-1.17.147-2.276.223-3.302.223h-5.817v-13.46Zm5.04-1.363h-5.04V2.106h3.749c3.075 0 5.266.463 6.508 1.376 1.233.908 1.834 2.217 1.834 4.012 0 1.812-.547 3.17-1.622 4.047-1.088.89-2.922 1.398-5.429 1.505ZM168.164 22.757a32.778 32.778 0 0 1-2.118 2.19 13.006 13.006 0 0 1-2.349 1.755c-.84.49-1.775.877-2.782 1.149-1.007.271-2.159.41-3.424.41-1.847 0-3.482-.357-4.864-1.06a9.894 9.894 0 0 1-3.437-2.859c-.904-1.198-1.586-2.605-2.028-4.19a18.8 18.8 0 0 1-.669-5.049c0-.904.077-1.825.235-2.756h19.182c.895 0 1.545-.058 1.983-.178.47-.13.804-.334.994-.61.185-.272.262-.606.239-1.002-.022-.347-.076-.77-.162-1.251a9.541 9.541 0 0 0-1.197-3.393 10.188 10.188 0 0 0-2.426-2.814c-.989-.797-2.168-1.443-3.509-1.92-1.342-.471-2.818-.711-4.395-.711-1.928 0-3.758.365-5.447 1.082a13.897 13.897 0 0 0-4.453 3.023c-1.27 1.287-2.29 2.85-3.036 4.644-.745 1.79-1.12 3.771-1.12 5.886 0 2.146.335 4.132.989 5.904.655 1.777 1.599 3.34 2.805 4.644 1.211 1.31 2.71 2.338 4.463 3.06 1.752.716 3.726 1.081 5.862 1.081 1.486 0 2.819-.183 3.966-.543a12.855 12.855 0 0 0 3.108-1.43 13.513 13.513 0 0 0 2.479-2.025 28.086 28.086 0 0 0 1.992-2.316l.149-.196-.84-.725-.19.2Zm-2.141-11.781h-19.019c.04-.16.081-.321.126-.481.42-1.55 1.071-2.97 1.938-4.226a10.679 10.679 0 0 1 3.252-3.085c1.292-.789 2.854-1.19 4.652-1.19 1.594 0 2.981.272 4.124.816 1.147.538 2.095 1.25 2.823 2.11a8.325 8.325 0 0 1 1.599 2.957c.311 1.024.483 2.066.505 3.099ZM170.558.744v6.51h.854V6.99c0-.093.018-.351.095-1.033a7.425 7.425 0 0 1 .406-1.674 4.463 4.463 0 0 1 .949-1.531c.406-.432.944-.642 1.648-.642h8.668v24.12c0 .36-.091.668-.28.944a2.442 2.442 0 0 1-.732.703 3.113 3.113 0 0 1-1.012.566l-.176.062v.726h7.525v-.726l-.176-.062a3.082 3.082 0 0 1-1.03-.579c-.24-.17-.47-.405-.687-.699a1.51 1.51 0 0 1-.302-.935V2.11h8.667c.705 0 1.247.21 1.649.642.424.454.745.97.948 1.531.208.58.348 1.14.407 1.674.077.682.095.94.095 1.033v.263h.853V.743h-28.369Z" fill="#000"/>
        <path d="M88.323 45.202c-.086-.196-.334-.253-1.278.08-14.282 6.648-48.07 21.066-53.328 11.314-2.254-4.154 3.581-13.313 7.552-16.986 8.08.592 17.294-1.723 20.898-2.752 6.36-2.186 27.733-10.543 35.826-26.417.524-1.482.47-2.872-.144-3.9-.51-.85-1.378-1.407-2.52-1.603-18.22-2.307-43.487 19.636-56.987 32.989-2.281-.646-4.463-1.425-6.572-2.173-6.793-2.418-13.211-4.702-21.129-1.923-4.715 2.008-7.76 4.376-9.891 7.702-.15.299-.253.553-.068.686.19.134.406-.035.858-.494 2.877-4.644 8.428-7.654 15.23-8.25 5.809-.38 11.35 1.767 16.238 3.668 1.598.624 3.116 1.211 4.57 1.688l-1.093 1.033c-4.566 4.675-8.676 12.008-5.252 17.302 1.684 2.65 5.018 3.718 9.331 3.718 12.565 0 33.45-9.065 46.178-14.59l.99-.433c.5-.253.681-.454.591-.659ZM43.188 38.84l-1.152-.054c1.69-1.941 7.57-7.302 10.158-9.662.624-.57 1.08-.984 1.279-1.17 7.65-7.183 17.118-13.72 25.97-17.931 8.045-3.83 14.571-5.24 17.028-3.691 1.107.699 1.342 1.99.71 3.815C93.715 17.418 85.6 24.86 74.921 30.553c-10.718 5.722-22.285 8.74-31.734 8.287Z" fill="#B3686F"/>
        <path d="M270.783 40.264c-.036-2.974-1.978-5.708-4.557-7.222-1.288-.765-2.701-1.286-4.138-1.603a15.893 15.893 0 0 0-4.403-.414c-2.814.107-5.515.842-8.063 1.848 2.399-3.428 4.409-7.142 5.484-11.251.79-2.997.975-6.243.198-9.346-.754-3.117-2.511-5.931-4.679-8.25l-.027-.028-.05-.044c-2.85-2.454-6.603-3.816-10.311-4.03-3.727-.267-7.399.419-10.845 1.532-6.915 2.24-13.103 6.104-18.473 10.788-2.678 2.356-5.158 4.956-7.19 7.926-.999 1.492-1.907 3.072-2.489 4.822-.289.873-.492 1.795-.52 2.756-.036.953.154 1.968.628 2.841.452.855 1.138 1.634 1.988 2.146.844.521 1.802.784 2.737.895 1.883.218 3.703-.098 5.447-.534 3.482-.935 6.725-2.409 9.842-4.137l.243-.12-.022-.352c-.104-1.772.022-3.53.664-5.075.619-1.559 1.748-2.841 3.116-3.856 1.373-1.02 3.004-1.724 4.675-2.334a46.998 46.998 0 0 1 5.045-1.424c.461 1.313.488 2.72-.19 3.887-.663 1.246-1.824 2.213-3.057 3.032-1.242.828-2.624 1.465-4.025 2.062a43.573 43.573 0 0 1-4.322 1.518l.117.53c3.076-.584 6.08-1.59 8.785-3.278 1.328-.854 2.588-1.963 3.343-3.455a4.893 4.893 0 0 0 .478-2.426c-.063-.828-.329-1.612-.709-2.311l-.095-.174-.167.018c-1.91-.17-3.821.018-5.686.485-1.861.472-3.686 1.256-5.28 2.44-1.586 1.176-2.931 2.828-3.51 4.751-.618 1.79-.555 3.687-.18 5.428-2.945 1.603-6.089 2.97-9.336 3.758-1.671.392-3.401.637-5.036.414-1.631-.196-3.085-1.042-3.727-2.471-.686-1.354-.429-3.032.131-4.555.569-1.54 1.464-2.997 2.453-4.368 2.023-2.738 4.49-5.174 7.127-7.382a57.41 57.41 0 0 1 8.51-5.865c2.994-1.7 6.124-3.183 9.39-4.203 3.256-1.024 6.648-1.63 9.982-1.47 3.319.143 6.535 1.265 9.056 3.34 2.028 2.062 3.676 4.48 4.552 7.209.899 2.747.926 5.762.276 8.647-1.053 4.44-3.329 8.518-6.071 12.253-2.177.989-4.254 2.155-6.246 3.433-4.788 3.081-9.083 6.782-13.162 10.66-.718.69-1.418 1.398-2.118 2.106-.226 0-.515.009-.894.022-1.586.058-2.57-.205-2.936-.784-.321-.498-.203-1.278.348-2.324.605-1.153 1.797-2.489 2.954-3.776.37-.41.731-.814 1.061-1.197.09-.09.104-.223.041-.352-.14-.298-.746-.708-1.599-.646l-.063.005-.972.81c.077-.953-.248-1.754-.935-2.289-.998-.774-2.678-.881-3.992-.249-1.098.526-1.73 1.47-1.73 2.583 0 .565.248 1.082.718 1.487.696.6 1.816.917 3.071.908-3.003 1.901-8.812 4.942-10.496 3.86-.398-.253-.542-.765-.429-1.514 1.729-.405 1.955-1.1 1.973-1.384.023-.356-.226-.677-.623-.81-.497-.17-1.296-.059-1.911.81l-.027.058c-.054.182-.067.334-.108.507-2.421.89-6.798 2.276-11.621.53.162-1.104-.398-1.483-.759-1.607-.827-.294-2.024.2-2.344.792-.186.339-.1.677.235.935.13.152.411.156.862.165.258.005.935.018.976.147.009.036.045.374-1.87 1.67-1.233.748-2.376.699-2.913-.125-.868-1.336-.009-4.573 4.598-7.596l.203-.134-.167-.169c-.1-.102-.998-.97-1.685-.712l-.045.022c-3.365 2.36-4.675 4.337-5.131 5.748a1.533 1.533 0 0 0-.416.063l-2.181.815c-6.897 2.586-10.357 3.882-12.633 3.17-.452-.143-.714-.334-.773-.57-.153-.597.831-1.594 1.78-2.56 1.346-1.372 2.742-2.788 2.046-3.95-1.012-1.67-3.577-1.683-7.43-.044-.059-.17-.203-.361-.501-.566-1.364-.935-5.267-1.55-8.428.396.018-.16.049-.32.072-.454.027-.16.05-.285.05-.343v-.209l-1.437.102.005.188c.04 1.527-.931 2.822-1.974 3.922-.086.005-.163.005-.266.014-.267.013-1.112.227-2.706.627-4.666 1.185-15.592 3.954-16.829 1.902-.343-.566.153-1.581 1.432-2.935 2.963-3.134 6.233-5.022 6.784-4.6.036.028.334.322-.696 1.924l-.135.21.817.271.086-.111c1.07-1.38 1.26-2.387.565-2.997-1.337-1.188-3.469-1.02-5.854.455-2.064 1.278-4.06 3.437-4.81 5.374-3.591 1.612-14.612 4.764-16.075 2.569-.456-.681-.104-2.28 4.151-6.047.171-.173.23-.383.171-.596-.122-.437-.745-.833-1.662-1.064l-.113-.027-1.45 1.456c-3.983-1.91-7.303-.263-8.943 1.75-.501.614-.849 1.26-1.043 1.879a3.941 3.941 0 0 0-.488.115c-3.974 1.296-19.566 4.68-20.298 3.273-.356-.677 2.66-3.655 4.282-5.254 1.391-1.371 2.123-2.106 2.209-2.422.068-.205-.005-.41-.203-.543-.308-.21-.953-.24-1.274.018-1.522.957-2.778 1.233-3.726.823-1.161-.498-1.531-1.892-1.635-2.466l-.032-.183-1.558.183-.04.11c-.33.882-.14 1.72.532 2.365 1.107 1.06 3.193 1.322 4.964.619.167-.076.334-.156.492-.227.045-.022.095-.045.145-.067-.443.37-1.143.926-2.1 1.66-.317.255-.773.58-1.301.95-2.064 1.455-4.63 3.267-3.903 4.394.466.846 1.988 1.162 4.025 1.162 6.197 0 17.113-2.947 17.258-2.987 1.278-.366 2.041-.62 2.502-.806-.068.636.05 1.206.393 1.625.538.65 2.019 1.433 5.939-.49.131.69.551 1.229 1.252 1.603.862.467 2.104.659 3.536.659 4.548 0 11.048-1.933 13.74-3.18-.086.473-.086.918.036 1.314.244.82 1.066 1.786 3.609 1.786h.077c4.218-.063 12.285-1.96 16.16-2.872.371-.09.7-.165.998-.232-.361.356-.7.695-.971 1.011-.217.258-.194.476-.14.61.113.272.479.459.998.512.678.071 1.581-.107 1.961-.659 5.153-6.915 8.265-6.456 9.665-5.566.023.018.032.032.032.054.041.4-1.107 1.532-2.114 2.529-1.007.997-2.046 2.026-2.615 2.912l-.027.08c-.027.214.077.41.298.543.488.303 1.599.312 2.326-.16 2.028-2.097 3.094-3.397 3.799-4.261l.329-.4c.619-.722 2.923-1.64 4.436-1.608.384.009.894.093 1.133.41.122.177-.944 1.126-1.517 1.633-1.319 1.176-2.963 2.632-3.008 3.94 0 1.1 1.088 1.84 3.328 2.263.357.062.714.098 1.089.098 1.874 0 4.088-.788 7.868-2.133a274.166 274.166 0 0 1 5.75-1.995c-.068.49-.036.873.022 1.14.231 1.104 1.093 1.915 2.304 2.164.244.049.51.08.795.08 1.423 0 3.288-.694 4.805-2.707 4.626 1.861 9.409.48 11.789-.383-.099 1.01.14 1.741.741 2.155 2.064 1.43 7.565-1.331 10.786-3.402-1.224 1.692-1.572 3.17-.972 4.24.538.952 1.789 1.455 3.546 1.455.56 0 1.17-.053 1.825-.156a133.903 133.903 0 0 0-8.464 9.596l-.565.685.826-.249c.493-.151.764-.334 1.13-.517l1.007-.574a72.089 72.089 0 0 0 1.965-1.206c1.296-.824 2.57-1.684 3.83-2.556a133.48 133.48 0 0 0 7.366-5.517c4.766-3.852 9.332-7.992 13.307-12.68a75.91 75.91 0 0 0 1.811-2.254c.65-.307 1.31-.597 1.978-.864 2.552-1.02 5.23-1.75 7.927-1.83 1.35-.053 2.669.098 3.997.383 1.314.285 2.593.704 3.753 1.323 2.313 1.157 4.151 3.321 4.72 5.9a2.579 2.579 0 0 1-1.581 1.001 3.015 3.015 0 0 1-1.02.005 4.588 4.588 0 0 1-1.008-.303l-.478-.192.095.49c.167.85.252 1.714.248 2.574-.005.432-.032.859-.09 1.282a6.73 6.73 0 0 1-.244 1.06c-.253.018-.542 0-.804-.071a3.305 3.305 0 0 1-.913-.392 3.973 3.973 0 0 1-.772-.65 5.77 5.77 0 0 1-.623-.815l-.402-.61-.109.712a10 10 0 0 1-.722 2.525 8.734 8.734 0 0 1-.633 1.144 5.693 5.693 0 0 1-.542.69 10.852 10.852 0 0 1-.655-2.395c-.144-.944-.18-1.906-.171-2.863.009-.958.113-1.92.244-2.877.067-.476.144-.957.158-1.447.045-.49.059-.984-.018-1.518l-.533-.138c-.619.882-.922 1.883-1.075 2.899-.118 1.024-.226 2.057-.163 3.094.041 1.038.185 2.075.479 3.081.307 1.002.709 1.968 1.414 2.819l.189.231.208-.187c.38-.343.655-.703.922-1.1a8.76 8.76 0 0 0 .677-1.224c.294-.663.488-1.362.637-2.07.104.133.194.28.312.405.261.276.555.53.88.739.33.205.691.365 1.075.463.389.094.768.138 1.206.071l.145-.022.054-.138c.176-.463.257-.9.325-1.354.063-.45.09-.904.1-1.353a13.642 13.642 0 0 0-.19-2.222c.226.076.451.142.691.178.397.071.813.062 1.219-.004.407-.076.795-.24 1.134-.464.343-.231.632-.498.876-.863l.041-.054v-.058Zm-50.736 1.283c.389-.944 1.251-1.835 2.177-1.835.104 0 .208.01.307.036.398.089.66.263.8.53.221.418.153 1.068-.199 1.928-.298.596-.723.97-1.26 1.108-.65.17-1.369-.035-1.762-.298l-.009-.004c-.311-.196-.334-.784-.054-1.465Zm-100.148.187c.086 0 .167.004.235.018.312.057.366.213.379.262.073.223.064.94-1.671 2.734-1.242 1.612-3.69 2.805-4.842 2.645-.234-.031-.384-.12-.442-.267-.073-.178-.113-.744 1.034-2.137 1.707-2.098 4.142-3.255 5.307-3.255Zm125.387-4.787c-3.916 4.627-8.355 8.82-13.062 12.699a132.643 132.643 0 0 1-7.258 5.57 108.453 108.453 0 0 1-3.776 2.587 67.74 67.74 0 0 1-1.933 1.22 85.75 85.75 0 0 1-.723.427c3.383-3.829 7.015-7.453 10.768-10.917 4.11-3.772 8.478-7.28 13.166-10.263a52.657 52.657 0 0 1 3.315-1.933c-.167.205-.33.41-.497.61Z" fill="#B3686F"/>
        <path d="M270.783 40.264c-.036-2.974-1.978-5.708-4.557-7.222-1.288-.765-2.701-1.286-4.138-1.603a15.893 15.893 0 0 0-4.403-.414c-2.814.107-5.515.842-8.063 1.848 2.399-3.428 4.409-7.142 5.484-11.251.79-2.997.975-6.243.198-9.346-.754-3.117-2.511-5.931-4.679-8.25l-.027-.028-.05-.044c-2.85-2.454-6.603-3.816-10.311-4.03-3.727-.267-7.399.419-10.845 1.532-6.915 2.24-13.103 6.104-18.473 10.788-2.678 2.356-5.158 4.956-7.19 7.926-.999 1.492-1.907 3.072-2.489 4.822-.289.873-.492 1.795-.52 2.756-.036.953.154 1.968.628 2.841.452.855 1.138 1.634 1.988 2.146.844.521 1.802.784 2.737.895 1.883.218 3.703-.098 5.447-.534 3.482-.935 6.725-2.409 9.842-4.137l.243-.12-.022-.352c-.104-1.772.022-3.53.664-5.075.619-1.559 1.748-2.841 3.116-3.856 1.373-1.02 3.004-1.724 4.675-2.334a46.998 46.998 0 0 1 5.045-1.424c.461 1.313.488 2.72-.19 3.887-.663 1.246-1.824 2.213-3.057 3.032-1.242.828-2.624 1.465-4.025 2.062a43.573 43.573 0 0 1-4.322 1.518l.117.53c3.076-.584 6.08-1.59 8.785-3.278 1.328-.854 2.588-1.963 3.343-3.455a4.893 4.893 0 0 0 .478-2.426c-.063-.828-.329-1.612-.709-2.311l-.095-.174-.167.018c-1.91-.17-3.821.018-5.686.485-1.861.472-3.686 1.256-5.28 2.44-1.586 1.176-2.931 2.828-3.51 4.751-.618 1.79-.555 3.687-.18 5.428-2.945 1.603-6.089 2.97-9.336 3.758-1.671.392-3.401.637-5.036.414-1.631-.196-3.085-1.042-3.727-2.471-.686-1.354-.429-3.032.131-4.555.569-1.54 1.464-2.997 2.453-4.368 2.023-2.738 4.49-5.174 7.127-7.382a57.41 57.41 0 0 1 8.51-5.865c2.994-1.7 6.124-3.183 9.39-4.203 3.256-1.024 6.648-1.63 9.982-1.47 3.319.143 6.535 1.265 9.056 3.34 2.028 2.062 3.676 4.48 4.552 7.209.899 2.747.926 5.762.276 8.647-1.053 4.44-3.329 8.518-6.071 12.253-2.177.989-4.254 2.155-6.246 3.433-4.788 3.081-9.083 6.782-13.162 10.66-.718.69-1.418 1.398-2.118 2.106-.226 0-.515.009-.894.022-1.586.058-2.57-.205-2.936-.784-.321-.498-.203-1.278.348-2.324.605-1.153 1.797-2.489 2.954-3.776.37-.41.731-.814 1.061-1.197.09-.09.104-.223.041-.352-.14-.298-.746-.708-1.599-.646l-.063.005-.972.81c.077-.953-.248-1.754-.935-2.289-.998-.774-2.678-.881-3.992-.249-1.098.526-1.73 1.47-1.73 2.583 0 .565.248 1.082.718 1.487.696.6 1.816.917 3.071.908-3.003 1.901-8.812 4.942-10.496 3.86-.398-.253-.542-.765-.429-1.514 1.729-.405 1.955-1.1 1.973-1.384.023-.356-.226-.677-.623-.81-.497-.17-1.296-.059-1.911.81l-.027.058c-.054.182-.067.334-.108.507-2.421.89-6.798 2.276-11.621.53.162-1.104-.398-1.483-.759-1.607-.827-.294-2.024.2-2.344.792-.186.339-.1.677.235.935.13.152.411.156.862.165.258.005.935.018.976.147.009.036.045.374-1.87 1.67-1.233.748-2.376.699-2.913-.125-.868-1.336-.009-4.573 4.598-7.596l.203-.134-.167-.169c-.1-.102-.998-.97-1.685-.712l-.045.022c-3.365 2.36-4.675 4.337-5.131 5.748a1.533 1.533 0 0 0-.416.063l-2.181.815c-6.897 2.586-10.357 3.882-12.633 3.17-.452-.143-.714-.334-.773-.57-.153-.597.831-1.594 1.78-2.56 1.346-1.372 2.742-2.788 2.046-3.95-1.012-1.67-3.577-1.683-7.43-.044-.059-.17-.203-.361-.501-.566-1.364-.935-5.267-1.55-8.428.396.018-.16.049-.32.072-.454.027-.16.05-.285.05-.343v-.209l-1.437.102.005.188c.04 1.527-.931 2.822-1.974 3.922-.086.005-.163.005-.266.014-.267.013-1.112.227-2.706.627-4.666 1.185-15.592 3.954-16.829 1.902-.343-.566.153-1.581 1.432-2.935 2.963-3.134 6.233-5.022 6.784-4.6.036.028.334.322-.696 1.924l-.135.21.817.271.086-.111c1.07-1.38 1.26-2.387.565-2.997-1.337-1.188-3.469-1.02-5.854.455-2.064 1.278-4.06 3.437-4.81 5.374-3.591 1.612-14.612 4.764-16.075 2.569-.456-.681-.104-2.28 4.151-6.047.171-.173.23-.383.171-.596-.122-.437-.745-.833-1.662-1.064l-.113-.027-1.45 1.456c-3.983-1.91-7.303-.263-8.943 1.75-.501.614-.849 1.26-1.043 1.879a3.941 3.941 0 0 0-.488.115c-3.974 1.296-19.566 4.68-20.298 3.273-.356-.677 2.66-3.655 4.282-5.254 1.391-1.371 2.123-2.106 2.209-2.422.068-.205-.005-.41-.203-.543-.308-.21-.953-.24-1.274.018-1.522.957-2.778 1.233-3.726.823-1.161-.498-1.531-1.892-1.635-2.466l-.032-.183-1.558.183-.04.11c-.33.882-.14 1.72.532 2.365 1.107 1.06 3.193 1.322 4.964.619.167-.076.334-.156.492-.227.045-.022.095-.045.145-.067-.443.37-1.143.926-2.1 1.66-.317.255-.773.58-1.301.95-2.064 1.455-4.63 3.267-3.903 4.394.466.846 1.988 1.162 4.025 1.162 6.197 0 17.113-2.947 17.258-2.987 1.278-.366 2.041-.62 2.502-.806-.068.636.05 1.206.393 1.625.538.65 2.019 1.433 5.939-.49.131.69.551 1.229 1.252 1.603.862.467 2.104.659 3.536.659 4.548 0 11.048-1.933 13.74-3.18-.086.473-.086.918.036 1.314.244.82 1.066 1.786 3.609 1.786h.077c4.218-.063 12.285-1.96 16.16-2.872.371-.09.7-.165.998-.232-.361.356-.7.695-.971 1.011-.217.258-.194.476-.14.61.113.272.479.459.998.512.678.071 1.581-.107 1.961-.659 5.153-6.915 8.265-6.456 9.665-5.566.023.018.032.032.032.054.041.4-1.107 1.532-2.114 2.529-1.007.997-2.046 2.026-2.615 2.912l-.027.08c-.027.214.077.41.298.543.488.303 1.599.312 2.326-.16 2.028-2.097 3.094-3.397 3.799-4.261l.329-.4c.619-.722 2.923-1.64 4.436-1.608.384.009.894.093 1.133.41.122.177-.944 1.126-1.517 1.633-1.319 1.176-2.963 2.632-3.008 3.94 0 1.1 1.088 1.84 3.328 2.263.357.062.714.098 1.089.098 1.874 0 4.088-.788 7.868-2.133a274.166 274.166 0 0 1 5.75-1.995c-.068.49-.036.873.022 1.14.231 1.104 1.093 1.915 2.304 2.164.244.049.51.08.795.08 1.423 0 3.288-.694 4.805-2.707 4.626 1.861 9.409.48 11.789-.383-.099 1.01.14 1.741.741 2.155 2.064 1.43 7.565-1.331 10.786-3.402-1.224 1.692-1.572 3.17-.972 4.24.538.952 1.789 1.455 3.546 1.455.56 0 1.17-.053 1.825-.156a133.903 133.903 0 0 0-8.464 9.596l-.565.685.826-.249c.493-.151.764-.334 1.13-.517l1.007-.574a72.089 72.089 0 0 0 1.965-1.206c1.296-.824 2.57-1.684 3.83-2.556a133.48 133.48 0 0 0 7.366-5.517c4.766-3.852 9.332-7.992 13.307-12.68a75.91 75.91 0 0 0 1.811-2.254c.65-.307 1.31-.597 1.978-.864 2.552-1.02 5.23-1.75 7.927-1.83 1.35-.053 2.669.098 3.997.383 1.314.285 2.593.704 3.753 1.323 2.313 1.157 4.151 3.321 4.72 5.9a2.579 2.579 0 0 1-1.581 1.001 3.015 3.015 0 0 1-1.02.005 4.588 4.588 0 0 1-1.008-.303l-.478-.192.095.49c.167.85.252 1.714.248 2.574-.005.432-.032.859-.09 1.282a6.73 6.73 0 0 1-.244 1.06c-.253.018-.542 0-.804-.071a3.305 3.305 0 0 1-.913-.392 3.973 3.973 0 0 1-.772-.65 5.77 5.77 0 0 1-.623-.815l-.402-.61-.109.712a10 10 0 0 1-.722 2.525 8.734 8.734 0 0 1-.633 1.144 5.693 5.693 0 0 1-.542.69 10.852 10.852 0 0 1-.655-2.395c-.144-.944-.18-1.906-.171-2.863.009-.958.113-1.92.244-2.877.067-.476.144-.957.158-1.447.045-.49.059-.984-.018-1.518l-.533-.138c-.619.882-.922 1.883-1.075 2.899-.118 1.024-.226 2.057-.163 3.094.041 1.038.185 2.075.479 3.081.307 1.002.709 1.968 1.414 2.819l.189.231.208-.187c.38-.343.655-.703.922-1.1a8.76 8.76 0 0 0 .677-1.224c.294-.663.488-1.362.637-2.07.104.133.194.28.312.405.261.276.555.53.88.739.33.205.691.365 1.075.463.389.094.768.138 1.206.071l.145-.022.054-.138c.176-.463.257-.9.325-1.354.063-.45.09-.904.1-1.353a13.642 13.642 0 0 0-.19-2.222c.226.076.451.142.691.178.397.071.813.062 1.219-.004.407-.076.795-.24 1.134-.464.343-.231.632-.498.876-.863l.041-.054v-.058Zm-50.736 1.283c.389-.944 1.251-1.835 2.177-1.835.104 0 .208.01.307.036.398.089.66.263.8.53.221.418.153 1.068-.199 1.928-.298.596-.723.97-1.26 1.108-.65.17-1.369-.035-1.762-.298l-.009-.004c-.311-.196-.334-.784-.054-1.465Zm-100.148.187c.086 0 .167.004.235.018.312.057.366.213.379.262.073.223.064.94-1.671 2.734-1.242 1.612-3.69 2.805-4.842 2.645-.234-.031-.384-.12-.442-.267-.073-.178-.113-.744 1.034-2.137 1.707-2.098 4.142-3.255 5.307-3.255Zm125.387-4.787c-3.916 4.627-8.355 8.82-13.062 12.699a132.643 132.643 0 0 1-7.258 5.57 108.453 108.453 0 0 1-3.776 2.587 67.74 67.74 0 0 1-1.933 1.22 85.75 85.75 0 0 1-.723.427c3.383-3.829 7.015-7.453 10.768-10.917 4.11-3.772 8.478-7.28 13.166-10.263a52.657 52.657 0 0 1 3.315-1.933c-.167.205-.33.41-.497.61Z" fill="#B3686F"/>
        <path d="M270.783 40.264c-.036-2.974-1.978-5.708-4.557-7.222-1.288-.765-2.701-1.286-4.138-1.603a15.893 15.893 0 0 0-4.403-.414c-2.814.107-5.515.842-8.063 1.848 2.399-3.428 4.409-7.142 5.484-11.251.79-2.997.975-6.243.198-9.346-.754-3.117-2.511-5.931-4.679-8.25l-.027-.028-.05-.044c-2.85-2.454-6.603-3.816-10.311-4.03-3.727-.267-7.399.419-10.845 1.532-6.915 2.24-13.103 6.104-18.473 10.788-2.678 2.356-5.158 4.956-7.19 7.926-.999 1.492-1.907 3.072-2.489 4.822-.289.873-.492 1.795-.52 2.756-.036.953.154 1.968.628 2.841.452.855 1.138 1.634 1.988 2.146.844.521 1.802.784 2.737.895 1.883.218 3.703-.098 5.447-.534 3.482-.935 6.725-2.409 9.842-4.137l.243-.12-.022-.352c-.104-1.772.022-3.53.664-5.075.619-1.559 1.748-2.841 3.116-3.856 1.373-1.02 3.004-1.724 4.675-2.334a46.998 46.998 0 0 1 5.045-1.424c.461 1.313.488 2.72-.19 3.887-.663 1.246-1.824 2.213-3.057 3.032-1.242.828-2.624 1.465-4.025 2.062a43.573 43.573 0 0 1-4.322 1.518l.117.53c3.076-.584 6.08-1.59 8.785-3.278 1.328-.854 2.588-1.963 3.343-3.455a4.893 4.893 0 0 0 .478-2.426c-.063-.828-.329-1.612-.709-2.311l-.095-.174-.167.018c-1.91-.17-3.821.018-5.686.485-1.861.472-3.686 1.256-5.28 2.44-1.586 1.176-2.931 2.828-3.51 4.751-.618 1.79-.555 3.687-.18 5.428-2.945 1.603-6.089 2.97-9.336 3.758-1.671.392-3.401.637-5.036.414-1.631-.196-3.085-1.042-3.727-2.471-.686-1.354-.429-3.032.131-4.555.569-1.54 1.464-2.997 2.453-4.368 2.023-2.738 4.49-5.174 7.127-7.382a57.41 57.41 0 0 1 8.51-5.865c2.994-1.7 6.124-3.183 9.39-4.203 3.256-1.024 6.648-1.63 9.982-1.47 3.319.143 6.535 1.265 9.056 3.34 2.028 2.062 3.676 4.48 4.552 7.209.899 2.747.926 5.762.276 8.647-1.053 4.44-3.329 8.518-6.071 12.253-2.177.989-4.254 2.155-6.246 3.433-4.788 3.081-9.083 6.782-13.162 10.66-.718.69-1.418 1.398-2.118 2.106-.226 0-.515.009-.894.022-1.586.058-2.57-.205-2.936-.784-.321-.498-.203-1.278.348-2.324.605-1.153 1.797-2.489 2.954-3.776.37-.41.731-.814 1.061-1.197.09-.09.104-.223.041-.352-.14-.298-.746-.708-1.599-.646l-.063.005-.972.81c.077-.953-.248-1.754-.935-2.289-.998-.774-2.678-.881-3.992-.249-1.098.526-1.73 1.47-1.73 2.583 0 .565.248 1.082.718 1.487.696.6 1.816.917 3.071.908-3.003 1.901-8.812 4.942-10.496 3.86-.398-.253-.542-.765-.429-1.514 1.729-.405 1.955-1.1 1.973-1.384.023-.356-.226-.677-.623-.81-.497-.17-1.296-.059-1.911.81l-.027.058c-.054.182-.067.334-.108.507-2.421.89-6.798 2.276-11.621.53.162-1.104-.398-1.483-.759-1.607-.827-.294-2.024.2-2.344.792-.186.339-.1.677.235.935.13.152.411.156.862.165.258.005.935.018.976.147.009.036.045.374-1.87 1.67-1.233.748-2.376.699-2.913-.125-.868-1.336-.009-4.573 4.598-7.596l.203-.134-.167-.169c-.1-.102-.998-.97-1.685-.712l-.045.022c-3.365 2.36-4.675 4.337-5.131 5.748a1.533 1.533 0 0 0-.416.063l-2.181.815c-6.897 2.586-10.357 3.882-12.633 3.17-.452-.143-.714-.334-.773-.57-.153-.597.831-1.594 1.78-2.56 1.346-1.372 2.742-2.788 2.046-3.95-1.012-1.67-3.577-1.683-7.43-.044-.059-.17-.203-.361-.501-.566-1.364-.935-5.267-1.55-8.428.396.018-.16.049-.32.072-.454.027-.16.05-.285.05-.343v-.209l-1.437.102.005.188c.04 1.527-.931 2.822-1.974 3.922-.086.005-.163.005-.266.014-.267.013-1.112.227-2.706.627-4.666 1.185-15.592 3.954-16.829 1.902-.343-.566.153-1.581 1.432-2.935 2.963-3.134 6.233-5.022 6.784-4.6.036.028.334.322-.696 1.924l-.135.21.817.271.086-.111c1.07-1.38 1.26-2.387.565-2.997-1.337-1.188-3.469-1.02-5.854.455-2.064 1.278-4.06 3.437-4.81 5.374-3.591 1.612-14.612 4.764-16.075 2.569-.456-.681-.104-2.28 4.151-6.047.171-.173.23-.383.171-.596-.122-.437-.745-.833-1.662-1.064l-.113-.027-1.45 1.456c-3.983-1.91-7.303-.263-8.943 1.75-.501.614-.849 1.26-1.043 1.879a3.941 3.941 0 0 0-.488.115c-3.974 1.296-19.566 4.68-20.298 3.273-.356-.677 2.66-3.655 4.282-5.254 1.391-1.371 2.123-2.106 2.209-2.422.068-.205-.005-.41-.203-.543-.308-.21-.953-.24-1.274.018-1.522.957-2.778 1.233-3.726.823-1.161-.498-1.531-1.892-1.635-2.466l-.032-.183-1.558.183-.04.11c-.33.882-.14 1.72.532 2.365 1.107 1.06 3.193 1.322 4.964.619.167-.076.334-.156.492-.227.045-.022.095-.045.145-.067-.443.37-1.143.926-2.1 1.66-.317.255-.773.58-1.301.95-2.064 1.455-4.63 3.267-3.903 4.394.466.846 1.988 1.162 4.025 1.162 6.197 0 17.113-2.947 17.258-2.987 1.278-.366 2.041-.62 2.502-.806-.068.636.05 1.206.393 1.625.538.65 2.019 1.433 5.939-.49.131.69.551 1.229 1.252 1.603.862.467 2.104.659 3.536.659 4.548 0 11.048-1.933 13.74-3.18-.086.473-.086.918.036 1.314.244.82 1.066 1.786 3.609 1.786h.077c4.218-.063 12.285-1.96 16.16-2.872.371-.09.7-.165.998-.232-.361.356-.7.695-.971 1.011-.217.258-.194.476-.14.61.113.272.479.459.998.512.678.071 1.581-.107 1.961-.659 5.153-6.915 8.265-6.456 9.665-5.566.023.018.032.032.032.054.041.4-1.107 1.532-2.114 2.529-1.007.997-2.046 2.026-2.615 2.912l-.027.08c-.027.214.077.41.298.543.488.303 1.599.312 2.326-.16 2.028-2.097 3.094-3.397 3.799-4.261l.329-.4c.619-.722 2.923-1.64 4.436-1.608.384.009.894.093 1.133.41.122.177-.944 1.126-1.517 1.633-1.319 1.176-2.963 2.632-3.008 3.94 0 1.1 1.088 1.84 3.328 2.263.357.062.714.098 1.089.098 1.874 0 4.088-.788 7.868-2.133a274.166 274.166 0 0 1 5.75-1.995c-.068.49-.036.873.022 1.14.231 1.104 1.093 1.915 2.304 2.164.244.049.51.08.795.08 1.423 0 3.288-.694 4.805-2.707 4.626 1.861 9.409.48 11.789-.383-.099 1.01.14 1.741.741 2.155 2.064 1.43 7.565-1.331 10.786-3.402-1.224 1.692-1.572 3.17-.972 4.24.538.952 1.789 1.455 3.546 1.455.56 0 1.17-.053 1.825-.156a133.903 133.903 0 0 0-8.464 9.596l-.565.685.826-.249c.493-.151.764-.334 1.13-.517l1.007-.574a72.089 72.089 0 0 0 1.965-1.206c1.296-.824 2.57-1.684 3.83-2.556a133.48 133.48 0 0 0 7.366-5.517c4.766-3.852 9.332-7.992 13.307-12.68a75.91 75.91 0 0 0 1.811-2.254c.65-.307 1.31-.597 1.978-.864 2.552-1.02 5.23-1.75 7.927-1.83 1.35-.053 2.669.098 3.997.383 1.314.285 2.593.704 3.753 1.323 2.313 1.157 4.151 3.321 4.72 5.9a2.579 2.579 0 0 1-1.581 1.001 3.015 3.015 0 0 1-1.02.005 4.588 4.588 0 0 1-1.008-.303l-.478-.192.095.49c.167.85.252 1.714.248 2.574-.005.432-.032.859-.09 1.282a6.73 6.73 0 0 1-.244 1.06c-.253.018-.542 0-.804-.071a3.305 3.305 0 0 1-.913-.392 3.973 3.973 0 0 1-.772-.65 5.77 5.77 0 0 1-.623-.815l-.402-.61-.109.712a10 10 0 0 1-.722 2.525 8.734 8.734 0 0 1-.633 1.144 5.693 5.693 0 0 1-.542.69 10.852 10.852 0 0 1-.655-2.395c-.144-.944-.18-1.906-.171-2.863.009-.958.113-1.92.244-2.877.067-.476.144-.957.158-1.447.045-.49.059-.984-.018-1.518l-.533-.138c-.619.882-.922 1.883-1.075 2.899-.118 1.024-.226 2.057-.163 3.094.041 1.038.185 2.075.479 3.081.307 1.002.709 1.968 1.414 2.819l.189.231.208-.187c.38-.343.655-.703.922-1.1a8.76 8.76 0 0 0 .677-1.224c.294-.663.488-1.362.637-2.07.104.133.194.28.312.405.261.276.555.53.88.739.33.205.691.365 1.075.463.389.094.768.138 1.206.071l.145-.022.054-.138c.176-.463.257-.9.325-1.354.063-.45.09-.904.1-1.353a13.642 13.642 0 0 0-.19-2.222c.226.076.451.142.691.178.397.071.813.062 1.219-.004.407-.076.795-.24 1.134-.464.343-.231.632-.498.876-.863l.041-.054v-.058Zm-50.736 1.283c.389-.944 1.251-1.835 2.177-1.835.104 0 .208.01.307.036.398.089.66.263.8.53.221.418.153 1.068-.199 1.928-.298.596-.723.97-1.26 1.108-.65.17-1.369-.035-1.762-.298l-.009-.004c-.311-.196-.334-.784-.054-1.465Zm-100.148.187c.086 0 .167.004.235.018.312.057.366.213.379.262.073.223.064.94-1.671 2.734-1.242 1.612-3.69 2.805-4.842 2.645-.234-.031-.384-.12-.442-.267-.073-.178-.113-.744 1.034-2.137 1.707-2.098 4.142-3.255 5.307-3.255Zm125.387-4.787c-3.916 4.627-8.355 8.82-13.062 12.699a132.643 132.643 0 0 1-7.258 5.57 108.453 108.453 0 0 1-3.776 2.587 67.74 67.74 0 0 1-1.933 1.22 85.75 85.75 0 0 1-.723.427c3.383-3.829 7.015-7.453 10.768-10.917 4.11-3.772 8.478-7.28 13.166-10.263a52.657 52.657 0 0 1 3.315-1.933c-.167.205-.33.41-.497.61Z" fill="#B3686F"/>
        <path d="M91.462 15.018h-3.12v10.21h3.12v-10.21Z" fill="#000"/>
    </g>
    <defs>
        <clipPath id="a">
            <path fill="#fff" d="M0 0h271v61H0z"/>
        </clipPath>
    </defs>
</svg>
