<svg width="20" height="21" fill="none" xmlns="http://www.w3.org/2000/svg">
    <path d="M18.333 14.6v2.5a1.667 1.667 0 0 1-1.816 1.667 16.492 16.492 0 0 1-7.192-2.559 16.25 16.25 0 0 1-5-5 16.492 16.492 0 0 1-2.558-7.225 1.666 1.666 0 0 1 1.658-1.816h2.5A1.667 1.667 0 0 1 7.592 3.6c.105.8.3 1.586.583 2.342A1.667 1.667 0 0 1 7.8 7.7L6.742 8.758a13.333 13.333 0 0 0 5 5L12.8 12.7a1.667 1.667 0 0 1 1.758-.375c.756.282 1.542.478 2.342.583a1.666 1.666 0 0 1 1.433 1.692Z" stroke="#FFFAF8" stroke-width="2" stroke-linecap="round" stroke-linejoin="round"/>
</svg>
