<svg width="28" height="29" fill="none" xmlns="http://www.w3.org/2000/svg">
    <path d="M14 28.5c7.732 0 14-6.268 14-14S21.732.5 14 .5 0 6.768 0 14.5s6.268 14 14 14Z" fill="#23B180"/>
    <path d="M22.275 13.5c-.1-4.375-3.7-7.875-8.15-7.875C9.75 5.625 6.175 9.05 6 13.35v.35c0 1.525.425 2.95 1.175 4.175L5.7 22.2l4.5-1.425c1.175.65 2.5 1 3.925 1 4.5 0 8.15-3.625 8.15-8.075v-.2Zm-8.125 6.975c-1.4 0-2.675-.425-3.775-1.125l-2.625.825.85-2.525a6.696 6.696 0 0 1-1.3-3.975c0-.225 0-.45.025-.65C7.65 9.575 10.6 6.9 14.15 6.9c3.6 0 6.55 2.775 6.825 6.275.025.175.025.35.025.525-.025 3.75-3.075 6.775-6.85 6.775Z" fill="#fff"/>
    <path d="M17.875 15.325c-.2-.1-1.175-.575-1.375-.65-.175-.075-.325-.1-.45.1s-.525.65-.625.775c-.125.125-.225.15-.425.05-.2-.1-.85-.3-1.6-.975-.6-.525-1-1.175-1.1-1.375-.125-.2 0-.3.075-.4.1-.1.2-.225.3-.35.025-.025.05-.075.075-.1.05-.075.075-.15.125-.225.075-.125.025-.25-.025-.35-.05-.1-.45-1.075-.625-1.475-.175-.4-.325-.325-.45-.325S11.525 10 11.4 10a.72.72 0 0 0-.525.25c-.175.2-.7.675-.7 1.65 0 .225.05.45.1.675.2.7.625 1.275.7 1.375.1.125 1.375 2.2 3.4 3 2.025.8 2.025.525 2.4.5.375-.025 1.175-.475 1.35-.95.175-.45.175-.85.125-.95-.05-.075-.175-.125-.375-.225Z" fill="#fff"/>
</svg>
