<svg width="20" height="18" viewBox="0 0 20 18" fill="none" xmlns="http://www.w3.org/2000/svg">
<path fill-rule="evenodd" clip-rule="evenodd" d="M12.1496 0.440462C12.8384 0.149671 13.5767 0 14.3223 0C15.0679 0 15.8063 0.149671 16.4951 0.440462C17.1838 0.7312 17.8095 1.15731 18.3366 1.69446C18.8638 2.23143 19.2823 2.86925 19.5677 3.57092C19.8531 4.27272 20 5.02493 20 5.78459C20 6.54425 19.8531 7.29647 19.5677 7.99827C19.2823 8.7 18.864 9.33758 18.3367 9.87458C18.3367 9.87463 18.3368 9.87453 18.3367 9.87458L10.6172 17.7394C10.2762 18.0869 9.72331 18.0869 9.38229 17.7394L1.66282 9.87458C0.598133 8.78985 0 7.31864 0 5.78459C0 4.25055 0.598133 2.77934 1.66282 1.6946C2.7275 0.609872 4.17152 0.000475781 5.67721 0.000475781C7.1829 0.000475781 8.62692 0.609872 9.6916 1.6946L9.99977 2.00857L10.3078 1.69475C10.3078 1.6947 10.3077 1.6948 10.3078 1.69475C10.8349 1.15754 11.4608 0.731227 12.1496 0.440462ZM14.3223 1.77937C13.8061 1.77937 13.295 1.88299 12.8181 2.08431C12.3412 2.28563 11.9079 2.5807 11.543 2.95266L10.6172 3.89588C10.2762 4.24333 9.72331 4.24333 9.38229 3.89588L8.45665 2.95281C7.7195 2.20178 6.7197 1.77985 5.67721 1.77985C4.63472 1.77985 3.63492 2.20178 2.89777 2.95281C2.16062 3.70385 1.74649 4.72247 1.74649 5.78459C1.74649 6.84672 2.16062 7.86534 2.89777 8.61637L9.99977 15.8521L17.1018 8.61637C17.4669 8.24458 17.7566 7.803 17.9542 7.31713C18.1518 6.83127 18.2535 6.31051 18.2535 5.78459C18.2535 5.25868 18.1518 4.73791 17.9542 4.25205C17.7566 3.76619 17.467 3.32475 17.1019 2.95296C16.737 2.58099 16.3034 2.28563 15.8265 2.08431C15.3497 1.88299 14.8385 1.77937 14.3223 1.77937Z" fill="#C0C0C0"/>
</svg>
