<svg width="18" height="18" viewBox="0 0 18 18" fill="none" xmlns="http://www.w3.org/2000/svg">
<path fill-rule="evenodd" clip-rule="evenodd" d="M8.11765 2.11765C4.80394 2.11765 2.11765 4.80394 2.11765 8.11765C2.11765 11.4314 4.80394 14.1176 8.11765 14.1176C11.4314 14.1176 14.1176 11.4314 14.1176 8.11765C14.1176 4.80394 11.4314 2.11765 8.11765 2.11765ZM0 8.11765C0 3.63439 3.63439 0 8.11765 0C12.6009 0 16.2353 3.63439 16.2353 8.11765C16.2353 12.6009 12.6009 16.2353 8.11765 16.2353C3.63439 16.2353 0 12.6009 0 8.11765Z" fill="black"/>
<path fill-rule="evenodd" clip-rule="evenodd" d="M12.3541 12.3542C12.7676 11.9407 13.438 11.9407 13.8515 12.3542L17.6897 16.1924C18.1032 16.6059 18.1032 17.2763 17.6897 17.6898C17.2762 18.1033 16.6058 18.1033 16.1923 17.6898L12.3541 13.8516C11.9406 13.4381 11.9406 12.7677 12.3541 12.3542Z" fill="black"/>
</svg>
