<svg width="21" height="21" viewBox="0 0 21 21" fill="none" xmlns="http://www.w3.org/2000/svg">
<path fill-rule="evenodd" clip-rule="evenodd" d="M1.29256 19.7071C0.902032 19.3166 0.902032 18.6834 1.29256 18.2929L18.2926 1.29289C18.6831 0.90237 19.3162 0.90237 19.7068 1.29289C20.0973 1.68342 20.0973 2.31658 19.7068 2.70711L2.70677 19.7071C2.31625 20.0976 1.68308 20.0976 1.29256 19.7071Z" fill="#40242B"/>
<path fill-rule="evenodd" clip-rule="evenodd" d="M1.29289 1.29304C1.68342 0.90252 2.31658 0.90252 2.70711 1.29304L19.7071 18.293C20.0976 18.6836 20.0976 19.3167 19.7071 19.7073C19.3166 20.0978 18.6834 20.0978 18.2929 19.7073L1.29289 2.70726C0.902369 2.31673 0.902369 1.68357 1.29289 1.29304Z" fill="#40242B"/>
</svg>
