<svg width="25" height="21" viewBox="0 0 25 21" fill="none" xmlns="http://www.w3.org/2000/svg">
<path d="M21.459 2.60999C20.9433 2.099 20.331 1.69364 19.657 1.41708C18.9831 1.14052 18.2607 0.998169 17.5312 0.998169C16.8016 0.998169 16.0793 1.14052 15.4053 1.41708C14.7314 1.69364 14.119 2.099 13.6033 2.60999L12.533 3.66999L11.4627 2.60999C10.4209 1.5783 9.00804 0.998704 7.53481 0.998704C6.06158 0.998704 4.64869 1.5783 3.60695 2.60999C2.56522 3.64169 1.97998 5.04096 1.97998 6.49999C1.97998 7.95903 2.56522 9.3583 3.60695 10.39L4.67727 11.45L12.533 19.23L20.3887 11.45L21.459 10.39C21.975 9.87924 22.3843 9.27281 22.6635 8.60535C22.9428 7.93789 23.0865 7.22248 23.0865 6.49999C23.0865 5.77751 22.9428 5.0621 22.6635 4.39464C22.3843 3.72718 21.975 3.12075 21.459 2.60999Z" stroke="#C0C0C0" stroke-width="2" stroke-linecap="round" stroke-linejoin="round"/>
</svg>
