<svg width="23" height="22" viewBox="0 0 23 22" fill="none" xmlns="http://www.w3.org/2000/svg">
<g clip-path="url(#clip0_133_2895)">
<path d="M19.4366 4.2258C18.9684 3.75739 18.4125 3.38581 17.8007 3.13229C17.1888 2.87878 16.5331 2.74829 15.8708 2.74829C15.2085 2.74829 14.5527 2.87878 13.9409 3.13229C13.329 3.38581 12.7731 3.75739 12.3049 4.2258L11.3333 5.19746L10.3616 4.2258C9.41589 3.28008 8.13323 2.74878 6.79578 2.74878C5.45833 2.74878 4.17566 3.28008 3.22995 4.2258C2.28423 5.17152 1.75293 6.45418 1.75293 7.79163C1.75293 9.12908 2.28423 10.4117 3.22995 11.3575L4.20161 12.3291L11.3333 19.4608L18.4649 12.3291L19.4366 11.3575C19.905 10.8893 20.2766 10.3334 20.5301 9.72154C20.7836 9.1097 20.9141 8.45391 20.9141 7.79163C20.9141 7.12935 20.7836 6.47356 20.5301 5.86172C20.2766 5.24988 19.905 4.69399 19.4366 4.2258Z" stroke="#C0C0C0" stroke-width="2" stroke-linecap="round" stroke-linejoin="round"/>
</g>
<defs>
<clipPath id="clip0_133_2895">
<rect width="22" height="22" fill="white" transform="translate(0.333496)"/>
</clipPath>
</defs>
</svg>
