<svg width="23" height="22" viewBox="0 0 23 22" fill="none" xmlns="http://www.w3.org/2000/svg">
<path d="M6.1665 1.83337L3.4165 5.50004V18.3334C3.4165 18.8196 3.60966 19.2859 3.95347 19.6297C4.29729 19.9736 4.76361 20.1667 5.24984 20.1667H18.0832C18.5694 20.1667 19.0357 19.9736 19.3795 19.6297C19.7233 19.2859 19.9165 18.8196 19.9165 18.3334V5.50004L17.1665 1.83337H6.1665Z" stroke="black" stroke-width="2" stroke-linecap="round" stroke-linejoin="round"/>
<path d="M3.4165 5.5H19.9165" stroke="black" stroke-width="2" stroke-linecap="round" stroke-linejoin="round"/>
<path d="M15.3333 9.16663C15.3333 10.1391 14.947 11.0717 14.2594 11.7594C13.5718 12.447 12.6391 12.8333 11.6667 12.8333C10.6942 12.8333 9.76158 12.447 9.07394 11.7594C8.38631 11.0717 8 10.1391 8 9.16663" stroke="black" stroke-width="2" stroke-linecap="round" stroke-linejoin="round"/>
</svg>
