<svg width="271" height="61" viewBox="0 0 271 61" fill="none" xmlns="http://www.w3.org/2000/svg">
<g clip-path="url(#clip0_133_2851)">
<path d="M138.924 15.1832C137.998 14.5955 136.914 14.1413 135.703 13.8341C134.985 13.656 134.244 13.5046 133.49 13.3933C134.046 13.233 134.542 13.0371 134.985 12.81C135.807 12.387 136.476 11.8972 136.968 11.354C137.469 10.8064 137.826 10.1875 138.029 9.51957C138.233 8.86504 138.332 8.17935 138.332 7.48475C138.332 5.15606 137.307 3.42402 135.279 2.33315C133.305 1.27344 130.649 0.734675 127.384 0.734675H117.469V1.49161L117.686 1.53169C118.228 1.63409 118.757 1.95468 119.254 2.48453C119.75 3.01884 119.994 3.55314 119.994 4.12307V25.8204C119.994 26.3858 119.746 26.9469 119.254 27.4901C118.852 27.9353 118.431 28.2114 118.002 28.3405V27.8507H114.046C113.965 27.8507 113.82 27.8329 113.603 27.7973C113.395 27.7661 113.17 27.6904 112.939 27.5702C112.718 27.4589 112.524 27.2897 112.352 27.0626C112.194 26.8489 112.113 26.5639 112.113 26.2122V3.73125C112.113 3.37504 112.212 3.06782 112.415 2.79621C112.632 2.50234 112.867 2.27081 113.12 2.0838C113.395 1.84781 113.734 1.65636 114.132 1.51833L114.308 1.45599V0.730225H106.783V1.45599L106.959 1.51833C107.357 1.65636 107.695 1.84781 108.007 2.10606C108.274 2.27081 108.508 2.50234 108.703 2.7873C108.892 3.06336 108.983 3.37059 108.983 3.73125V27.8507H91.4625V3.73125C91.4625 3.37504 91.5618 3.06782 91.7651 2.79621C91.9819 2.50234 92.2168 2.26635 92.4697 2.0838C92.7452 1.84781 93.084 1.65636 93.4814 1.51833L93.6576 1.45599V0.730225H86.1328V1.45599L86.309 1.51833C86.7064 1.65636 87.0452 1.84781 87.3568 2.10606C87.6278 2.27081 87.8627 2.50234 88.0569 2.7873C88.2466 3.06336 88.3369 3.37059 88.3369 3.73125V26.2122C88.3369 26.5773 88.2556 26.889 88.084 27.165C87.9079 27.4545 87.7001 27.6949 87.4652 27.8775C87.2258 28.0645 87 28.2025 86.7877 28.2871C86.4941 28.4029 86.4083 28.4073 86.3993 28.4073H86.1328V29.2088H114.041C114.746 29.2088 115.288 29.418 115.69 29.8499C116.114 30.3041 116.435 30.8206 116.638 31.3816C116.846 31.956 116.982 32.5215 117.045 33.0558C117.122 33.7326 117.14 33.9908 117.14 34.0888V34.3515H117.993V29.2088H128.928C130.179 29.2088 131.561 29.1242 133.038 28.955C134.524 28.7858 135.943 28.4118 137.257 27.8418C138.585 27.2675 139.71 26.4259 140.595 25.335C141.494 24.2308 141.95 22.7348 141.95 20.8914C141.95 19.5467 141.679 18.3935 141.137 17.4629C140.608 16.5591 139.863 15.7843 138.924 15.1832ZM123.12 14.4085H126.733C128.404 14.4441 130.008 14.5465 131.503 14.7157C132.98 14.8804 134.285 15.1832 135.383 15.6196C136.453 16.047 137.307 16.6748 137.921 17.4896C138.531 18.2956 138.838 19.4131 138.838 20.8023C138.838 22.383 138.517 23.6475 137.88 24.5692C137.239 25.4953 136.426 26.2122 135.455 26.6931C134.47 27.1829 133.386 27.5034 132.239 27.6459C131.069 27.7929 129.963 27.8685 128.937 27.8685H123.12V14.4085ZM128.16 13.046H123.12V2.10606H126.869C129.944 2.10606 132.135 2.56913 133.377 3.48191C134.61 4.39023 135.211 5.69928 135.211 7.49366C135.211 9.30585 134.664 10.6639 133.589 11.541C132.501 12.4315 130.667 12.9391 128.16 13.046Z" fill="black"/>
<path d="M168.164 22.757C167.482 23.5318 166.769 24.2664 166.046 24.9477C165.332 25.62 164.542 26.2077 163.697 26.702C162.857 27.1918 161.922 27.5791 160.915 27.8507C159.908 28.1223 158.756 28.2604 157.491 28.2604C155.644 28.2604 154.009 27.9042 152.627 27.2007C151.245 26.4972 150.089 25.531 149.19 24.3421C148.286 23.1444 147.604 21.7374 147.162 20.1523C146.719 18.5627 146.493 16.8663 146.493 15.1031C146.493 14.1992 146.57 13.2775 146.728 12.3469H165.91C166.805 12.3469 167.455 12.2891 167.893 12.1688C168.363 12.0397 168.697 11.8349 168.887 11.5588C169.072 11.2872 169.149 10.9533 169.126 10.557C169.104 10.2097 169.05 9.78672 168.964 9.30585C168.788 8.12147 168.386 6.98161 167.767 5.913C167.148 4.84439 166.331 3.90045 165.341 3.09899C164.352 2.30198 163.173 1.65636 161.832 1.17993C160.49 0.707963 159.014 0.467529 157.437 0.467529C155.509 0.467529 153.679 0.832635 151.99 1.5495C150.305 2.27081 148.806 3.286 147.537 4.57279C146.267 5.85957 145.247 7.42242 144.501 9.2168C143.756 11.0067 143.381 12.9881 143.381 15.1031C143.381 17.2492 143.716 19.235 144.37 21.0072C145.025 22.7837 145.969 24.3466 147.175 25.6512C148.386 26.9602 149.885 27.9888 151.638 28.7101C153.39 29.4269 155.364 29.7921 157.5 29.7921C158.986 29.7921 160.319 29.6095 161.466 29.2488C162.604 28.8926 163.652 28.4118 164.574 27.8196C165.495 27.2318 166.326 26.5506 167.053 25.7937C167.767 25.0501 168.435 24.2709 169.045 23.4783L169.194 23.2824L168.354 22.5567L168.164 22.757ZM166.023 10.9756H147.004C147.044 10.8153 147.085 10.655 147.13 10.4947C147.55 8.9452 148.201 7.52483 149.068 6.26921C149.926 5.01804 151.019 3.98059 152.32 3.18358C153.612 2.39548 155.174 1.99475 156.972 1.99475C158.566 1.99475 159.953 2.26636 161.096 2.80957C162.243 3.34833 163.191 4.06074 163.919 4.92008C164.646 5.78388 165.183 6.7768 165.518 7.87658C165.829 8.90067 166.001 9.94256 166.023 10.9756Z" fill="black"/>
<path d="M170.558 0.74353V7.25316H171.412V6.99046C171.412 6.89696 171.43 6.63872 171.507 5.95747C171.57 5.41872 171.705 4.85324 171.913 4.28331C172.116 3.72229 172.437 3.20579 172.862 2.75163C173.268 2.31973 173.806 2.11047 174.51 2.11047H183.178V26.23C183.178 26.5906 183.087 26.8978 182.898 27.1739C182.703 27.4589 182.469 27.6859 182.166 27.8774C181.89 28.1134 181.552 28.3048 181.154 28.4429L180.978 28.5052V29.231H188.503V28.5052L188.327 28.4429C187.929 28.3048 187.59 28.1178 187.297 27.864C187.057 27.6948 186.827 27.4589 186.61 27.165C186.407 26.8934 186.308 26.5862 186.308 26.23V2.11047H194.975C195.68 2.11047 196.222 2.31973 196.624 2.75163C197.048 3.20579 197.369 3.72229 197.572 4.28331C197.78 4.86214 197.92 5.42317 197.979 5.95747C198.056 6.63872 198.074 6.89696 198.074 6.99046V7.25316H198.927V0.74353H170.558Z" fill="black"/>
<path d="M88.3232 45.2024C88.2374 45.0064 87.989 44.9486 87.045 45.2825C72.7633 51.9302 38.9741 66.3475 33.7167 56.5964C31.4629 52.4422 37.2984 43.2833 41.2686 39.6099C49.3489 40.2021 58.5629 37.8868 62.1672 36.8583C68.5266 34.6721 89.8995 26.3146 97.9934 10.4413C98.5173 8.95856 98.4631 7.56936 97.8488 6.54082C97.3385 5.69039 96.4712 5.13381 95.3285 4.9379C77.1083 2.63148 51.8421 24.5737 38.3418 37.9269C36.0608 37.2813 33.8793 36.5021 31.77 35.754C24.9769 33.3363 18.5588 31.0521 10.641 33.8305C5.92564 35.8386 2.88141 38.2074 0.749541 41.5334C0.600491 41.8318 0.496607 42.0856 0.68179 42.2191C0.87149 42.3527 1.08829 42.1835 1.53996 41.7249C4.41707 37.0809 9.96806 34.071 16.7702 33.4743C22.5786 33.0959 28.1205 35.242 33.0076 37.1432C34.6065 37.7666 36.1241 38.3543 37.5784 38.8308L36.4854 39.8637C31.9191 44.5389 27.8089 51.8723 31.2325 57.1664C32.9172 59.8156 36.2505 60.8842 40.564 60.8842C53.1293 60.8842 74.0144 51.8189 86.7423 46.2932L87.7315 45.8613C88.2328 45.6075 88.4135 45.4072 88.3232 45.2024ZM43.1881 38.8397L42.0364 38.7862C43.7256 36.8449 49.6063 31.484 52.1944 29.1242C52.8177 28.5543 53.2739 28.1402 53.4726 27.9532C61.1238 20.7712 70.5908 14.2348 79.4434 10.0227C87.4876 6.19352 94.0142 4.78206 96.4712 6.33155C97.5778 7.0306 97.8127 8.32184 97.1804 10.1474C93.7161 17.4184 85.5996 24.8586 74.9222 30.5534C64.2042 36.275 52.637 39.2938 43.1881 38.8397Z" fill="#B3686F"/>
<path d="M270.783 40.2644C270.747 37.2901 268.805 34.5563 266.226 33.0424C264.938 32.2766 263.525 31.7556 262.088 31.4395C260.666 31.0966 259.153 30.9586 257.685 31.0254C254.871 31.1322 252.17 31.8669 249.622 32.8732C252.021 29.4447 254.031 25.7313 255.106 21.6216C255.896 18.625 256.081 15.3791 255.304 12.2757C254.55 9.15889 252.793 6.34487 250.625 4.02509L250.598 3.99838L250.548 3.95386C247.698 1.5005 243.945 0.138015 240.237 -0.0757073C236.51 -0.342861 232.838 0.342834 229.392 1.45597C222.477 3.69561 216.289 7.56042 210.919 12.2445C208.241 14.5999 205.761 17.2002 203.729 20.1701C202.73 21.6617 201.822 23.2423 201.24 24.9922C200.951 25.8649 200.748 26.7866 200.72 27.7483C200.684 28.7012 200.874 29.7163 201.348 30.589C201.8 31.4439 202.486 32.2231 203.336 32.7352C204.18 33.2561 205.138 33.5188 206.073 33.6301C207.956 33.8483 209.776 33.5322 211.52 33.0958C215.002 32.1608 218.245 30.687 221.362 28.9594L221.605 28.8392L221.583 28.4874C221.479 26.7153 221.605 24.9566 222.247 23.4115C222.866 21.8531 223.995 20.5708 225.363 19.5556C226.736 18.536 228.367 17.8325 230.038 17.2225C231.66 16.657 233.358 16.1895 235.083 15.7976C235.544 17.1112 235.571 18.5182 234.893 19.6847C234.23 20.9314 233.069 21.8977 231.836 22.7169C230.594 23.5451 229.212 24.1818 227.811 24.7785C226.402 25.3528 224.952 25.8738 223.489 26.2968L223.606 26.8266C226.682 26.2433 229.686 25.2371 232.391 23.5495C233.719 22.6947 234.979 21.586 235.734 20.0944C236.095 19.3463 236.267 18.4959 236.212 17.6677C236.149 16.8395 235.883 16.0559 235.503 15.3568L235.408 15.1832L235.241 15.201C233.331 15.0318 231.42 15.2188 229.555 15.6863C227.694 16.1583 225.869 16.942 224.275 18.1263C222.689 19.3018 221.344 20.9537 220.765 22.8772C220.147 24.6671 220.21 26.5639 220.585 28.3049C217.64 29.9078 214.496 31.2747 211.249 32.0628C209.578 32.4547 207.848 32.6996 206.213 32.4769C204.582 32.281 203.128 31.435 202.486 30.0058C201.8 28.6522 202.057 26.9736 202.617 25.4508C203.186 23.9102 204.081 22.4542 205.07 21.0828C207.093 18.3445 209.56 15.909 212.197 13.7005C214.849 11.5009 217.703 9.524 220.707 7.83648C223.701 6.13561 226.831 4.65291 230.097 3.63327C233.353 2.60918 236.745 2.00364 240.079 2.16393C243.398 2.30641 246.614 3.42845 249.135 5.50334C251.163 7.56488 252.811 9.98261 253.687 12.712C254.586 15.4593 254.613 18.4736 253.963 21.3589C252.91 25.7981 250.634 29.8766 247.892 33.6123C245.715 34.6008 243.638 35.7674 241.646 37.0452C236.858 40.1264 232.563 43.8265 228.484 47.7047C227.766 48.3948 227.066 49.1028 226.366 49.8107C226.14 49.8107 225.851 49.8196 225.472 49.833C223.886 49.8909 222.902 49.6282 222.536 49.0493C222.215 48.5506 222.333 47.7714 222.884 46.7251C223.489 45.5719 224.681 44.2361 225.838 42.9493C226.208 42.5397 226.569 42.1345 226.899 41.7516C226.989 41.6625 227.003 41.529 226.94 41.3998C226.8 41.1015 226.194 40.6919 225.341 40.7542L225.278 40.7587L224.306 41.569C224.383 40.6162 224.058 39.8147 223.371 39.2804C222.373 38.5057 220.693 38.3988 219.379 39.0311C218.281 39.5565 217.649 40.5004 217.649 41.6136C217.649 42.179 217.897 42.6955 218.367 43.1007C219.063 43.7018 220.183 44.0179 221.438 44.009C218.435 45.9103 212.626 48.9514 210.942 47.8694C210.544 47.6156 210.4 47.1036 210.513 46.3555C212.242 45.9504 212.468 45.2558 212.486 44.9708C212.509 44.6146 212.26 44.294 211.863 44.1604C211.366 43.9912 210.567 44.1025 209.952 44.9708L209.925 45.0287C209.871 45.2112 209.858 45.3626 209.817 45.5363C207.396 46.4268 203.019 47.8115 198.196 46.0661C198.358 44.9619 197.798 44.5834 197.437 44.4588C196.61 44.1649 195.413 44.6591 195.093 45.2513C194.907 45.5897 194.993 45.9281 195.328 46.1863C195.458 46.3377 195.739 46.3422 196.19 46.3511C196.448 46.3555 197.125 46.3689 197.166 46.498C197.175 46.5336 197.211 46.872 195.296 48.1677C194.063 48.9157 192.92 48.8668 192.383 48.043C191.515 46.7073 192.374 43.4703 196.981 40.447L197.184 40.3134L197.017 40.1442C196.917 40.0418 196.019 39.1736 195.332 39.4318L195.287 39.4541C191.922 41.8139 190.612 43.7909 190.156 45.2023C190.011 45.2068 189.862 45.2246 189.74 45.2647L187.559 46.0795C180.662 48.6664 177.202 49.9621 174.926 49.2497C174.474 49.1072 174.212 48.9157 174.153 48.6798C174 48.0831 174.984 47.0858 175.933 46.1195C177.279 44.7482 178.675 43.3323 177.979 42.1701C176.967 40.5004 174.402 40.4871 170.549 42.1256C170.49 41.9564 170.346 41.7649 170.048 41.5601C168.684 40.6251 164.781 40.0106 161.62 41.9564C161.638 41.7961 161.669 41.6358 161.692 41.5023C161.719 41.342 161.742 41.2173 161.742 41.1594V40.9501L160.305 41.0525L160.31 41.2395C160.35 42.7668 159.379 44.0625 158.336 45.1622C158.25 45.1667 158.173 45.1667 158.07 45.1756C157.803 45.189 156.958 45.4027 155.364 45.8034C150.698 46.9878 139.772 49.7573 138.535 47.7047C138.192 47.1392 138.688 46.124 139.967 44.7704C142.93 41.6358 146.2 39.7479 146.751 40.1709C146.787 40.1977 147.085 40.4915 146.055 42.0944L145.92 42.3037L146.737 42.5753L146.823 42.464C147.893 41.0837 148.083 40.0774 147.388 39.4674C146.051 38.2786 143.919 38.4478 141.534 39.9216C139.47 41.1995 137.474 43.359 136.724 45.2958C133.133 46.9076 122.112 50.0601 120.649 47.8649C120.193 47.1837 120.545 45.5852 124.8 41.8184C124.971 41.6447 125.03 41.4355 124.971 41.2217C124.849 40.7854 124.226 40.3891 123.309 40.1576L123.196 40.1309L121.746 41.5868C117.763 39.6767 114.443 41.3242 112.803 43.3367C112.302 43.9512 111.954 44.5968 111.76 45.2157C111.588 45.2424 111.408 45.2914 111.272 45.3314C107.298 46.6271 91.7061 50.0111 90.9744 48.6041C90.6176 47.9273 93.6347 44.9485 95.2562 43.3501C96.6474 41.9787 97.3791 41.244 97.4649 40.9279C97.5326 40.7231 97.4604 40.5182 97.2616 40.3847C96.9545 40.1754 96.3086 40.1442 95.9879 40.4025C94.4658 41.3598 93.2102 41.6358 92.2617 41.2262C91.1009 40.7275 90.7305 39.3339 90.6266 38.7595L90.595 38.5769L89.0368 38.7595L88.9961 38.8708C88.6664 39.7524 88.8561 40.5895 89.5291 41.2351C90.6357 42.2948 92.7224 42.5575 94.4929 41.854C94.66 41.7783 94.8271 41.6982 94.9852 41.6269C95.0304 41.6047 95.0801 41.5824 95.1298 41.5601C94.6871 41.9297 93.987 42.4863 93.0295 43.2209C92.7133 43.4747 92.2572 43.7998 91.7287 44.1693C89.6646 45.6253 87.0991 47.4375 87.8263 48.564C88.2915 49.41 89.8136 49.7261 91.8507 49.7261C98.0475 49.7261 108.964 46.7785 109.109 46.7385C110.387 46.3733 111.15 46.1195 111.611 45.9325C111.543 46.5693 111.661 47.1392 112.004 47.5577C112.542 48.2078 114.023 48.9914 117.943 47.0679C118.074 47.7581 118.494 48.2968 119.195 48.6709C120.057 49.1384 121.299 49.3298 122.731 49.3298C127.279 49.3298 133.779 47.3974 136.471 46.1507C136.385 46.6227 136.385 47.0679 136.507 47.4642C136.751 48.2835 137.573 49.2497 140.116 49.2497C140.143 49.2497 140.165 49.2497 140.193 49.2497C144.411 49.1874 152.478 47.2906 156.353 46.3778C156.724 46.2887 157.053 46.2131 157.351 46.1463C156.99 46.5025 156.651 46.8409 156.38 47.157C156.163 47.4152 156.186 47.6334 156.24 47.767C156.353 48.0386 156.719 48.2256 157.238 48.279C157.916 48.3503 158.819 48.1722 159.199 47.6201C164.352 40.7052 167.464 41.1639 168.864 42.0544C168.887 42.0722 168.896 42.0855 168.896 42.1078C168.937 42.5085 167.789 43.6395 166.782 44.6368C165.775 45.6342 164.736 46.6628 164.167 47.5488L164.14 47.629C164.113 47.8427 164.217 48.0386 164.438 48.1722C164.926 48.475 166.037 48.4838 166.764 48.0119C168.792 45.9147 169.858 44.6146 170.563 43.7508L170.892 43.3501C171.511 42.6287 173.815 41.7115 175.328 41.7427C175.712 41.7516 176.222 41.8362 176.461 42.1523C176.583 42.3304 175.517 43.2788 174.944 43.7864C173.625 44.9619 171.981 46.4179 171.936 47.7269C171.936 48.8267 173.024 49.5658 175.264 49.9888C175.621 50.0511 175.978 50.0868 176.353 50.0868C178.227 50.0868 180.441 49.2987 184.221 47.954C185.856 47.3707 187.712 46.7117 189.971 45.9593C189.903 46.449 189.935 46.832 189.993 47.0991C190.224 48.2033 191.086 49.0137 192.297 49.2631C192.541 49.312 192.807 49.3432 193.092 49.3432C194.515 49.3432 196.38 48.6486 197.897 46.6361C202.523 48.4972 207.306 47.1169 209.686 46.2531C209.587 47.2639 209.826 47.9941 210.427 48.4082C212.491 49.8374 217.992 47.0768 221.213 45.0064C219.989 46.6984 219.641 48.1766 220.241 49.2452C220.779 50.1981 222.03 50.7012 223.787 50.7012C224.347 50.7012 224.957 50.6478 225.612 50.5454C222.631 53.6087 219.817 56.8146 217.148 60.1406L216.583 60.8263L217.409 60.577C217.902 60.4256 218.173 60.2431 218.539 60.0605L219.546 59.4861C220.21 59.0943 220.865 58.6891 221.511 58.2795C222.807 57.4558 224.081 56.5964 225.341 55.7237C227.861 53.9694 230.314 52.1305 232.707 50.207C237.473 46.3555 242.039 42.2147 246.014 37.5261C246.628 36.7914 247.233 36.039 247.825 35.2731C248.475 34.9659 249.135 34.6765 249.803 34.4093C252.355 33.3897 255.033 32.6595 257.73 32.5793C259.08 32.5259 260.399 32.6773 261.727 32.9622C263.041 33.2472 264.32 33.6658 265.48 34.2847C267.793 35.4423 269.631 37.6063 270.2 40.1843C270.029 40.4114 269.803 40.6429 269.55 40.8032C269.265 40.9902 268.954 41.1238 268.619 41.1861C268.285 41.2396 267.942 41.2529 267.599 41.1906C267.255 41.1371 266.921 41.0214 266.591 40.8878L266.113 40.6963L266.208 41.1861C266.375 42.0366 266.46 42.9004 266.456 43.7597C266.451 44.1916 266.424 44.619 266.366 45.042C266.311 45.4027 266.23 45.7722 266.122 46.1017C265.869 46.1195 265.58 46.1017 265.318 46.0305C264.997 45.9504 264.69 45.8123 264.405 45.6387C264.121 45.4561 263.863 45.2379 263.633 44.9886C263.398 44.7393 263.199 44.4632 263.01 44.1738L262.608 43.5638L262.499 44.2762C262.368 45.1444 262.129 45.9993 261.777 46.8008C261.592 47.1971 261.384 47.5844 261.144 47.9451C260.982 48.19 260.797 48.4215 260.602 48.6353C260.291 47.8828 260.078 47.0546 259.947 46.2398C259.803 45.2958 259.767 44.3341 259.776 43.3768C259.785 42.4195 259.889 41.4577 260.02 40.5004C260.087 40.024 260.164 39.5431 260.178 39.0533C260.223 38.5636 260.237 38.0693 260.16 37.535L259.627 37.397C259.008 38.2786 258.705 39.2804 258.552 40.2956C258.434 41.3197 258.326 42.3527 258.389 43.3901C258.43 44.4276 258.574 45.465 258.868 46.4713C259.175 47.4731 259.577 48.4393 260.282 49.2898L260.471 49.5213L260.679 49.3343C261.059 48.9914 261.334 48.6308 261.601 48.2345C261.863 47.8427 262.084 47.4331 262.278 47.0101C262.572 46.3466 262.766 45.6476 262.915 44.9396C263.019 45.0732 263.109 45.2201 263.227 45.3448C263.488 45.6209 263.782 45.8747 264.107 46.0839C264.437 46.2887 264.798 46.449 265.182 46.547C265.571 46.6405 265.95 46.685 266.388 46.6182L266.533 46.596L266.587 46.4579C266.763 45.9949 266.844 45.5585 266.912 45.1044C266.975 44.6547 267.002 44.2005 267.012 43.7508C267.016 43.0028 266.939 42.2636 266.822 41.529C267.048 41.6047 267.273 41.6714 267.513 41.7071C267.91 41.7783 268.326 41.7694 268.732 41.7026C269.139 41.6269 269.527 41.4622 269.866 41.2395C270.209 41.008 270.498 40.7409 270.742 40.3758L270.783 40.3223V40.2644ZM220.047 41.5468C220.436 40.6028 221.298 39.7123 222.224 39.7123C222.328 39.7123 222.432 39.7212 222.531 39.7479C222.929 39.837 223.191 40.0106 223.331 40.2778C223.552 40.6963 223.484 41.3464 223.132 42.2057C222.834 42.8024 222.409 43.1764 221.872 43.3144C221.222 43.4836 220.503 43.2788 220.11 43.0161L220.101 43.0117C219.79 42.8158 219.767 42.228 220.047 41.5468ZM119.899 41.7338C119.985 41.7338 120.066 41.7382 120.134 41.7516C120.446 41.8095 120.5 41.9653 120.513 42.0143C120.586 42.2369 120.577 42.9538 118.842 44.7482C117.6 46.36 115.152 47.5533 114 47.393C113.766 47.3618 113.616 47.2728 113.558 47.1258C113.485 46.9477 113.445 46.3822 114.592 44.9886C116.299 42.8914 118.734 41.7338 119.899 41.7338ZM245.286 36.9473C241.37 41.5735 236.931 45.7678 232.224 49.646C229.871 51.5828 227.45 53.444 224.966 55.2161C223.724 56.1022 222.468 56.9704 221.19 57.8031C220.553 58.2216 219.907 58.6268 219.257 59.0231C219.026 59.1611 218.778 59.308 218.534 59.4505C221.917 55.6213 225.549 51.9969 229.302 48.5328C233.412 44.7615 237.78 41.2529 242.468 38.2697C243.552 37.584 244.659 36.9384 245.783 36.3373C245.616 36.5421 245.453 36.7469 245.286 36.9473Z" fill="#B3686F"/>
<path d="M270.783 40.2644C270.747 37.2901 268.805 34.5563 266.226 33.0424C264.938 32.2766 263.525 31.7556 262.088 31.4395C260.666 31.0966 259.153 30.9586 257.685 31.0254C254.871 31.1322 252.17 31.8669 249.622 32.8732C252.021 29.4447 254.031 25.7313 255.106 21.6216C255.896 18.625 256.081 15.3791 255.304 12.2757C254.55 9.15889 252.793 6.34487 250.625 4.02509L250.598 3.99838L250.548 3.95386C247.698 1.5005 243.945 0.138015 240.237 -0.0757073C236.51 -0.342861 232.838 0.342834 229.392 1.45597C222.477 3.69561 216.289 7.56042 210.919 12.2445C208.241 14.5999 205.761 17.2002 203.729 20.1701C202.73 21.6617 201.822 23.2423 201.24 24.9922C200.951 25.8649 200.748 26.7866 200.72 27.7483C200.684 28.7012 200.874 29.7163 201.348 30.589C201.8 31.4439 202.486 32.2231 203.336 32.7352C204.18 33.2561 205.138 33.5188 206.073 33.6301C207.956 33.8483 209.776 33.5322 211.52 33.0958C215.002 32.1608 218.245 30.687 221.362 28.9594L221.605 28.8392L221.583 28.4874C221.479 26.7153 221.605 24.9566 222.247 23.4115C222.866 21.8531 223.995 20.5708 225.363 19.5556C226.736 18.536 228.367 17.8325 230.038 17.2225C231.66 16.657 233.358 16.1895 235.083 15.7976C235.544 17.1112 235.571 18.5182 234.893 19.6847C234.23 20.9314 233.069 21.8977 231.836 22.7169C230.594 23.5451 229.212 24.1818 227.811 24.7785C226.402 25.3528 224.952 25.8738 223.489 26.2968L223.606 26.8266C226.682 26.2433 229.686 25.2371 232.391 23.5495C233.719 22.6947 234.979 21.586 235.734 20.0944C236.095 19.3463 236.267 18.4959 236.212 17.6677C236.149 16.8395 235.883 16.0559 235.503 15.3568L235.408 15.1832L235.241 15.201C233.331 15.0318 231.42 15.2188 229.555 15.6863C227.694 16.1583 225.869 16.942 224.275 18.1263C222.689 19.3018 221.344 20.9537 220.765 22.8772C220.147 24.6671 220.21 26.5639 220.585 28.3049C217.64 29.9078 214.496 31.2747 211.249 32.0628C209.578 32.4547 207.848 32.6996 206.213 32.4769C204.582 32.281 203.128 31.435 202.486 30.0058C201.8 28.6522 202.057 26.9736 202.617 25.4508C203.186 23.9102 204.081 22.4542 205.07 21.0828C207.093 18.3445 209.56 15.909 212.197 13.7005C214.849 11.5009 217.703 9.524 220.707 7.83648C223.701 6.13561 226.831 4.65291 230.097 3.63327C233.353 2.60918 236.745 2.00364 240.079 2.16393C243.398 2.30641 246.614 3.42845 249.135 5.50334C251.163 7.56488 252.811 9.98261 253.687 12.712C254.586 15.4593 254.613 18.4736 253.963 21.3589C252.91 25.7981 250.634 29.8766 247.892 33.6123C245.715 34.6008 243.638 35.7674 241.646 37.0452C236.858 40.1264 232.563 43.8265 228.484 47.7047C227.766 48.3948 227.066 49.1028 226.366 49.8107C226.14 49.8107 225.851 49.8196 225.472 49.833C223.886 49.8909 222.902 49.6282 222.536 49.0493C222.215 48.5506 222.333 47.7714 222.884 46.7251C223.489 45.5719 224.681 44.2361 225.838 42.9493C226.208 42.5397 226.569 42.1345 226.899 41.7516C226.989 41.6625 227.003 41.529 226.94 41.3998C226.8 41.1015 226.194 40.6919 225.341 40.7542L225.278 40.7587L224.306 41.569C224.383 40.6162 224.058 39.8147 223.371 39.2804C222.373 38.5057 220.693 38.3988 219.379 39.0311C218.281 39.5565 217.649 40.5004 217.649 41.6136C217.649 42.179 217.897 42.6955 218.367 43.1007C219.063 43.7018 220.183 44.0179 221.438 44.009C218.435 45.9103 212.626 48.9514 210.942 47.8694C210.544 47.6156 210.4 47.1036 210.513 46.3555C212.242 45.9504 212.468 45.2558 212.486 44.9708C212.509 44.6146 212.26 44.294 211.863 44.1604C211.366 43.9912 210.567 44.1025 209.952 44.9708L209.925 45.0287C209.871 45.2112 209.858 45.3626 209.817 45.5363C207.396 46.4268 203.019 47.8115 198.196 46.0661C198.358 44.9619 197.798 44.5834 197.437 44.4588C196.61 44.1649 195.413 44.6591 195.093 45.2513C194.907 45.5897 194.993 45.9281 195.328 46.1863C195.458 46.3377 195.739 46.3422 196.19 46.3511C196.448 46.3555 197.125 46.3689 197.166 46.498C197.175 46.5336 197.211 46.872 195.296 48.1677C194.063 48.9157 192.92 48.8668 192.383 48.043C191.515 46.7073 192.374 43.4703 196.981 40.447L197.184 40.3134L197.017 40.1442C196.917 40.0418 196.019 39.1736 195.332 39.4318L195.287 39.4541C191.922 41.8139 190.612 43.7909 190.156 45.2023C190.011 45.2068 189.862 45.2246 189.74 45.2647L187.559 46.0795C180.662 48.6664 177.202 49.9621 174.926 49.2497C174.474 49.1072 174.212 48.9157 174.153 48.6798C174 48.0831 174.984 47.0858 175.933 46.1195C177.279 44.7482 178.675 43.3323 177.979 42.1701C176.967 40.5004 174.402 40.4871 170.549 42.1256C170.49 41.9564 170.346 41.7649 170.048 41.5601C168.684 40.6251 164.781 40.0106 161.62 41.9564C161.638 41.7961 161.669 41.6358 161.692 41.5023C161.719 41.342 161.742 41.2173 161.742 41.1594V40.9501L160.305 41.0525L160.31 41.2395C160.35 42.7668 159.379 44.0625 158.336 45.1622C158.25 45.1667 158.173 45.1667 158.07 45.1756C157.803 45.189 156.958 45.4027 155.364 45.8034C150.698 46.9878 139.772 49.7573 138.535 47.7047C138.192 47.1392 138.688 46.124 139.967 44.7704C142.93 41.6358 146.2 39.7479 146.751 40.1709C146.787 40.1977 147.085 40.4915 146.055 42.0944L145.92 42.3037L146.737 42.5753L146.823 42.464C147.893 41.0837 148.083 40.0774 147.388 39.4674C146.051 38.2786 143.919 38.4478 141.534 39.9216C139.47 41.1995 137.474 43.359 136.724 45.2958C133.133 46.9076 122.112 50.0601 120.649 47.8649C120.193 47.1837 120.545 45.5852 124.8 41.8184C124.971 41.6447 125.03 41.4355 124.971 41.2217C124.849 40.7854 124.226 40.3891 123.309 40.1576L123.196 40.1309L121.746 41.5868C117.763 39.6767 114.443 41.3242 112.803 43.3367C112.302 43.9512 111.954 44.5968 111.76 45.2157C111.588 45.2424 111.408 45.2914 111.272 45.3314C107.298 46.6271 91.7061 50.0111 90.9744 48.6041C90.6176 47.9273 93.6347 44.9485 95.2562 43.3501C96.6474 41.9787 97.3791 41.244 97.4649 40.9279C97.5326 40.7231 97.4604 40.5182 97.2616 40.3847C96.9545 40.1754 96.3086 40.1442 95.9879 40.4025C94.4658 41.3598 93.2102 41.6358 92.2617 41.2262C91.1009 40.7275 90.7305 39.3339 90.6266 38.7595L90.595 38.5769L89.0368 38.7595L88.9961 38.8708C88.6664 39.7524 88.8561 40.5895 89.5291 41.2351C90.6357 42.2948 92.7224 42.5575 94.4929 41.854C94.66 41.7783 94.8271 41.6982 94.9852 41.6269C95.0304 41.6047 95.0801 41.5824 95.1298 41.5601C94.6871 41.9297 93.987 42.4863 93.0295 43.2209C92.7133 43.4747 92.2572 43.7998 91.7287 44.1693C89.6646 45.6253 87.0991 47.4375 87.8263 48.564C88.2915 49.41 89.8136 49.7261 91.8507 49.7261C98.0475 49.7261 108.964 46.7785 109.109 46.7385C110.387 46.3733 111.15 46.1195 111.611 45.9325C111.543 46.5693 111.661 47.1392 112.004 47.5577C112.542 48.2078 114.023 48.9914 117.943 47.0679C118.074 47.7581 118.494 48.2968 119.195 48.6709C120.057 49.1384 121.299 49.3298 122.731 49.3298C127.279 49.3298 133.779 47.3974 136.471 46.1507C136.385 46.6227 136.385 47.0679 136.507 47.4642C136.751 48.2835 137.573 49.2497 140.116 49.2497C140.143 49.2497 140.165 49.2497 140.193 49.2497C144.411 49.1874 152.478 47.2906 156.353 46.3778C156.724 46.2887 157.053 46.2131 157.351 46.1463C156.99 46.5025 156.651 46.8409 156.38 47.157C156.163 47.4152 156.186 47.6334 156.24 47.767C156.353 48.0386 156.719 48.2256 157.238 48.279C157.916 48.3503 158.819 48.1722 159.199 47.6201C164.352 40.7052 167.464 41.1639 168.864 42.0544C168.887 42.0722 168.896 42.0855 168.896 42.1078C168.937 42.5085 167.789 43.6395 166.782 44.6368C165.775 45.6342 164.736 46.6628 164.167 47.5488L164.14 47.629C164.113 47.8427 164.217 48.0386 164.438 48.1722C164.926 48.475 166.037 48.4838 166.764 48.0119C168.792 45.9147 169.858 44.6146 170.563 43.7508L170.892 43.3501C171.511 42.6287 173.815 41.7115 175.328 41.7427C175.712 41.7516 176.222 41.8362 176.461 42.1523C176.583 42.3304 175.517 43.2788 174.944 43.7864C173.625 44.9619 171.981 46.4179 171.936 47.7269C171.936 48.8267 173.024 49.5658 175.264 49.9888C175.621 50.0511 175.978 50.0868 176.353 50.0868C178.227 50.0868 180.441 49.2987 184.221 47.954C185.856 47.3707 187.712 46.7117 189.971 45.9593C189.903 46.449 189.935 46.832 189.993 47.0991C190.224 48.2033 191.086 49.0137 192.297 49.2631C192.541 49.312 192.807 49.3432 193.092 49.3432C194.515 49.3432 196.38 48.6486 197.897 46.6361C202.523 48.4972 207.306 47.1169 209.686 46.2531C209.587 47.2639 209.826 47.9941 210.427 48.4082C212.491 49.8374 217.992 47.0768 221.213 45.0064C219.989 46.6984 219.641 48.1766 220.241 49.2452C220.779 50.1981 222.03 50.7012 223.787 50.7012C224.347 50.7012 224.957 50.6478 225.612 50.5454C222.631 53.6087 219.817 56.8146 217.148 60.1406L216.583 60.8263L217.409 60.577C217.902 60.4256 218.173 60.2431 218.539 60.0605L219.546 59.4861C220.21 59.0943 220.865 58.6891 221.511 58.2795C222.807 57.4558 224.081 56.5964 225.341 55.7237C227.861 53.9694 230.314 52.1305 232.707 50.207C237.473 46.3555 242.039 42.2147 246.014 37.5261C246.628 36.7914 247.233 36.039 247.825 35.2731C248.475 34.9659 249.135 34.6765 249.803 34.4093C252.355 33.3897 255.033 32.6595 257.73 32.5793C259.08 32.5259 260.399 32.6773 261.727 32.9622C263.041 33.2472 264.32 33.6658 265.48 34.2847C267.793 35.4423 269.631 37.6063 270.2 40.1843C270.029 40.4114 269.803 40.6429 269.55 40.8032C269.265 40.9902 268.954 41.1238 268.619 41.1861C268.285 41.2396 267.942 41.2529 267.599 41.1906C267.255 41.1371 266.921 41.0214 266.591 40.8878L266.113 40.6963L266.208 41.1861C266.375 42.0366 266.46 42.9004 266.456 43.7597C266.451 44.1916 266.424 44.619 266.366 45.042C266.311 45.4027 266.23 45.7722 266.122 46.1017C265.869 46.1195 265.58 46.1017 265.318 46.0305C264.997 45.9504 264.69 45.8123 264.405 45.6387C264.121 45.4561 263.863 45.2379 263.633 44.9886C263.398 44.7393 263.199 44.4632 263.01 44.1738L262.608 43.5638L262.499 44.2762C262.368 45.1444 262.129 45.9993 261.777 46.8008C261.592 47.1971 261.384 47.5844 261.144 47.9451C260.982 48.19 260.797 48.4215 260.602 48.6353C260.291 47.8828 260.078 47.0546 259.947 46.2398C259.803 45.2958 259.767 44.3341 259.776 43.3768C259.785 42.4195 259.889 41.4577 260.02 40.5004C260.087 40.024 260.164 39.5431 260.178 39.0533C260.223 38.5636 260.237 38.0693 260.16 37.535L259.627 37.397C259.008 38.2786 258.705 39.2804 258.552 40.2956C258.434 41.3197 258.326 42.3527 258.389 43.3901C258.43 44.4276 258.574 45.465 258.868 46.4713C259.175 47.4731 259.577 48.4393 260.282 49.2898L260.471 49.5213L260.679 49.3343C261.059 48.9914 261.334 48.6308 261.601 48.2345C261.863 47.8427 262.084 47.4331 262.278 47.0101C262.572 46.3466 262.766 45.6476 262.915 44.9396C263.019 45.0732 263.109 45.2201 263.227 45.3448C263.488 45.6209 263.782 45.8747 264.107 46.0839C264.437 46.2887 264.798 46.449 265.182 46.547C265.571 46.6405 265.95 46.685 266.388 46.6182L266.533 46.596L266.587 46.4579C266.763 45.9949 266.844 45.5585 266.912 45.1044C266.975 44.6547 267.002 44.2005 267.012 43.7508C267.016 43.0028 266.939 42.2636 266.822 41.529C267.048 41.6047 267.273 41.6714 267.513 41.7071C267.91 41.7783 268.326 41.7694 268.732 41.7026C269.139 41.6269 269.527 41.4622 269.866 41.2395C270.209 41.008 270.498 40.7409 270.742 40.3758L270.783 40.3223V40.2644ZM220.047 41.5468C220.436 40.6028 221.298 39.7123 222.224 39.7123C222.328 39.7123 222.432 39.7212 222.531 39.7479C222.929 39.837 223.191 40.0106 223.331 40.2778C223.552 40.6963 223.484 41.3464 223.132 42.2057C222.834 42.8024 222.409 43.1764 221.872 43.3144C221.222 43.4836 220.503 43.2788 220.11 43.0161L220.101 43.0117C219.79 42.8158 219.767 42.228 220.047 41.5468ZM119.899 41.7338C119.985 41.7338 120.066 41.7382 120.134 41.7516C120.446 41.8095 120.5 41.9653 120.513 42.0143C120.586 42.2369 120.577 42.9538 118.842 44.7482C117.6 46.36 115.152 47.5533 114 47.393C113.766 47.3618 113.616 47.2728 113.558 47.1258C113.485 46.9477 113.445 46.3822 114.592 44.9886C116.299 42.8914 118.734 41.7338 119.899 41.7338ZM245.286 36.9473C241.37 41.5735 236.931 45.7678 232.224 49.646C229.871 51.5828 227.45 53.444 224.966 55.2161C223.724 56.1022 222.468 56.9704 221.19 57.8031C220.553 58.2216 219.907 58.6268 219.257 59.0231C219.026 59.1611 218.778 59.308 218.534 59.4505C221.917 55.6213 225.549 51.9969 229.302 48.5328C233.412 44.7615 237.78 41.2529 242.468 38.2697C243.552 37.584 244.659 36.9384 245.783 36.3373C245.616 36.5421 245.453 36.7469 245.286 36.9473Z" fill="#B3686F"/>
<path d="M270.783 40.2644C270.747 37.2901 268.805 34.5563 266.226 33.0424C264.938 32.2766 263.525 31.7556 262.088 31.4395C260.666 31.0966 259.153 30.9586 257.685 31.0254C254.871 31.1322 252.17 31.8669 249.622 32.8732C252.021 29.4447 254.031 25.7313 255.106 21.6216C255.896 18.625 256.081 15.3791 255.304 12.2757C254.55 9.15889 252.793 6.34487 250.625 4.02509L250.598 3.99838L250.548 3.95386C247.698 1.5005 243.945 0.138015 240.237 -0.0757073C236.51 -0.342861 232.838 0.342834 229.392 1.45597C222.477 3.69561 216.289 7.56042 210.919 12.2445C208.241 14.5999 205.761 17.2002 203.729 20.1701C202.73 21.6617 201.822 23.2423 201.24 24.9922C200.951 25.8649 200.748 26.7866 200.72 27.7483C200.684 28.7012 200.874 29.7163 201.348 30.589C201.8 31.4439 202.486 32.2231 203.336 32.7352C204.18 33.2561 205.138 33.5188 206.073 33.6301C207.956 33.8483 209.776 33.5322 211.52 33.0958C215.002 32.1608 218.245 30.687 221.362 28.9594L221.605 28.8392L221.583 28.4874C221.479 26.7153 221.605 24.9566 222.247 23.4115C222.866 21.8531 223.995 20.5708 225.363 19.5556C226.736 18.536 228.367 17.8325 230.038 17.2225C231.66 16.657 233.358 16.1895 235.083 15.7976C235.544 17.1112 235.571 18.5182 234.893 19.6847C234.23 20.9314 233.069 21.8977 231.836 22.7169C230.594 23.5451 229.212 24.1818 227.811 24.7785C226.402 25.3528 224.952 25.8738 223.489 26.2968L223.606 26.8266C226.682 26.2433 229.686 25.2371 232.391 23.5495C233.719 22.6947 234.979 21.586 235.734 20.0944C236.095 19.3463 236.267 18.4959 236.212 17.6677C236.149 16.8395 235.883 16.0559 235.503 15.3568L235.408 15.1832L235.241 15.201C233.331 15.0318 231.42 15.2188 229.555 15.6863C227.694 16.1583 225.869 16.942 224.275 18.1263C222.689 19.3018 221.344 20.9537 220.765 22.8772C220.147 24.6671 220.21 26.5639 220.585 28.3049C217.64 29.9078 214.496 31.2747 211.249 32.0628C209.578 32.4547 207.848 32.6996 206.213 32.4769C204.582 32.281 203.128 31.435 202.486 30.0058C201.8 28.6522 202.057 26.9736 202.617 25.4508C203.186 23.9102 204.081 22.4542 205.07 21.0828C207.093 18.3445 209.56 15.909 212.197 13.7005C214.849 11.5009 217.703 9.524 220.707 7.83648C223.701 6.13561 226.831 4.65291 230.097 3.63327C233.353 2.60918 236.745 2.00364 240.079 2.16393C243.398 2.30641 246.614 3.42845 249.135 5.50334C251.163 7.56488 252.811 9.98261 253.687 12.712C254.586 15.4593 254.613 18.4736 253.963 21.3589C252.91 25.7981 250.634 29.8766 247.892 33.6123C245.715 34.6008 243.638 35.7674 241.646 37.0452C236.858 40.1264 232.563 43.8265 228.484 47.7047C227.766 48.3948 227.066 49.1028 226.366 49.8107C226.14 49.8107 225.851 49.8196 225.472 49.833C223.886 49.8909 222.902 49.6282 222.536 49.0493C222.215 48.5506 222.333 47.7714 222.884 46.7251C223.489 45.5719 224.681 44.2361 225.838 42.9493C226.208 42.5397 226.569 42.1345 226.899 41.7516C226.989 41.6625 227.003 41.529 226.94 41.3998C226.8 41.1015 226.194 40.6919 225.341 40.7542L225.278 40.7587L224.306 41.569C224.383 40.6162 224.058 39.8147 223.371 39.2804C222.373 38.5057 220.693 38.3988 219.379 39.0311C218.281 39.5565 217.649 40.5004 217.649 41.6136C217.649 42.179 217.897 42.6955 218.367 43.1007C219.063 43.7018 220.183 44.0179 221.438 44.009C218.435 45.9103 212.626 48.9514 210.942 47.8694C210.544 47.6156 210.4 47.1036 210.513 46.3555C212.242 45.9504 212.468 45.2558 212.486 44.9708C212.509 44.6146 212.26 44.294 211.863 44.1604C211.366 43.9912 210.567 44.1025 209.952 44.9708L209.925 45.0287C209.871 45.2112 209.858 45.3626 209.817 45.5363C207.396 46.4268 203.019 47.8115 198.196 46.0661C198.358 44.9619 197.798 44.5834 197.437 44.4588C196.61 44.1649 195.413 44.6591 195.093 45.2513C194.907 45.5897 194.993 45.9281 195.328 46.1863C195.458 46.3377 195.739 46.3422 196.19 46.3511C196.448 46.3555 197.125 46.3689 197.166 46.498C197.175 46.5336 197.211 46.872 195.296 48.1677C194.063 48.9157 192.92 48.8668 192.383 48.043C191.515 46.7073 192.374 43.4703 196.981 40.447L197.184 40.3134L197.017 40.1442C196.917 40.0418 196.019 39.1736 195.332 39.4318L195.287 39.4541C191.922 41.8139 190.612 43.7909 190.156 45.2023C190.011 45.2068 189.862 45.2246 189.74 45.2647L187.559 46.0795C180.662 48.6664 177.202 49.9621 174.926 49.2497C174.474 49.1072 174.212 48.9157 174.153 48.6798C174 48.0831 174.984 47.0858 175.933 46.1195C177.279 44.7482 178.675 43.3323 177.979 42.1701C176.967 40.5004 174.402 40.4871 170.549 42.1256C170.49 41.9564 170.346 41.7649 170.048 41.5601C168.684 40.6251 164.781 40.0106 161.62 41.9564C161.638 41.7961 161.669 41.6358 161.692 41.5023C161.719 41.342 161.742 41.2173 161.742 41.1594V40.9501L160.305 41.0525L160.31 41.2395C160.35 42.7668 159.379 44.0625 158.336 45.1622C158.25 45.1667 158.173 45.1667 158.07 45.1756C157.803 45.189 156.958 45.4027 155.364 45.8034C150.698 46.9878 139.772 49.7573 138.535 47.7047C138.192 47.1392 138.688 46.124 139.967 44.7704C142.93 41.6358 146.2 39.7479 146.751 40.1709C146.787 40.1977 147.085 40.4915 146.055 42.0944L145.92 42.3037L146.737 42.5753L146.823 42.464C147.893 41.0837 148.083 40.0774 147.388 39.4674C146.051 38.2786 143.919 38.4478 141.534 39.9216C139.47 41.1995 137.474 43.359 136.724 45.2958C133.133 46.9076 122.112 50.0601 120.649 47.8649C120.193 47.1837 120.545 45.5852 124.8 41.8184C124.971 41.6447 125.03 41.4355 124.971 41.2217C124.849 40.7854 124.226 40.3891 123.309 40.1576L123.196 40.1309L121.746 41.5868C117.763 39.6767 114.443 41.3242 112.803 43.3367C112.302 43.9512 111.954 44.5968 111.76 45.2157C111.588 45.2424 111.408 45.2914 111.272 45.3314C107.298 46.6271 91.7061 50.0111 90.9744 48.6041C90.6176 47.9273 93.6347 44.9485 95.2562 43.3501C96.6474 41.9787 97.3791 41.244 97.4649 40.9279C97.5326 40.7231 97.4604 40.5182 97.2616 40.3847C96.9545 40.1754 96.3086 40.1442 95.9879 40.4025C94.4658 41.3598 93.2102 41.6358 92.2617 41.2262C91.1009 40.7275 90.7305 39.3339 90.6266 38.7595L90.595 38.5769L89.0368 38.7595L88.9961 38.8708C88.6664 39.7524 88.8561 40.5895 89.5291 41.2351C90.6357 42.2948 92.7224 42.5575 94.4929 41.854C94.66 41.7783 94.8271 41.6982 94.9852 41.6269C95.0304 41.6047 95.0801 41.5824 95.1298 41.5601C94.6871 41.9297 93.987 42.4863 93.0295 43.2209C92.7133 43.4747 92.2572 43.7998 91.7287 44.1693C89.6646 45.6253 87.0991 47.4375 87.8263 48.564C88.2915 49.41 89.8136 49.7261 91.8507 49.7261C98.0475 49.7261 108.964 46.7785 109.109 46.7385C110.387 46.3733 111.15 46.1195 111.611 45.9325C111.543 46.5693 111.661 47.1392 112.004 47.5577C112.542 48.2078 114.023 48.9914 117.943 47.0679C118.074 47.7581 118.494 48.2968 119.195 48.6709C120.057 49.1384 121.299 49.3298 122.731 49.3298C127.279 49.3298 133.779 47.3974 136.471 46.1507C136.385 46.6227 136.385 47.0679 136.507 47.4642C136.751 48.2835 137.573 49.2497 140.116 49.2497C140.143 49.2497 140.165 49.2497 140.193 49.2497C144.411 49.1874 152.478 47.2906 156.353 46.3778C156.724 46.2887 157.053 46.2131 157.351 46.1463C156.99 46.5025 156.651 46.8409 156.38 47.157C156.163 47.4152 156.186 47.6334 156.24 47.767C156.353 48.0386 156.719 48.2256 157.238 48.279C157.916 48.3503 158.819 48.1722 159.199 47.6201C164.352 40.7052 167.464 41.1639 168.864 42.0544C168.887 42.0722 168.896 42.0855 168.896 42.1078C168.937 42.5085 167.789 43.6395 166.782 44.6368C165.775 45.6342 164.736 46.6628 164.167 47.5488L164.14 47.629C164.113 47.8427 164.217 48.0386 164.438 48.1722C164.926 48.475 166.037 48.4838 166.764 48.0119C168.792 45.9147 169.858 44.6146 170.563 43.7508L170.892 43.3501C171.511 42.6287 173.815 41.7115 175.328 41.7427C175.712 41.7516 176.222 41.8362 176.461 42.1523C176.583 42.3304 175.517 43.2788 174.944 43.7864C173.625 44.9619 171.981 46.4179 171.936 47.7269C171.936 48.8267 173.024 49.5658 175.264 49.9888C175.621 50.0511 175.978 50.0868 176.353 50.0868C178.227 50.0868 180.441 49.2987 184.221 47.954C185.856 47.3707 187.712 46.7117 189.971 45.9593C189.903 46.449 189.935 46.832 189.993 47.0991C190.224 48.2033 191.086 49.0137 192.297 49.2631C192.541 49.312 192.807 49.3432 193.092 49.3432C194.515 49.3432 196.38 48.6486 197.897 46.6361C202.523 48.4972 207.306 47.1169 209.686 46.2531C209.587 47.2639 209.826 47.9941 210.427 48.4082C212.491 49.8374 217.992 47.0768 221.213 45.0064C219.989 46.6984 219.641 48.1766 220.241 49.2452C220.779 50.1981 222.03 50.7012 223.787 50.7012C224.347 50.7012 224.957 50.6478 225.612 50.5454C222.631 53.6087 219.817 56.8146 217.148 60.1406L216.583 60.8263L217.409 60.577C217.902 60.4256 218.173 60.2431 218.539 60.0605L219.546 59.4861C220.21 59.0943 220.865 58.6891 221.511 58.2795C222.807 57.4558 224.081 56.5964 225.341 55.7237C227.861 53.9694 230.314 52.1305 232.707 50.207C237.473 46.3555 242.039 42.2147 246.014 37.5261C246.628 36.7914 247.233 36.039 247.825 35.2731C248.475 34.9659 249.135 34.6765 249.803 34.4093C252.355 33.3897 255.033 32.6595 257.73 32.5793C259.08 32.5259 260.399 32.6773 261.727 32.9622C263.041 33.2472 264.32 33.6658 265.48 34.2847C267.793 35.4423 269.631 37.6063 270.2 40.1843C270.029 40.4114 269.803 40.6429 269.55 40.8032C269.265 40.9902 268.954 41.1238 268.619 41.1861C268.285 41.2396 267.942 41.2529 267.599 41.1906C267.255 41.1371 266.921 41.0214 266.591 40.8878L266.113 40.6963L266.208 41.1861C266.375 42.0366 266.46 42.9004 266.456 43.7597C266.451 44.1916 266.424 44.619 266.366 45.042C266.311 45.4027 266.23 45.7722 266.122 46.1017C265.869 46.1195 265.58 46.1017 265.318 46.0305C264.997 45.9504 264.69 45.8123 264.405 45.6387C264.121 45.4561 263.863 45.2379 263.633 44.9886C263.398 44.7393 263.199 44.4632 263.01 44.1738L262.608 43.5638L262.499 44.2762C262.368 45.1444 262.129 45.9993 261.777 46.8008C261.592 47.1971 261.384 47.5844 261.144 47.9451C260.982 48.19 260.797 48.4215 260.602 48.6353C260.291 47.8828 260.078 47.0546 259.947 46.2398C259.803 45.2958 259.767 44.3341 259.776 43.3768C259.785 42.4195 259.889 41.4577 260.02 40.5004C260.087 40.024 260.164 39.5431 260.178 39.0533C260.223 38.5636 260.237 38.0693 260.16 37.535L259.627 37.397C259.008 38.2786 258.705 39.2804 258.552 40.2956C258.434 41.3197 258.326 42.3527 258.389 43.3901C258.43 44.4276 258.574 45.465 258.868 46.4713C259.175 47.4731 259.577 48.4393 260.282 49.2898L260.471 49.5213L260.679 49.3343C261.059 48.9914 261.334 48.6308 261.601 48.2345C261.863 47.8427 262.084 47.4331 262.278 47.0101C262.572 46.3466 262.766 45.6476 262.915 44.9396C263.019 45.0732 263.109 45.2201 263.227 45.3448C263.488 45.6209 263.782 45.8747 264.107 46.0839C264.437 46.2887 264.798 46.449 265.182 46.547C265.571 46.6405 265.95 46.685 266.388 46.6182L266.533 46.596L266.587 46.4579C266.763 45.9949 266.844 45.5585 266.912 45.1044C266.975 44.6547 267.002 44.2005 267.012 43.7508C267.016 43.0028 266.939 42.2636 266.822 41.529C267.048 41.6047 267.273 41.6714 267.513 41.7071C267.91 41.7783 268.326 41.7694 268.732 41.7026C269.139 41.6269 269.527 41.4622 269.866 41.2395C270.209 41.008 270.498 40.7409 270.742 40.3758L270.783 40.3223V40.2644ZM220.047 41.5468C220.436 40.6028 221.298 39.7123 222.224 39.7123C222.328 39.7123 222.432 39.7212 222.531 39.7479C222.929 39.837 223.191 40.0106 223.331 40.2778C223.552 40.6963 223.484 41.3464 223.132 42.2057C222.834 42.8024 222.409 43.1764 221.872 43.3144C221.222 43.4836 220.503 43.2788 220.11 43.0161L220.101 43.0117C219.79 42.8158 219.767 42.228 220.047 41.5468ZM119.899 41.7338C119.985 41.7338 120.066 41.7382 120.134 41.7516C120.446 41.8095 120.5 41.9653 120.513 42.0143C120.586 42.2369 120.577 42.9538 118.842 44.7482C117.6 46.36 115.152 47.5533 114 47.393C113.766 47.3618 113.616 47.2728 113.558 47.1258C113.485 46.9477 113.445 46.3822 114.592 44.9886C116.299 42.8914 118.734 41.7338 119.899 41.7338ZM245.286 36.9473C241.37 41.5735 236.931 45.7678 232.224 49.646C229.871 51.5828 227.45 53.444 224.966 55.2161C223.724 56.1022 222.468 56.9704 221.19 57.8031C220.553 58.2216 219.907 58.6268 219.257 59.0231C219.026 59.1611 218.778 59.308 218.534 59.4505C221.917 55.6213 225.549 51.9969 229.302 48.5328C233.412 44.7615 237.78 41.2529 242.468 38.2697C243.552 37.584 244.659 36.9384 245.783 36.3373C245.616 36.5421 245.453 36.7469 245.286 36.9473Z" fill="#B3686F"/>
<path d="M91.4623 15.0184H88.3413V25.2281H91.4623V15.0184Z" fill="black"/>
</g>
<defs>
<clipPath id="clip0_133_2851">
<rect width="271" height="61" fill="white"/>
</clipPath>
</defs>
</svg>
