<svg width="44" height="50" viewBox="0 0 44 50" fill="none" xmlns="http://www.w3.org/2000/svg">
<g clip-path="url(#clip0_596_7457)">
<path d="M0 21.5856C0 21.1115 0 20.6476 0 20.1735C1.63405 20.1735 3.26811 20.1735 4.91224 20.1735C4.98285 19.3766 4.98285 19.3766 4.22635 19.1749C2.56203 18.721 1.33145 17.7325 0.585031 16.1791C0.322776 15.6244 0.191648 15.0091 0 14.424C0 12.8404 0 11.2669 0 9.68326C0.524511 9.68326 1.05911 9.68326 1.62397 9.68326C1.62397 8.61407 1.62397 7.55496 1.62397 6.48576C3.22776 6.35464 4.66008 6.6875 5.90075 7.676C6.13274 7.85756 6.30422 7.89791 6.56647 7.76678C7.54489 7.30279 8.57373 7.19184 9.70345 7.2927C9.70345 8.11982 9.70345 8.91667 9.70345 9.70343C10.2582 9.70343 10.7525 9.70343 11.2972 9.70343C11.2972 11.0853 11.3173 12.447 11.2972 13.7987C11.2669 16.1085 9.84466 18.1259 7.67601 18.9631C7.3028 19.1043 6.91951 19.2052 6.51604 19.3262C6.67742 22.1707 8.39217 24.2687 9.82449 26.518C13.0623 24.541 16.4212 22.8969 19.9314 21.5654C20.0323 21.5251 20.1533 21.3637 20.1634 21.2427C20.1937 20.8997 20.1735 20.5467 20.1735 20.1634C19.7498 20.1634 19.3867 20.1735 19.0236 20.1634C18.3175 20.1432 17.6014 20.1836 16.9155 20.0524C14.7771 19.6591 13.2641 17.329 13.8088 15.3218C14.3736 15.3218 14.9486 15.3016 15.5134 15.3218C17.0869 15.3722 18.721 15.0191 20.1432 16.1287C20.1432 14.9687 20.1432 13.8995 20.1432 12.8606C17.6518 12.3058 15.927 10.8836 15.4932 8.38207C15.2007 6.71776 15.3419 4.98284 15.2814 3.23783C15.8967 3.23783 16.401 3.23783 16.9457 3.23783C16.9457 2.13838 16.9457 1.05909 16.9457 -0.0101013C17.4501 -0.0101013 17.9544 -0.0101013 18.4587 -0.0101013C19.4372 0.221894 20.4055 0.504323 21.1923 1.18013C21.4545 1.40204 21.6562 1.42222 21.9488 1.281C22.907 0.827099 23.9358 0.726231 25.0353 0.827099C25.0353 1.65421 25.0353 2.45106 25.0353 3.23783C25.5901 3.23783 26.0843 3.23783 26.629 3.23783C26.629 4.61971 26.6492 5.98143 26.6189 7.33305C26.5887 8.99736 25.9229 10.3893 24.6722 11.4989C23.8451 12.2251 22.8667 12.6387 21.8075 12.8404C21.8075 13.3952 21.8075 13.9096 21.8075 14.3131C22.564 14.1113 23.3206 13.8087 24.0972 13.728C25.0756 13.6272 26.0742 13.6978 27.0728 13.6978C27.4561 13.6978 27.8293 13.6978 28.2025 13.6978C28.4749 16.5927 26.7097 18.5394 23.8753 18.5394C23.1894 18.5394 22.5035 18.5394 21.8075 18.5394C21.8075 19.3363 21.8075 20.0827 21.8075 20.8493C21.9488 20.8089 22.0698 20.7888 22.1707 20.7484C25.5396 19.6187 28.9792 18.7916 32.4995 18.3175C32.8122 18.2772 33.0038 18.1561 33.145 17.8535C33.4275 17.2281 33.7704 16.6229 34.0529 15.9976C34.2748 15.5033 34.4361 14.9788 34.6379 14.4543C34.3958 14.3938 34.2344 14.3534 34.073 14.303C31.6421 13.6675 29.9072 11.4787 29.8669 8.95702C29.8467 7.676 29.8568 6.40507 29.8669 5.12405C29.8669 5.03327 29.887 4.9324 29.9072 4.83154C30.4317 4.83154 30.936 4.83154 31.4807 4.83154C31.4807 3.75225 31.4807 2.69315 31.4807 1.61386C33.0644 1.48274 34.4765 1.79543 35.697 2.75367C35.9996 2.98566 36.2114 2.99575 36.5443 2.84445C37.4924 2.4208 38.5011 2.30985 39.5602 2.4208C39.5602 3.23783 39.5602 4.0246 39.5602 4.83154C40.1049 4.83154 40.6193 4.83154 41.164 4.83154C41.164 6.10247 41.164 7.34314 41.164 8.58381C41.164 11.5291 39.4694 13.6675 36.6048 14.3736C36.4535 14.4139 36.2719 14.5753 36.2114 14.7266C35.8281 15.6546 35.4751 16.5927 35.1019 17.5308C35.0514 17.6619 34.9909 17.7829 34.9304 17.9443C35.9592 17.8838 36.9377 17.793 37.906 17.7829C39.5602 17.7527 40.8917 18.9429 41.1337 20.587C41.3557 22.1505 40.3268 23.6837 38.7533 24.0972C38.5314 24.1577 38.2994 24.188 38.0472 24.2384C37.7648 25.6808 37.4823 27.1132 37.2201 28.5455C37.1999 28.6665 37.2705 28.8279 37.3512 28.9288C37.5832 29.191 37.8455 29.423 38.1178 29.6954C38.6524 29.5138 39.2072 29.3222 39.772 29.1507C41.6986 28.5556 43.5546 29.887 43.5747 31.9044C43.5848 32.6407 43.5848 33.3871 43.5747 34.1234C43.5546 36.1711 41.7087 37.5126 39.7519 36.9074C38.955 36.6552 38.1582 36.3829 37.3613 36.1105C37.1999 36.0601 37.0385 36.0097 36.8166 35.9491C37.6538 38.4809 38.4608 40.9219 39.2576 43.3528C39.3988 43.7966 39.7519 44.3514 39.6106 44.6641C39.4493 45.0171 38.834 45.1684 38.4103 45.3903C37.2604 45.9754 36.1105 46.5402 34.9102 47.1353C34.7993 46.5503 34.6984 46.0056 34.5975 45.471C34.5774 45.471 34.5471 45.4811 34.5269 45.4811C34.2748 46.9639 34.0226 48.4466 33.7805 49.9395C25.2269 49.9395 16.7137 49.9395 8.20052 49.9395C7.54489 46.0157 6.89933 42.1222 6.2437 38.1985C6.06213 38.2691 5.91083 38.3296 5.75953 38.4002C4.95259 38.7331 4.12548 38.7734 3.29837 38.5011C0.655638 37.6538 -0.100867 34.2243 2.03752 32.3583C3.93383 30.704 5.98144 29.2314 7.95844 27.678C8.10974 27.557 8.28122 27.4561 8.46278 27.325C7.99879 26.6189 7.57515 25.933 7.11116 25.2774C7.0002 25.1261 6.74803 24.9849 6.56647 24.9748C5.68892 24.9445 4.82146 24.9849 3.94392 24.9546C2.64273 24.9142 1.55336 24.3797 0.817026 23.3004C0.443817 22.8263 0.262255 22.1807 0 21.5856ZM27.6377 41.1842C21.1822 41.1842 14.7872 41.1842 8.35182 41.1842C8.75529 43.6151 9.15876 46.0056 9.56223 48.4063C17.1979 48.4063 24.773 48.4063 32.3986 48.4063C32.8021 46.0056 33.1955 43.605 33.609 41.1842C33.1551 41.1842 32.7416 41.1842 32.2877 41.1842C31.9548 43.1813 31.6119 45.1785 31.2689 47.206C29.6248 46.3788 28.0512 45.5921 26.4474 44.7952C26.8509 43.5747 27.2443 42.4047 27.6377 41.1842ZM37.2907 19.4371C37.2907 19.417 37.2806 19.3968 37.2806 19.3766C35.4448 19.5985 33.609 19.77 31.7833 20.0625C22.9373 21.4848 14.8376 24.7932 7.5348 29.9778C5.96127 31.0974 4.49869 32.3684 3.0462 33.6393C2.16865 34.3958 2.18882 35.7373 2.97559 36.5342C3.75227 37.3209 4.99294 37.3109 5.83014 36.514C6.09239 36.2618 6.34456 35.9794 6.60682 35.7272C14.535 28.2328 24.0468 24.2082 34.7993 22.907C35.929 22.7658 37.0789 22.7456 38.2086 22.6044C39.0256 22.5035 39.5703 21.7571 39.53 20.9602C39.4896 20.1432 38.834 19.4876 37.9968 19.4472C37.7648 19.4271 37.5328 19.4371 37.2907 19.4371ZM22.5943 34.6782C22.5943 33.7603 22.5842 32.8828 22.5943 32.0153C22.6145 29.9374 24.4604 28.5959 26.4474 29.2213C26.9921 29.3928 27.5267 29.5743 28.0613 29.7458C29.6248 28.1218 30.815 27.8798 32.913 28.717C33.0139 28.7573 33.1551 28.7775 33.2358 28.727C33.9621 28.3034 34.7488 28.1924 35.6163 28.253C35.8685 26.9719 36.1105 25.7212 36.3728 24.3897C31.5513 24.773 26.9619 25.8422 22.5237 27.5671C18.0956 29.2919 14.0105 31.6018 10.2179 34.6782C14.424 34.6782 18.4789 34.6782 22.5943 34.6782ZM8.07948 39.4896C8.16018 39.5098 8.19044 39.5299 8.2207 39.5299C14.7771 39.5299 21.3335 39.54 27.8899 39.5199C28.0311 39.5199 28.2328 39.3484 28.2832 39.2072C28.6262 38.2288 28.949 37.2402 29.2717 36.2518C29.2919 36.1811 29.2919 36.1105 29.302 35.9996C28.3135 36.3224 27.3754 36.635 26.4374 36.9477C25.4892 37.2604 24.6217 37.1091 23.7946 36.5745C23.5727 36.4333 23.2802 36.3224 23.028 36.3224C18.4184 36.3123 13.8188 36.3123 9.2092 36.3123C8.98729 36.3123 8.77547 36.3022 8.55356 36.3123C8.16018 36.3324 7.63567 36.8973 7.69619 37.2403C7.81723 37.9867 7.94835 38.7331 8.07948 39.4896ZM33.0845 31.0974C32.8727 30.8453 32.7416 30.694 32.6104 30.5427C31.8338 29.655 30.4317 29.6046 29.6147 30.4418C28.7977 31.2689 28.8784 32.5398 29.8063 33.3266C30.6839 34.073 31.5816 34.8093 32.4692 35.5558C32.671 35.7272 32.8727 35.8886 33.0845 36.0601C34.1941 35.1321 35.2733 34.2546 36.3325 33.3569C37.2604 32.5701 37.3714 31.3496 36.6149 30.5124C35.8584 29.6752 34.5168 29.6248 33.6796 30.4115C33.4779 30.6032 33.3064 30.8352 33.0845 31.0974ZM38.7129 31.2487C38.8441 32.5297 38.4507 33.5889 37.4924 34.5067C38.5314 34.8497 39.4896 35.2027 40.468 35.465C41.1842 35.6566 41.9104 35.0817 41.9508 34.3252C41.9911 33.488 42.0012 32.6407 41.9508 31.8035C41.9003 31.0066 41.1237 30.4922 40.3571 30.704C39.8124 30.8654 39.298 31.0571 38.7129 31.2487ZM28.6867 34.5168C28.0109 33.8713 27.4561 33.1652 27.5066 32.328C27.5671 31.2386 26.972 30.9764 26.1448 30.815C26.044 30.7948 25.9532 30.7545 25.8523 30.7242C25.0252 30.5023 24.2485 31.0268 24.2082 31.8741C24.1779 32.681 24.1779 33.488 24.2082 34.2949C24.2384 35.0413 24.9143 35.6465 25.6002 35.4751C26.629 35.233 27.6175 34.8598 28.6867 34.5168ZM16.9558 4.96266C16.9558 5.87047 16.9054 6.74802 16.9659 7.61548C17.0869 9.38066 18.5193 10.9542 20.1533 11.166C20.1533 10.2582 20.2239 9.3504 20.1432 8.45268C19.9818 6.69758 18.6504 5.26527 16.9558 4.96266ZM25.0555 4.95258C23.4719 5.22492 22.1404 6.47568 21.9084 8.00886C21.747 9.0478 21.7874 10.1069 21.747 11.1761C23.26 10.9845 24.6621 9.67317 24.9042 8.10973C25.0555 7.09097 25.0151 6.03186 25.0555 4.95258ZM34.6984 12.7799C34.6984 11.9931 34.7085 11.2064 34.6984 10.4196C34.6883 9.46135 34.3555 8.61407 33.7402 7.88782C33.1551 7.19183 32.4188 6.73793 31.4908 6.55637C31.4908 7.47426 31.4404 8.35181 31.5009 9.21927C31.6119 10.9845 33.0341 12.558 34.6984 12.7799ZM39.5804 6.55637C37.9665 6.85897 36.6653 8.08956 36.4232 9.62274C36.2618 10.6516 36.3123 11.7208 36.2618 12.7799C37.8051 12.558 39.1769 11.2669 39.419 9.70343C39.5804 8.69476 39.54 7.64574 39.5804 6.55637ZM1.62397 11.4182C1.62397 12.326 1.57353 13.1934 1.63405 14.0609C1.74501 15.8261 3.16724 17.3895 4.81138 17.6215C4.81138 16.7036 4.89207 15.7757 4.7912 14.8678C4.61973 13.1128 3.31854 11.7309 1.62397 11.4182ZM6.41517 17.6921C7.95844 17.2887 8.95703 16.4313 9.46137 15.0393C9.88501 13.8592 9.62275 12.6387 9.70345 11.4081C8.10974 11.7208 6.81864 12.9413 6.58664 14.4745C6.41517 15.5033 6.45552 16.5725 6.41517 17.6921ZM31.0873 36.4131C31.0268 36.4232 30.9764 36.4333 30.9159 36.4535C30.0888 38.955 29.2616 41.4565 28.4244 43.9681C28.9792 44.2405 29.4836 44.5027 30.0182 44.765C30.0585 44.6036 30.0988 44.4825 30.119 44.3514C30.5225 41.9205 30.936 39.4896 31.3193 37.0587C31.3597 36.857 31.168 36.625 31.0873 36.4131ZM37.7446 43.9681C36.8973 41.4162 36.0702 38.9247 35.2431 36.4333C34.8497 36.5947 34.769 36.8065 34.8396 37.1696C35.112 38.6827 35.354 40.2158 35.6062 41.7389C35.7777 42.7375 35.9492 43.7361 36.1206 44.7851C36.6956 44.4926 37.21 44.2405 37.7446 43.9681ZM20.0222 18.5495C19.6994 17.7527 19.1951 17.1979 18.4587 17.0768C17.5005 16.9255 16.5221 16.9457 15.4428 16.8953C15.9068 17.9241 16.5725 18.4587 17.5308 18.5394C18.3276 18.5999 19.1346 18.5495 20.0222 18.5495ZM26.4172 15.3318C25.6002 15.3318 24.8336 15.3117 24.067 15.3419C23.4618 15.3621 22.9171 15.6042 22.5035 16.048C22.2816 16.2901 22.1202 16.5826 21.8781 16.9356C22.8061 16.9356 23.5828 16.9558 24.3494 16.9255C25.3076 16.9054 26.165 16.2396 26.4172 15.3318ZM1.80553 21.7974C2.30986 23.1995 3.66149 23.6938 5.92092 23.3508C5.6284 22.2917 5.23502 21.868 4.30704 21.8075C3.49001 21.7571 2.6629 21.7974 1.80553 21.7974ZM37.906 4.15572C36.7864 4.38772 35.8685 5.03327 35.2834 6.01169C34.8295 6.7581 34.8497 6.88923 35.465 7.444C36.0399 6.90941 36.5443 6.26385 37.1999 5.87047C37.8354 5.48717 38.0371 5.05344 37.9262 4.38772C37.9161 4.31711 37.9161 4.24651 37.906 4.15572ZM23.4012 2.5015C22.211 2.79401 21.3335 3.42948 20.7283 4.43815C20.3147 5.13414 20.3551 5.33587 21.0309 5.89065C21.5856 5.05344 22.2917 4.37763 23.1793 3.89347C23.2802 3.83295 23.3811 3.68165 23.3912 3.56061C23.4214 3.22774 23.4012 2.88479 23.4012 2.5015ZM8.0694 8.95702C6.93968 9.21927 6.10248 9.8043 5.49728 10.7222C4.97277 11.519 4.98285 11.6098 5.67884 12.3663C6.26387 11.4888 7.0002 10.7726 7.93827 10.2885C8.00887 10.2582 8.05931 10.1372 8.0694 10.0464C8.07948 9.70343 8.0694 9.36049 8.0694 8.95702ZM20.2038 2.39054C19.6792 2.14846 19.1547 1.90638 18.5596 1.63404C18.5596 2.27959 18.5899 2.8041 18.5495 3.31852C18.5193 3.75225 18.7109 3.9439 19.074 4.01451C19.4372 3.47991 19.7902 2.97558 20.2038 2.39054ZM3.7321 10.47C4.10531 9.93543 4.46843 9.42101 4.8719 8.83597C4.3373 8.59389 3.81279 8.35181 3.22776 8.08955C3.22776 8.71493 3.25802 9.21927 3.21767 9.71352C3.18741 10.1271 3.30845 10.3792 3.7321 10.47ZM33.5989 5.62839C33.9621 5.11397 34.3252 4.58945 34.7287 4.00442C34.2042 3.76234 33.6897 3.52026 33.0845 3.23783C33.0845 3.8733 33.1148 4.38772 33.0744 4.89206C33.0442 5.32579 33.1955 5.55778 33.5989 5.62839ZM32.56 39.5098C32.9231 39.5098 33.2459 39.5098 33.5989 39.5098C33.5183 39.0054 33.4376 38.5314 33.3569 38.0774C33.1652 38.0774 32.9837 38.0774 32.8021 38.0774C32.7315 38.5213 32.6508 38.9752 32.56 39.5098Z" fill="#E8D3D5"/>
</g>
<defs>
<clipPath id="clip0_596_7457">
<rect width="43.5848" height="50" fill="white"/>
</clipPath>
</defs>
</svg>
