<svg width="49" height="50" viewBox="0 0 49 50" fill="none" xmlns="http://www.w3.org/2000/svg">
<g clip-path="url(#clip0_593_7445)">
<path d="M-5.64847e-06 48.5349C1.10287 48.5349 2.20575 48.5349 3.35743 48.5349C2.70351 38.2497 2.05935 28.0328 1.40543 17.7574C2.09839 17.7574 2.74255 17.7574 3.46479 17.7574C2.64495 14.5732 2.54735 11.428 3.33791 8.22426C5.42654 9.88474 6.98814 11.8871 8.31549 14.1336C8.31549 13.7038 8.31549 13.2741 8.31549 12.8443C8.31549 11.7015 8.30573 10.5685 8.32525 9.42567C8.33501 9.07404 8.26669 8.84939 7.86654 8.86892C7.78846 8.86892 7.71038 8.83962 7.6323 8.82008C4.9483 8.2145 3.85519 6.48564 4.47982 3.81911C4.78238 2.54933 5.35822 1.41629 6.1195 0.302794C6.48062 0.459074 6.8515 0.566517 7.18334 0.761868C7.62254 1.02559 7.95438 0.937683 8.29597 0.59582C8.52045 0.390701 8.78397 0.214886 9.05725 0C9.37933 0.253956 9.71117 0.478609 10.004 0.7521C10.248 0.976753 10.4627 0.986521 10.7457 0.840008C11.1361 0.644657 11.546 0.488377 11.9364 0.322329C11.9852 0.351631 12.0243 0.361399 12.034 0.380934C12.4147 1.46513 13.4395 1.75816 14.3179 2.227C14.435 2.29537 14.6595 2.2563 14.7864 2.18793C15.1572 1.98281 15.4988 1.73862 15.9088 1.4749C16.2113 1.75816 16.5236 2.04141 16.8164 2.34421C17.0116 2.54933 17.1971 2.5884 17.4606 2.49072C17.8803 2.33444 18.3195 2.20746 18.8075 2.05118C19.6956 3.78004 20.4374 5.52842 20.0958 7.54054C19.842 9.01543 18.5928 10.0801 16.8652 10.3536C16.5139 10.4122 16.1625 10.4415 15.7428 10.4903C15.6355 12.8931 15.2353 15.2764 15.3622 17.7085C15.9478 16.0774 16.3772 14.4071 17.2752 12.8638C17.7046 13.0885 18.1048 13.3131 18.4561 13.4987C17.9388 14.9248 17.4313 16.302 16.8945 17.7671C17.9486 17.7671 18.8563 17.7769 19.7639 17.7574C19.8615 17.7574 20.0177 17.6206 20.0567 17.5132C20.9742 15.1397 21.267 12.6685 20.9742 10.0703C20.4179 10.7834 19.8615 11.4964 19.2759 12.2387C18.8953 11.9848 18.5147 11.7406 18.1048 11.4671C19.1783 9.79684 20.4569 8.34147 22.0673 7.06193C22.9359 10.7052 22.7603 14.2313 21.55 17.7574C22.1844 17.7574 22.77 17.7574 23.4239 17.7574C22.77 28.0328 22.1259 38.2692 21.4719 48.5251C23.4923 48.5251 25.4735 48.5251 27.5036 48.5251C27.5036 48.3688 27.5134 48.2125 27.5036 48.0563C27.1522 42.4497 26.7911 36.8529 26.4398 31.2463C26.186 27.2514 25.9323 23.2565 25.6687 19.2616C25.659 19.1248 25.6297 18.9392 25.5419 18.8611C24.2047 17.7378 24.195 16.2825 24.5171 14.749C24.5268 14.7001 24.5463 14.6513 24.5561 14.6122C25.0831 12.9713 24.8099 13.2155 26.4886 13.4304C27.5329 13.5671 28.4894 13.9871 29.2311 14.7685C29.5922 14.5732 29.9534 14.4071 30.2657 14.1922C30.3828 14.1141 30.4706 13.8699 30.4511 13.7332C30.2657 12.7076 30.0412 11.7015 29.8362 10.7052C29.4849 10.7052 29.2116 10.715 28.9383 10.7052C27.689 10.6466 26.7326 10.0606 26.1567 8.98613C25.1319 7.09123 25.0246 5.08888 25.8542 3.10608C26.5471 1.46513 28.0794 0.937683 29.6313 1.82653C31.6126 2.96933 32.7935 4.70795 32.9887 7.01309C33.0961 8.29264 32.5105 9.26939 31.4466 9.97265C31.349 10.0313 31.2612 10.0996 31.1831 10.1485C31.4466 11.3206 31.7102 12.4731 31.9834 13.6745C32.5886 13.4108 32.735 13.8992 32.9204 14.3094C33.4182 15.3741 33.7207 16.4778 33.4962 17.689C33.5938 17.7085 33.6817 17.7281 33.7793 17.7378C33.8574 17.7476 33.9354 17.7281 34.0428 17.7183C34.0623 17.4253 34.0721 17.1518 34.1014 16.8881C34.2087 16.0383 34.5894 15.3253 35.2823 14.8369C35.6337 14.5927 35.7605 14.3192 35.7605 13.9187C35.7605 13.6159 35.7996 13.3034 35.8191 13.0104C33.4279 11.8969 32.735 10.5489 33.2913 8.04845C33.6036 6.65169 34.2087 5.40145 35.3018 4.44423C36.5609 3.3405 38.0151 3.43817 39.1375 4.69818C39.7426 5.37214 40.2111 6.39773 40.377 7.39402C39.9281 7.4917 39.4693 7.59914 39.0692 7.68705C38.7861 7.07169 38.5714 6.46611 38.2396 5.93866C37.6149 4.94237 36.8439 4.88377 36.0533 5.75308C34.9895 6.92518 34.482 8.32194 34.6382 9.91405C34.7162 10.6564 35.1261 11.2131 35.8484 11.4085C36.3559 11.5452 36.9122 11.6136 37.4295 11.5648C38.2884 11.4866 38.8447 10.8713 39.0204 9.95312C39.0789 9.65032 39.1082 9.34753 39.157 9.01543C39.6157 9.01543 40.0647 9.01543 40.5137 9.01543C40.6893 10.715 39.8012 12.7955 37.2831 13.0983C37.2733 13.3229 37.2538 13.5573 37.2343 13.8308C37.3807 13.8015 37.4685 13.782 37.5564 13.7625C38.8057 13.5378 38.5617 13.4304 39.0887 14.5634C39.5474 15.5401 39.7426 16.5657 39.5572 17.6988C39.7133 17.7085 39.8402 17.7281 40.0354 17.7378C39.8988 16.7416 40.1135 15.8527 40.6503 15.0615C41.1481 14.3192 41.6556 13.5671 42.5828 13.1569C42.6999 12.0727 42.8268 10.9299 42.9244 9.7773C42.9341 9.66986 42.8268 9.48427 42.7389 9.46474C40.7674 8.87869 39.9964 6.94472 40.4649 4.79586C40.7577 3.4284 41.3237 2.1977 42.329 1.21117C43.7442 -0.185583 45.501 -0.0488377 46.6136 1.60188C47.7458 3.27212 48.0972 5.13772 47.5896 7.101C47.1797 8.67357 46.0866 9.52334 44.4274 9.66986C44.2713 11.1448 44.0956 12.6197 43.9589 14.0848C43.9296 14.4169 44.1151 14.4657 44.4372 14.3485C45.1496 14.0946 45.8816 13.8797 46.6136 13.6648C46.9162 13.5769 47.1114 13.6745 47.2676 13.9871C47.7751 15.0225 48.1362 16.0871 48.0191 17.269C47.9996 17.4448 47.9996 17.6402 47.9215 17.7964C47.2773 19.0174 47.4628 20.3653 47.3359 21.6546C47.2578 22.4263 47.2285 23.2077 47.1797 24.0281C46.682 23.9988 46.233 23.9695 45.7352 23.9402C45.784 23.11 45.8231 22.3383 45.8719 21.5667C45.9207 20.8048 45.9695 20.043 46.0183 19.2518C39.7231 19.2518 33.4474 19.2518 27.123 19.2518C27.7378 28.9705 28.3527 38.6794 28.9774 48.4177C34.0428 48.4177 39.0692 48.4177 44.1736 48.4177C44.6616 40.799 45.1399 33.1705 45.6279 25.4835C46.1061 25.5128 46.5551 25.5421 47.0821 25.5812C46.5941 33.2291 46.1159 40.8576 45.6279 48.5251C46.4965 48.5251 47.3164 48.5251 48.2045 48.5251C48.2045 49.0526 48.2045 49.5312 48.2045 50.0098C32.1298 50.0098 16.0649 50.0098 -0.00976562 50.0098C-5.64847e-06 49.5116 -5.64847e-06 49.0232 -5.64847e-06 48.5349ZM20.0079 48.4177C20.6228 38.6697 21.2377 28.9705 21.8623 19.2518C15.5379 19.2518 9.27197 19.2518 2.96703 19.2518C3.58191 28.99 4.19678 38.6892 4.82142 48.4177C9.88685 48.4177 14.923 48.4177 20.0079 48.4177ZM13.4004 3.3405C12.7953 4.26841 12.3464 5.13772 12.1609 6.13401C11.995 7.05216 12.2976 7.78472 13.0881 8.25357C14.4643 9.07404 15.9283 9.21078 17.4313 8.6638C18.0169 8.44892 18.4756 8.05822 18.6318 7.41356C18.9343 6.14378 18.5147 4.99121 18.0364 3.77027C17.1092 4.33678 16.3382 4.29771 15.7624 3.23305C14.9816 4.14143 14.2008 4.10236 13.4004 3.3405ZM11.3508 2.12932C10.531 2.77398 9.74045 2.75444 9.05725 1.76792C8.37405 2.80328 7.57374 2.73491 6.72462 2.10002C6.2171 3.11584 5.79742 4.07306 5.75838 5.14749C5.7291 5.97773 6.09022 6.59308 6.81246 6.97402C7.12478 7.14007 7.46638 7.27681 7.80798 7.35495C8.78397 7.58937 9.75021 7.58937 10.7067 7.23774C10.5408 5.89959 10.9019 4.72749 11.5363 3.65306C11.8876 3.06701 11.7608 2.63723 11.3508 2.12932ZM46.3599 5.58703C46.3111 4.46376 46.0964 3.4284 45.4815 2.51026C44.8373 1.56281 44.1151 1.48467 43.3148 2.31491C42.3095 3.3698 41.8215 4.65911 41.8117 6.11448C41.802 7.14007 42.2997 7.78472 43.1879 8.06798C44.8764 8.6052 46.0476 7.8824 46.3111 6.14378C46.3404 5.94843 46.3501 5.75308 46.3599 5.58703ZM26.6838 5.47959C26.7423 6.41727 26.9863 7.53077 27.3572 8.19496C27.7378 8.86892 28.3039 9.30846 29.0945 9.21078C29.6313 9.15218 30.1681 8.9666 30.6463 8.72241C31.271 8.40985 31.5442 7.82379 31.5345 7.11076C31.515 5.64563 30.1193 3.57492 28.7626 3.01817C28.0892 2.74468 27.5524 2.88142 27.2596 3.54561C27.0058 4.1512 26.879 4.82516 26.6838 5.47959ZM8.08125 17.7476C7.34926 15.2374 6.08046 13.1276 4.34318 11.2717C4.27486 11.6038 4.28462 11.9262 4.27486 12.2387C4.23582 13.9676 4.4115 15.6769 4.8995 17.3374C4.9483 17.4937 5.13374 17.7281 5.27038 17.7281C6.17806 17.7671 7.08574 17.7476 8.08125 17.7476ZM12.3171 10.2657C12.9124 11.301 13.4688 12.2778 14.0544 13.3229C14.1324 12.2876 14.2203 11.3108 14.2886 10.4415C13.498 10.0508 12.6782 9.83591 12.1219 9.31823C11.4875 8.74194 10.9312 8.62473 10.1601 8.86892C9.85757 8.9666 9.77949 9.06427 9.77949 9.3573C9.78925 10.2364 9.78925 11.1155 9.78925 11.9945C9.78925 13.2057 9.78925 14.4169 9.78925 15.6281C10.4529 13.7918 11.1849 12.0043 12.3171 10.2657ZM12.4342 13.1862C11.7705 14.3094 10.9409 16.9369 10.9604 17.7281C11.9072 17.7281 12.8636 17.7281 13.9665 17.7281C13.459 16.2141 12.9612 14.7587 12.4342 13.1862ZM27.9623 17.7476C28.0111 17.3178 28.0306 16.9271 28.1087 16.556C28.2551 15.8234 28.1966 15.6085 27.5036 15.2862C27.0449 15.0713 26.5471 14.9443 26.0396 14.7685C25.8054 15.5206 25.659 16.1946 25.903 16.849C26.0299 17.1909 26.3227 17.5913 26.635 17.7085C27.0254 17.8648 27.5231 17.7476 27.9623 17.7476ZM35.5849 17.7574C36.2876 17.7574 36.961 17.7378 37.6442 17.7671C37.9565 17.7769 38.0932 17.6402 38.1322 17.3667C38.2396 16.6243 38.1127 15.9308 37.7906 15.2667C36.1314 15.6476 35.4092 16.4485 35.5849 17.7574ZM29.5434 17.7574C30.2071 17.7574 30.8903 17.7378 31.5638 17.7671C31.9151 17.7867 32.0225 17.6109 32.0713 17.3276C32.1884 16.595 32.0225 15.9211 31.7297 15.2667C30.09 15.6085 29.2897 16.4974 29.5434 17.7574ZM46.233 15.2764C44.6909 15.589 44.1444 16.1457 44.1639 17.7476C44.7788 17.7476 45.3936 17.7281 45.9988 17.7574C46.3892 17.7769 46.516 17.5913 46.5551 17.2592C46.6429 16.5657 46.516 15.9113 46.233 15.2764ZM42.573 17.7378C42.7097 17.1518 42.7975 16.6243 42.9537 16.1164C43.1684 15.4229 43.1879 15.4327 42.3973 15.0029C42.1045 15.589 41.7337 16.1555 41.5287 16.7709C41.2847 17.5132 41.5385 17.7671 42.2997 17.7574C42.3973 17.7476 42.4949 17.7476 42.573 17.7378Z" fill="#E8D3D5"/>
<path d="M41.6455 30.1621C38.249 30.1621 34.8916 30.1621 31.4951 30.1621C31.4951 27.7299 31.4951 25.3174 31.4951 22.8853C34.8818 22.8853 38.249 22.8853 41.6455 22.8853C41.6455 25.2881 41.6455 27.7006 41.6455 30.1621ZM40.1815 28.6969C40.1815 27.2123 40.1815 25.7764 40.1815 24.3602C37.7513 24.3602 35.3503 24.3602 32.9591 24.3602C32.9591 25.8253 32.9591 27.2611 32.9591 28.6969C35.3893 28.6969 37.7708 28.6969 40.1815 28.6969Z" fill="#E8D3D5"/>
<path d="M17.5097 30.1621C14.1035 30.1621 10.7461 30.1621 7.34961 30.1621C7.34961 27.7397 7.34961 25.3271 7.34961 22.8853C10.7363 22.8853 14.1133 22.8853 17.5097 22.8853C17.5097 25.3076 17.5097 27.7104 17.5097 30.1621ZM8.80385 24.3308C8.80385 25.8057 8.80385 27.2416 8.80385 28.6774C11.2341 28.6774 13.6253 28.6774 16.036 28.6774C16.036 27.2123 16.036 25.7764 16.036 24.3308C13.6155 24.3308 11.2341 24.3308 8.80385 24.3308Z" fill="#E8D3D5"/>
<path d="M38.5319 25.8252C38.5319 26.3038 38.5319 26.7336 38.5319 27.2122C37.2534 27.2122 35.9748 27.2122 34.6768 27.2122C34.6768 26.7629 34.6768 26.3136 34.6768 25.8252C35.9358 25.8252 37.2046 25.8252 38.5319 25.8252Z" fill="#E8D3D5"/>
<path d="M14.3376 27.2221C13.0688 27.2221 11.8098 27.2221 10.5117 27.2221C10.5117 26.763 10.5117 26.304 10.5117 25.8156C11.7903 25.8156 13.0396 25.8156 14.3376 25.8156C14.3376 26.2747 14.3376 26.7337 14.3376 27.2221Z" fill="#E8D3D5"/>
</g>
<defs>
<clipPath id="clip0_593_7445">
<rect width="48.2143" height="50" fill="white"/>
</clipPath>
</defs>
</svg>
