<svg width="46" height="50" viewBox="0 0 46 50" fill="none" xmlns="http://www.w3.org/2000/svg">
<g clip-path="url(#clip0_593_7453)">
<path d="M45.9597 15.7195C45.8993 15.9311 45.8388 16.1326 45.7683 16.3442C45.073 18.3998 42.6042 19.0951 41.0524 17.5937C39.8836 16.4651 38.8557 15.1955 37.7675 13.9863C37.6365 13.8351 37.5055 13.684 37.2636 13.3918C37.2233 13.684 37.173 13.8452 37.173 14.0165C37.2032 15.6489 37.304 17.2713 37.2737 18.8936C37.2435 20.7578 35.6615 22.0476 33.8578 21.7755C31.9533 21.4933 30.734 19.3168 31.5301 17.5635C31.9432 16.6465 32.4168 15.7699 32.8602 14.863C30.7038 16.1628 27.9529 24.2644 28.1746 28.7183C28.4466 28.688 28.7187 28.6376 28.9908 28.6477C30.0488 28.6981 31.0968 28.7787 32.1548 28.819C32.3765 28.8291 32.6486 28.7686 32.8199 28.6376C33.5252 28.0935 34.1903 27.5091 34.8856 26.9448C35.9033 26.1084 37.2636 26.179 38.1605 27.0959C39.017 27.9827 39.0069 29.2926 38.1202 30.2801C35.6111 33.0512 33.0819 35.8222 30.5627 38.5933C30.4418 38.7243 30.3007 38.8553 30.1496 38.9561C26.0383 41.7473 21.8263 44.3773 17.3019 46.453C16.0625 47.0274 14.7929 47.3499 13.4124 47.2793C12.2737 47.2189 11.1351 47.2692 9.92588 47.2692C9.92588 47.5514 9.93596 47.8033 9.92588 48.0451C9.85534 49.1435 9.03914 49.9798 7.94079 49.9899C5.95571 50.0101 3.9807 50.0101 1.99561 49.9899C0.887187 49.9798 0.0206017 49.0931 0.0206017 47.9847C0.000448514 42.5534 0.000448514 37.1322 0.0105251 31.711C0.0105251 30.6227 0.836805 29.7259 1.93515 29.7058C3.93032 29.6655 5.93555 29.6856 7.93072 29.7058C8.68646 29.7158 9.21044 30.1391 9.63366 30.7336C9.69412 30.663 9.75458 30.6227 9.78481 30.5723C10.5506 29.2624 11.7296 28.5268 13.1 27.9524C15.3471 26.9952 17.5337 25.8867 19.7808 24.8992C21 24.3652 22.0984 24.7078 22.7634 25.6751C23.4587 26.6828 23.368 27.9524 22.4813 28.9097C20.7078 30.8343 18.9041 32.7388 17.1206 34.6534C16.9493 34.8347 16.778 35.0161 16.516 35.2983C17.3221 35.3789 18.0174 35.4595 18.7227 35.5099C18.7933 35.52 18.9142 35.3486 18.9646 35.2479C20.3249 32.0234 22.8441 30.1491 26.0887 29.1314C26.5019 29.0004 26.6228 28.8291 26.6329 28.4059C26.7638 23.8513 27.8118 19.5385 30.2503 15.6389C30.7743 14.8025 31.389 14.0266 32.0037 13.1701C31.3084 13.4119 30.6534 13.6437 29.9984 13.8553C29.2125 14.1072 28.4265 14.3289 27.5801 14.1072C26.0383 13.7042 25.0206 12.1121 25.3128 10.4998C25.5849 9.00846 27.0057 7.91012 28.5676 8.16203C30.1496 8.41395 31.7114 8.82709 33.2834 9.16969C33.4446 9.19992 33.6159 9.15961 33.7771 9.15961C33.7066 8.99839 33.6663 8.82709 33.5756 8.68601C32.6083 7.33575 31.5805 6.0258 30.6635 4.6453C29.8574 3.40588 30.0589 1.79363 31.1069 0.866586C31.5401 0.483676 32.1447 0.282144 32.6687 0C32.971 0 33.2733 0 33.5756 0C35.208 0.44337 36.0645 1.53164 36.2358 3.20435C36.3769 4.62515 36.5482 6.03587 36.7195 7.45667C36.7397 7.6179 36.8606 7.75897 36.9311 7.92019C37.052 7.81943 37.183 7.73881 37.2737 7.62797C37.3745 7.51713 37.4349 7.37606 37.5156 7.24506C38.3318 6.05603 39.1077 4.83676 39.9742 3.68803C40.7401 2.68037 41.8183 2.37807 43.0375 2.69045C44.2669 3.00282 45.1335 4.04071 45.2745 5.25998C45.4358 6.62031 44.9017 7.76904 43.7026 8.36356C42.3422 9.04877 40.9315 9.63321 39.551 10.2781C39.3898 10.3587 39.2487 10.4998 39.1077 10.6106C39.2588 10.7114 39.3999 10.8525 39.5611 10.9029C41.0121 11.4067 42.4833 11.8904 43.9343 12.4043C44.7405 12.6864 45.2947 13.2608 45.6373 14.0266C45.7784 14.339 45.859 14.6917 45.9698 15.0242C45.9597 15.2459 45.9597 15.4877 45.9597 15.7195ZM9.85534 45.7678C10.9738 45.7678 12.0117 45.7074 13.0496 45.7779C14.6216 45.8988 16.0222 45.4454 17.3926 44.7602C21.4736 42.7247 25.2826 40.2559 29.0815 37.7469C29.1822 37.6864 29.2729 37.6058 29.3435 37.5151C31.8525 34.7541 34.3616 32.0032 36.8505 29.2221C37.0218 29.0306 37.0823 28.6175 37.0117 28.3555C36.8505 27.7711 36.2056 27.7005 35.6615 28.154C33.2229 30.2197 30.8046 32.2854 28.3559 34.341C28.0839 34.5728 27.7514 34.7642 27.4088 34.875C25.071 35.6509 22.7231 36.3966 20.3753 37.1524C20.1435 37.2229 19.8815 37.2733 19.6397 37.243C18.0375 37.102 16.4354 36.9408 14.8231 36.7997C14.42 36.7594 14.0573 36.6888 13.8961 36.2455C13.7348 35.8021 13.9867 35.52 14.2588 35.2277C16.4757 32.8698 18.6925 30.5018 20.9094 28.1338C21.0605 27.9726 21.2721 27.8214 21.3225 27.6401C21.4031 27.3579 21.4837 26.9649 21.3426 26.7634C21.1915 26.5316 20.8086 26.3805 20.5164 26.3503C20.2443 26.3301 19.9319 26.4913 19.6599 26.6123C18.0879 27.3277 16.5663 28.164 14.9541 28.7686C12.8985 29.5445 11.2661 30.7537 10.1375 32.638C9.98634 32.89 9.85534 33.2124 9.84527 33.5046C9.82511 37.4043 9.83519 41.2938 9.83519 45.1935C9.85534 45.3748 9.85534 45.5361 9.85534 45.7678ZM8.36401 39.8327C8.36401 37.243 8.36401 34.6634 8.36401 32.0738C8.36401 31.3482 8.25317 31.2374 7.5075 31.2374C5.77433 31.2374 4.05123 31.2374 2.31806 31.2374C1.68324 31.2374 1.55224 31.3684 1.55224 32.0133C1.55224 37.233 1.55224 42.4627 1.55224 47.6824C1.55224 48.3071 1.70339 48.4482 2.32814 48.4482C4.07139 48.4482 5.82471 48.4482 7.56796 48.4482C8.21286 48.4482 8.35393 48.3071 8.35393 47.6421C8.36401 45.0423 8.36401 42.4426 8.36401 39.8327ZM30.8247 30.2701C26.6732 29.6856 21.6349 32.235 20.4861 35.4696C20.5768 35.4595 20.6574 35.4595 20.7381 35.4393C22.8138 34.7743 24.8896 34.1092 26.9553 33.4341C27.0762 33.3938 27.2173 33.3434 27.308 33.2527C28.4668 32.2854 29.6054 31.3079 30.8247 30.2701ZM43.7328 5.8948C43.753 5.05844 43.3801 4.474 42.836 4.24224C42.2415 3.99033 41.5462 4.10117 41.1532 4.6453C40.2362 5.92503 39.3697 7.25514 38.493 8.56509C38.4426 8.63563 38.4829 8.76663 38.4829 8.87747C38.5736 8.87747 38.6744 8.9077 38.755 8.87747C40.1758 8.23257 41.5966 7.59774 43.0073 6.93269C43.491 6.69085 43.7227 6.24748 43.7328 5.8948ZM28.3761 9.67352C27.57 9.66344 27.1568 9.90528 26.9049 10.399C26.6026 10.9936 26.6832 11.578 27.0661 12.102C27.3987 12.5554 27.8723 12.8376 28.4164 12.6663C29.948 12.1927 31.4696 11.6687 32.9912 11.1548C33.0819 11.1245 33.1423 11.0036 33.2129 10.923C33.1222 10.8424 33.0315 10.7316 32.9307 10.7013C32.5478 10.5905 32.1548 10.5099 31.7618 10.4192C30.5526 10.1471 29.3435 9.88513 28.3761 9.67352ZM35.5002 13.6135C35.4499 13.6034 35.3894 13.5933 35.339 13.5832C35.0367 14.0971 34.7243 14.601 34.4422 15.1249C33.9283 16.0621 33.4144 16.9992 32.9509 17.9665C32.6385 18.6215 32.8098 19.2463 33.3136 19.7602C33.7469 20.2035 34.2709 20.3144 34.8352 20.0927C35.5002 19.8307 35.7018 19.2563 35.6816 18.5913C35.6413 17.0496 35.6111 15.5079 35.5708 13.9762C35.5708 13.8452 35.5305 13.7243 35.5002 13.6135ZM38.6038 12.3942C38.6139 12.4748 38.6038 12.5353 38.624 12.5655C39.7929 13.8755 40.9416 15.2156 42.1609 16.4752C42.836 17.1705 44.0956 16.707 44.3475 15.7396C44.549 14.9637 44.1863 14.208 43.3499 13.8956C41.8888 13.3615 40.4075 12.8879 38.9364 12.4043C38.8356 12.374 38.7248 12.3942 38.6038 12.3942ZM34.9259 7.92019C34.9763 7.90004 35.0266 7.87989 35.0871 7.85973C35.0468 7.44659 35.0266 7.04353 34.9763 6.63039C34.815 5.33051 34.6639 4.03063 34.4624 2.74083C34.3515 2.03547 33.7066 1.53164 33.0516 1.51149C32.4672 1.49133 31.913 1.92463 31.7115 2.5393C31.5502 3.03305 31.6711 3.46634 31.9634 3.86941C32.6083 4.7763 33.2532 5.67312 33.9081 6.56993C34.2306 7.03345 34.5833 7.46675 34.9259 7.92019ZM37.4753 10.8424C37.4551 10.0262 36.8203 9.36114 36.0746 9.36114C35.339 9.37122 34.7546 9.97582 34.7647 10.7215C34.7747 11.5175 35.4801 12.2027 36.256 12.1725C36.9513 12.1423 37.4853 11.5578 37.4753 10.8424Z" fill="#E8D3D5"/>
</g>
<defs>
<clipPath id="clip0_593_7453">
<rect width="45.9593" height="50" fill="white"/>
</clipPath>
</defs>
</svg>
