<svg width="42" height="40" viewBox="0 0 42 40" fill="none" xmlns="http://www.w3.org/2000/svg">
<path d="M28.059 0C28.3361 0.195217 28.5643 0.41386 28.4258 0.780869C28.2872 1.14007 27.9775 1.17911 27.6271 1.17911C20.6997 1.17911 13.7723 1.1713 6.85304 1.17911C4.16358 1.17911 1.94681 2.89702 1.37632 5.3958C1.29482 5.76281 1.25407 6.14544 1.25407 6.52025C1.24592 15.5002 1.24592 24.4724 1.25407 33.4524C1.25407 36.451 3.69903 38.8092 6.82859 38.817C16.201 38.8248 25.5652 38.8248 34.9375 38.817C38.0671 38.817 40.5284 36.4666 40.5284 33.468C40.5365 24.488 40.5365 15.5159 40.5284 6.53587C40.5284 3.53733 38.0752 1.19473 34.9457 1.17911C33.6172 1.1713 32.2807 1.1713 30.9522 1.17911C30.6099 1.17911 30.2921 1.14788 30.1536 0.788677C30.0069 0.421669 30.2432 0.203026 30.5121 0.00780869C32.2481 0.00780869 33.9921 0.00780869 35.7281 0.00780869C35.8014 0.0312347 35.8748 0.0702782 35.9563 0.0780869C39.2651 0.538799 41.7508 3.2328 41.759 6.44217C41.7753 15.4846 41.7753 24.5271 41.759 33.5695C41.7508 37.0991 38.7435 39.9805 35.0598 39.9883C25.6222 40.0039 16.1847 40.0039 6.74709 39.9883C3.69088 39.9883 1.05032 37.9893 0.259784 35.1547C0.170135 34.8424 0.104936 34.53 0.0315874 34.2177C0.0234375 24.7301 0.0234375 15.2504 0.0234375 5.77843C0.0478871 5.70815 0.0886366 5.63787 0.0967864 5.55978C0.496131 2.94387 2.50915 0.812103 5.19046 0.187408C5.47571 0.11713 5.7691 0.0624695 6.05435 0C13.3892 0 20.7241 0 28.059 0Z" fill="#A1C982"/>
<path d="M20.8875 37.6379C16.2257 37.6379 11.5722 37.6379 6.91044 37.6379C4.79962 37.6379 3.04739 36.4041 2.63175 34.4753C2.428 33.5461 2.50135 32.5622 2.4932 31.6017C2.4932 31.2816 2.7703 31.102 3.11259 31.1098C3.43859 31.1098 3.67493 31.3597 3.68308 31.7032C3.69938 32.2499 3.68308 32.7965 3.69123 33.3431C3.69938 35.1859 5.01966 36.4587 6.94304 36.4587C16.2339 36.4587 25.5248 36.4587 34.8156 36.4587C36.7635 36.4587 38.0837 35.1859 38.0837 33.3196C38.0837 24.4334 38.0837 15.5393 38.0837 6.65298C38.0837 4.7789 36.7635 3.51389 34.8156 3.51389C25.5248 3.51389 16.2339 3.51389 6.94304 3.51389C5.01966 3.51389 3.69123 4.78671 3.69123 6.62956C3.69123 13.9541 3.69123 21.2865 3.69123 28.611C3.69123 29.2123 3.50379 29.4934 3.09629 29.509C2.6725 29.5168 2.46875 29.2279 2.46875 28.6032C2.46875 21.2787 2.46875 13.9463 2.46875 6.62175C2.46875 4.57587 3.77273 2.94386 5.78575 2.47534C6.16065 2.38944 6.56814 2.3504 6.95118 2.3504C16.2421 2.34259 25.5329 2.34259 34.8238 2.34259C37.4236 2.34259 39.3062 4.13078 39.3062 6.61394C39.3144 15.5315 39.3144 24.4412 39.3062 33.3587C39.3062 35.8419 37.4236 37.63 34.8238 37.63C30.1783 37.6379 25.5329 37.6379 20.8875 37.6379Z" fill="#A1C982"/>
<path d="M11.9795 5.20838C15.5492 5.22399 18.4506 8.04293 18.4424 11.4866C18.4342 14.8131 15.4269 17.6554 11.9225 17.6476C8.361 17.632 5.45964 14.8131 5.46779 11.3616C5.47594 8.0195 8.46695 5.19276 11.9795 5.20838ZM7.62751 14.3992C10.2762 12.0878 12.819 9.86235 15.4432 7.57441C14.8972 7.27768 14.4082 7.00438 13.9111 6.76231C13.8296 6.72326 13.6503 6.78573 13.5688 6.85601C11.3846 8.75352 9.20859 10.651 7.04072 12.5564C6.96737 12.6266 6.90217 12.7906 6.93477 12.8765C7.13852 13.3685 7.37486 13.8448 7.62751 14.3992ZM8.4914 15.2347C8.83369 15.4534 9.10264 15.6408 9.39603 15.8048C10.1051 16.1952 10.1051 16.1874 10.6919 15.672C10.8141 15.5627 10.9364 15.4612 11.0505 15.3597C12.9575 13.6964 14.8646 12.0332 16.7635 10.3621C16.8695 10.2684 16.9999 10.0576 16.9591 9.96387C16.7635 9.46411 16.519 8.97997 16.2664 8.44117C13.6421 10.7369 11.0994 12.9624 8.4914 15.2347ZM12.2485 6.41872C9.23304 6.20008 6.69027 8.67543 6.73917 11.2289C8.58104 9.62809 10.3822 8.05074 12.2485 6.41872ZM11.6454 16.4295C14.8565 16.6169 17.2118 14.0166 17.1629 11.6115C15.321 13.2123 13.5117 14.7896 11.6454 16.4295Z" fill="#A1C982"/>
<path d="M20.2754 19.4124C20.2754 19.2016 20.2754 19.0298 20.2754 18.8658C20.2754 15.1801 20.2754 11.5022 20.2754 7.8165C20.2754 7.18399 20.471 6.91069 20.9029 6.9185C21.3186 6.92631 21.4979 7.1918 21.4979 7.80869C21.4979 11.4944 21.4979 15.1723 21.4979 18.858C21.4979 19.022 21.4979 19.1938 21.4979 19.4046C21.7179 19.4046 21.8972 19.4046 22.0684 19.4046C25.9151 19.4046 29.7537 19.4046 33.6005 19.4046C34.2524 19.4046 34.5214 19.5686 34.5295 19.9746C34.5377 20.3885 34.2524 20.5759 33.5923 20.5759C29.7619 20.5759 25.9314 20.5759 22.101 20.5759C21.9298 20.5759 21.7505 20.5759 21.506 20.5759C21.506 20.7633 21.506 20.9273 21.506 21.0913C21.506 24.7613 21.506 28.4314 21.506 32.1015C21.506 32.2733 21.506 32.4451 21.4734 32.6091C21.4164 32.9058 21.2045 33.0542 20.8948 33.0542C20.5851 33.0542 20.3732 32.9058 20.3162 32.6091C20.2836 32.4451 20.2836 32.2733 20.2836 32.1015C20.2836 28.447 20.2836 24.7848 20.2836 21.1303C20.2836 20.9663 20.2836 20.7945 20.2836 20.5759C20.0717 20.5759 19.9005 20.5759 19.7294 20.5759C15.9152 20.5759 12.0929 20.5759 8.27878 20.5759C8.09948 20.5759 7.92018 20.5759 7.74904 20.5525C7.42304 20.4978 7.25189 20.287 7.26004 19.9746C7.26819 19.6623 7.44749 19.4671 7.77349 19.4202C7.92018 19.3968 8.07503 19.4046 8.22173 19.4046C12.0685 19.4046 15.9071 19.4046 19.7538 19.4046C19.9087 19.4124 20.0635 19.4124 20.2754 19.4124Z" fill="#A1C982"/>
<path d="M27.0486 5.45046C27.7006 5.43485 28.4097 5.61445 29.0616 5.95803C29.2735 6.06735 29.4284 6.08297 29.6484 5.96584C32.4601 4.54466 35.7527 6.23133 36.1276 9.2611C36.3721 11.1977 35.6386 12.8062 34.3509 14.2274C33.1855 15.5159 31.7348 16.4451 30.1619 17.2103C29.6647 17.4524 29.1268 17.4915 28.6297 17.2494C26.6737 16.2967 24.8889 15.1332 23.6501 13.3372C22.5743 11.7833 22.1831 10.1044 22.8351 8.29282C23.4708 6.5671 25.1008 5.45827 27.0486 5.45046ZM26.9427 6.62177C25.5979 6.60615 24.4488 7.41825 23.9924 8.73011C23.479 10.1981 23.862 11.5334 24.7341 12.7594C25.8343 14.2977 27.3909 15.305 29.0861 16.1327C29.2572 16.2186 29.5914 16.1796 29.7625 16.0703C30.6509 15.5471 31.5637 15.0473 32.3705 14.4226C33.7234 13.3763 34.7747 12.1035 34.9296 10.3621C35.0518 9.00341 34.6199 7.8165 33.3811 7.05124C32.183 6.31723 30.9687 6.51244 29.8196 7.21523C29.4854 7.41825 29.2083 7.41825 28.8823 7.20742C28.3037 6.8326 27.6517 6.62177 26.9427 6.62177Z" fill="#A1C982"/>
<path d="M30.8297 33.9599C28.6293 33.8819 26.6488 32.6637 25.1248 30.6959C24.1713 29.47 23.5926 28.0956 23.5763 26.5417C23.5519 23.5744 26.1599 21.3645 29.2405 21.7237C32.6553 22.1298 35.8012 25.058 36.3146 28.3299C36.8036 31.4221 34.5216 33.9678 30.8297 33.9599ZM30.9764 32.8199C33.5599 32.8121 35.1818 31.2269 35.141 29.0483C35.0921 26.0888 31.9707 23.0278 28.8819 22.9028C26.5347 22.8091 24.8233 24.2772 24.7744 26.4636C24.7418 28.1581 25.5323 29.5246 26.7059 30.7115C27.961 31.9453 29.4361 32.7574 30.9764 32.8199Z" fill="#A1C982"/>
<path d="M14.5391 22.2392C15.9491 22.3173 17.3346 23.0357 18.068 24.613C18.7934 26.1826 18.5326 27.6975 17.3101 28.9546C15.998 30.3056 14.6288 31.6096 13.227 32.8746C11.5889 34.3583 9.01353 34.2646 7.41615 32.7262C5.84322 31.2192 5.77802 28.7672 7.33465 27.1977C8.67123 25.8468 10.0567 24.5506 11.4503 23.2543C12.192 22.5515 13.1292 22.2236 14.5391 22.2392ZM7.43245 30.0947C7.48135 31.0942 8.02739 32 9.18467 32.492C10.3583 32.9917 11.4911 32.8356 12.4283 31.9766C13.7812 30.735 15.1015 29.4622 16.4055 28.1738C17.522 27.0649 17.465 25.3158 16.3403 24.2304C15.1993 23.1372 13.3574 23.0903 12.192 24.1757C10.8635 25.4095 9.56772 26.6667 8.27189 27.9239C7.71769 28.4705 7.4406 29.1342 7.43245 30.0947Z" fill="#A1C982"/>
<path d="M33.2094 27.5725C33.2176 28.1503 33.0301 28.5408 32.696 28.8687C32.3374 29.2201 31.9706 29.5715 31.6039 29.9229C31.5142 30.0088 31.4001 30.0791 31.3594 30.1806C31.2942 30.3446 31.286 30.532 31.2453 30.7116C31.4409 30.6804 31.6691 30.7038 31.8239 30.6023C32.0684 30.4461 32.2477 30.204 32.4678 30.0088C32.753 29.7589 33.0953 29.7433 33.348 29.9698C33.6006 30.1962 33.6006 30.5554 33.3317 30.8365C33.1116 31.063 32.8834 31.2894 32.6389 31.4925C32.1581 31.8985 31.5957 32.0625 30.9764 31.8829C29.8924 31.5705 29.6153 30.2743 30.4385 29.3919C30.8297 28.9781 31.2616 28.5954 31.6691 28.1972C31.775 28.0957 31.8973 27.9864 31.938 27.8614C31.9788 27.7443 31.9706 27.5491 31.8973 27.4788C31.8239 27.4085 31.6202 27.4241 31.4979 27.4632C31.3675 27.51 31.2534 27.6272 31.1475 27.7287C30.74 28.1113 30.3488 28.5095 29.925 28.8765C29.2486 29.4622 28.3521 29.5012 27.7327 29.0093C26.9911 28.408 26.9177 27.4085 27.5942 26.6901C27.9446 26.3153 28.3358 25.9639 28.7107 25.6047C28.784 25.5344 28.8737 25.4642 28.9389 25.3783C29.1182 25.1752 29.3138 24.9566 29.0367 24.6989C28.784 24.4646 28.5558 24.6364 28.3602 24.8082C28.1565 24.98 27.9853 25.1909 27.7735 25.3548C27.6431 25.4563 27.4719 25.5579 27.3171 25.5735C26.8688 25.6125 26.5102 25.0737 26.7792 24.7301C27.1785 24.2304 27.6186 23.7306 28.2787 23.512C28.9959 23.2777 29.705 23.5276 30.1369 24.1289C30.52 24.6677 30.4792 25.4485 29.9739 26.0186C29.6072 26.4324 29.1834 26.8072 28.784 27.1977C28.6781 27.2992 28.5232 27.3929 28.4906 27.51C28.4417 27.6818 28.4743 27.8848 28.4743 28.0723C28.6699 28.0644 28.8737 28.0957 29.053 28.041C29.1834 28.002 29.273 27.8614 29.379 27.7599C29.7865 27.3773 30.1695 26.9634 30.6096 26.6198C31.5468 25.8858 32.8019 26.1982 33.1279 27.2211C33.185 27.3695 33.2013 27.5256 33.2094 27.5725Z" fill="#A1C982"/>
</svg>
