<svg width="45" height="42" viewBox="0 0 45 42" fill="none" xmlns="http://www.w3.org/2000/svg">
<path d="M8.82921 41.1294C8.8204 40.9731 8.79397 40.8167 8.79397 40.6682C8.79397 32.5775 8.79397 24.4868 8.78516 16.404C8.78516 16.0835 8.88208 15.8333 9.09355 15.5832C9.71916 14.8484 10.3183 14.0901 10.9439 13.3162C11.314 13.5586 11.6488 13.7696 12.0101 14.0041C11.4286 14.7155 10.8646 15.3956 10.3271 16.0913C10.2126 16.2398 10.1245 16.4431 10.1245 16.6228C10.1157 24.307 10.1157 31.9912 10.1157 39.6754C10.1157 39.7536 10.1245 39.8318 10.1333 39.9334C17.6053 39.9334 25.0685 39.9334 32.567 39.9334C32.567 37.7211 32.567 35.5245 32.567 33.3045C33.0164 33.3045 33.4129 33.3045 33.8887 33.3045C33.8887 33.453 33.8887 33.6094 33.8887 33.7579C33.8887 36.0639 33.8887 38.37 33.8887 40.676C33.8887 40.8323 33.9152 40.9809 33.9328 41.1372C25.5708 41.1294 17.2 41.1294 8.82921 41.1294Z" fill="#A1C982"/>
<path d="M11.3318 6.91403C10.9352 6.09324 10.8559 5.27245 11.0586 4.43602C11.3934 3.06803 12.6623 2.16125 14.3981 1.95019C15.9313 1.7704 17.3059 2.1378 18.6099 2.78662C19.3237 3.1462 20.0021 3.56051 20.7423 3.97481C20.7423 3.02895 20.7423 2.0909 20.7423 1.12939C21.2005 1.12939 21.6058 1.12939 22.0728 1.12939C22.0728 2.05963 22.0728 3.00549 22.0728 4.04517C22.2843 3.90446 22.4164 3.82629 22.5398 3.74812C23.7558 2.98204 25.007 2.29414 26.4873 2.00491C27.6063 1.78603 28.7166 1.87983 29.7651 2.27851C31.5538 2.95077 32.3645 4.7487 31.6948 6.51536C31.6507 6.64044 31.5979 6.75769 31.5362 6.91403C33.3161 7.91462 34.9374 9.08718 36.4265 10.4552C36.1093 10.7131 35.7921 10.9555 35.4573 11.2212C35.0519 10.8851 34.629 10.4864 34.1532 10.1503C33.1134 9.4155 32.0384 8.70414 30.9723 8.00061C30.8665 7.93025 30.6286 7.9068 30.5229 7.96934C28.8487 8.89175 27.0953 8.94647 25.3418 8.26639C24.2933 7.8599 23.3416 7.25017 22.346 6.72642C22.3019 6.70297 22.249 6.6717 22.1433 6.6248C22.1433 7.63321 22.1433 8.61034 22.1433 9.61874C22.3107 9.61874 22.4693 9.61874 22.6279 9.61874C24.5664 9.61874 26.5049 9.62656 28.4434 9.61093C28.7254 9.61093 28.8928 9.6891 29.0514 9.89234C30.6198 11.831 32.1971 13.754 33.7655 15.6926C33.8888 15.849 33.9769 16.0678 33.9769 16.2633C33.9858 21.3991 33.9858 26.5271 33.9858 31.6629C33.9858 31.7802 33.9681 31.8896 33.9593 32.0303C33.5276 32.0303 33.1311 32.0303 32.6641 32.0303C32.6641 31.8583 32.6641 31.6864 32.6641 31.5222C32.6641 26.6131 32.6641 21.7039 32.6729 16.787C32.6729 16.4665 32.5759 16.2164 32.3645 15.9662C31.0251 14.3481 29.7034 12.7221 28.3905 11.0962C28.2231 10.8851 28.0469 10.7913 27.7473 10.7991C26.0115 10.8148 24.2845 10.8069 22.5486 10.8069C22.4164 10.8069 22.2931 10.8069 22.0992 10.8069C22.0992 11.2838 22.0816 11.7372 22.1169 12.1827C22.1257 12.2766 22.3283 12.3938 22.4693 12.4407C23.5972 12.8628 24.2668 13.6055 24.3638 14.692C24.4607 15.7082 24.0025 16.5369 23.0421 17.0919C22.0287 17.6782 20.9626 17.7016 19.9228 17.1466C18.9007 16.6072 18.4161 15.7708 18.4954 14.7233C18.5747 13.6524 19.2179 12.8863 20.3282 12.4876C20.707 12.3547 20.804 12.1906 20.7775 11.8701C20.7511 11.5339 20.7687 11.1978 20.7687 10.8382C20.6013 10.8304 20.4779 10.8148 20.3546 10.8148C18.5923 10.8148 16.83 10.8226 15.0678 10.8069C14.8034 10.8069 14.6448 10.8773 14.4862 11.0649C13.9664 11.7215 13.4289 12.3704 12.8737 13.0583C12.5125 12.8237 12.1688 12.6127 11.7988 12.3782C12.5213 11.487 13.2174 10.6193 13.9399 9.77508C14.0192 9.68128 14.2483 9.65001 14.4069 9.65001C16.3454 9.64219 18.2839 9.64219 20.2224 9.64219C20.381 9.64219 20.5396 9.64219 20.7423 9.64219C20.7423 8.64161 20.7423 7.66447 20.7423 6.63262C20.2312 6.93749 19.773 7.23453 19.2884 7.4925C17.9315 8.23512 16.5216 8.81358 14.8739 8.70414C13.984 8.64943 13.1293 8.46963 12.3979 7.99279C12.1688 7.84427 12.0279 7.93025 11.8516 8.03188C10.3889 8.82922 9.06724 9.79854 7.83365 10.8695C7.68385 10.9945 7.56049 11.1431 7.40189 11.3072C7.05825 11.0102 6.74985 10.76 6.42383 10.4708C7.90414 9.11063 9.5078 7.93025 11.3318 6.91403ZM12.5301 6.3043C14.6272 5.33498 16.8389 4.69398 19.2355 4.52982C18.5659 4.13897 17.905 3.79502 17.2089 3.49797C16.3278 3.12275 15.4026 3.01331 14.4245 3.1462C12.6535 3.3729 11.7018 4.90504 12.5301 6.3043ZM23.6412 4.49856C24.8043 4.70962 25.9674 4.84251 27.0777 5.13174C28.2055 5.42879 29.2805 5.86654 30.3731 6.24958C30.9811 4.9285 30.3467 3.59959 28.9016 3.23219C26.8486 2.71626 25.2185 3.55269 23.6412 4.49856ZM21.4648 13.4491C20.5484 13.4335 19.8083 14.0745 19.7995 14.8796C19.7907 15.6692 20.5044 16.3258 21.3943 16.3414C22.3019 16.3571 23.0597 15.7082 23.0685 14.9031C23.0773 14.1214 22.3548 13.4647 21.4648 13.4491ZM29.3245 7.19545C27.624 6.29648 24.1523 5.55386 23.2447 5.85091C25.3506 7.38306 27.8266 7.94589 29.3245 7.19545ZM13.4993 7.18763C15.1118 7.96152 18.1077 7.2658 19.6497 5.76492C17.4468 5.78837 15.4643 6.31994 13.4993 7.18763Z" fill="#A1C982"/>
<path d="M20.6714 30.6545C20.6714 29.951 20.6802 29.3647 20.6626 28.7706C20.6626 28.6924 20.5128 28.5752 20.4247 28.5595C17.8606 28.1921 16.3362 26.0972 17.1645 23.3846C17.5346 22.173 18.2307 21.1255 19.429 20.4063C20.6626 19.6637 22.0813 19.6793 23.306 20.422C25.174 21.5476 26.2138 24.1273 25.5529 26.0424C25.0771 27.4261 23.9757 28.2312 22.3985 28.5205C22.0813 28.5752 21.9843 28.6768 22.002 28.9504C22.0284 29.4429 22.0108 29.9353 22.0108 30.5294C24.4251 28.3719 27.183 28.1531 30.2582 29.0051C28.5135 31.9991 25.923 33.539 22.0196 33.0465C22.0196 33.5937 22.0196 34.094 22.0196 34.6178C21.5614 34.6178 21.1649 34.6178 20.7067 34.6178C20.7067 34.1175 20.7067 33.6172 20.7067 33.0544C16.7592 33.5937 14.1158 32.0772 12.3535 29.052C13.8338 28.583 15.3053 28.4501 16.8121 28.6846C18.3012 28.9191 19.526 29.6149 20.6714 30.6545ZM18.5303 23.2908C18.4334 23.6973 18.3364 24.01 18.2836 24.3305C18.0457 25.8079 18.8299 26.9805 20.3278 27.3244C20.7596 27.4261 21.2266 27.4182 21.6759 27.4417C22.328 27.473 22.5923 27.0665 22.795 26.6131C22.9976 26.1675 22.9007 25.7376 22.4778 25.4483C22.1077 25.1982 21.6936 24.995 21.253 24.8542C20.2485 24.5416 19.3057 24.1429 18.5303 23.2908ZM22.5218 31.874C24.4163 32.3274 27.1214 31.319 28.0906 29.8103C26.2755 29.3334 23.4558 30.3731 22.5218 31.874ZM20.0106 31.8974C19.2616 30.4669 16.0279 29.2787 14.4594 29.865C15.7988 31.4909 18.2483 32.3899 20.0106 31.8974ZM21.3675 23.6191C23.2796 24.2836 23.5616 24.4947 24.2136 25.7688C24.7159 24.823 24.24 23.1892 23.5968 22.3997C23.5439 22.3371 23.3589 22.3293 23.2532 22.3528C22.4425 22.5404 21.8962 23.0251 21.3675 23.6191ZM20.0723 23.0172C20.8389 22.4231 21.5614 21.8525 22.2751 21.2975C21.7112 20.9301 20.9446 20.9379 20.1956 21.3678C19.1559 21.9463 19.1383 22.384 20.0723 23.0172Z" fill="#A1C982"/>
<path d="M18.002 37.4241C18.002 37.0489 18.002 36.6893 18.002 36.3063C18.4337 36.3063 18.8478 36.3063 19.2796 36.3063C19.2796 36.6737 19.2796 37.0333 19.2796 37.4241C18.8831 37.4241 18.469 37.4241 18.002 37.4241Z" fill="#A1C982"/>
<path d="M20.6455 37.4319C20.6455 37.0489 20.6455 36.6971 20.6455 36.3141C21.0685 36.3141 21.4826 36.3141 21.9232 36.3141C21.9232 36.6737 21.9232 37.0411 21.9232 37.4319C21.509 37.4319 21.0949 37.4319 20.6455 37.4319Z" fill="#A1C982"/>
<path d="M23.3145 36.2828C23.4642 36.2828 23.5876 36.2828 23.7198 36.2828C23.9929 36.2828 24.2661 36.2828 24.5745 36.2828C24.5745 36.6815 24.5745 37.0411 24.5745 37.4319C24.1603 37.4319 23.755 37.4319 23.3145 37.4319C23.3145 37.0802 23.3145 36.7128 23.3145 36.2828Z" fill="#A1C982"/>
</svg>
