<?xml version="1.0" encoding="utf-8"?><svg viewBox="0 0 25 24" xmlns="http://www.w3.org/2000/svg" xmlns:xlink="http://www.w3.org/1999/xlink"><style>:root>svg{display:none}:root>svg:target{display:block}</style><svg viewBox="0 0 25 24" id="icon-arr" xmlns="http://www.w3.org/2000/svg"><path d="M5.465 12H19.6m-7.067-7l7.068 7-7.068 7"/></svg><svg viewBox="0 0 25 24" id="icon-arr-r" xmlns="http://www.w3.org/2000/svg"/><svg viewBox="0 0 25 24" id="icon-arrow-right" xmlns="http://www.w3.org/2000/svg"><path d="M5.465 12H19.6m-7.067-7l7.068 7-7.068 7"/></svg><svg viewBox="0 0 20 22" id="icon-cart" xmlns="http://www.w3.org/2000/svg"><path fill-rule="evenodd" clip-rule="evenodd" d="M3.2.4A1 1 0 014 0h12a1 1 0 01.8.4l3 4a1 1 0 01.2.6v14a3 3 0 01-3 3H3a3 3 0 01-3-3V5a1 1 0 01.2-.6l3-4zM4.5 2L2 5.333V19a1 1 0 001 1h14a1 1 0 001-1V5.333L15.5 2h-11z"/><path fill-rule="evenodd" clip-rule="evenodd" d="M0 5a1 1 0 011-1h18a1 1 0 110 2H1a1 1 0 01-1-1zm6 3a1 1 0 011 1 3 3 0 106 0 1 1 0 112 0A5 5 0 115 9a1 1 0 011-1z"/></svg><svg viewBox="0 0 20 18" id="icon-heart" xmlns="http://www.w3.org/2000/svg"><path fill-rule="evenodd" clip-rule="evenodd" d="M12.15.44a5.585 5.585 0 014.345 0 5.67 5.67 0 011.842 1.254 5.794 5.794 0 011.23 1.877 5.878 5.878 0 010 4.427 5.791 5.791 0 01-1.23 1.877l-7.72 7.864a.862.862 0 01-1.235 0l-7.72-7.864A5.84 5.84 0 010 5.785a5.84 5.84 0 011.663-4.09A5.625 5.625 0 015.677 0c1.506 0 2.95.61 4.015 1.695l.308.314.308-.314A5.671 5.671 0 0112.15.44zm2.172 1.34a3.872 3.872 0 00-2.779 1.173l-.926.943a.862.862 0 01-1.235 0l-.925-.943a3.894 3.894 0 00-2.78-1.173 3.894 3.894 0 00-2.78 1.173 4.043 4.043 0 00-1.15 2.832c0 1.062.414 2.08 1.15 2.831L10 15.852l7.102-7.236a4.01 4.01 0 00.852-1.299 4.069 4.069 0 000-3.065 4.01 4.01 0 00-.852-1.299 3.927 3.927 0 00-1.276-.869 3.866 3.866 0 00-1.504-.305z"/></svg><svg viewBox="0 0 18 18" id="icon-search" xmlns="http://www.w3.org/2000/svg"><path fill-rule="evenodd" clip-rule="evenodd" d="M8.118 2.118a6 6 0 100 12 6 6 0 000-12zM0 8.118a8.118 8.118 0 1116.235 0A8.118 8.118 0 010 8.118z"/><path fill-rule="evenodd" clip-rule="evenodd" d="M12.354 12.354a1.059 1.059 0 011.498 0l3.838 3.838a1.059 1.059 0 11-1.498 1.498l-3.838-3.838a1.059 1.059 0 010-1.498z"/></svg><svg viewBox="0 0 24 20" id="icon-user" xmlns="http://www.w3.org/2000/svg"><path fill-rule="evenodd" clip-rule="evenodd" d="M1.464 13.464A5 5 0 015 12h7a5 5 0 015 5v2a1 1 0 11-2 0v-2a3 3 0 00-3-3H5a3 3 0 00-3 3v2a1 1 0 11-2 0v-2a5 5 0 011.464-3.536zM8.5 2a3 3 0 100 6 3 3 0 000-6zm-5 3a5 5 0 1110 0 5 5 0 01-10 0zm20.207 1.293a1 1 0 010 1.414l-4 4a1 1 0 01-1.414 0l-2-2a1 1 0 011.414-1.414L19 9.586l3.293-3.293a1 1 0 011.414 0z"/></svg></svg>