<?xml version="1.0" encoding="utf-8"?><svg viewBox="0 0 25 24" xmlns="http://www.w3.org/2000/svg" xmlns:xlink="http://www.w3.org/1999/xlink"><style>:root>svg{display:none}:root>svg:target{display:block}</style><svg viewBox="0 0 25 24" id="icon-arr" xmlns="http://www.w3.org/2000/svg"><path d="M5.465 12H19.6m-7.067-7l7.068 7-7.068 7"/></svg><svg viewBox="0 0 25 24" id="icon-arr-r" xmlns="http://www.w3.org/2000/svg"/><svg viewBox="0 0 25 24" id="icon-arrow-right" xmlns="http://www.w3.org/2000/svg"><path d="M5.465 12H19.6m-7.067-7l7.068 7-7.068 7"/></svg><svg viewBox="0 0 25 24" id="icon-cart" xmlns="http://www.w3.org/2000/svg"><path d="M6.475 2l-3.03 4v14c0 .53.213 1.04.592 1.414A2.03 2.03 0 005.465 22H19.6c.536 0 1.05-.21 1.428-.586A1.99 1.99 0 0021.62 20V6l-3.029-4H6.475zm-3.03 4H21.62"/><path d="M16.572 10a3.98 3.98 0 01-1.183 2.828A4.059 4.059 0 0112.533 14a4.059 4.059 0 01-2.856-1.172A3.98 3.98 0 018.494 10"/></svg><svg viewBox="0 0 25 21" id="icon-heart" xmlns="http://www.w3.org/2000/svg"><path d="M21.459 2.61a5.557 5.557 0 00-1.802-1.193 5.6 5.6 0 00-6.054 1.193l-1.07 1.06-1.07-1.06A5.583 5.583 0 007.535.999c-1.473 0-2.886.58-3.928 1.611A5.475 5.475 0 001.98 6.5c0 1.459.585 2.858 1.627 3.89l1.07 1.06 7.856 7.78 7.856-7.78 1.07-1.06a5.495 5.495 0 001.204-1.785A5.453 5.453 0 0021.46 2.61z"/></svg><svg viewBox="0 0 22 22" id="icon-search" xmlns="http://www.w3.org/2000/svg"><path d="M10.083 17.417a7.333 7.333 0 100-14.667 7.333 7.333 0 000 14.667zm9.167 1.833l-3.987-3.988"/></svg><svg viewBox="0 0 22 22" id="icon-user" xmlns="http://www.w3.org/2000/svg"><g clip-path="url(#ga)" stroke-width="2" stroke-linecap="round" stroke-linejoin="round"><path d="M14.666 19.25v-1.833A3.667 3.667 0 0011 13.75H4.583a3.667 3.667 0 00-3.666 3.667v1.833m6.875-9.167a3.667 3.667 0 100-7.333 3.667 3.667 0 000 7.333zm7.792 0l1.833 1.834 3.666-3.667"/></g><defs><clipPath id="ga"><path d="M0 0h22v22H0z"/></clipPath></defs></svg></svg>